<?xml version="1.0" encoding="utf-8" ?>
<svg xmlns="http://www.w3.org/2000/svg" xmlns:xlink="http://www.w3.org/1999/xlink" width="614" height="491">
	<path fill="#282829" transform="scale(0.48 0.48)" d="M632.641 706.204C634.254 704.811 634.414 703.748 634.57 701.647C635.479 689.397 634.432 676.478 634.415 664.147L634.447 521.942L634.446 479.676C634.395 471.226 633.974 462.62 634.367 454.183C634.526 450.781 634.736 447.022 636.616 444.102L637.865 443.565C639.244 444.15 639.7 444.653 640.26 446.078C642.702 452.297 640.985 478.641 640.974 486.604L641.07 633.567C641.084 646.047 639.277 699.012 642.235 706.833C638.983 707.333 635.635 707.889 632.641 706.204Z"/>
	<path fill="#282829" transform="scale(0.48 0.48)" d="M891.581 62.0398C893.307 61.8075 895.235 61.5171 896.953 61.948C898.425 62.3172 899.33 62.5887 900.106 63.8714C898.925 65.9201 896.066 66.9942 893.914 67.8322C882.303 72.3536 869.319 75.1822 857.3 78.497Q823.843 87.5426 790.523 97.0829C790.528 109.981 789.158 207.561 791.716 214.676L792.945 215.026C801.894 209.532 791.592 150.929 797.395 142.107C800.372 137.583 850.19 127.796 856.656 128.298C871.198 129.426 885.032 137.134 899.872 135.687C910.574 134.643 921.352 130.887 931.729 128.103Q949.447 123.437 967.252 119.113C966.921 113.294 965.191 102.697 967.958 97.5892C969.88 94.0414 973.969 92.6876 977.64 91.7603C984.702 89.9765 989.145 90.0916 995.484 93.9133C988.502 96.8232 981.076 98.2678 973.72 99.8915L973.771 175.747L1006.1 169.312C1012.14 168.104 1018.61 167.253 1024.41 165.191C1024.71 164.821 1024.84 164.696 1025.07 164.224C1027.17 159.991 1026.23 120.749 1024.65 115.794C1024.69 115.698 1024.75 115.606 1024.78 115.506C1025.23 114.181 1025.49 113.275 1026.28 112.076C1027.73 111.434 1027.74 111.347 1029.26 111.764C1030.05 112.645 1030.66 113.366 1031.08 114.497C1033.31 120.445 1033.91 158.01 1031.6 163.634C1047.58 161.701 1068.72 155.983 1084.89 152.315C1087.68 153.527 1090.52 154.607 1091.94 157.494Q1090.08 158.409 1088.08 158.982C1075.13 162.783 1061.06 164.296 1047.8 167.002L960.944 185.292L822.859 215.407L784.802 223.375C777.725 224.846 770.413 226.785 763.22 227.465C761.973 227.583 761.078 227.661 759.921 227.043C758.875 224.556 758.787 221.528 758.665 218.858C757.927 202.671 758.767 186.226 758.777 170.01C758.791 146.594 758.194 123.121 758.995 99.7185C785.208 91.1309 812.088 84.425 838.626 76.8945C856.109 71.9334 873.769 65.5756 891.581 62.0398ZM964.107 126.335C942.469 131.837 920.595 136.776 899.034 142.51C899.616 153.282 896.738 183.771 899.87 191.512L901.438 191.773C923.454 187.124 945.724 182.783 967.518 177.191L967.59 143.823C967.601 138.248 968.18 132.029 967.232 126.544C966.02 125.996 965.398 126.107 964.107 126.335ZM846.854 135.795C832.149 139.213 817.476 142.905 802.729 146.119C802.7 153.895 801.741 209.94 803.724 212.251L805.11 212.107C819.731 208.982 834.379 205.463 849.091 202.832C849.097 196.879 849.934 137.258 848.755 135.712L846.854 135.795ZM783.159 99.5025C777.295 101.035 771.36 102.442 765.609 104.364C765.596 116.995 764.597 216.701 765.924 219.738L767.08 219.864Q775.975 218.47 784.788 216.632C784.261 206.278 784.54 195.796 784.516 185.426L784.403 131.907C784.385 122.29 785.562 109.059 783.791 99.9735L783.159 99.5025ZM855.625 135.075L855.565 201.521Q871.345 197.924 887.215 194.749L893.165 193.472Q892.84 167.76 892.832 142.045C880.513 139.528 868.117 136.575 855.625 135.075Z"/>
	<path fill="#282829" transform="scale(0.48 0.48)" d="M1111.58 177.231C1114.72 177.878 1116.14 179.765 1117.85 182.332C1116.35 183.458 1113.99 183.899 1112.17 184.315C1077.66 192.223 1042.57 198.359 1007.88 205.556L789.61 250.99C790.167 262.379 789.749 273.988 789.767 285.4C789.811 312.839 789.519 340.335 790.263 367.765C810.648 365.373 831.109 364.11 851.382 360.751C851.679 341.692 851.461 322.571 851.296 303.508C851.199 292.308 850.621 281.031 851.585 269.862C868.092 263.952 925.911 254.275 943.482 255.725C957.715 256.9 972.331 261.496 986.415 264.193C986.355 260.938 986.067 257.346 986.601 254.125C986.876 252.47 987.373 250.863 988.862 249.945C992.898 247.456 1000.22 246.819 1004.98 245.801C1015.34 243.589 1026.26 241.175 1036.86 240.717C1053.12 240.014 1073.54 244.595 1089.23 248.7C1090.85 242.571 1091.67 229.185 1089.06 223.547C1099.93 222.216 1110.77 220.249 1121.52 218.209C1128.21 216.941 1136.37 214.454 1143.11 214.684C1144.95 214.746 1146.94 215.856 1148.06 217.305C1148.77 218.225 1148.56 218.112 1148.39 219.143C1143.84 222.785 1104.18 227.91 1095.96 228.944C1097.11 238.562 1097.42 328.578 1095.42 332.911C1112.98 331.793 1130.59 329.228 1148.06 327.164C1159.3 325.836 1171.62 325.276 1182.59 322.549C1182.96 322.032 1183.26 321.605 1183.43 320.986C1185.4 313.892 1184.17 280.957 1180.97 274.138C1181.03 274.376 1181.09 274.612 1181.15 274.851C1181.84 277.958 1181.46 280.056 1179.76 282.732C1174.35 287.176 1132.54 293.228 1123.02 293.638C1120.5 294.512 1116.35 294.974 1113.64 294.825C1111.71 294.717 1111.02 294.663 1109.7 293.273C1107.88 287.734 1107.2 249.132 1109.46 244.669C1110.62 242.39 1112.94 241.109 1115.3 240.365C1119.92 238.907 1125.28 238.727 1130.07 237.899C1137.81 236.557 1145.78 234.161 1153.6 233.659C1155.73 233.522 1156.76 233.501 1158.68 234.524C1159.48 236.071 1159.53 236.119 1159.23 237.824C1156.15 241.273 1120.14 246.263 1113.26 247.084C1113.84 247.926 1114.18 248.657 1114.37 249.652C1115.6 256.104 1116.69 283.343 1113.25 288.406C1121.31 288.18 1168.35 281.831 1173.77 278.421C1174.56 277.182 1175.06 276.033 1175.32 274.581C1176.03 270.664 1176.07 264.039 1173.76 260.688C1174.52 261.16 1175.26 261.656 1175.94 262.245C1182.38 267.88 1189.93 288.017 1190.48 296.502C1190.88 302.798 1192.56 316.968 1188.25 321.927C1191.78 321.975 1198.03 320.04 1200.98 321.137C1202.56 321.725 1202.84 322.603 1203.5 324.053C1202.54 325.821 1201.48 326.256 1199.56 326.905C1191.41 329.657 1180.46 329.601 1171.83 330.553L1126.2 335.941L888.071 363.309L808.616 372.438C794.214 374.1 779.427 376.596 764.966 377.078C762.991 377.144 761.588 376.944 759.819 376.07C757.734 372.79 758.559 265.335 758.849 250.405C772.146 246.888 786.114 244.987 799.611 242.26L884.272 224.895L1023.19 195.881C1052.66 189.644 1082.03 183.063 1111.58 177.231ZM1038.81 247.231C1042.24 253.214 1041.16 283.267 1039.1 290.5C1038.87 291.29 1038.87 291.258 1038.6 291.894C1034.46 295.627 1021.18 297.785 1015.85 297.432C1013.97 297.308 1012.77 297.017 1011.29 295.859C1006.77 288.514 1009.02 261.991 1009.28 251.994C1003.89 252.887 998.475 253.702 993.106 254.72C992.883 265.69 990.867 340.446 993.157 344.251C994.081 344.324 994.847 344.391 995.77 344.268L1059.81 337.341C1069.11 336.27 1079.29 335.822 1088.4 333.701C1089.13 332.553 1089.58 331.381 1089.74 330.029C1091.59 314.54 1090.56 294.39 1090.39 278.581C1090.32 271.883 1090.98 263.79 1089.77 257.259C1089.62 256.461 1089.33 255.794 1088.94 255.084C1078.04 251.408 1050.48 246.342 1038.81 247.231ZM934.776 262.215Q922.303 263.566 909.874 265.28C909.979 272.226 911.787 306.001 907.786 309.889C904.656 312.93 890.3 315.497 885.841 315.052C884.318 314.899 882.891 314.66 882.029 313.261C878.289 307.194 880.693 278.5 880.585 270.21C872.848 271.259 865.171 272.378 857.508 273.887L857.559 317.89L857.533 360.18C883.877 356.692 910.605 355.306 936.854 351.336C936.91 340.29 938.377 265.35 936.128 262.323L934.776 262.215ZM943.503 262.259C942.747 291.605 943.133 321.044 943.139 350.403Q962.26 348.181 981.402 346.153C983.076 345.862 984.881 345.888 986.119 344.697C987.166 336.442 986.791 327.684 986.771 319.347C986.732 303.205 986.299 287.06 986.367 270.92Q965.031 266.115 943.503 262.259ZM782.026 252.739L765.344 255.94Q765.522 295.239 765.177 334.537C765.12 343.805 763.455 361.92 765.627 370.17L766.312 370.813L783.664 368.64L783.656 284.31C783.618 276.598 784.696 259.45 782.826 252.988L782.026 252.739ZM1029.72 247.847Q1022.69 249.574 1015.58 250.972C1015.46 257.514 1013.79 285.755 1016.34 290.167L1017.75 290.425C1022.35 289.918 1027.88 289.823 1032.24 288.247C1035.1 283.985 1035.23 255.237 1034.04 249.237C1033.92 248.602 1033.83 248.463 1033.6 247.942C1032.18 247.697 1031.15 247.682 1029.72 247.847ZM900.81 267.197Q893.547 268.184 886.272 269.085C886.577 279.539 884.652 298.25 887.255 307.517C888.23 308.272 888.264 308.158 889.514 308.068L903.143 306.161C903.247 299.88 904.798 271.309 902.26 267.225L900.81 267.197Z"/>
	<path fill="#282829" transform="scale(0.48 0.48)" d="M1194.7 352.896Q1199.7 352.515 1204.71 352.327C1206.69 352.269 1208.53 352.179 1210.07 353.626C1210.43 355.321 1210.32 355.319 1209.49 356.865C1206.36 359.314 1199.62 359.179 1195.61 359.639C1173.88 362.126 1152.08 363.945 1130.33 366.238L938.476 386.375L844.196 396.337C826.135 398.387 808.051 401.257 789.941 402.719C789.982 445.852 789.297 488.946 789.973 532.088L804.989 531.408L805.006 480.391C804.95 468.996 804.491 457.542 805.143 446.161C821.812 442.519 847.757 441.549 865.348 440.366C884.529 439.077 904.348 436.94 923.566 437.418C931.416 437.613 939.37 438.971 947.144 440.029C947.752 437.722 948.122 435.421 949.708 433.568C958.592 430.755 989.044 429.977 1000.48 429.084L1056.14 424.708C1067.46 423.822 1079.04 422.427 1090.4 422.641C1100.22 422.826 1152.63 429.787 1159.88 432.871C1160.35 433.611 1160.74 434.247 1160.95 435.106C1162.34 440.794 1162.19 489.446 1160.43 492.932C1160.75 493.521 1161.13 494.134 1161.33 494.779C1162.72 499.385 1162.53 512.902 1160.28 517.295C1169.22 516.914 1202.44 514.11 1208.37 518.252C1208.56 519.176 1208.78 519.093 1208.27 519.734C1207.58 520.586 1206.68 521.102 1205.7 521.552C1202.99 522.796 1199.42 522.821 1196.48 522.972C1184.5 523.587 1172.44 523.366 1160.45 523.714L1083.75 526.445L770.539 539.336C767.11 539.486 762 540.036 759.326 537.58C756.71 525.651 758.503 509.873 758.468 497.396Q758.122 449.063 758.541 400.732C772.243 396.608 787.899 396.364 802.149 394.801Q841.056 390.336 880.012 386.322L1086.27 364.751C1122.39 360.92 1158.72 357.797 1194.7 352.896ZM1077.92 493.568L953.672 501.128L953.638 525.349L963.753 525.119C991.386 523.521 1019.1 522.782 1046.77 521.707C1059.9 521.196 1073.21 521.11 1086.29 519.866C1089.53 514.845 1088.78 501.907 1087.54 496.212C1087.28 495.02 1087.04 494.196 1086.27 493.22L1077.92 493.568ZM1075.71 461.099C1060.17 463.175 1044.31 463.502 1028.68 464.729C1003.82 466.679 978.684 469.31 953.742 469.588L954.219 494.44C957.631 494.154 961.043 493.819 964.468 493.751Q1009.21 491.361 1053.92 488.4C1063.37 487.831 1077.52 488.646 1086.31 486.288C1089.17 481.914 1088.58 469.093 1087.61 463.928C1087.39 462.728 1086.96 461.597 1086.43 460.503C1082.82 460.547 1079.29 460.674 1075.71 461.099ZM1074.58 429.777C1064.1 431.137 1053.4 431.363 1042.86 432.237C1013.36 434.684 983.793 436.611 954.316 439.247C954.252 447.083 954.079 454.938 954.381 462.771L968.281 462.525C994.077 460.929 1019.8 458.539 1045.57 456.729C1058.95 455.789 1073.39 456.112 1086.55 453.936C1089.35 449.991 1088.75 436.926 1087.81 432.21C1087.58 431.032 1087.22 430.035 1086.46 429.095L1074.58 429.777ZM906.806 503.52Q859.062 505.083 811.372 507.84L811.419 530.81C816.2 530.694 821.016 530.69 825.779 530.239Q873.549 528.741 921.3 526.731L921.355 503.096C916.509 503.212 911.645 503.246 906.806 503.52ZM910.412 444.221Q860.841 447.145 811.316 450.76L811.399 472.734C814.253 472.609 817.253 472.67 820.081 472.338L920.749 466.851L920.698 443.631C917.284 443.799 913.806 443.845 910.412 444.221ZM914.063 473.495Q879.706 475.906 845.303 477.553C834.06 478.137 822.477 478.121 811.312 479.434C811.185 484.754 809.039 495.947 812.472 499.917C813.347 500.928 814.189 501.355 815.509 501.48C816.848 501.608 818.389 501.384 819.732 501.288C853.303 498.276 887.269 498.034 920.937 496.37C921.215 488.609 921.676 480.958 920.354 473.263L914.063 473.495ZM780.439 404.115Q772.712 404.885 764.996 405.757L764.912 490.617C764.943 503.734 763.716 519.315 765.682 532.179C767 533.035 768.453 532.763 769.953 532.697Q776.685 532.457 783.412 532.106L783.445 451.409C783.488 442.069 785.273 411.655 783.026 404.474C781.903 403.708 781.736 403.984 780.439 404.115ZM1092.71 461.046C1095.14 466.277 1095.05 479.281 1092.99 484.786C1092.75 485.422 1092.48 485.902 1092.13 486.489C1101.15 487.495 1147.43 493.95 1152.71 492.309C1155.37 489.863 1155.31 484.765 1155.44 481.345C1155.57 477.937 1155.86 471.731 1153.94 468.764C1143.56 465.872 1102.82 459.903 1092.71 461.046ZM1092.63 429.789C1095.46 434.118 1094.57 446.8 1093.4 451.883C1093.19 452.792 1092.88 453.474 1092.48 454.314C1105.02 455.247 1144.43 463.249 1152.79 461.677C1155.8 458.507 1155.56 453.338 1155.44 449.117C1155.35 445.832 1155.49 440.557 1153.32 437.874C1142.23 435.35 1102.22 428.226 1092.63 429.789ZM1092.53 493.554C1095.47 498.643 1094.57 512.221 1093.13 517.885Q1092.88 518.888 1092.53 519.861C1112.09 519.489 1131.64 518.356 1151.19 517.702C1153.15 517.442 1153.52 517.629 1154.92 516.131C1156.05 512.153 1156.38 503.664 1154.36 500.02C1148.35 496.205 1100.29 492.522 1092.53 493.554ZM926.917 444.268L926.9 466.978C933.754 467.781 940.697 468.463 947.492 469.68L947.518 446.651C940.778 445.626 933.74 444.277 926.917 444.268ZM926.923 473.656L926.93 496.445C933.763 497.141 940.779 497.691 947.518 499.018L947.568 476.088Q937.229 475.008 926.923 473.656ZM927.498 503.32L927.494 526.483L947.516 525.725L947.514 505.58C940.875 504.33 934.226 503.835 927.498 503.32Z"/>
	<path fill="#282829" transform="scale(0.48 0.48)" d="M905.634 482.209C906.1 482.393 906.572 482.565 907.025 482.777C908.673 483.55 909.216 484.346 909.85 486.016C909.51 488.201 908.611 489.363 907.292 491.103C906.824 490.87 906.35 490.644 905.899 490.379C904.29 489.43 903.612 488.507 903.168 486.718C903.508 484.6 904.192 483.763 905.634 482.209Z"/>
	<path fill="#282829" transform="scale(0.48 0.48)" d="M881.696 482.884C884.123 482.432 887.718 482.278 890.009 483.2C891.438 483.775 893.388 484.504 893.977 485.949C893.854 486.112 893.752 486.293 893.608 486.438C889.186 490.877 855.519 490.792 847.656 491.265C844.672 491.471 837.351 492.641 834.915 490.454C833.737 489.396 833.783 489.045 833.752 487.574C838.318 482.802 872.871 483.513 881.696 482.884Z"/>
	<path fill="#282829" transform="scale(0.48 0.48)" d="M904.361 452.92C904.536 452.94 904.711 452.951 904.885 452.979C906.919 453.312 908.216 453.716 909.494 455.372C909.963 457.529 909.316 458.743 908.449 460.715C906.309 460.385 905.313 460.056 903.797 458.505C903.193 456.534 903.845 454.835 904.361 452.92Z"/>
	<path fill="#282829" transform="scale(0.48 0.48)" d="M887.655 453.556C889.279 453.432 889.82 453.711 891.18 454.48C891.968 456.002 891.971 456.294 891.875 458.018C886.769 462.357 846.777 462.19 837.388 463.242C837.146 463.181 836.903 463.124 836.662 463.057C835.116 462.628 833.132 461.724 832.343 460.282L832.726 459.249C839.695 454.578 876.866 454.192 887.655 453.556Z"/>
	<path fill="#282829" transform="scale(0.48 0.48)" d="M903.573 512.344C905.865 512.385 907.793 512.423 909.494 514.109C910.166 516.039 909.734 517.273 909.205 519.199C906.967 519.513 905.792 519.488 903.947 518.131C903.062 516.101 903.341 514.482 903.573 512.344Z"/>
	<path fill="#282829" transform="scale(0.48 0.48)" d="M880.992 512.991C882.713 512.777 884.49 512.517 886.226 512.538C888.289 512.563 890.832 513.291 892.191 514.941C892.912 515.816 892.659 515.919 892.555 516.966C886.924 521.984 853.495 520.461 843.903 521.176C841.939 521.349 839.687 521.685 837.737 521.432C835.756 521.175 834.293 520.067 833.17 518.493L833.422 517.186C840.11 512.232 871.085 513.742 880.992 512.991Z"/>
	<path fill="#282829" transform="scale(0.48 0.48)" d="M1071.72 439.788C1072.61 439.658 1073.5 439.577 1074.41 439.619C1075.84 439.686 1077.2 440.218 1078.14 441.337C1079.07 442.45 1078.93 442.663 1078.79 444.019C1077.61 445.485 1076.5 445.643 1074.72 446.054C1073.98 446.226 1072.89 446.192 1072.15 445.952C1070.66 445.468 1070.4 444.595 1069.86 443.252C1070.16 441.261 1070.38 441.171 1071.72 439.788Z"/>
	<path fill="#282829" transform="scale(0.48 0.48)" d="M962.722 444.665C963.286 444.824 963.688 444.915 964.21 445.124C965.431 445.612 966.515 446.64 966.969 447.891C967.932 450.549 966.444 453.395 965.344 455.767C964.176 455.496 963.119 455.091 962.002 454.663C961.254 453.835 960.505 453.085 960.289 451.949C959.79 449.329 961.394 446.768 962.722 444.665Z"/>
	<path fill="#282829" transform="scale(0.48 0.48)" d="M1053.9 440.419C1055.33 440.369 1057.49 440.457 1058.75 441.143C1059.89 441.765 1059.95 442.242 1060.37 443.383L1059.45 444.818C1051.81 449.806 1002.86 450.55 990.133 452.623C989.724 452.583 989.316 452.544 988.91 452.486C987.092 452.229 985.64 451.642 984.573 450.084C983.865 449.051 984.122 449.034 984.32 447.888C990.057 443.186 1042.71 441.56 1053.9 440.419Z"/>
	<path fill="#282829" transform="scale(0.48 0.48)" d="M1071.68 471.67C1072.44 471.544 1073.24 471.451 1074.02 471.421C1075.55 471.363 1076.97 471.856 1078.04 472.974C1079.06 474.031 1078.91 474.279 1078.84 475.658C1077.75 477.074 1076.77 477.264 1075.13 477.695C1074.34 478.139 1073.37 478.086 1072.48 478.163C1071.21 477.526 1070.73 477.433 1070.31 475.956C1069.84 474.3 1070.9 473.005 1071.68 471.67Z"/>
	<path fill="#282829" transform="scale(0.48 0.48)" d="M961.553 476.646C962.165 476.709 962.786 476.769 963.391 476.88C964.861 477.148 966.067 477.858 966.832 479.167C968.055 481.26 967.007 484.258 966.464 486.444C965.801 486.426 965.026 486.449 964.375 486.272C963.083 485.921 962.058 485.292 961.349 484.153C960.027 482.031 961.056 478.913 961.553 476.646Z"/>
	<path fill="#282829" transform="scale(0.48 0.48)" d="M1051.52 472.298C1053.58 472.128 1055.89 471.68 1057.75 472.798C1059.16 473.652 1059.56 474.198 1059.91 475.755C1059.77 475.94 1059.63 476.134 1059.48 476.311C1055.71 480.665 997.853 482.868 989.844 483.352C987.633 483.545 986.399 483.48 984.443 482.388C983.396 480.965 983.335 481.037 983.499 479.293C984.796 477.806 985.847 477.291 987.769 476.827C993.829 475.365 1000.86 475.637 1007.09 475.306C1021.82 474.524 1036.9 474.22 1051.52 472.298Z"/>
	<path fill="#282829" transform="scale(0.48 0.48)" d="M1071.14 504.806C1071.34 504.769 1071.53 504.725 1071.72 504.695C1074.18 504.321 1076.32 504.339 1078.41 505.867C1079.54 506.692 1079.54 506.817 1079.73 508.124C1078.66 509.437 1077.92 509.569 1076.37 510.18C1075.66 510.637 1074.27 510.976 1073.42 510.935C1071.83 510.859 1071.56 510.324 1070.56 509.227C1070.03 507.067 1070.33 506.795 1071.14 504.806Z"/>
	<path fill="#282829" transform="scale(0.48 0.48)" d="M962.051 507.966C963.847 508.309 965.454 508.706 966.497 510.348C968.088 512.854 966.988 515.927 966.282 518.537C965.457 518.462 964.536 518.414 963.744 518.166C962.107 517.653 961.58 516.891 960.736 515.484C960.408 512.807 961.288 510.496 962.051 507.966Z"/>
	<path fill="#282829" transform="scale(0.48 0.48)" d="M1047.8 504.792C1049.8 504.656 1051.97 504.4 1053.97 504.605C1056.17 504.832 1059.64 506.284 1061.1 507.921L1060.66 508.929C1051.44 513.988 1007.06 513.91 993.906 514.446C991.502 514.582 988.93 514.86 986.533 514.64C984.531 514.456 980.765 513.369 979.552 511.761L980.286 510.658C990.987 504.623 1032.88 506.397 1047.8 504.792Z"/>
	<defs>
		<linearGradient id="gradient_0" gradientUnits="userSpaceOnUse" x1="53.465637" y1="547.36475" x2="1194.4133" y2="488.76047">
			<stop offset="0" stop-color="#0F0F10"/>
			<stop offset="1" stop-color="#353535"/>
		</linearGradient>
	</defs>
	<path fill="url(#gradient_0)" transform="scale(0.48 0.48)" d="M732.615 74.8394C746.07 69.344 761.013 66.9102 775.022 63.1388C788.39 59.5404 801.928 54.8411 815.566 52.4677C819.481 51.7864 823.729 51.2349 827.647 52.1081L827.975 53.4496C826.849 55.0307 823.273 56.4907 821.413 57.1679C811.263 60.8634 800.458 63.2405 790.007 65.9363C773.021 70.3178 756.063 74.656 739.3 79.8472L738.869 711.406C745.418 711.379 752.034 711.931 758.576 712.284C758.955 690.657 758.56 668.945 758.547 647.311Q758.681 604.47 758.153 561.632C771.365 559.877 784.938 560.322 798.25 560.004L867.241 558.136L1078.51 550.815C1092.63 550.307 1190.08 544.963 1197.27 547.491C1198.64 547.974 1199.05 548.84 1199.7 550.045L1199.44 550.845C1196.97 552.795 1194.05 553.131 1191 553.4C1175.87 554.734 1160.25 554.53 1145.06 555.062L1045.06 558.385C960.07 561.372 874.879 565.518 789.851 566.495C789.243 615.451 789.916 664.498 789.961 713.464C799.445 714.306 809.134 714.332 818.655 714.721L818.343 648.594C818.277 637.61 816.385 610.615 819.369 601.103C819.597 600.375 820.145 600.149 820.842 599.852C824.256 598.397 864.253 598.824 871.78 598.673L1101.01 594.5C1112.33 594.294 1123.63 593.349 1134.94 593.214C1137.97 593.178 1141.22 593.094 1144.04 594.332C1147.88 601.287 1146.97 640.76 1145.88 650.256C1145.48 653.713 1144.78 658.232 1141.93 660.485C1135.98 658.815 1143.14 624.006 1138.06 616.856C1125.82 615.792 1112.68 616.827 1100.38 617.224Q1100.8 618.825 1100.93 620.477C1102.14 635.527 1101.24 651.22 1101.17 666.347C1101.11 680.189 1101.91 694.811 1100.47 708.539C1100.32 709.938 1099.99 711.461 1098.96 712.501C1097.9 713.576 1097.26 713.691 1095.82 713.587C1091.21 707.949 1097.99 625.978 1093.48 618.283C1093.33 618.03 1093.16 617.794 1092.99 617.55L1030.35 618.11C1010.82 618.279 991.335 618.226 971.823 619.294L971.849 722.64L1041.63 726.182C1051.04 726.574 1071.05 726.265 1079.2 728.239C1079.99 728.922 1080.37 729.35 1080.64 730.356C1080.97 731.554 1080.72 731.477 1080.16 732.495C1078.19 733.574 1076.21 733.756 1074 733.737C1057 733.586 1039.84 732.312 1022.85 731.421L936.18 726.96L716.335 716.201Q652.835 712.415 589.271 709.934C552.743 708.509 515.772 705.279 479.232 705.511C508.7 768.155 519.36 838.886 522.788 907.53C537.348 909.851 551.902 911.848 566.442 914.395C587.57 918.096 608.461 922.462 629.946 923.354C633.266 925.286 637.45 927.765 638.859 931.538C639.575 933.455 639.403 935.513 638.538 937.35C631.629 952.022 580.268 968.098 564.219 974.536C593.974 975.177 623.698 974.738 653.397 976.995C659.547 977.462 666.978 977.341 672.787 979.117C643.451 981.299 614.332 982.467 584.916 982.956C568.025 983.237 551.072 982.878 534.193 983.511C526.128 983.814 518.005 985.299 509.987 986.248Q492.998 988.185 475.899 988.319C465.666 988.313 454.659 988.209 444.561 986.406C440.01 985.594 435.87 983.26 431.206 983.052C414.67 982.316 397.633 983.257 381.072 983.495Q343.325 984.044 305.575 983.746C306.816 986.772 307.985 989.864 307.371 993.198C307.026 995.07 306.055 996.559 304.444 997.576C291.017 1006.05 262.16 988.014 248.086 985.257C235.396 982.771 220.735 984.254 207.814 984.152Q162.952 983.669 118.103 982.482C102.695 982.01 81.5021 982.265 66.8025 978.862C87.4543 976.14 108.662 976.011 129.469 975.504L226.344 973.937C197.897 955.115 155.175 924.955 137.493 895.57C135.069 891.543 132.204 885.892 133.593 881.106C134.272 878.764 136.01 877.002 138.104 875.835C143.891 872.61 151.436 874.633 157.409 876.174C169.275 864.729 182.356 854.759 194.316 843.449C205.779 832.608 216.238 820.481 226.516 808.517C258.921 770.8 273.803 747.165 286.524 698.997C266.129 697.162 245.368 696.839 224.903 695.951L128.173 691.634C119.76 691.28 92.8504 692.033 87.252 689.756C85.4431 689.02 84.3155 688.288 83.6279 686.489L84.4637 685.606C94.5689 681.998 167.425 687.18 184.437 687.763L184.422 420.788L184.415 340.229C184.416 328.638 183.415 314.308 184.49 303.027C184.633 301.522 184.77 301.571 185.921 300.681C187.632 300.485 188.173 300.734 189.673 301.577C190.607 303.3 190.69 305.19 190.756 307.117C191.184 319.669 190.585 332.405 190.596 344.982L190.644 430.879L190.637 688.306C222.979 690.797 255.576 690.844 287.977 692.678C291.381 678.979 293.707 664.768 295.77 650.803C297.531 638.89 298.167 624.988 302.825 613.846C306.114 605.981 312.88 603.584 320.147 600.57C306.54 595.951 285.669 593.61 274.816 584.296C267.958 578.41 267.429 570.579 266.703 562.205L265.958 561.87C253.496 556.119 241.817 545.49 237.025 532.428C225.634 501.373 246.217 457.41 259.246 429.505Q257.788 424.284 257.533 418.869C256.974 408.199 259.294 396.889 266.751 388.848C281.397 373.055 313.106 371.655 333.445 370.729Q332.697 359.6 331.133 348.557Q303.318 338.228 275.802 327.123C268.27 324.074 260.388 319.498 252.693 317.206C248.022 315.814 242.938 315.908 238.22 314.571C228.562 311.837 220.769 303.492 216.036 294.958C207.403 279.393 205.306 259.631 210.25 242.554C213.848 230.123 220.467 222.56 231.705 216.456C230.417 209.804 228.082 201.94 230.701 195.403C235.238 190.665 260.715 181.896 268.322 178.699C271.609 177.318 277.893 175 279.297 171.563C272.979 166.966 252.588 176.744 246.888 173.206C245.582 172.396 245.314 171.76 244.882 170.335C245.157 169.696 245.151 169.604 245.648 169C249.568 164.242 273.037 163.491 279.488 163.142C276.13 153.345 271.163 143.955 266.675 134.633Q261.79 137.098 257.083 139.889Q252.376 142.68 247.87 145.784Q243.364 148.889 239.079 152.292Q234.794 155.695 230.75 159.382C233.503 165.675 235.989 172.168 233.918 179.099C232.492 183.874 229.123 187.521 224.763 189.818C219.604 192.537 213.278 192.845 207.81 190.896C202.946 189.163 198.826 185.655 196.791 180.858C194.839 176.253 194.769 170.068 196.846 165.489C199.84 158.885 206.176 156.179 212.587 153.981C220.847 138.582 231.404 123.838 243.917 111.606C262.321 93.615 285.11 80.8871 311.504 81.3671C346.788 82.0088 383.376 99.8191 407.665 124.902L504.772 95.2838L574.822 73.0561C587.25 69.0688 628.714 53.3401 639.184 53.9197C639.912 53.96 639.565 53.8872 640.244 54.6241C642.032 66.8603 641.146 80.3466 641.23 92.7573L641.444 166.118L641.144 305.093C641.198 326.972 642.071 348.911 641.837 370.775C641.806 373.648 641.856 377.163 640.872 379.902C640.307 381.475 639.883 382.038 638.391 382.731C637.375 382.366 636.696 382.107 635.912 381.32C635.112 380.516 634.834 379.119 634.646 378.054C633.125 369.422 634.429 359.36 634.461 350.531L634.555 289.865L634.408 61.301C626.353 63.2823 618.38 66.1497 610.455 68.6378L565.808 82.7426C514.581 98.9573 463.529 115.732 411.959 130.816C415.032 135.201 417.882 139.764 420.809 144.248C435.049 144.465 457.47 144.378 470.19 151.071C487.216 160.03 492.224 186.168 497.425 203.1L498.332 203.774C509.377 212.06 512.884 223.706 514.728 236.996C517.207 254.869 517.654 306.389 507.128 319.901C496.351 333.734 453.04 346.088 435.736 349.685C422.487 352.439 409.077 354.003 395.656 355.647Q395.835 362.054 395.899 368.464C414.286 370.604 437.694 374.728 453.558 384.767C463.498 391.057 466.682 400.183 469.088 411.218C526.636 422.032 583.77 421.089 638.755 399.494C643.092 388.549 650.187 378.658 653.536 367.367C655.945 359.246 654.042 350.151 657.376 342.284C658.467 339.708 660.416 337.105 663.14 336.138C665.322 335.362 668.068 335.835 670.043 336.977C679.465 342.426 679.947 362.017 682.632 371.527L682.891 372.427C691.496 370.186 701.904 367.508 710.65 370.273C714.993 371.645 718.43 374.466 720.483 378.544C723.76 385.052 722.044 390.787 722.433 397.585C722.959 406.783 725.242 414.565 722.006 423.665C720.077 429.088 716.467 433.453 711.22 435.934C706.244 438.287 700.256 438.869 694.816 438.741C689.998 438.628 685.921 436.676 681.265 435.913C670.109 434.087 659.889 434.386 648.982 430.554Q648.21 431.021 647.431 431.477C640.736 435.364 632.019 437.414 624.61 439.537C576.206 453.406 519.295 454.209 470.627 441.27C470.58 448.022 469.627 454.816 468.862 461.516C481.209 460.374 529.775 455.754 538.523 459.036L538.958 461.461L538.932 460.492C543.036 478.054 543.853 496.384 546.247 514.239C548.327 529.756 551.817 545.137 553.219 560.73C544.818 564.439 535.631 566.556 526.793 568.951C507.223 574.252 487.563 578.467 467.912 583.346C459.288 585.487 450.926 588.838 442.433 591.475C442.179 608.113 438.891 625.636 435.373 641.888C450.576 659.654 462.849 679.478 475.133 699.295C504.061 699.891 533.031 702.069 561.952 703.206C585.423 704.129 609.285 703.704 632.641 706.204C635.635 707.889 638.983 707.333 642.235 706.833C651.333 704.583 669.258 707.316 679.17 707.833Q705.846 709.033 732.505 710.554L732.491 261.503L732.494 144.251C732.471 121.081 731.982 98.0128 732.615 74.8394ZM396.342 151.121C394.836 151.247 393.232 151.489 391.727 151.443C373.471 149.825 344.909 153.557 327.343 158.387C329.831 182.893 331.504 207.606 334.983 231.991C337.998 253.135 342.619 274.102 347.464 294.892C349.238 302.504 350.945 310.171 353.015 317.709C354.149 321.836 356.119 326.071 356.512 330.342C356.688 332.258 356.444 333.211 355.28 334.722C354.253 334.899 353.98 335.179 353.038 334.604C347.011 330.925 333.456 259.811 331.565 248.545C326.719 219.667 325.079 190.552 321.137 161.595C292.663 174.248 264.431 187.374 235.438 198.821C236.489 204.399 236.729 210.145 237.162 215.799L237.918 215.614C254.641 211.359 261.539 200.733 280.659 211.671C293.546 219.045 301.449 233.278 305.18 247.238C309.399 263.024 308.829 281.111 300.435 295.479Q299.918 296.367 299.357 297.228Q298.797 298.088 298.194 298.92Q297.592 299.752 296.948 300.553Q296.305 301.354 295.623 302.122Q294.94 302.89 294.221 303.623Q293.501 304.355 292.746 305.052Q291.99 305.748 291.201 306.406Q290.412 307.063 289.592 307.681Q288.771 308.299 287.92 308.875Q287.07 309.451 286.192 309.984Q285.314 310.517 284.411 311.005Q283.507 311.494 282.58 311.937Q281.654 312.38 280.706 312.777Q279.759 313.173 278.793 313.522Q277.826 313.871 276.844 314.171Q275.862 314.471 274.866 314.722C272.237 315.398 269.519 315.807 266.84 316.239C293.058 328.844 337.729 346.772 366.247 349.662C394.883 352.565 440.325 343.602 467.457 334.058C479.874 329.69 499.485 323.219 505.502 310.634C512.857 295.252 509.565 269.142 507.881 252.516C503.137 262.761 498.11 273.601 486.812 277.883C478.811 280.916 469.064 280.026 461.374 276.486Q460.6 276.137 459.845 275.751Q459.09 275.364 458.355 274.94Q457.62 274.516 456.906 274.056Q456.193 273.597 455.504 273.102Q454.814 272.607 454.15 272.079Q453.486 271.55 452.85 270.989Q452.213 270.429 451.604 269.837Q450.996 269.245 450.418 268.624Q449.84 268.002 449.294 267.353Q448.747 266.704 448.234 266.028Q447.72 265.353 447.241 264.652Q446.762 263.952 446.318 263.228Q445.874 262.505 445.467 261.761Q445.06 261.016 444.69 260.252Q444.32 259.488 443.988 258.707Q443.657 257.926 443.365 257.129C439.578 246.539 441.648 233.942 446.528 224.043C450.345 216.301 456.42 210.009 464.742 207.274C473.473 204.404 482.707 206.41 491.414 208.335C488.419 195.239 481.629 164.556 469.733 157.374C462.849 153.218 437.304 149.816 429.628 151.77C428.296 151.675 426.953 151.354 425.638 151.117C417.124 149.947 404.483 148.692 396.342 151.121ZM379.689 711.881C363.988 769.839 327.168 819.767 286.992 863.432C274.831 876.65 261.609 888.713 249.736 902.236C255.27 907.516 259.676 911.798 260.12 919.878C275.292 935.371 286.406 954.164 297.307 972.768L316.562 972.962Q374.35 973.502 432.14 973.465C435.65 967.899 438.74 964.89 444.362 961.498C446.848 903.651 434.207 845.846 421.239 789.811C413.55 782.401 408.9 775.48 408.673 764.511C408.615 761.731 408.821 758.94 409.015 756.167C400.335 746.645 393.994 735.521 387.431 724.506C385.048 720.507 382.708 715.379 379.689 711.881ZM394.887 375.482C396.301 378.3 398.265 381.383 398.504 384.548C397.812 386.108 397.525 386.635 395.865 387.224C387.227 390.289 363.615 387.99 355.097 385.85C349.243 384.379 343.771 382.043 338.368 379.383C336.429 378.428 334.712 377.107 332.809 378.688C333.011 378.952 333.219 379.21 333.415 379.478C333.527 379.632 333.611 379.806 333.732 379.953C335.192 381.731 338.722 383.226 340.783 384.198C354.823 390.821 371.873 395.372 387.388 395.677C393.853 395.804 401.209 395.326 407.357 393.203C411.123 391.903 414.893 390.062 418.751 389.099C420.172 388.744 420.966 388.647 422.24 389.367C422.379 391.072 422.308 392.144 421.183 393.513C416.169 399.613 401.142 401.292 393.835 401.683C366.577 403.142 342.295 394.661 321.48 377.143C302.278 379.523 282.143 382.304 267.699 396.446C276.213 391.986 284.214 388.409 293.927 391.496C302.957 394.366 309.594 401.735 313.743 410.006Q314.281 411.071 314.766 412.161Q315.251 413.251 315.682 414.363Q316.112 415.476 316.488 416.608Q316.863 417.741 317.182 418.89Q317.501 420.04 317.763 421.204Q318.024 422.368 318.228 423.543Q318.433 424.719 318.578 425.903Q318.724 427.087 318.811 428.277Q318.899 429.467 318.927 430.659Q318.956 431.852 318.925 433.045Q318.895 434.238 318.805 435.427Q318.716 436.617 318.568 437.801Q318.42 438.985 318.214 440.16Q318.008 441.335 317.745 442.498Q317.481 443.662 317.16 444.811Q316.839 445.96 316.462 447.092C313.8 454.921 308.986 461.953 301.42 465.681C294.978 468.856 288.056 469.067 281.063 468.097L278.842 474.679C282.776 493.529 281.001 511.622 282.298 530.6C282.775 533.507 285.068 535.238 287.357 536.858C300.868 546.419 328.595 551.236 345.09 551.566C343.683 542.677 343.129 530.673 339.507 522.523C337.462 521.939 334.737 521.596 333.739 519.542C331.605 515.152 329.625 496.716 330.114 491.54C331.86 489.006 335.569 488.261 338.384 487.438C335.698 472.631 333.153 457.837 329.449 443.244C327.434 435.306 323.801 426.948 322.538 418.961C322.068 415.982 321.856 412.633 323.327 409.916L324.473 409.628C331.101 415.633 343.18 473.48 344.787 485.154C368.777 478.662 392.576 469.735 417.16 465.701C428.728 463.803 440.874 463.703 452.57 462.962C454.958 462.811 458.962 462.995 460.289 460.583C464.24 453.399 453.474 425.437 450.347 417.526C446.314 407.325 437.784 384.806 427.476 380.494C418.27 376.644 404.878 375.473 394.887 375.482ZM334.924 628.5C323.354 630.156 313.684 634.99 303.589 640.572Q297.548 681.675 287.018 721.862C296.903 719.822 303.296 719.665 312.595 723.88Q318.772 698.946 323.794 673.755C325.616 664.847 326.906 655.589 329.346 646.842C329.898 644.866 330.625 643.188 331.925 641.585L333.35 641.095C334.816 641.848 335.087 642.471 335.813 643.873C336.539 652.077 331.657 667.596 329.853 676.013C326.173 693.186 322.84 710.301 318.503 727.335C321.412 730.807 325.922 735.471 325.375 740.405C325.249 741.544 325 741.476 324.204 742.193C322.31 742.13 321.02 741.187 319.762 739.832C318.218 738.169 316.785 736.347 315.454 734.511Q315.114 734.096 314.753 733.698Q314.393 733.3 314.013 732.92Q313.633 732.541 313.235 732.181Q312.837 731.821 312.422 731.481Q312.006 731.141 311.574 730.822Q311.143 730.503 310.695 730.206Q310.248 729.909 309.787 729.634Q309.326 729.359 308.851 729.108Q308.377 728.857 307.891 728.629Q307.404 728.402 306.907 728.199Q306.411 727.996 305.904 727.818Q305.398 727.64 304.883 727.487Q304.368 727.334 303.847 727.207Q303.325 727.08 302.798 726.979Q302.271 726.878 301.739 726.804Q301.208 726.729 300.673 726.681C294.62 726.115 289.335 727.928 284.279 731.13C280.305 738.285 277.283 745.804 274.39 753.445C276.706 760.281 279.346 766.384 286.276 769.664C291.63 772.198 297.757 772.029 303.2 769.919C307.99 768.063 312.006 764.942 315.866 761.624C320.612 768.081 326.459 774.791 334.878 776.043C338.811 776.627 342.502 775.817 345.692 773.404C350.753 769.578 353.746 763.104 356.474 757.543C371.144 727.64 375.295 695.791 382.797 663.785C376.456 649.212 366.405 637.551 351.364 631.523Q349.413 630.731 347.391 630.142Q345.369 629.552 343.298 629.171Q341.227 628.791 339.128 628.622Q337.029 628.454 334.924 628.5ZM860.694 604.802L825.1 605.582C823.906 641.912 824.585 678.664 824.97 715.017C856.023 716.083 887.153 719.206 918.194 719.667L918.264 685.949L918.296 619.987L876.079 620.597C869.903 620.726 863.572 621.466 857.411 621.143C855.849 621.061 851.68 620.767 850.751 619.548C850.58 619.325 850.469 619.062 850.328 618.819C850.804 617.442 851.2 616.639 852.533 615.897C857.818 612.954 909.013 613.847 918.537 613.778C918.545 610.687 918.612 607.583 918.554 604.493Q889.622 604.238 860.694 604.802ZM433.935 651.053C431.029 667.587 429.475 688.111 417.291 700.698C421.641 708.734 433.973 732.218 435.041 740.424C434.318 741.786 434.231 741.851 432.857 742.556C430.644 742.253 429.916 741.495 428.546 739.691C421.694 730.669 417.34 715.708 412.066 705.303C403.399 708.946 395.956 710.044 386.64 710.291Q398.48 730.482 411.692 749.803C414.753 747.127 416.49 745.553 420.755 745.506L422.019 746.232C422.337 747.737 422.206 748.528 421.387 749.873C420.729 750.954 419.619 751.991 418.759 752.921C415.655 756.57 414.283 760.668 414.603 765.482Q414.645 766.099 414.719 766.712Q414.792 767.326 414.897 767.935Q415.002 768.545 415.137 769.148Q415.272 769.751 415.438 770.346Q415.604 770.942 415.8 771.528Q415.996 772.114 416.221 772.69Q416.447 773.266 416.701 773.829Q416.956 774.392 417.238 774.942Q417.521 775.491 417.831 776.026Q418.142 776.561 418.479 777.079Q418.816 777.597 419.179 778.097Q419.541 778.598 419.929 779.079Q420.317 779.56 420.729 780.021Q421.141 780.482 421.575 780.921Q422.01 781.361 422.467 781.777Q422.923 782.194 423.4 782.587C428.125 786.441 434.083 787.748 440.066 787.031C444.735 786.472 448.941 784.644 451.944 780.917C457.751 773.709 455.376 764.005 458.116 760.177C458.733 759.316 460.313 758.942 461.313 758.865C463.966 758.66 466.631 759.957 469.374 759.796C476.487 759.381 483.756 751.102 488.336 746.375C479.716 717.424 464.933 693.305 447.865 668.654C444.155 663.296 439.252 654.904 433.935 651.053ZM515.709 911.496C494.688 918.732 472.998 922.09 450.963 924.568Q451.448 944.373 451.224 964.183C488.719 967.93 531.397 959.647 567.021 948.34C583.018 943.091 598.814 938.013 612.956 928.616C595.117 924.548 576.69 923.083 558.85 919.208C555.496 925.485 546.096 946.855 539.729 949.033C536.421 950.165 532.67 948.699 529.769 947.078C526.03 944.989 521.811 942.414 518.605 939.594C518.858 930.762 521.157 921.947 523.072 913.359C520.784 912.546 518.159 911.224 515.709 911.496ZM238.459 221.371C229.481 224.44 223.296 229.076 219.099 237.778C212.451 251.564 212.581 269.184 217.718 283.424C221.273 293.276 227.524 302.798 237.265 307.378C242.082 309.642 246.959 310.356 252.227 309.574C261.24 306.481 267.503 300.801 271.757 292.226C278.703 278.228 278.126 260.818 273.024 246.345C269.772 237.118 264.141 228.161 255.052 223.8C249.603 221.186 244.376 221.061 238.459 221.371ZM185.652 860.04Q171.36 872.015 157.634 884.635C189.117 927.273 240.616 959.715 290.584 975.996C289.4 973.399 288.272 970.747 286.996 968.195C277.951 952.79 268.414 937.924 256.631 924.44C247.75 930.18 239.237 936.229 230.715 942.475C224.485 936.749 218.595 929.566 218.214 920.698C218.011 915.965 219.826 911.737 223.142 908.399C227.274 904.238 232.673 902.356 238.126 900.592C225.571 892.111 213.046 883.599 201.582 873.659C198.596 871.069 188.563 860.333 185.652 860.04ZM965.489 619.323C951.981 619.315 938.322 619.107 924.835 619.759C924.81 630.596 923.865 717.625 924.477 719.312C924.596 719.639 924.918 719.85 925.139 720.12L926.096 720.149C939.239 720.918 952.4 721.844 965.56 722.244L965.699 648.632C965.71 640.993 966.787 626.011 965.489 619.323ZM473.211 212.097C465.439 213.399 459.317 216.498 454.648 223.035C449.331 230.478 446.628 241.016 448.211 250.072Q448.326 250.749 448.475 251.419Q448.624 252.089 448.806 252.751Q448.988 253.413 449.203 254.065Q449.417 254.717 449.664 255.357Q449.911 255.998 450.189 256.625Q450.468 257.252 450.777 257.865Q451.086 258.478 451.426 259.075Q451.765 259.671 452.134 260.25Q452.502 260.829 452.899 261.389Q453.296 261.949 453.721 262.489Q454.145 263.028 454.596 263.546Q455.047 264.063 455.522 264.558Q455.998 265.052 456.498 265.523Q456.998 265.993 457.521 266.438Q458.043 266.883 458.588 267.301Q459.132 267.719 459.696 268.11C465.675 272.244 472.121 273.464 479.275 273.371C488.195 270.801 494.638 266.588 499.237 258.302C503.649 250.353 505.295 240.712 502.712 231.899C500.683 224.978 496.23 218.849 489.815 215.414C484.611 212.628 479.022 212.008 473.211 212.097ZM766.175 567.353C764.509 568.952 764.999 573.396 764.952 575.802C764.615 592.925 765.012 610.095 765.027 627.224Q764.721 669.829 765.341 712.429C771.208 712.679 777.113 712.8 782.964 713.308C783.199 712.899 783.557 712.539 783.671 712.081C784.805 707.52 783.631 683.936 783.613 677.377L783.422 566.78C777.691 566.908 771.886 566.849 766.175 567.353ZM405.551 525.132C400.751 529.997 397.699 536.139 393.646 541.587C390.018 546.463 385.512 550.384 380.876 554.264C381.371 560.606 380.024 578.77 384.695 582.955C391.991 589.492 425.374 587.477 435.345 586.532Q436.181 586.451 437.015 586.352C442.592 585.379 451.089 584.559 455.064 580.241C455.245 578.89 455.407 578.612 454.482 577.485C446.569 567.849 413.16 570.719 402.716 548.722L403.017 547.961C405.33 542.185 412.172 533.64 409.921 527.404C408.552 525.853 407.536 525.593 405.551 525.132ZM383.513 125.907C355.663 128.339 330.707 137.65 306.015 150.365C299.489 153.725 291.49 157.291 286.675 162.971C285.49 164.369 284.788 165.552 284.652 167.384C285.162 168.569 285.026 168.827 286.2 169.48C293.484 168.324 301.334 163.584 307.945 160.391C314.452 157.355 320.887 154.342 327.765 152.219C347.234 146.209 369.684 145.382 389.904 144.65C397.634 144.37 405.513 144.555 413.203 143.848C408.812 137.59 404.451 131.097 399.068 125.635C393.903 125.617 388.657 125.407 383.513 125.907ZM665.011 341.211C660.025 349.949 662.506 359.295 659.833 368.519C656.672 379.428 649.501 388.852 645.143 399.301C646.486 409.363 647.967 417.821 654.844 425.677C660.96 427.495 667.087 428.853 673.438 429.546C676.179 429.962 679.074 430.738 681.772 429.896C682.549 429 682.891 428.85 682.718 427.585C682.372 425.058 680.011 422.045 678.606 419.899L679.53 412.051C676.113 409.387 671.01 406.424 670.342 401.827C669.906 398.827 671.666 395.256 672.636 392.449C671.665 388.82 670.522 385.253 672.474 381.703C673.662 379.542 675.548 377.91 677.376 376.309L677.153 375.58C675.032 368.534 672.841 345.642 667.018 342.216C666.371 341.836 665.693 341.522 665.011 341.211ZM258.805 213.309L255.673 214.792L255.396 215.888C258.38 219.65 263.754 221.018 267.299 224.221C280.198 235.87 284.715 259.615 282.865 276.099C281.406 289.111 275.93 299.832 267.362 309.598C271.347 308.795 275.087 307.91 278.89 306.465C289.124 300.942 295.576 293.561 298.871 282.274C303.434 266.639 300.749 248.845 292.953 234.68C287.803 225.321 279.974 217.135 269.46 214.151C265.875 213.133 262.492 213.087 258.805 213.309ZM1073.34 601.098C1039.71 602.02 1006.03 602.045 972.417 603.238L972.395 612.665C978.558 612.54 984.755 612.53 990.911 612.213Q1041.86 611.86 1092.81 610.882C1093.77 609.078 1094.86 605.693 1094.24 603.65C1093.97 602.744 1093.43 602.062 1092.6 601.583C1088.29 599.07 1078.34 600.965 1073.34 601.098ZM273.719 565.963C273.755 570.085 273.411 574.693 276.669 577.784C285.252 585.924 337.208 599.504 349.718 598.738C352.525 598.566 354.55 597.651 356.854 596.097C359.601 592.067 359.588 589.375 358.903 584.634C339.865 581.67 320.764 579.693 302.021 575.018C292.282 572.588 283.241 568.989 273.719 565.963ZM364.255 584.762C364.821 592.139 365.122 596.307 360.38 602.303C385.029 606.351 409.774 609.387 434.797 609.06Q436.122 600.929 437.302 592.775C422.349 593.791 405.704 595.391 390.973 591.878C385.199 590.502 380.161 587.318 374.538 585.721C371.42 584.836 367.504 584.934 364.255 584.762ZM514.909 895.354C503.372 898.177 491.863 900.995 480.149 903.004C469.91 904.761 459.584 905.807 449.311 907.311C449.333 910.219 448.751 915.57 450.662 917.943C473.107 916.489 494.906 911.411 516.326 904.784C516.373 901.891 516.674 898.856 515.837 896.062L514.909 895.354ZM199.914 847.491C197.247 850.127 194.627 852.842 191.895 855.408C208.002 871.874 225.81 884.374 245.277 896.554C247.973 895.035 249.854 892.649 251.848 890.33C241.811 881.586 229.896 875.095 219.689 866.444C214.428 861.985 205.088 850.076 199.914 847.491ZM284.227 396.401C276.872 398.635 270.64 401.423 266.812 408.506C264.463 412.85 263.78 417.849 263.44 422.708C267.939 415.272 272.543 407.199 281.63 404.878C286.413 403.656 291.196 404.639 295.344 407.23C301.208 410.892 305.022 417.756 306.354 424.404C307.816 431.699 306.74 440.773 302.595 447.09C302.468 447.285 302.333 447.475 302.202 447.667C297.62 452.158 293.21 454.413 287.078 456.193L284.733 462.281C292.565 462.022 298.833 460.867 304.402 454.975C310.636 448.38 312.839 438.668 312.54 429.82C312.209 420.031 308.278 409.852 300.988 403.143C296.289 398.818 290.647 396.298 284.227 396.401ZM210.984 160.669C206.589 163.129 203.139 165.542 201.83 170.748Q201.696 171.284 201.616 171.831Q201.536 172.378 201.51 172.931Q201.484 173.483 201.512 174.035Q201.54 174.587 201.623 175.134Q201.706 175.681 201.842 176.216Q201.977 176.752 202.165 177.272Q202.353 177.792 202.592 178.291Q202.83 178.79 203.116 179.263C205.033 182.454 208.588 184.703 212.204 185.436C214.37 185.876 216.851 185.777 219.039 185.577C223.194 183.587 226.614 181.557 228.105 176.861C229.101 173.722 228.668 170.403 227.006 167.569C224.962 164.08 221.399 161.862 217.522 160.931C215.43 160.429 213.118 160.418 210.984 160.669ZM237.8 907.259C233.064 908.565 227.878 909.89 225.417 914.642C223.736 917.889 224.199 921.645 225.415 924.962C226.673 928.393 228.83 931.387 230.909 934.358L237.142 929.564C242.955 926.011 249.301 922.605 254.689 918.458C252.142 913.976 248.817 908.567 243.442 907.226C241.598 906.766 239.655 907.008 237.8 907.259ZM529.719 915.029C527.265 922.393 525.613 929.341 524.779 937.097L538.097 944.036L541.032 938.485L551.576 918.327C544.363 917.31 536.798 916.69 529.719 915.029ZM715.657 387.074C709.08 390.032 702.242 391.945 695.202 393.438C690.693 394.394 685.65 394.879 681.415 396.739C679.477 397.59 678.388 398.239 677.393 400.122C677.417 402.107 677.901 403.047 679.293 404.495C688.958 406.001 705.221 404.284 713.264 398.38C715.038 397.078 716.527 395.35 716.731 393.076C716.9 391.188 716.737 388.64 715.657 387.074ZM1112.6 600.46L1100.07 600.687C1101.02 603.722 1101.4 607.863 1099.92 610.784C1108.22 610.539 1116.54 610.158 1124.84 610.171L1138.42 609.878C1139.74 607.259 1139.96 603.546 1139.18 600.725C1136.15 598.923 1117.33 600.341 1112.6 600.46ZM954.988 603.558Q940.208 603.932 925.433 604.472L925.301 613.488L936.562 613.279C946.265 613.011 955.987 612.611 965.694 612.684L965.684 603.432L954.988 603.558ZM442.291 386.632C447.702 396.448 452.51 406.389 456.552 416.855C459.285 423.93 460.576 434.158 464.892 440.259C465.353 425.553 464.996 405.086 454.324 393.85C450.911 390.257 446.94 388.23 442.291 386.632ZM702.313 375.321C694.258 376.036 684.112 378.209 678.616 384.757C677.723 385.82 677.326 386.596 677.3 388.018C678.798 389.485 679.878 389.67 682.012 389.641C684.213 389.611 686.352 389.244 688.48 388.697C694.691 387.514 708.619 386.054 712.45 380.354C712.833 379.784 713.279 378.962 713.095 378.249C712.829 377.22 711.619 376.591 710.682 376.28C708.052 375.407 705.057 375.311 702.313 375.321ZM716.065 404.559C707.968 407.702 690.297 409.052 685.123 415.441C684.794 416.903 684.731 417.806 685.585 419.145C685.954 419.723 686.63 420.234 687.134 420.671C694.95 419.697 711.841 419.038 717.402 412.593C718.146 411.73 718.599 410.644 718.441 409.515C718.232 408.017 717.196 405.543 716.065 404.559ZM274.157 486.186C269.507 496.632 268.041 507.944 268.499 519.289L272.793 525.19C273.569 525.897 274.415 527.091 275.47 527.058C276.453 516.784 276.526 495.844 274.157 486.186ZM714.847 422.294C707.669 423.232 695.94 423.417 690.133 427.845C689.367 429.255 689.065 429.767 689.642 431.341C689.814 431.81 689.918 431.945 690.157 432.331C698.331 432.998 705.375 431.519 713.099 428.889C713.846 427.016 715.316 424.341 714.847 422.294Z"/>
	<path fill="#7C8484" transform="scale(0.48 0.48)" d="M470.439 417.817C473.741 418.173 476.95 419.127 480.159 419.955C479.592 425.345 479.376 430.695 479.216 436.108C476.906 436.497 473.803 435.32 471.521 434.774L470.439 417.817Z"/>
	<path fill="#7C8484" transform="scale(0.48 0.48)" d="M274.482 418.708C275.899 418.802 277.371 418.857 278.755 419.186C282.786 420.144 286.21 423.837 288.025 427.405C289.147 429.609 290.427 433.616 289.401 436.039C288.976 437.041 288.64 437.082 287.703 437.425C282.406 432.515 276.787 428.446 270.758 424.515L274.482 418.708Z"/>
	<path fill="#7C8484" transform="scale(0.48 0.48)" d="M305.421 551.558L316.775 555.053C315.713 558.411 314.146 567.993 311.742 570.225L299.651 566.904L305.421 551.558Z"/>
	<path fill="#7C8484" transform="scale(0.48 0.48)" d="M322.194 555.836Q328.744 556.813 335.275 557.905C333.872 563.195 333.2 568.815 332.269 574.213L318.94 571.676L322.194 555.836Z"/>
	<path fill="#7C8484" transform="scale(0.48 0.48)" d="M340.86 558.201C345.162 558.629 349.449 558.791 353.766 558.933C352.544 564.789 351.821 570.748 350.986 576.669C346.804 576.275 342.625 575.69 338.454 575.192L340.86 558.201Z"/>
	<path fill="#7C8484" transform="scale(0.48 0.48)" d="M281.063 410.738C285.387 410.468 289.645 411.392 293.225 413.927C297.562 416.996 299.972 421.881 300.675 427.049C301.714 434.68 299.273 440.578 294.664 446.538C293.848 447.223 293.324 447.416 292.287 447.642C291.818 444.993 295.527 436.379 295.168 431.121C294.419 420.18 288.431 419.984 282.11 413.827C280.885 412.634 281.044 412.353 281.063 410.738Z"/>
	<path fill="#7C8484" transform="scale(0.48 0.48)" d="M288.021 544.562C291.881 546.373 295.851 547.927 299.804 549.522C297.952 554.594 296.282 561.306 292.312 565.118L279.779 560.69C282.012 555.063 285.039 549.813 288.021 544.562Z"/>
	<path fill="#7C8484" transform="scale(0.48 0.48)" d="M264.45 525.825C266.678 527.538 268.28 529.903 269.992 532.111C265.057 536.233 260.509 541.275 255.299 545.013C254.196 545.805 254.254 545.686 252.9 545.46C249.939 541.772 247.404 537.994 244.911 533.989C251.054 530.385 257.748 528.128 264.45 525.825Z"/>
	<path fill="#7C8484" transform="scale(0.48 0.48)" d="M274.072 535.517C276.933 537.689 280.155 539.489 283.213 541.377C280.3 546.014 277.212 555.023 272.626 557.853L271.06 557.375Q265.156 554.253 259.361 550.934L274.072 535.517Z"/>
	<path fill="#7C8484" transform="scale(0.48 0.48)" d="M267.42 429.98C274.736 432.981 280.343 438.805 285.985 444.142C284.727 446.849 283.345 450.979 280.512 452.07L261.157 440.877C263.085 437.151 265.262 433.575 267.42 429.98Z"/>
	<path fill="#7C8484" transform="scale(0.48 0.48)" d="M250.934 466.303L270.966 475.254L266.436 486.286C260.019 483.382 252.986 481.564 246.213 479.704Q248.439 472.956 250.934 466.303Z"/>
	<path fill="#7C8484" transform="scale(0.48 0.48)" d="M244.171 485.908C251.135 487.487 257.948 490.16 264.693 492.498L262.797 503.732C255.741 502.637 248.578 501.995 241.48 501.198C242.549 496.145 243.302 491 244.171 485.908Z"/>
	<path fill="#7C8484" transform="scale(0.48 0.48)" d="M258.084 446.923Q268.264 452.895 278.363 459.003L273.658 469.751C266.946 465.993 259.99 463.166 252.79 460.515C254.391 455.924 256.267 451.431 258.084 446.923Z"/>
	<path fill="#7C8484" transform="scale(0.48 0.48)" d="M241.199 508.226C248.266 508.867 255.285 509.454 262.382 509.611L262.513 519.786L257.344 521.422C251.998 522.97 247.025 525.092 242.117 527.705C241.148 521.204 241.067 514.776 241.199 508.226Z"/>
	<path fill="#7C8484" transform="scale(0.48 0.48)" d="M638.141 406.315L639.139 406.759C642.372 411.744 643.84 420.448 645.597 426.248L633.346 430.607L632.322 430.42C628.668 426.176 627.218 416.513 625.753 411.093L638.141 406.315Z"/>
	<path fill="#7C8484" transform="scale(0.48 0.48)" d="M509.549 565.405C511.103 565.269 512.506 565.283 514.058 565.421C513.544 565.729 513.451 565.804 512.816 566.069C506.529 568.689 467.478 579.041 461.823 576.657C459.702 573.065 457.078 571.193 453.646 569.016C472.304 568.16 490.917 566.673 509.549 565.405Z"/>
	<path fill="#7C8484" transform="scale(0.48 0.48)" d="M511.309 423.823Q520.287 424.245 529.269 424.574Q529.284 433.808 529.826 443.026Q520.579 442.131 511.293 441.849L511.309 423.823Z"/>
	<path fill="#7C8484" transform="scale(0.48 0.48)" d="M365.922 558.627C367.709 558.427 369.617 558.11 371.414 558.16Q371.853 558.17 372.281 558.267Q372.709 558.365 373.108 558.547Q373.508 558.729 373.862 558.988Q374.217 559.247 374.512 559.572C377.493 562.825 375.648 574.341 375.521 578.869C372.401 578.505 369.231 578.362 366.096 578.139L357.622 577.312C357.246 571.125 358.11 565.072 358.953 558.964L365.922 558.627Z"/>
	<path fill="#7C8484" transform="scale(0.48 0.48)" d="M485.674 421.25C492.292 421.477 499.043 422.549 505.599 423.463L505.546 440.825C498.96 440.582 492.041 439.058 485.52 438.023L485.674 421.25Z"/>
	<path fill="#7C8484" transform="scale(0.48 0.48)" d="M535.089 424.718C541.048 424.542 547.022 424.526 552.984 424.432C553.416 430.725 554.097 436.969 553.828 443.283L535.708 443.23C535.114 437.109 534.336 430.851 535.089 424.718Z"/>
	<path fill="#7C8484" transform="scale(0.48 0.48)" d="M572.285 422.901C573.747 422.736 573.802 422.761 575.079 423.5C578.275 428.499 578.296 436.106 578.957 441.886C574.296 442.033 569.621 442.428 564.966 442.714C563.493 442.699 562.304 442.993 561.114 441.98C557.627 439.014 558.337 428.248 558.188 423.926L572.285 422.901Z"/>
	<path fill="#7C8484" transform="scale(0.48 0.48)" d="M618.84 412.677L619.994 412.949C623.796 417.607 625.203 427.053 626.805 432.808L611.392 436.204C610.66 436.259 610.202 436.123 609.498 435.942C605.822 431.167 604.895 422.678 603.538 416.875L618.84 412.677Z"/>
	<path fill="#7C8484" transform="scale(0.48 0.48)" d="M597.176 418.417C597.53 418.428 598.226 418.793 598.565 418.93C601.846 423.991 602.432 432.311 603.536 438.201C598.305 439.204 592.912 439.811 587.638 440.589C586.529 440.758 586.034 440.568 585.019 440.116C581.366 435.405 581.536 427.047 581.092 421.29L597.176 418.417Z"/>
	<path fill="#7C8484" transform="scale(0.48 0.48)" d="M337.961 350.606C345.556 353.342 353.339 355.058 361.216 356.742L361.213 380.47C353.628 378.972 346.879 376.494 340.238 372.519C339.35 365.221 338.452 357.943 337.961 350.606Z"/>
	<path fill="#7C8484" transform="scale(0.48 0.48)" d="M386.622 356.623C387.322 356.529 388.17 356.683 388.879 356.738C391.054 359.962 389.957 376.241 389.979 380.98C383.494 381.484 376.978 381.502 370.477 381.617C369.378 381.451 368.887 381.295 368.027 380.584C365.635 373.895 366.817 364.343 366.904 357.217C373.501 357.23 380.036 357.003 386.622 356.623Z"/>
	<path fill="#D98F8C" transform="scale(0.48 0.48)" d="M418.558 472.71L419.736 472.854C423.265 477.341 423.402 488.303 424 494.14C414.227 495.488 404.421 498.326 394.821 500.615Q367.965 506.785 341.409 514.14C340.504 514.26 340.514 514.495 339.944 513.925C337.044 511.026 336.752 499.43 336.236 495.072C363.819 488.545 391.043 479.703 418.558 472.71Z"/>
	<path fill="#D98F8C" transform="scale(0.48 0.48)" d="M140.235 881.599C142.456 881.39 144.729 881.187 146.96 881.171C148.82 881.159 149.954 881.402 151.234 882.691C151.216 883.872 151.141 885.319 151.432 886.481C152.766 891.803 159.834 898.549 163.556 902.618C191.209 932.853 224.041 955.448 261.177 972.528C269.659 976.43 293.474 983.078 298.981 987.435C300.571 988.693 300.54 990.921 300.864 992.789C262.848 993.438 211.603 958.324 184.078 934.562C171.566 923.76 141.526 899.044 140.235 881.599Z"/>
	<path fill="#7C8484" transform="scale(0.48 0.48)" d="M270.307 761.385C271.317 762.528 272.011 764.22 272.861 765.517C275.885 770.133 279.15 773.297 283.622 776.496C277.141 786.905 269.115 796.15 261.228 805.5C247.081 822.272 232.382 838.391 217.431 854.447C212.874 852.916 207.978 846.129 204.741 842.58C229.752 815.246 249.243 792.315 270.307 761.385Z"/>
	<path fill="#D98F8C" transform="scale(0.48 0.48)" d="M625.037 930.225C627.071 930.146 629.7 930.214 631.504 931.257C632.702 931.951 632.676 932.306 632.998 933.557C632.16 936.005 630.515 937.388 628.49 938.903C616.96 947.531 602.671 953.24 589.347 958.386C545.394 975.362 496.651 986.645 449.441 980.028C446.879 979.672 442.568 979.534 440.605 977.759C439.883 977.107 439.453 976.476 439.433 975.484C439.379 972.84 442.267 970.696 444.034 969.057C485.218 978.758 554.82 962.048 593.491 946.122C604.422 941.62 614.519 935.578 625.037 930.225Z"/>
	<path fill="#7C8484" transform="scale(0.48 0.48)" d="M447.422 792.919L448.371 793.479C451.49 799.635 452.369 807.857 453.779 814.594C459.594 842.379 463.999 869.836 466.435 898.135C460.97 898.846 453.925 900.684 448.492 900.074C444.809 864.076 437.181 828.949 428.613 793.848C435.265 794.674 440.88 794.058 447.422 792.919Z"/>
	<path fill="#D98F8C" transform="scale(0.48 0.48)" d="M530.316 464.783C531.143 464.677 531.7 464.808 532.511 464.963C535.306 470.001 535.246 479.851 535.862 485.687C517.869 485.915 499.611 488.278 481.651 489.639C465.34 490.874 448.69 491.13 432.488 493.348L431.303 493.028C428.883 488.448 427.768 476.697 426.509 470.917C461.125 469.285 495.699 466.568 530.316 464.783Z"/>
	<path fill="#282829" transform="scale(0.48 0.48)" d="M482.095 223.738C482.622 223.75 483.149 223.757 483.674 223.799C487.163 224.081 489.892 225.857 492.041 228.589C495.317 232.752 496.387 238.808 495.785 244.003C495.17 249.311 493.162 253.218 488.972 256.572C487.947 256.591 486.915 256.591 485.897 256.454C482.651 256.02 479.954 253.954 478.043 251.367C474.754 246.916 473.68 240.433 474.646 235.021C475.598 229.693 477.837 226.758 482.095 223.738Z"/>
	<path fill="#D98F8C" transform="scale(0.48 0.48)" d="M422.32 501.507C423.032 501.537 423.61 501.369 424.157 501.908C428.217 505.907 433.75 553.609 434.831 562.664Q434.191 562.459 433.554 562.243C427.808 560.271 414.86 556.917 412.34 551.071C409.939 545.5 415.879 534.951 418.059 529.778C416.671 525.927 415.076 521.548 411.34 519.385Q411.009 519.194 410.66 519.037Q410.311 518.88 409.949 518.759Q409.586 518.638 409.213 518.554Q408.84 518.47 408.461 518.424Q408.081 518.378 407.699 518.371Q407.316 518.363 406.935 518.394Q406.554 518.425 406.178 518.494Q405.802 518.563 405.435 518.67C398.693 520.584 394.637 527.962 391.247 533.532C386.703 540.206 380.968 545.698 375.206 551.292Q363.402 551.913 351.582 552.086C349.254 541.646 347.601 531.072 345.184 520.644Q383.342 509.423 422.32 501.507Z"/>
	<path fill="#282829" transform="scale(0.48 0.48)" d="M237.911 235.81C240.277 235.668 242.685 235.625 244.977 236.301C251.65 238.268 256.648 243.574 259.752 249.624C264.633 259.139 265.963 271.659 262.514 281.855C260.071 289.077 255.761 293.307 248.971 296.586Q248.007 296.797 247.023 296.885Q246.04 296.973 245.054 296.936Q244.067 296.899 243.093 296.737Q242.12 296.575 241.174 296.292C234.795 294.346 230.389 289.223 227.479 283.446C222.594 273.75 221.331 261.135 224.807 250.782C227.165 243.759 231.343 239.113 237.911 235.81ZM238.808 242.443C233.45 246.213 230.746 250.929 229.627 257.335C228.137 265.866 229.849 277.174 235.09 284.257C237.331 287.286 240.822 290.262 244.696 290.775C246.031 290.952 247.453 290.883 248.787 290.73C254.313 286.46 256.993 281.395 257.889 274.517C259.002 265.97 257.195 255.022 251.667 248.156C249.31 245.229 245.724 242.85 241.927 242.444C240.854 242.33 239.877 242.312 238.808 242.443Z"/>
	<path fill="#282829" transform="scale(0.48 0.48)" d="M241.877 250.81C242.315 250.911 242.755 251.008 243.185 251.138C246.633 252.18 249.119 254.612 250.757 257.782C252.954 262.034 253.305 267.481 251.84 272.037C250.422 276.446 248.237 278.422 244.362 280.54C243.825 280.403 243.931 280.441 243.295 280.216C239.518 278.882 237.085 276.207 235.444 272.593C233.395 268.079 233.003 262.44 234.823 257.799C236.265 254.125 238.404 252.453 241.877 250.81ZM240.41 255.703C238.625 259.746 238.048 263.742 239.831 267.984C241.011 270.793 242.683 272.476 245.421 273.731C247.026 269.812 248.282 266.035 246.673 261.824C245.511 258.783 243.276 257.012 240.41 255.703Z"/>
	<path fill="#7C8484" transform="scale(0.48 0.48)" d="M330.772 603.286C341.179 603.76 351.498 608.238 361.821 609.812C385.642 613.444 409.41 614.859 433.466 615.824C429.469 635.246 426.447 679.625 413.944 694.438C408.796 700.536 400.315 702.874 392.66 703.442L382.036 703.215Q385.091 683.536 389.745 664.172C388.54 660.966 387.366 657.703 385.818 654.644C378.635 640.448 366.049 628.925 350.761 624.125C334.287 618.953 320.369 624.396 305.77 631.93C306.43 626.477 307.541 621.044 308.487 615.634C315.3 610.415 323.085 607.003 330.772 603.286Z"/>
	<path fill="#D98F8C" transform="scale(0.48 0.48)" d="M308.635 87.7915C338.438 86.4303 369.147 102.806 392.831 119.382C352.604 119.223 317.646 134.854 284.275 156.127L274.337 135.421C274.018 134.706 273.927 133.921 273.771 133.156C277.473 128.152 285.928 130.776 290.794 127.175C291.202 125.789 291.354 125.401 290.506 124.074C289.793 122.957 288.646 122.391 287.39 122.145C283.605 121.405 278.813 123.17 275.253 124.35C262.002 128.739 249.587 135.814 238.428 144.167C234.504 147.106 230.925 150.466 226.816 153.163C225.069 154.31 223.725 155.128 221.624 154.697C221.393 154.078 221.31 153.993 221.316 153.228C221.363 147.328 230.68 136.003 234.548 131.411C254.337 107.918 276.859 90.5213 308.635 87.7915Z"/>
	<path fill="#7C8484" transform="scale(0.48 0.48)" d="M313.969 771.292C316.14 772.275 318.127 774.292 320.127 775.642C327.144 780.379 332.444 781.924 340.77 782.856C316.241 819.993 288.228 852.992 257.159 884.694L252.049 881.47C241.226 874.588 231.25 867.621 221.741 858.988C237.608 843.154 282.634 796.934 288.307 778.25C298.873 778.445 305.405 778.207 313.969 771.292Z"/>
	<path fill="#7C8484" transform="scale(0.48 0.48)" d="M490.325 753.819C494.37 758.983 495.576 769.819 497.043 776.149Q505.815 812.402 511.193 849.311C513.032 862.148 514.098 875.043 515.651 887.911C503.482 891.694 491.401 894.158 478.886 896.444C476.964 896.664 476.065 897.066 474.343 896.113C470.705 886.51 470.593 867.053 468.722 855.705C464.963 832.9 460.009 810.547 454.482 788.114C459.449 781.815 462.446 775.683 463.431 767.696C474.763 766.288 482.306 761.76 490.325 753.819Z"/>
	<path fill="#282829" transform="scale(0.48 0.48)" d="M460.795 720.833C462.384 720.67 463.867 720.625 465.451 720.903C467.71 721.299 469.84 722.589 471.067 724.551C472.413 726.701 472.558 729.115 471.936 731.532C470.935 735.423 468.296 737.469 464.976 739.326C464.075 739.353 463.148 739.368 462.256 739.221C459.778 738.81 457.229 737.624 455.75 735.529C454.287 733.456 454.083 730.792 454.565 728.362C455.325 724.54 457.752 722.812 460.795 720.833Z"/>
	<path fill="#282829" transform="scale(0.48 0.48)" d="M433.226 752.124C434.807 752.037 436.47 751.903 438.043 752.127C441.206 752.577 444.409 754.379 446.273 756.995C448.104 759.566 448.605 762.915 447.909 765.96C446.75 771.023 443.529 773.763 439.294 776.275C437.237 776.489 435.059 776.548 433.08 775.885Q432.467 775.68 431.878 775.417Q431.288 775.153 430.727 774.833Q430.167 774.512 429.64 774.139Q429.113 773.765 428.625 773.342Q428.137 772.919 427.693 772.45Q427.249 771.981 426.853 771.471Q426.457 770.961 426.112 770.414Q425.768 769.867 425.479 769.29C423.903 766.127 423.655 762.465 424.971 759.166C426.564 755.173 429.502 753.661 433.226 752.124ZM435.055 758.152C433.247 759.653 431.535 760.859 431.247 763.353C431.085 764.754 431.377 766.033 432.311 767.113C433.727 768.75 435.759 769.38 437.809 769.817C439.687 767.937 441.599 766.142 441.573 763.285C441.561 762.018 441.089 760.844 440.113 759.995C438.71 758.772 436.821 758.498 435.055 758.152Z"/>
	<path fill="#D98F8C" transform="scale(0.48 0.48)" d="M533.364 492.285C534.238 492.182 534.898 492.296 535.762 492.424C537.618 494.937 544.692 548.492 545.905 556.123C532.761 556.673 519.584 557.957 506.457 558.868L444.849 562.709C444.124 562.65 443.529 562.387 442.847 562.143C438.891 554.593 433.892 512.336 432.129 500.475Q482.718 496.035 533.364 492.285Z"/>
	<path fill="#282829" transform="scale(0.48 0.48)" d="M339.887 737.751C341.343 737.694 342.936 737.621 344.374 737.859C346.736 738.251 349.094 739.839 350.442 741.798Q350.69 742.16 350.898 742.546Q351.107 742.932 351.273 743.338Q351.44 743.744 351.563 744.165Q351.686 744.586 351.764 745.017Q351.842 745.449 351.874 745.887Q351.906 746.324 351.891 746.763Q351.877 747.201 351.816 747.636Q351.756 748.07 351.65 748.496C350.747 752.228 348.358 754.153 345.276 756.069C343.869 756.163 342.321 756.173 340.93 755.947C338.624 755.572 336.328 754.168 334.97 752.27C333.53 750.256 333.237 747.949 333.678 745.543C334.384 741.693 336.9 739.846 339.887 737.751Z"/>
	<path fill="#282829" transform="scale(0.48 0.48)" d="M293.047 736.507C295.123 736.299 297.4 736.051 299.456 736.528C303.018 737.354 306.364 739.857 308.112 743.073C309.702 745.995 310.015 749.354 308.889 752.489C307.443 756.517 304.351 758.305 300.763 760.124C298.521 760.617 296.101 760.828 293.857 760.263Q293.271 760.11 292.703 759.897Q292.135 759.685 291.592 759.415Q291.049 759.146 290.537 758.822Q290.024 758.498 289.547 758.124Q289.07 757.75 288.634 757.328Q288.199 756.907 287.808 756.443Q287.417 755.98 287.076 755.479Q286.735 754.977 286.447 754.444C284.865 751.522 284.464 747.906 285.429 744.719C286.705 740.509 289.368 738.465 293.047 736.507Z"/>
	<path fill="#F6F6F6" transform="scale(0.48 0.48)" d="M294.323 743.158C296.691 743.11 299.482 743.164 301.297 744.93C302.271 745.878 302.632 746.871 302.645 748.218C302.669 750.568 300.91 752.073 299.361 753.603C297.493 753.623 295.32 753.792 293.676 752.749C292.442 751.966 291.777 750.769 291.619 749.337C291.348 746.878 292.926 744.997 294.323 743.158Z"/>
	<path fill="#282829" transform="scale(0.48 0.48)" d="M405.319 419.745Q413.231 419.253 421.155 419.516Q429.078 419.779 436.94 420.795C440.862 434.19 444.452 446.839 445.25 460.862C428.795 463.293 412.203 464.433 395.721 467.068C387.248 468.437 378.829 470.404 370.426 472.155C366.309 460.652 362.543 447.427 360.83 435.295C360.431 432.469 360.41 429.041 362.351 426.735C367.238 420.927 396.456 420.366 405.319 419.745ZM414.293 425.996C398.479 426.663 382.832 427.824 367.218 430.495C368.853 441.889 371.089 453.323 374.871 464.223C379.689 463.209 384.79 462.425 389.526 461.122C405.978 458.403 422.576 455.907 439.238 454.974C437.445 445.341 434.786 435.979 432.038 426.583C426.16 426.31 420.174 425.781 414.293 425.996Z"/>
	<path fill="#282829" transform="scale(0.48 0.48)" d="M410.468 434.123C414.962 433.651 419.579 433.855 424.095 433.862L425.054 441.623C415.202 443.588 404.897 442.967 394.907 443.995C391.499 444.456 387.009 445.224 383.636 444.439C381.756 444.001 381.371 443.212 380.369 441.733C380.264 440.289 380.12 439.904 381.107 438.727C384.629 434.529 404.424 434.465 410.468 434.123Z"/>
	<path fill="#282829" transform="scale(0.48 0.48)" d="M460.294 294.687C460.896 294.907 461.301 295.029 461.875 295.368C463.123 296.103 463.827 297.464 463.938 298.881C464.261 303.029 459.375 308.286 456.562 310.963C450.688 316.554 443.05 319.689 434.903 319.351C425.296 318.952 418.316 314.086 411.946 307.281C411.146 306.051 410.036 304.382 409.828 302.91C409.623 301.451 410.122 300.622 411.009 299.567C415.979 299.799 420.619 307.161 424.823 309.966C429.627 313.171 435.298 314.512 440.97 313.196C450.532 310.977 455.605 302.479 460.294 294.687Z"/>
	<path fill="#282829" transform="scale(0.48 0.48)" d="M425.638 151.117C426.953 151.354 428.296 151.675 429.628 151.77Q430.505 154.825 431.197 157.927C431.811 160.673 433.743 168.16 431.68 170.54C429.103 173.511 419.143 173.377 415.284 173.567C410.928 173.78 400.001 174.78 396.719 171.392C392.277 166.808 391.84 157.422 391.727 151.443C393.232 151.489 394.836 151.247 396.342 151.121C398.036 156.433 399.409 161.89 400.902 167.265C409.272 167.078 417.629 166.927 425.979 166.277L425.602 164.513C424.703 160.24 423.089 155.026 425.638 151.117Z"/>
	<path fill="#282829" transform="scale(0.48 0.48)" d="M384.167 210.82C390.991 210.262 398.276 211.504 404.392 214.631C413.038 219.05 419.141 227.157 422.074 236.308C425.528 247.088 424.242 258.6 418.948 268.565C413.546 278.732 405.344 284.413 394.536 287.758Q393.756 287.857 392.972 287.921Q392.189 287.986 391.403 288.016Q390.617 288.047 389.831 288.043Q389.044 288.039 388.259 288.001Q387.474 287.962 386.691 287.89Q385.908 287.818 385.129 287.711Q384.35 287.605 383.576 287.465Q382.802 287.324 382.035 287.15Q381.268 286.977 380.51 286.77Q379.751 286.562 379.002 286.322Q378.254 286.083 377.516 285.81Q376.778 285.538 376.053 285.234Q375.328 284.929 374.617 284.594Q373.906 284.258 373.21 283.892Q372.514 283.526 371.835 283.13Q371.155 282.733 370.494 282.308C361.689 276.537 356.033 267.003 353.925 256.797C351.759 246.313 353.123 234.658 359.144 225.632C365.164 216.609 373.873 212.834 384.167 210.82ZM385.206 217.052C376.914 218.56 369.743 221.539 364.801 228.703C359.596 236.247 358.437 245.741 360.12 254.608C361.801 263.47 366.26 271.793 373.847 276.926C379.64 280.846 385.834 282.079 392.729 281.963C401.629 279.418 408.69 274.285 413.27 266.132Q413.705 265.354 414.101 264.555Q414.497 263.756 414.852 262.939Q415.208 262.121 415.521 261.286Q415.835 260.452 416.107 259.603Q416.379 258.754 416.608 257.892Q416.836 257.03 417.022 256.158Q417.207 255.286 417.349 254.406Q417.49 253.525 417.587 252.639Q417.684 251.753 417.737 250.863Q417.79 249.973 417.798 249.081Q417.806 248.19 417.769 247.299Q417.732 246.408 417.651 245.52Q417.57 244.632 417.444 243.75Q417.318 242.867 417.149 241.992Q416.979 241.116 416.766 240.251Q416.552 239.385 416.296 238.531C413.986 230.811 409.054 223.954 401.843 220.168C396.869 217.556 390.788 216.381 385.206 217.052Z"/>
	<path fill="#282829" transform="scale(0.48 0.48)" d="M395.796 229.333C399.635 229.528 402.463 230.566 405.195 233.372C408.967 237.247 410.535 243.215 410.331 248.531C410.107 254.335 408.151 258.604 403.909 262.519C402.945 262.774 401.952 263.027 400.948 263.03C398.221 263.038 395.567 261.538 393.749 259.581C390.306 255.874 389.173 249.26 389.265 244.355C389.381 238.239 391.435 233.616 395.796 229.333Z"/>
</svg>
