<?xml version="1.0" encoding="utf-8" ?>
<svg xmlns="http://www.w3.org/2000/svg" xmlns:xlink="http://www.w3.org/1999/xlink" width="768" height="614">
	<path fill="#1B2331" transform="scale(0.6 0.6)" d="M162.19 145.089C168.186 143.998 177.825 142.889 183.1 146.533C186.271 148.724 188.669 153.426 189.13 157.211C189.412 159.525 189.092 162.05 189.489 164.311C187.663 165.564 184.343 165.054 182.17 165.021C184.01 162.73 185.132 159.746 184.715 156.754C184.423 154.661 182.977 152.958 181.279 151.807C175.943 148.19 169.243 148.297 163.233 149.652L162.19 145.089Z"/>
	<path fill="#E0C7B6" transform="scale(0.6 0.6)" d="M236.561 931.607C234.734 936.901 230.934 944.879 233.595 950.295C239.496 962.305 276.007 973.586 288.412 977.322C293.338 978.806 298.683 979.94 303.448 981.858C288.171 984.88 200.107 972.429 181.145 968.035C173.305 966.219 158.591 963.336 154.184 956.26C153.992 954.656 153.808 953.806 154.877 952.478C164.38 940.677 219.675 933.904 236.561 931.607Z"/>
	<path fill="#143047" transform="scale(0.6 0.6)" d="M259.518 130.6C256.804 131.903 253.897 133.016 250.917 133.517C245.921 134.356 241.067 133.717 236.917 130.626C234.228 128.623 231.963 125.931 231.51 122.508C231.114 119.514 232.13 116.552 233.977 114.204C236.599 110.872 240.752 109.125 244.858 108.546C249.915 107.834 255.752 108.409 259.846 111.704C264.562 115.499 265.212 120.316 265.749 125.903C270.005 128.78 274.435 131.125 279.005 133.443C287.367 131.108 295.529 128.078 303.913 125.803C325.609 119.917 373.43 111.098 394.263 115.273C397.481 115.917 400.078 117.15 402.905 118.766C416.613 129.927 429.536 142.789 440.108 156.987C444.853 163.359 448.799 170.66 453.933 176.663C456.86 180.086 460.543 182.982 463.937 185.935C471.146 192.206 476.205 198.986 480.687 207.45Q482.28 210.4 483.634 213.467Q484.989 216.534 486.098 219.698Q487.206 222.863 488.062 226.105Q488.917 229.347 489.514 232.646C490.405 237.637 490.894 242.749 492.255 247.642C499.039 272.044 508.12 295.903 510.868 321.315C511.284 325.17 511.564 328.208 508.925 331.347C504.73 336.337 497.956 339.944 492.506 343.414C458.908 364.797 421.785 378.875 383.41 388.947L385.473 393.755C386.969 396.13 387.898 398.711 388.898 401.319L389.069 401.83C393.231 404.051 405.738 408.77 410.045 407.579C410.202 407.536 410.355 407.478 410.51 407.427C418.408 404.511 427.284 405.347 434.82 408.894C444.471 413.437 451.486 421.747 455.019 431.747C456.979 437.292 457.539 442.936 457.53 448.786C474.737 463.585 492.77 476.844 511.702 489.329Q534.654 481.697 557.403 473.479C566.102 470.364 575.048 467.537 583.431 463.634C582.121 459.981 581.655 456.736 581.506 452.86C571.823 454.18 562.231 456.085 552.631 457.899C546.51 459.057 539.918 460.838 533.668 460.759C531.615 460.732 529.915 460.604 528.282 459.273C524.99 456.592 524.487 452.446 524.199 448.46L524.163 447.914C524.676 448.7 525.026 449.72 525.974 449.94C527 450.178 527.765 450.061 528.797 449.949C533.106 448.616 537.406 448.002 541.855 447.377C542.041 445.802 542.068 444.516 541.911 442.939C551.315 439.746 561.256 438.448 571.086 437.331C570.312 434.274 569.573 431.342 569.341 428.185C569.489 427.986 569.632 427.783 569.785 427.587C573.159 423.272 581.884 422.552 586.907 421.825L587.844 420.977C583.096 417.231 564.168 423.36 563.377 416.239C562.767 410.751 572.64 398.038 576.417 394.096C596.331 373.306 634.45 363.979 662.498 363.571C678.708 363.335 696.122 367.055 708.131 378.698Q709.31 379.846 710.438 381.043Q710.885 387.203 711.566 393.341C713.949 393.846 716.107 394.042 717.524 396.249C719.742 399.704 719.703 405.561 720.148 409.633C728.589 407.625 754.163 400.696 761.997 402.963C763.35 404.433 763.652 405.764 763.546 407.762C763.346 411.499 761.757 415.645 760.162 419.007C748.32 421.17 736.546 423.751 724.692 425.806C712.229 427.966 699.289 429.45 687.171 433.147C679.813 451.998 657.664 464.877 639.796 472.692C630.724 476.659 620.783 478.697 611.92 482.907C603.479 486.916 595.993 492.712 587.839 497.265C574.317 504.817 560.226 511.382 546.235 518.006C530.591 525.414 514.837 533.032 498.847 539.666C493.378 541.935 486.322 542.71 481.277 545.611C476.874 548.143 473.853 552.526 469.601 555.374C477.47 588.7 479.111 627.829 477.19 662.044C476.485 674.61 473.124 693.769 474.459 705.222C475.927 717.815 482.151 736.884 486.544 749.208C489.775 758.273 496.68 767.561 496.264 777.392C495.74 780.018 495.391 782.497 495.248 785.18C498.271 805.815 520.533 870.76 530.296 888.843C558.588 892.865 585.509 902.26 612.862 910.088C623.579 913.155 635.666 915.038 645.889 919.233C649.295 920.631 652.998 922.561 655.309 925.501C656.528 927.052 657.272 928.926 657.034 930.922C656.463 935.698 651.288 940.165 647.605 942.829C640.614 947.885 632.078 951.276 624.014 954.254C586.735 968.02 546.183 971.342 506.737 970.217C498.637 969.985 490.245 970.008 482.25 968.661Q480.582 968.37 478.925 968.017C477.169 955.869 476.258 943.423 473.159 931.524C460.328 931.424 447.49 931.996 434.666 932.367C428.279 932.552 421.186 933.284 414.865 932.455C398.763 943.08 383.951 931.261 376.296 934.79C385.739 939.813 419.008 962.931 422.174 972.243C422.722 973.856 422.75 975.527 422.008 977.086C420.357 980.558 415.919 982.221 412.46 983.265C381.338 992.665 335.13 987.593 303.448 981.858C298.683 979.94 293.338 978.806 288.412 977.322C276.007 973.586 239.496 962.305 233.595 950.295C230.934 944.879 234.734 936.901 236.561 931.607C243.425 914.087 246.112 894.934 251.708 876.953C206.12 854.847 164.474 825.158 132.856 785.152C131.979 784.687 131.066 784.212 130.285 783.594C128.717 782.356 128.665 780.004 128.448 778.181C96.6726 740.775 73.702 676.781 67.5191 628.489Q66.9664 623.976 66.5032 619.452Q66.0401 614.929 65.6666 610.397Q65.2932 605.866 65.0096 601.327Q64.7261 596.789 64.5325 592.246Q64.3389 587.703 64.2353 583.157Q64.1318 578.611 64.1184 574.064Q64.1049 569.517 64.1816 564.971Q64.2583 560.424 64.425 555.88Q64.5917 551.337 64.8485 546.797Q65.1052 542.257 65.4519 537.723Q65.7985 533.189 66.2349 528.663Q66.6713 524.137 67.1973 519.621Q67.7234 515.104 68.3388 510.599Q68.9542 506.094 69.6587 501.602Q70.3633 497.109 71.1567 492.632Q71.9501 488.155 72.8321 483.694Q73.7141 479.234 74.6843 474.791Q75.6545 470.349 76.7125 465.927Q77.7706 461.505 78.916 457.104Q80.0615 452.704 81.2939 448.327Q82.5263 443.95 83.8452 439.599Q85.1641 435.247 86.569 430.923Q87.9739 426.598 89.4641 422.302Q90.9544 418.007 92.5295 413.741Q94.1046 409.476 95.764 405.243Q97.4233 401.009 99.1661 396.81Q100.909 392.61 102.735 388.446Q104.561 384.281 106.468 380.154Q108.376 376.027 110.366 371.938Q112.355 367.85 114.425 363.802Q116.495 359.753 118.645 355.747Q120.794 351.74 123.023 347.777C131.668 332.196 140.292 316.617 151.219 302.484C149.354 298.35 148.161 293.381 146.862 289.03C141.265 270.276 136.508 250.745 136.354 231.072C148.68 212.757 181.149 187.083 199.922 175.199C195.452 173.375 191.076 171.213 186.682 169.207C177.616 173.062 168.438 176.235 158.669 172.736C154.172 171.125 149.7 167.95 147.789 163.45C146.753 161.01 146.813 158.299 147.868 155.875C150.441 149.961 156.541 147.199 162.19 145.089L163.233 149.652C169.243 148.297 175.943 148.19 181.279 151.807C182.977 152.958 184.423 154.661 184.715 156.754C185.132 159.746 184.01 162.73 182.17 165.021C184.343 165.054 187.663 165.564 189.489 164.311C194.946 165.453 200.703 168.659 205.847 170.95C216.193 164.749 226.288 158.21 236.904 152.453C247.952 146.462 259.413 141.382 270.869 136.236C267.307 133.86 263.549 132.019 259.518 130.6Z"/>
	<path fill="#C45F63" transform="scale(0.6 0.6)" d="M285.512 564.839C287.414 567.47 289.904 570.124 289.42 573.574C288.808 574.352 288.585 574.63 287.687 575.112C286.772 574.08 285.893 573.035 285.268 571.796C283.989 569.262 284.604 567.387 285.512 564.839Z"/>
	<path fill="#D2D1D2" transform="scale(0.6 0.6)" d="M490.802 961.729C489.664 961.616 488.663 961.364 487.561 961.082C486.193 959.814 485.94 959.574 485.362 957.708C485.689 956.42 485.901 955.34 487.139 954.597C488.719 953.649 490.443 954.071 492.162 954.329C491.652 956.785 491.086 959.235 490.802 961.729Z"/>
	<path fill="#18191A" transform="scale(0.6 0.6)" d="M458.718 483.209C458.448 483.576 458.023 483.838 457.665 484.119C457.513 483.991 457.345 483.881 457.211 483.736C454.895 481.23 452.674 471.278 452.909 467.917L456.27 476.225C458.539 477.788 460.941 479.281 463.061 481.039C461.67 481.906 460.352 482.894 458.718 483.209Z"/>
	<path fill="#18191A" transform="scale(0.6 0.6)" d="M276.301 573.09C277.19 572.939 278.002 572.772 278.864 572.493C281.714 571.571 281.318 564.233 282.918 561.567C283.612 560.409 284.025 560.439 285.248 560.133C289.771 561.559 292.081 565.274 294.825 568.876C295.26 569.08 294.988 568.902 295.364 569.686L294.134 570.052C290.737 568.904 289.581 564.281 286.453 562.345L285.671 562.87L285.512 564.839C284.604 567.387 283.989 569.262 285.268 571.796C285.893 573.035 286.772 574.08 287.687 575.112C284.532 574.947 277.979 575.172 275.48 573.249L276.301 573.09Z"/>
	<path fill="#D2D1D2" transform="scale(0.6 0.6)" d="M458.718 483.209C463.313 484.68 469.069 491.063 473.07 494.105C475.386 495.866 478.164 497.287 480.652 498.829L480.924 499.571L480.713 499.873L473.875 501.225C468.9 497.475 459.965 492.159 458.858 485.667Q458.64 484.446 458.718 483.209Z"/>
	<path fill="#E0C7B6" transform="scale(0.6 0.6)" d="M704.321 392.155L707.018 392.939L707.635 394.15C706.859 395.927 705.641 396.418 703.868 397.105C696.398 400.002 684.834 402.736 676.829 402.341C678.481 400.445 680.459 398.766 682.292 397.044C690.172 397.773 697.063 394.833 704.321 392.155Z"/>
	<path fill="#18191A" transform="scale(0.6 0.6)" d="M389.069 401.83C393.231 404.051 405.738 408.77 410.045 407.579C410.202 407.536 410.355 407.478 410.51 407.427L410.623 408.059L406.331 411.331C410.65 413.852 419.024 418.604 420.263 424.037C420.434 424.788 420.398 424.793 420.369 425.451C415.959 421.071 411.584 416.76 406.417 413.272C405.068 413.963 404.74 414.096 403.921 415.348C402.143 414.231 400.482 413.308 398.509 412.581L396.306 414.01L395.654 413.687L394.289 412.126C391.968 410.986 389.464 411.306 386.941 411.367C387.816 410.43 389.085 409.317 389.578 408.129C390.115 406.835 389.263 405.8 388.729 404.624C388.41 403.321 388.59 403.109 389.069 401.83Z"/>
	<path fill="#967378" transform="scale(0.6 0.6)" d="M398.509 412.581C397.277 411.25 396.554 410.728 396.123 408.94C397.693 408.303 398.687 408.683 400.282 409.302C402.198 410.046 405.095 411.68 406.417 413.272C405.068 413.963 404.74 414.096 403.921 415.348C402.143 414.231 400.482 413.308 398.509 412.581Z"/>
	<path fill="#78BCB6" transform="scale(0.6 0.6)" d="M318.452 601.064C326.378 602.575 334.146 605.275 341.902 607.503C341.681 614.382 341.026 621.25 340.429 628.104L339.536 628.754C338.252 627.936 321.485 604.874 318.452 601.064Z"/>
	<path fill="#D2D1D2" transform="scale(0.6 0.6)" d="M243.042 113.86C248.328 113.564 253.7 113.537 258.155 116.914C259.76 118.131 260.09 119.272 260.301 121.198C259.059 124.903 256.287 126.131 253.087 127.936C251.446 128.283 249.488 128.408 247.804 128.259C244.316 127.951 239.916 126.345 237.716 123.469C236.831 122.312 236.389 120.919 236.746 119.466C237.456 116.577 240.648 115.132 243.042 113.86Z"/>
	<path fill="#F7F0D9" transform="scale(0.6 0.6)" d="M326.937 909.568C329.693 909.631 334.879 914.44 337.256 916.23C330.215 920.999 319.481 924.654 311.002 925.569C306.536 923.114 302.482 920.441 298.764 916.939C308.623 915.421 317.731 913.621 326.937 909.568Z"/>
	<path fill="#18191A" transform="scale(0.6 0.6)" d="M660.57 398.075C666.549 394.016 700.106 387.036 707.514 387.705C707.925 389.26 708.184 389.559 707.559 391.092C706.423 391.682 705.59 391.978 704.321 392.155C697.063 394.833 690.172 397.773 682.292 397.044C680.459 398.766 678.481 400.445 676.829 402.341C675.587 403.284 675.442 403.267 673.871 403.335C669.582 402.151 665.387 401.655 660.98 401.207C659.214 400.975 657.695 400.824 656.105 399.984C656.984 398.749 659.098 398.504 660.57 398.075Z"/>
	<path fill="#E0C7B6" transform="scale(0.6 0.6)" d="M660.57 398.075C666.549 394.016 700.106 387.036 707.514 387.705C696.578 391.135 681.806 391.548 672.99 398.837Q666.778 398.489 660.57 398.075Z"/>
	<path fill="#C45F63" transform="scale(0.6 0.6)" d="M276.301 573.09C275.914 572.561 275.533 572.035 275.316 571.408C273.715 566.78 273.314 556.828 275.865 552.659C276.89 550.984 278.588 549.707 280.552 549.413C286.866 548.467 294.049 553.84 298.847 557.323C297.751 561.083 296.912 565.547 294.825 568.876C292.081 565.274 289.771 561.559 285.248 560.133C284.025 560.439 283.612 560.409 282.918 561.567C281.318 564.233 281.714 571.571 278.864 572.493C278.002 572.772 277.19 572.939 276.301 573.09Z"/>
	<path fill="#F7F0D9" transform="scale(0.6 0.6)" d="M341.466 919.023C342.475 919.377 352.221 926.758 354.385 928.06C347.06 932.123 338.702 935.81 330.38 937.253Q322.788 933.588 315.862 928.78C325.012 926.794 333.051 922.975 341.466 919.023Z"/>
	<path fill="#D2D1D2" transform="scale(0.6 0.6)" d="M417.044 722.418C419.809 721.805 424.467 720.085 427.067 720.878C431.986 730.717 436.703 741.118 442.582 750.4C445.025 755.087 447.093 759.552 448.557 764.635C447.542 765.887 447.392 766.278 445.812 766.775C442.022 762.363 438.976 756.661 435.815 751.735L417.044 722.418Z"/>
	<path fill="#E0C7B6" transform="scale(0.6 0.6)" d="M660.98 401.207C665.387 401.655 669.582 402.151 673.871 403.335C665.716 406.834 605.576 417.054 595.409 417.309C591.499 417.406 588.459 416.489 584.792 415.245C598.124 412.203 611.672 412.529 624.989 409.977C628.503 409.304 631.496 406.654 634.622 404.971C642.193 400.895 652.609 401.308 660.98 401.207Z"/>
	<path fill="#F7F0D9" transform="scale(0.6 0.6)" d="M388.729 404.624C389.263 405.8 390.115 406.835 389.578 408.129C389.085 409.317 387.816 410.43 386.941 411.367C387.444 412.649 387.951 413.952 388.071 415.335C388.251 417.403 387.475 419.388 386.056 420.887C382.396 424.757 374.528 424.909 369.539 424.808C356.82 424.55 346.168 420.259 337.393 411.082C341.816 412.632 346.184 413.901 350.809 414.699C361.034 416.464 372.499 416.749 381.344 410.569C383.913 408.915 386.347 406.565 388.729 404.624Z"/>
	<path fill="#D2D1D2" transform="scale(0.6 0.6)" d="M297.603 598.237C297.625 596.885 297.617 596.809 298.427 595.734C303.377 595.356 310.254 599.572 313.875 602.757C324.158 611.804 332.297 626.665 339.61 638.077C338.902 641.661 338.341 645.202 337.935 648.832C334.853 644.81 332.145 640.399 329.311 636.194C321.02 621.042 309.925 610.039 297.603 598.237Z"/>
	<path fill="#C45F63" transform="scale(0.6 0.6)" d="M300.506 575.321C314.251 582.357 328.224 585.59 343.289 588.471C343.217 591.654 343.311 594.91 342.446 597.997C342.229 598.772 341.795 598.766 341.124 599.138C326.424 595.508 311.908 591.572 297.471 587C298.616 583.158 299.506 579.205 300.506 575.321Z"/>
	<path fill="#F7F0D9" transform="scale(0.6 0.6)" d="M414.984 412.185C418.887 411.93 422.952 412.096 426.741 413.126Q427.492 413.329 428.231 413.57Q428.971 413.811 429.697 414.088Q430.424 414.366 431.136 414.679Q431.847 414.993 432.542 415.342Q433.237 415.69 433.914 416.074Q434.591 416.457 435.248 416.874Q435.904 417.29 436.539 417.739Q437.174 418.189 437.786 418.669Q438.398 419.149 438.984 419.66Q439.571 420.17 440.132 420.71Q440.692 421.249 441.225 421.816Q441.758 422.382 442.261 422.975Q442.765 423.568 443.238 424.185Q443.712 424.802 444.153 425.442Q444.595 426.083 445.004 426.744Q445.414 427.406 445.789 428.087C450.249 436.256 449.783 443.768 447.163 452.402C446.654 452.998 446.356 452.987 445.633 453.235C444.959 452.752 433.328 431.669 430.88 428.397C426.537 422.59 418.387 417.87 414.984 412.185Z"/>
	<path fill="#D2D1D2" transform="scale(0.6 0.6)" d="M163.233 149.652C169.243 148.297 175.943 148.19 181.279 151.807C182.977 152.958 184.423 154.661 184.715 156.754C185.132 159.746 184.01 162.73 182.17 165.021C181.302 165.561 180.426 166.086 179.516 166.551C174.117 169.309 166.877 170.635 161.091 168.542C158.088 167.456 154.967 165.332 153.749 162.255C153.039 160.463 153.031 158.528 153.814 156.758C155.482 152.989 159.568 150.959 163.233 149.652Z"/>
	<path fill="#F7F0D9" transform="scale(0.6 0.6)" d="M488.871 262.626C496.516 283.231 500.838 304.978 504.939 326.516L496.119 332.509C491.336 313.861 490.059 294.099 480.252 277.101C483.867 272.478 486.542 268.002 488.871 262.626Z"/>
	<path fill="#78BCB6" transform="scale(0.6 0.6)" d="M314.491 502.816C324.201 505.597 330.965 507.055 341.066 505.355C341.708 510.33 344.938 524.828 342.003 529.084C341.52 529.784 340.888 529.756 340.122 529.974C330.581 528.829 321.313 527.507 311.991 525.124C314.288 518.053 313.282 510.108 314.491 502.816Z"/>
	<path fill="#78BCB6" transform="scale(0.6 0.6)" d="M306.89 555.628C316.591 558.6 326.297 561.53 336.55 561.47C339.035 561.903 341.68 561.916 344.2 562.086C344.37 567.345 345.32 573.908 344.617 579.022C344.432 580.36 344.56 580.616 343.478 581.481C334.567 582.239 311.752 573.632 302.657 570.098Q304.967 562.92 306.89 555.628Z"/>
	<path fill="#F7F0D9" transform="scale(0.6 0.6)" d="M428.022 176.404C441.273 176.145 451.687 182.418 460.978 191.44C475.518 205.559 484.861 229.349 485.032 249.51C485.1 257.554 483.509 266.128 477.643 272.042C474.888 274.82 471.858 276.176 468.197 277.298C467.804 274.546 472.991 269.492 474.296 266.564Q475.184 264.55 475.89 262.466Q476.597 260.382 477.118 258.244Q477.638 256.106 477.968 253.93Q478.299 251.754 478.436 249.558C479.851 224.999 463.656 196.676 442.783 184.064C439.064 181.817 430.908 180.318 428.478 177.089C428.313 176.87 428.174 176.632 428.022 176.404Z"/>
	<path fill="#D2D1D2" transform="scale(0.6 0.6)" d="M454.55 455.426C470.074 469.586 486.467 481.002 504.237 492.145C499.116 493.848 494.083 495.465 489.269 497.943C478.918 494.257 471.445 487.911 463.061 481.039C460.941 479.281 458.539 477.788 456.27 476.225L452.909 467.917C452.383 466.068 451.828 464.3 451.105 462.519Q452.802 458.96 454.55 455.426Z"/>
	<path fill="#D2D1D2" transform="scale(0.6 0.6)" d="M378.98 390.128C380.441 389.628 381.905 389.286 383.41 388.947L385.473 393.755C386.969 396.13 387.898 398.711 388.898 401.319L389.069 401.83C388.59 403.109 388.41 403.321 388.729 404.624C386.347 406.565 383.913 408.915 381.344 410.569L378.142 410.495C365.515 412.332 354.955 412.37 342.496 409.015L338.533 400.54C352.14 397.9 365.653 393.927 378.98 390.128Z"/>
	<path fill="#1B2331" transform="scale(0.6 0.6)" d="M378.98 390.128C380.441 389.628 381.905 389.286 383.41 388.947L385.473 393.755C386.969 396.13 387.898 398.711 388.898 401.319L389.069 401.83C388.59 403.109 388.41 403.321 388.729 404.624C386.347 406.565 383.913 408.915 381.344 410.569L378.142 410.495C379.089 409.668 379.987 408.802 380.687 407.748C383.058 404.178 381.647 399.412 380.896 395.55L380.009 392.685L378.98 390.128Z"/>
	<path fill="#1B2331" transform="scale(0.6 0.6)" d="M378.98 390.128C380.441 389.628 381.905 389.286 383.41 388.947L385.473 393.755C383.64 393.879 381.767 393.175 380.009 392.685L378.98 390.128Z"/>
	<path fill="#D87B7A" transform="scale(0.6 0.6)" d="M270.439 605.26C268.514 605.232 266.403 605.809 264.484 606.076C261.205 606.533 258.468 606.504 255.774 604.323C254.19 603.041 253.043 601.271 252.932 599.195C252.741 595.637 255.092 592.252 257.285 589.643C262.65 583.262 270.61 578.345 279.08 577.911C281.761 577.774 287.15 578.749 289.102 580.563L288.785 581.75C289.11 583.058 288.985 583.396 288.429 584.522C285.408 590.646 292.03 600.934 282.837 604.228C279.984 605.251 273.154 606.369 270.439 605.26Z"/>
	<path fill="#1B2331" transform="scale(0.6 0.6)" d="M270.439 605.26C275.14 603.977 283.515 602.375 286.185 597.871C281.956 595.365 270.219 602.744 264.412 600.263C263.225 599.756 263.243 599.432 262.855 598.3C263.304 596.254 264.165 594.804 265.431 593.161C271.346 585.484 279.511 582.879 288.785 581.75C289.11 583.058 288.985 583.396 288.429 584.522C285.408 590.646 292.03 600.934 282.837 604.228C279.984 605.251 273.154 606.369 270.439 605.26Z"/>
	<path fill="#D87B7A" transform="scale(0.6 0.6)" d="M281.747 587.641C283.244 587.449 284.183 587.289 285.602 587.979L285.453 588.874C281.794 592.138 276.269 594.093 271.836 596.119C270.762 596.643 270.137 597.18 268.921 597.038C270.545 593.126 278.1 589.344 281.747 587.641Z"/>
	<path fill="#D2D1D2" transform="scale(0.6 0.6)" d="M349.693 498.599C352.075 497.045 354.812 494.807 357.556 494.106L364.406 497.46L366.525 495.272C378.949 500.776 391.46 506.101 403.668 512.077C414.141 517.011 424.964 521.635 435.048 527.322L434.277 530.083C435.112 532.048 435.307 534.577 435.694 536.685C413.877 529.74 392.852 518.328 372.109 508.577C364.703 505.095 357.432 501.304 349.693 498.599Z"/>
	<path fill="#18191A" transform="scale(0.6 0.6)" d="M401.182 514.17L401.32 513.158L403.668 512.077C414.141 517.011 424.964 521.635 435.048 527.322L434.277 530.083C423.848 523.901 412.104 519.466 401.182 514.17Z"/>
	<path fill="#1B2331" transform="scale(0.6 0.6)" d="M366.525 495.272C378.949 500.776 391.46 506.101 403.668 512.077L401.32 513.158L401.182 514.17C388.774 509.017 376.658 502.994 364.406 497.46L366.525 495.272Z"/>
	<path fill="#D2D1D2" transform="scale(0.6 0.6)" d="M449.568 515.06C451.539 515.095 453.63 515.324 455.546 515.814C462.289 517.538 469.144 522.201 472.61 528.325C474.614 531.866 475.618 535.946 474.407 539.934C472.856 545.04 468.889 547.532 464.482 549.883C462.137 550.315 459.874 550.549 457.495 550.219Q456.988 550.145 456.485 550.046Q455.982 549.947 455.485 549.822Q454.988 549.697 454.497 549.547Q454.007 549.398 453.525 549.223Q453.043 549.049 452.571 548.85Q452.098 548.652 451.636 548.429Q451.175 548.207 450.725 547.961Q450.275 547.716 449.838 547.448Q449.401 547.18 448.978 546.89Q448.555 546.6 448.148 546.289Q447.74 545.978 447.349 545.647Q446.957 545.316 446.583 544.965Q446.209 544.615 445.854 544.246Q445.498 543.877 445.161 543.49Q444.825 543.103 444.508 542.7Q444.192 542.297 443.896 541.878C440.868 537.636 439.331 532.196 440.292 527.019C441.384 521.138 444.843 518.137 449.568 515.06Z"/>
	<path fill="#D2D1D2" transform="scale(0.6 0.6)" d="M469.179 755.752C470.714 755.613 472.183 755.634 473.712 755.875C478.114 756.569 482.226 759.005 484.794 762.658C488.338 767.699 489.224 774.502 487.975 780.459C486.561 787.208 482.926 791.527 477.276 795.278C475.26 795.86 473.432 796.225 471.327 795.913C467.803 795.392 464.93 793.774 462.818 790.892C458.851 785.481 457.702 777.458 458.937 770.97C460.228 764.185 463.536 759.62 469.179 755.752Z"/>
	<path fill="#D2D1D2" transform="scale(0.6 0.6)" d="M450.965 795.454C452.504 796.698 454.1 797.843 455.713 798.99C457.792 800.622 458.977 801.198 459.301 803.988C460.51 814.398 460.447 824.49 462.302 834.92C465.121 850.779 469.4 866.654 474.48 881.943C477.291 890.403 480.706 898.765 483.213 907.311C479.998 907.041 476.844 906.811 473.615 906.874C468.894 899.095 466.826 889.859 464.469 881.144C456.798 852.788 451.721 824.865 450.965 795.454Z"/>
	<path fill="#D2D1D2" transform="scale(0.6 0.6)" d="M334.625 423.464C348.012 422.476 356.065 427.038 368.531 428.163C374.56 428.707 380.656 425.447 386.624 427.323C393.254 439.544 400.496 452.492 403.033 466.353C395.652 466.24 387.955 468.427 380.776 469.963C379.585 459.842 377.715 449.877 371.571 441.477C362.517 429.097 348.992 425.737 334.625 423.464Z"/>
	<path fill="#D2D1D2" transform="scale(0.6 0.6)" d="M309.123 765.106Q308.614 763.537 308.158 761.951C298.397 728.578 290.987 680.997 288.247 646.504C287.667 639.198 286.546 631.016 287.701 623.757C288.074 621.416 289.005 619.561 290.125 617.516L292.366 623.205C290.342 632.62 295.466 664.115 298.27 674.41C299.316 681.921 300.738 689.331 302.209 696.769C305.121 711.956 307.301 728.03 311.977 742.755C312.866 748.886 314.41 754.876 315.865 760.891C314.006 762.815 311.473 763.883 309.123 765.106Z"/>
	<path fill="#D2D1D2" transform="scale(0.6 0.6)" d="M395.654 413.687L396.306 414.01C396.414 414.148 396.521 414.287 396.631 414.425C401.6 420.616 407.922 425.345 412.662 431.878C417.026 437.895 422.355 449.28 426.216 453.739C426.224 456.203 426.2 457.758 424.337 459.515C419.98 463.625 411.983 463.119 406.509 465.308C405.371 465.658 404.195 466.111 403.033 466.353C400.496 452.492 393.254 439.544 386.624 427.323L388.364 425.691C388.066 423.413 394.178 415.832 395.654 413.687Z"/>
	<path fill="#18191A" transform="scale(0.6 0.6)" d="M386.624 427.323L388.364 425.691C397.988 438.614 400.792 450.894 406.509 465.308C405.371 465.658 404.195 466.111 403.033 466.353C400.496 452.492 393.254 439.544 386.624 427.323Z"/>
	<path fill="#D2D1D2" transform="scale(0.6 0.6)" d="M592.689 478.521L594.321 480.148C595.132 481.724 596.086 482.761 595.771 484.537C587.708 489.443 578.772 493.358 570.298 497.515C543.401 510.71 515.404 522.169 488.999 536.298C487.08 534.667 484.989 533.09 483.218 531.306L481.093 528.45C492.135 522.586 505.563 517.782 517.136 512.493C542.229 501.023 567.154 488.97 592.689 478.521Z"/>
	<path fill="#1B2331" transform="scale(0.6 0.6)" d="M592.689 478.521L594.321 480.148C580.506 485.567 567.378 492.681 553.967 499.024Q518.803 515.626 483.218 531.306L481.093 528.45C492.135 522.586 505.563 517.782 517.136 512.493C542.229 501.023 567.154 488.97 592.689 478.521Z"/>
	<path fill="#D2D1D2" transform="scale(0.6 0.6)" d="M339.967 760.226C341.754 760.181 343.802 760.4 345.48 761.021C348.547 762.155 351.039 764.39 352.346 767.402C355.185 773.94 353.261 782.781 350.572 789.071C347.405 796.48 343.208 801.392 335.629 804.371C331.011 803.758 328.018 802.249 324.288 799.565C320.944 791.542 319.942 783.805 323.285 775.538C326.525 767.527 332.294 763.513 339.967 760.226Z"/>
	<path fill="#78BCB6" transform="scale(0.6 0.6)" d="M311.991 525.124C321.313 527.507 330.581 528.829 340.122 529.974L342.152 530.913L342.411 531.968L341.355 532.931L342.778 533.472C344.588 538.843 343.579 551.575 343.885 557.822C343.927 559.466 344.221 559.87 343.081 561.123C340.868 561.498 338.743 561.185 336.55 561.47C326.297 561.53 316.591 558.6 306.89 555.628L306.299 554.508C306.555 552.759 306.527 552.841 307.897 551.719C309.288 544.246 310.658 536.729 311.513 529.174C311.267 527.429 311.295 526.743 311.991 525.124Z"/>
	<path fill="#1B2331" transform="scale(0.6 0.6)" d="M311.991 525.124C321.313 527.507 330.581 528.829 340.122 529.974L342.152 530.913L342.411 531.968L341.355 532.931C331.079 532.646 321.627 530.186 311.513 529.174C311.267 527.429 311.295 526.743 311.991 525.124Z"/>
	<path fill="#1B2331" transform="scale(0.6 0.6)" d="M306.89 555.628L306.299 554.508C306.555 552.759 306.527 552.841 307.897 551.719C319.684 554.489 331.763 557.118 343.885 557.822C343.927 559.466 344.221 559.87 343.081 561.123C340.868 561.498 338.743 561.185 336.55 561.47C326.297 561.53 316.591 558.6 306.89 555.628Z"/>
	<path fill="#C45F63" transform="scale(0.6 0.6)" d="M282.991 609.485L283.399 610.044C283.407 616.707 280.201 624.928 278.813 631.555C276.569 642.265 268.918 689.56 262.041 696.267C257.619 700.58 246.577 699.579 240.807 699.595L240.552 699.287C240.259 697.529 241.058 696.003 241.731 694.375C245.152 686.097 249.838 678.172 253.593 670.002C260.684 654.577 267.166 638.908 274.78 623.721C277.247 618.799 279.89 614.043 282.991 609.485Z"/>
	<path fill="#C45F63" transform="scale(0.6 0.6)" d="M348.026 506.164L414.762 537.621C426.613 543.276 438.3 550.063 450.688 554.45C454.572 555.825 457.625 556.47 461.757 556.163C459.384 559.005 457.446 562.82 454.111 564.622C451.074 566.263 446.034 564.219 443.012 563.137C430.284 558.576 418.372 551.196 406.276 545.179C394.562 539.352 382.43 534.39 370.686 528.61C364.501 525.565 357.194 520.854 350.634 519.093C349.507 520.369 349.951 522.823 349.936 524.534C349.009 518.518 348.219 512.248 348.026 506.164Z"/>
	<path fill="#D2D1D2" transform="scale(0.6 0.6)" d="M333.307 428.493C345.131 428.96 355.003 431.645 363.543 440.292C369.823 446.65 376.556 458.667 376.142 467.848C376.045 470.006 375.469 470.996 373.972 472.443C371.977 472.463 370.254 471.299 368.529 470.401C368.098 465.124 367.008 460.046 364.544 455.328C360.642 447.857 353.779 441.809 345.688 439.304C338.308 437.02 329.724 437.831 322.932 441.524C314.404 446.161 310.23 454.097 307.552 463.088C307.046 469.507 307.103 475.949 309.794 481.923C315.142 493.798 327.399 496.853 338.567 501.023C329.017 501.763 320.223 500.993 312.327 495.024C304.896 489.405 300.444 480.79 299.215 471.637Q299.088 470.67 299.008 469.698Q298.928 468.726 298.895 467.751Q298.862 466.776 298.877 465.8Q298.892 464.825 298.954 463.852Q299.016 462.878 299.126 461.909Q299.236 460.94 299.392 459.977Q299.549 459.014 299.752 458.06Q299.955 457.106 300.205 456.163Q300.454 455.22 300.75 454.29Q301.045 453.361 301.385 452.446Q301.725 451.532 302.109 450.636Q302.493 449.739 302.92 448.862Q303.347 447.985 303.817 447.13Q304.286 446.275 304.797 445.444Q305.307 444.613 305.858 443.808Q306.408 443.003 306.997 442.225C313.654 433.613 322.744 429.829 333.307 428.493Z"/>
	<path fill="#D2D1D2" transform="scale(0.6 0.6)" d="M367.008 477.362C381.615 483.173 395.558 490.432 409.656 497.355C420.272 502.567 431.065 507.375 441.421 513.109C438.454 517.794 436.229 521.885 435.048 527.322C424.964 521.635 414.141 517.011 403.668 512.077C391.46 506.101 378.949 500.776 366.525 495.272L364.406 497.46L357.556 494.106L358.855 491.744C362.647 487.552 364.871 482.542 367.008 477.362Z"/>
	<path fill="#18191A" transform="scale(0.6 0.6)" d="M358.855 491.744C361.462 492.824 364.094 493.826 366.525 495.272L364.406 497.46L357.556 494.106L358.855 491.744Z"/>
	<path fill="#F7F0D9" transform="scale(0.6 0.6)" d="M492.162 954.329C528.916 956.906 579.235 949.593 614.437 938.306C620.971 936.21 637.676 926.922 641.447 926.31C643.555 925.969 645.644 926.863 647.458 927.822C648.538 929.26 648.574 929.223 648.475 931.009C642.501 940.853 603.188 950.6 591.714 953.426C559.325 961.404 524.068 965.32 490.802 961.729C491.086 959.235 491.652 956.785 492.162 954.329Z"/>
	<path fill="#C45F63" transform="scale(0.6 0.6)" d="M592.753 423.157C606.819 421.848 621.51 417.366 635.453 414.701C661.126 409.793 688.469 407.018 713.264 398.752C714.553 402.534 715.098 406.06 715.311 410.044Q670.357 418.312 625.515 427.168C611.093 430.067 589.572 436.589 575.551 436.523C575.006 434.087 574.639 431.367 573.773 429.039C571.943 429.122 570.983 429.023 569.341 428.185C569.489 427.986 569.632 427.783 569.785 427.587C573.159 423.272 581.884 422.552 586.907 421.825C589.311 421.827 590.714 421.811 592.753 423.157Z"/>
	<path fill="#18191A" transform="scale(0.6 0.6)" d="M586.907 421.825C589.311 421.827 590.714 421.811 592.753 423.157C586.324 424.479 579.248 425.148 573.773 429.039C571.943 429.122 570.983 429.023 569.341 428.185C569.489 427.986 569.632 427.783 569.785 427.587C573.159 423.272 581.884 422.552 586.907 421.825Z"/>
	<path fill="#F7F0D9" transform="scale(0.6 0.6)" d="M242.345 938.952C255.679 946.673 269.222 953.707 283.719 959.014C316.153 970.887 373.829 981.339 406.008 966.362C408.427 968.155 412.631 970.614 413.468 973.55L412.373 974.389C406.58 976.571 400.779 978.264 394.687 979.392C347.536 988.122 279.307 975.007 239.719 947.521L242.345 938.952Z"/>
	<path fill="#D2D1D2" transform="scale(0.6 0.6)" d="M541.855 447.377L680.38 421.128L726.694 412.424C733.671 411.064 740.469 409.101 747.534 408.125C750.492 407.717 756.131 406.869 758.787 408.493C758.931 408.581 759.026 408.73 759.146 408.848C758.998 410.873 758.578 411.409 757.055 412.798C754.98 414.691 751.861 415.582 749.157 416.145C743.684 417.284 738.055 417.62 732.544 418.557Q704.806 423.38 677.12 428.494L579.115 447.306C563.127 450.412 547.236 453.982 531.181 456.742L528.797 449.949C533.106 448.616 537.406 448.002 541.855 447.377Z"/>
	<path fill="#D2D1D2" transform="scale(0.6 0.6)" d="M430.568 719.542C442.304 718.5 455.725 713.525 466.243 708.439C473.541 720.901 474.929 736.404 479.092 750.081C471.689 750.074 464.271 750.514 458.608 755.956C457.204 757.304 455.657 759.055 455.257 761.012C455.06 762.476 454.911 763.14 454.008 764.374C452.405 764.791 451.416 764.812 449.776 764.609C449.021 764.515 449.355 764.523 448.557 764.635C447.093 759.552 445.025 755.087 442.582 750.4C436.703 741.118 431.986 730.717 427.067 720.878C428.408 719.531 428.739 719.718 430.568 719.542Z"/>
	<path fill="#18191A" transform="scale(0.6 0.6)" d="M442.582 750.4L444.622 748.285C446.459 751.427 450.392 761.006 453.706 762.285L455.257 761.012C455.06 762.476 454.911 763.14 454.008 764.374C452.405 764.791 451.416 764.812 449.776 764.609C449.021 764.515 449.355 764.523 448.557 764.635C447.093 759.552 445.025 755.087 442.582 750.4Z"/>
	<path fill="#1B2331" transform="scale(0.6 0.6)" d="M427.067 720.878C428.408 719.531 428.739 719.718 430.568 719.542C433.142 726.105 436.176 732.273 439.464 738.502C441.133 741.665 443.33 745 444.622 748.285L442.582 750.4C436.703 741.118 431.986 730.717 427.067 720.878Z"/>
	<path fill="#C45F63" transform="scale(0.6 0.6)" d="M641.788 447.812C651.25 441.498 669.21 430.424 681.052 432.673C681.724 432.801 682.129 433.029 682.634 433.477C682.868 435.116 682.542 435.661 681.518 436.965C679.495 439.54 676.581 441.824 674.125 444.008C658.136 458.226 640.445 466.171 620.335 472.756C614.466 474.678 608.491 476.823 602.443 478.087C595.913 470.366 591.27 462.537 587.265 453.275L609.046 448.116C610.185 448.089 610.444 448.079 611.441 448.603C611.693 450.39 611.996 451.738 612.783 453.368C620.517 459.528 633.167 447.294 641.788 447.812Z"/>
	<path fill="#18191A" transform="scale(0.6 0.6)" d="M609.046 448.116C610.185 448.089 610.444 448.079 611.441 448.603C611.693 450.39 611.996 451.738 612.783 453.368C620.517 459.528 633.167 447.294 641.788 447.812C635.512 452.515 625.42 458.595 617.197 457.576C614.716 457.268 612.569 456.189 611.058 454.167C609.742 452.405 609.368 450.237 609.046 448.116Z"/>
	<path fill="#D2D1D2" transform="scale(0.6 0.6)" d="M587.729 469.864C589.007 472.827 591.965 475.52 592.689 478.521C567.154 488.97 542.229 501.023 517.136 512.493C505.563 517.782 492.135 522.586 481.093 528.45C480.838 527.952 480.596 527.448 480.344 526.949C477.568 521.452 476.801 515.983 476.047 509.951Q532.315 491.099 587.729 469.864Z"/>
	<path fill="#D2D1D2" transform="scale(0.6 0.6)" d="M297.626 792.867C299.386 795.006 301.012 797.192 303.523 798.488C304.367 799.404 305.2 800.156 305.524 801.4C289.759 836.192 276.968 870.957 269.023 908.388L267.816 909.069L266.539 908.449C262.951 906.557 258.776 906.303 255.166 904.582C253.817 903.939 253.176 903.773 252.768 902.216C251.617 897.822 255.259 889.162 256.573 884.944C266.732 852.321 280.247 822.266 297.626 792.867Z"/>
	<path fill="#18191A" transform="scale(0.6 0.6)" d="M303.523 798.488C304.367 799.404 305.2 800.156 305.524 801.4C289.759 836.192 276.968 870.957 269.023 908.388L267.816 909.069L266.539 908.449C267.266 901.729 269.273 894.848 270.879 888.281C274.439 873.724 278.642 858.876 284.066 844.888C290.125 829.265 297.484 814.142 303.523 798.488Z"/>
	<path fill="#D2D1D2" transform="scale(0.6 0.6)" d="M336.77 443.481C342.186 444.187 346.975 445.146 351.602 448.213Q352.145 448.575 352.67 448.964Q353.195 449.353 353.699 449.767Q354.204 450.182 354.687 450.621Q355.17 451.061 355.63 451.524Q356.091 451.987 356.527 452.473Q356.964 452.958 357.375 453.465Q357.787 453.972 358.173 454.499Q358.559 455.026 358.917 455.572Q359.276 456.118 359.607 456.681Q359.938 457.244 360.24 457.823Q360.543 458.402 360.816 458.995Q361.089 459.588 361.331 460.195Q361.574 460.801 361.786 461.419Q361.998 462.036 362.179 462.664Q362.36 463.292 362.509 463.928Q362.658 464.563 362.775 465.206C363.942 471.428 363.001 478.223 359.358 483.496C354.867 489.994 348.342 492.261 340.903 493.555C334.462 493.263 328.43 491.847 323.166 487.959Q322.678 487.603 322.209 487.224Q321.739 486.844 321.289 486.442Q320.838 486.039 320.408 485.615Q319.979 485.191 319.57 484.746Q319.162 484.301 318.776 483.837Q318.39 483.372 318.028 482.889Q317.665 482.406 317.327 481.906Q316.989 481.406 316.676 480.889Q316.363 480.373 316.076 479.842Q315.789 479.31 315.528 478.766Q315.268 478.221 315.034 477.664Q314.801 477.107 314.596 476.539Q314.39 475.971 314.213 475.393Q314.036 474.816 313.888 474.231Q313.739 473.645 313.62 473.053Q313.501 472.461 313.411 471.864Q313.319 471.256 313.257 470.643Q313.195 470.031 313.163 469.417Q313.131 468.802 313.129 468.187Q313.127 467.571 313.155 466.957Q313.183 466.342 313.242 465.729Q313.3 465.117 313.388 464.508Q313.477 463.899 313.595 463.295Q313.713 462.691 313.86 462.093Q314.008 461.496 314.184 460.906Q314.361 460.317 314.566 459.737Q314.771 459.157 315.004 458.587Q315.238 458.018 315.499 457.461Q315.76 456.903 316.048 456.36Q316.335 455.816 316.65 455.287Q316.964 454.758 317.304 454.245Q317.643 453.732 318.008 453.236C322.754 446.907 329.229 444.638 336.77 443.481Z"/>
	<path fill="#D87B7A" transform="scale(0.6 0.6)" d="M398.509 412.581C400.482 413.308 402.143 414.231 403.921 415.348C404.74 414.096 405.068 413.963 406.417 413.272C411.584 416.76 415.959 421.071 420.369 425.451C439.199 449.244 451.709 480.419 456.81 510.231C429.818 499.715 404.287 486.163 377.695 474.744C394.723 472.533 410.704 469.866 427.003 464.265C427.433 462.983 427.826 462.147 428.643 461.038C428.133 458.632 427.9 455.514 426.216 453.739C422.355 449.28 417.026 437.895 412.662 431.878C407.922 425.345 401.6 420.616 396.631 414.425C396.521 414.287 396.414 414.148 396.306 414.01L398.509 412.581Z"/>
	<path fill="#1B2331" transform="scale(0.6 0.6)" d="M398.509 412.581C400.482 413.308 402.143 414.231 403.921 415.348C414.799 425.485 425.509 436.835 431.143 450.866C432.172 453.658 434.131 457.467 432.715 460.391C431.656 462.579 429.099 463.386 427.003 464.265C427.433 462.983 427.826 462.147 428.643 461.038C428.133 458.632 427.9 455.514 426.216 453.739C422.355 449.28 417.026 437.895 412.662 431.878C407.922 425.345 401.6 420.616 396.631 414.425C396.521 414.287 396.414 414.148 396.306 414.01L398.509 412.581Z"/>
	<path fill="#E0C7B6" transform="scale(0.6 0.6)" d="M660.779 369.728C677.385 368.103 692.89 372.999 706.198 382.778C696.19 385.25 687.133 387.124 676.735 386.271C673.932 388.407 671.307 390.107 668.013 391.393C660.101 394.482 651.583 395.783 643.42 398.058C631.616 401.347 621.069 405.662 608.767 407.391C595.131 408.802 581.669 412.693 568.43 416.112C571.195 410.983 574.331 406.096 578.122 401.662C598.259 378.109 631.414 371.984 660.779 369.728Z"/>
	<path fill="#18191A" transform="scale(0.6 0.6)" d="M657.889 374.378C658.681 375.097 659.462 375.924 660.356 376.509C659.033 377.618 658.258 377.958 657.77 379.644C658.443 380.663 659.014 381.432 659.928 382.262L659.861 385.724C658.493 385.01 657.047 384.209 655.968 383.084C655.054 382.131 654.367 380.806 654.444 379.459C654.577 377.148 656.255 375.776 657.889 374.378Z"/>
	<path fill="#143047" transform="scale(0.6 0.6)" d="M657.889 374.378C661.571 373.035 665.567 371.594 669.419 373.227C670.991 373.893 672.283 374.966 672.868 376.609C673.531 378.473 673.158 380.443 672.175 382.117Q671.95 382.504 671.686 382.866Q671.422 383.227 671.122 383.559Q670.821 383.891 670.488 384.19Q670.154 384.488 669.792 384.75Q669.429 385.013 669.04 385.235Q668.652 385.458 668.242 385.638Q667.833 385.819 667.406 385.956Q666.98 386.093 666.542 386.184C664.245 386.668 662.11 386.226 659.861 385.724L659.928 382.262C659.014 381.432 658.443 380.663 657.77 379.644C658.258 377.958 659.033 377.618 660.356 376.509C659.462 375.924 658.681 375.097 657.889 374.378Z"/>
	<path fill="#58A79E" transform="scale(0.6 0.6)" d="M660.356 376.509C662.142 375.915 664.408 374.94 666.191 376.069C666.95 376.551 666.967 376.622 667.544 377.197C667.713 378.564 667.64 379.165 666.685 380.237C665.166 381.94 662.044 382.074 659.928 382.262C659.014 381.432 658.443 380.663 657.77 379.644C658.258 377.958 659.033 377.618 660.356 376.509Z"/>
	<path fill="#143047" transform="scale(0.6 0.6)" d="M631.075 377.592C632.765 377.501 634.591 377.455 636.248 377.842C638.407 378.346 640.646 379.728 641.663 381.754C642.29 383.001 642.362 384.329 641.911 385.647C640.868 388.687 638.258 389.82 635.591 391.123C634.163 391.396 632.576 391.217 631.133 391.05C628.982 390.801 626.712 390.044 625.417 388.2C624.495 386.888 624.319 385.182 624.697 383.646C625.509 380.351 628.364 379.1 631.075 377.592Z"/>
	<path fill="#58A79E" transform="scale(0.6 0.6)" d="M630.854 381.061C631.31 381.078 631.767 381.085 632.219 381.137C633.944 381.334 635.346 381.802 636.469 383.172C636.555 385.149 636.338 385.167 635.198 386.671C634.221 386.78 633.174 386.938 632.191 386.884C630.674 386.801 629.918 386.446 628.89 385.381C628.981 383.249 629.627 382.758 630.854 381.061Z"/>
	<path fill="#18191A" transform="scale(0.6 0.6)" d="M603.331 387.068C605.562 386.889 608.11 386.688 610.226 387.51C611.918 388.169 613.296 389.256 613.911 391.004C614.353 392.26 614.257 393.663 613.653 394.874C612.13 397.929 608.994 398.911 606.008 399.939C603.459 400.155 600.74 400.381 598.344 399.298C596.864 398.629 595.567 397.501 595.081 395.905C594.687 394.612 594.949 393.222 595.572 392.046C597.144 389.081 600.38 388.085 603.331 387.068Z"/>
	<path fill="#58A79E" transform="scale(0.6 0.6)" d="M602.444 390.134C603.873 390.308 605.652 390.39 606.957 390.984C608.162 391.534 608.17 391.82 608.545 392.989C607.627 394.785 605.919 395.309 604.173 396.128C602.422 396.295 600.477 396.43 599.053 395.204C598.18 394.452 598.393 394.183 598.265 393.101C599.296 391.275 600.558 390.903 602.444 390.134Z"/>
	<path fill="#F7F0D9" transform="scale(0.6 0.6)" d="M406.655 722.53C420.458 738.157 432.307 758.012 440.911 776.961C434.026 778.282 426.354 777.846 419.344 777.981Q390.018 778.515 360.701 777.588C360.57 771.355 358.951 765.772 355.982 760.279C356.746 748.166 359.1 736.194 361.171 724.249C376.119 724.553 391.808 724.323 406.655 722.53Z"/>
	<path fill="#D2D1D2" transform="scale(0.6 0.6)" d="M462.204 802.204C467.625 804.422 473.767 803.592 479.056 801.351C482.754 799.783 485.882 797.542 488.842 794.849C498.263 828.444 509.389 861.221 524.399 892.792C518.993 896.369 512.519 898.724 507.376 902.43C506.562 904.122 504.69 904.428 502.954 905.025C497.972 906.739 490.029 908.84 484.753 908.248L483.213 907.311C480.706 898.765 477.291 890.403 474.48 881.943C469.4 866.654 465.121 850.779 462.302 834.92C460.447 824.49 460.51 814.398 459.301 803.988C458.977 801.198 457.792 800.622 455.713 798.99C457.938 799.296 460.666 800.51 462.204 802.204Z"/>
	<defs>
		<linearGradient id="gradient_0" gradientUnits="userSpaceOnUse" x1="473.61697" y1="849.37494" x2="465.79456" y2="851.85168">
			<stop offset="0" stop-color="#1E1A20"/>
			<stop offset="1" stop-color="#2B333C"/>
		</linearGradient>
	</defs>
	<path fill="url(#gradient_0)" transform="scale(0.6 0.6)" d="M455.713 798.99C457.938 799.296 460.666 800.51 462.204 802.204C459.02 824.09 478.012 884.422 486.165 906.737C491.49 906.244 504.862 902.417 507.376 902.43C506.562 904.122 504.69 904.428 502.954 905.025C497.972 906.739 490.029 908.84 484.753 908.248L483.213 907.311C480.706 898.765 477.291 890.403 474.48 881.943C469.4 866.654 465.121 850.779 462.302 834.92C460.447 824.49 460.51 814.398 459.301 803.988C458.977 801.198 457.792 800.622 455.713 798.99Z"/>
	<path fill="#D87B7A" transform="scale(0.6 0.6)" d="M250.339 910.105C264.308 914.084 278.442 916.113 292.889 917.227C304.335 927.565 318.294 936.281 332.099 943.129Q345.48 937.938 358.445 931.78C373.298 940.875 387.939 951.778 401.596 962.562C401.514 962.589 401.432 962.618 401.349 962.643C369.952 971.991 326.791 966.42 295.889 956.576C277.889 950.842 260.685 942.554 244.037 933.724C246.011 925.816 247.927 917.894 250.339 910.105Z"/>
	<path fill="#D2D1D2" transform="scale(0.6 0.6)" d="M305.524 801.4C307.776 801.917 309.737 803.771 311.707 804.95C319.5 809.616 327.178 811.082 336.157 810.153C331.683 829.973 328.068 850.087 326.519 870.37C325.681 881.342 326.498 892.472 324.811 903.374C309.123 908.382 293.538 911.717 276.981 909.803C274.464 909.512 271.345 909.403 269.023 908.388C276.968 870.957 289.759 836.192 305.524 801.4Z"/>
	<path fill="#78BCB6" transform="scale(0.6 0.6)" d="M468.197 277.298C459.607 278.995 452.108 276.851 444.92 271.99C428.281 260.741 415.79 239.069 412.28 219.514C410.348 208.752 409.93 192.812 416.764 183.527C419.579 179.702 423.339 177.24 428.022 176.404C428.174 176.632 428.313 176.87 428.478 177.089C430.908 180.318 439.064 181.817 442.783 184.064C463.656 196.676 479.851 224.999 478.436 249.558Q478.299 251.754 477.968 253.93Q477.638 256.106 477.118 258.244Q476.597 260.382 475.89 262.466Q475.184 264.55 474.296 266.564C472.991 269.492 467.804 274.546 468.197 277.298Z"/>
	<path fill="#143047" transform="scale(0.6 0.6)" d="M427.255 191.29C429.578 191.193 432.17 191.018 434.466 191.453C443.639 193.194 451.677 201.495 456.881 208.729C465.633 220.897 473.612 240.731 470.958 255.974C470.002 261.462 467.697 264.964 463.19 268.149C461.613 268.2 460.008 268.262 458.433 268.145C450.801 267.575 443.805 261.585 438.994 256.104C428.22 243.831 418.211 223.542 419.368 206.808C419.827 200.168 422.247 195.65 427.255 191.29Z"/>
	<path fill="#F7F0D9" transform="scale(0.6 0.6)" d="M430.935 199.254C434.873 199.394 438.119 201.008 441.183 203.387C452.943 212.514 462.289 231.106 463.976 245.755C464.614 251.294 464.304 256.291 460.737 260.837C454.604 260.451 450.214 257.778 445.919 253.584C435.661 243.566 426.724 225.788 426.58 211.269C426.531 206.331 427.449 202.872 430.935 199.254Z"/>
	<path fill="#D87B7A" transform="scale(0.6 0.6)" d="M534.951 896.515C537.249 895.733 539.769 896.082 541.923 897.196C542.568 897.53 542.998 897.956 543.455 898.508C548.239 900.37 553.655 901.127 558.658 902.293C560.521 902.435 560.779 902.363 562.297 903.591Q571.465 905.998 580.536 908.751C582.431 908.379 583.608 908.257 585.372 909.201C588.504 911.784 624.598 920.9 632.34 923.965C593.94 944.174 529.008 950.132 485.728 948.348Q480.355 930.89 475.369 913.317C491.963 913.842 504.397 912.963 519.506 904.727C524.512 901.999 528.597 898.53 534.109 896.778L534.951 896.515Z"/>
	<path fill="#1B2331" transform="scale(0.6 0.6)" d="M534.951 896.515C537.249 895.733 539.769 896.082 541.923 897.196C542.568 897.53 542.998 897.956 543.455 898.508C548.239 900.37 553.655 901.127 558.658 902.293C560.521 902.435 560.779 902.363 562.297 903.591Q571.465 905.998 580.536 908.751C582.431 908.379 583.608 908.257 585.372 909.201Q574.385 918.938 563.569 928.864C549.202 925.425 533.395 923.2 520.354 916.025C523.423 911.571 536.132 901.77 536.527 897.534L534.951 896.515Z"/>
	<path fill="#F7F0D9" transform="scale(0.6 0.6)" d="M543.455 898.508C548.239 900.37 553.655 901.127 558.658 902.293C552.755 908.053 546.84 913.79 541.186 919.799L526.008 915.238C531.032 908.774 536.591 903.021 543.455 898.508Z"/>
	<path fill="#F7F0D9" transform="scale(0.6 0.6)" d="M562.297 903.591Q571.465 905.998 580.536 908.751Q571.057 916.239 562.538 924.803C557.084 923.152 551.48 921.829 545.969 920.368C551.594 914.919 557.026 909.383 562.297 903.591Z"/>
	<path fill="#D2D1D2" transform="scale(0.6 0.6)" d="M295.035 602.247C295.825 600.857 296.696 599.554 297.603 598.237C309.925 610.039 321.02 621.042 329.311 636.194C332.145 640.399 334.853 644.81 337.935 648.832C337.755 650.591 337.521 651.701 336.641 653.243C337.089 656.934 335.663 661.69 335.11 665.394C332.344 683.916 328.781 702.119 324.925 720.444C334.773 722.155 345.079 722.98 354.749 725.366C352.596 735.716 350.418 746.074 349.053 756.564C339.05 754.862 331.559 756.43 322.204 760.184C320.93 760.695 319.867 761.573 318.744 760.498C318.684 760.44 318.661 760.353 318.619 760.28C317.439 760.782 317.169 761.097 315.865 760.891C314.41 754.876 312.866 748.886 311.977 742.755C307.301 728.03 305.121 711.956 302.209 696.769C300.738 689.331 299.316 681.921 298.27 674.41C295.466 664.115 290.342 632.62 292.366 623.205L290.125 617.516C292.135 612.615 293.431 607.305 295.035 602.247Z"/>
	<path fill="#1B2331" transform="scale(0.6 0.6)" d="M314.203 741.225L318.619 760.28C317.439 760.782 317.169 761.097 315.865 760.891C314.41 754.876 312.866 748.886 311.977 742.755L314.203 741.225Z"/>
	<path fill="#18191A" transform="scale(0.6 0.6)" d="M329.311 636.194C332.145 640.399 334.853 644.81 337.935 648.832C337.755 650.591 337.521 651.701 336.641 653.243L326.437 636.893L329.311 636.194Z"/>
	<path fill="#1B2331" transform="scale(0.6 0.6)" d="M298.27 674.41C298.952 673.186 299.459 671.733 300.019 670.441C301.791 678.949 303.4 687.407 304.665 696.003L302.209 696.769C300.738 689.331 299.316 681.921 298.27 674.41Z"/>
	<path fill="#18191A" transform="scale(0.6 0.6)" d="M302.209 696.769L304.665 696.003C308.069 710.973 309.951 726.491 314.203 741.225L311.977 742.755C307.301 728.03 305.121 711.956 302.209 696.769Z"/>
	<path fill="#18191A" transform="scale(0.6 0.6)" d="M292.366 623.205C295.777 633.123 296.399 643.637 297.83 653.963C298.573 659.322 299.788 665.05 300.019 670.441C299.459 671.733 298.952 673.186 298.27 674.41C295.466 664.115 290.342 632.62 292.366 623.205Z"/>
	<path fill="#1B2331" transform="scale(0.6 0.6)" d="M295.035 602.247C295.825 600.857 296.696 599.554 297.603 598.237C309.925 610.039 321.02 621.042 329.311 636.194L326.437 636.893C316.903 624.383 308.039 611.409 295.035 602.247Z"/>
	<path fill="#D2D1D2" transform="scale(0.6 0.6)" d="M175.708 202.984L175.327 202.551L175.647 201.437C177.164 200.39 177.287 200.127 179.203 200.204C180.673 213.316 183.9 226.811 187.141 239.579C199.964 290.097 221.232 335.316 249.041 379.193C253.374 386.031 258.273 397.728 264.776 402.439C265.517 402.975 266.338 403.392 267.162 403.781L266.722 404.838C261.775 405.396 242.215 406.205 238.55 403.934Q226.405 403.536 214.253 403.498C205.441 394.825 198.745 383.947 192.383 373.423C166.179 330.067 151.393 283.385 142.789 233.702C153.522 223.086 164.703 213.258 175.708 202.984Z"/>
	<path fill="#1B2331" transform="scale(0.6 0.6)" d="M175.708 202.984L175.327 202.551L175.647 201.437C177.164 200.39 177.287 200.127 179.203 200.204C180.673 213.316 183.9 226.811 187.141 239.579C199.964 290.097 221.232 335.316 249.041 379.193C253.374 386.031 258.273 397.728 264.776 402.439C265.517 402.975 266.338 403.392 267.162 403.781L266.722 404.838C261.775 405.396 242.215 406.205 238.55 403.934C245.754 403.446 252.952 403.479 260.169 403.473C251.804 388.94 241.51 375.639 233.044 361.182C210.052 321.925 191.636 277.932 181.299 233.589C178.945 223.491 177.516 213.189 175.708 202.984Z"/>
	<path fill="#F7F0D9" transform="scale(0.6 0.6)" d="M440.911 776.961C442.102 779.697 443.231 782.427 444.261 785.228C444.799 797.332 444.026 809.602 444.981 821.652C447.944 859.034 459.811 896.693 473.159 931.524C460.328 931.424 447.49 931.996 434.666 932.367C428.279 932.552 421.186 933.284 414.865 932.455C398.763 943.08 383.951 931.261 376.296 934.79C375.302 934.649 374.526 933.973 373.694 933.43C368.527 930.376 363.664 926.172 358.727 922.7C349.903 916.493 340.565 910.842 332.484 903.658C332.242 870.946 336.485 839.217 344.626 807.563C351.969 801.073 356.463 794.709 359.294 785.258C359.948 782.765 360.266 780.131 360.701 777.588Q390.018 778.515 419.344 777.981C426.354 777.846 434.026 778.282 440.911 776.961Z"/>
	<path fill="#E0C7B6" transform="scale(0.6 0.6)" d="M373.694 933.43C387.417 933.544 400.756 930.602 414.865 932.455C398.763 943.08 383.951 931.261 376.296 934.79C375.302 934.649 374.526 933.973 373.694 933.43Z"/>
	<path fill="#967378" transform="scale(0.6 0.6)" d="M440.911 776.961C442.102 779.697 443.231 782.427 444.261 785.228C416.152 783.833 387.457 784.983 359.294 785.258C359.948 782.765 360.266 780.131 360.701 777.588Q390.018 778.515 419.344 777.981C426.354 777.846 434.026 778.282 440.911 776.961Z"/>
	<path fill="#D87B7A" transform="scale(0.6 0.6)" d="M349.936 524.534C349.951 522.823 349.507 520.369 350.634 519.093C357.194 520.854 364.501 525.565 370.686 528.61C382.43 534.39 394.562 539.352 406.276 545.179C418.372 551.196 430.284 558.576 443.012 563.137C446.034 564.219 451.074 566.263 454.111 564.622C457.446 562.82 459.384 559.005 461.757 556.163C465.749 563.322 465.999 574.298 466.859 582.321C471.142 622.291 471.103 661.34 466.052 701.227C427.97 720.011 373.848 718.545 332.576 715.034C348.487 653.437 353.596 587.958 349.936 524.534Z"/>
	<path fill="#D2D1D2" transform="scale(0.6 0.6)" d="M327.629 127.57C350.221 123.6 373.013 121.021 395.987 121.984C411.904 136.915 431.124 152.641 441.312 172.212L441.578 172.733C433.804 170.811 426.118 169.664 418.92 174.124C412.193 178.292 408.481 185.907 406.805 193.406C402.36 213.304 409.146 235.765 419.891 252.551C427.985 265.196 441.338 279.269 456.603 282.558C463.99 284.15 471.47 283 477.833 278.854Q479.081 278.031 480.252 277.101C490.059 294.099 491.336 313.861 496.119 332.509C441.217 366.686 378.512 385.161 315.397 397.188C306.56 398.872 297.612 399.823 288.672 400.767C282.139 401.457 273.224 401.267 267.162 403.781C266.338 403.392 265.517 402.975 264.776 402.439C258.273 397.728 253.374 386.031 249.041 379.193C221.232 335.316 199.964 290.097 187.141 239.579C183.9 226.811 180.673 213.316 179.203 200.204C180.545 199.8 207.702 178.726 212.333 175.769Q218.606 171.712 225.044 167.924Q231.482 164.136 238.074 160.623Q244.667 157.11 251.402 153.878Q258.137 150.647 265.002 147.703Q271.867 144.759 278.85 142.107Q285.834 139.456 292.923 137.102Q300.012 134.748 307.194 132.695Q314.377 130.642 321.639 128.895L321.668 128.141C322.233 127.712 322.357 127.565 323.101 127.289C324.556 126.751 326.253 126.97 327.629 127.57Z"/>
	<path fill="#1B2331" transform="scale(0.6 0.6)" d="M321.639 128.895L321.668 128.141C322.233 127.712 322.357 127.565 323.101 127.289C324.556 126.751 326.253 126.97 327.629 127.57C344.881 140.614 358.36 156.028 370.004 174.229C372.82 178.63 376.443 183.778 377.533 188.96C377.687 189.688 377.655 189.847 377.643 190.499L376.853 190.884C375.241 190.083 374.062 189.217 372.978 187.759C369.969 183.717 367.946 178.737 365.353 174.39C362.251 169.189 358.402 164.196 354.595 159.484C345.698 148.472 333.873 136.157 321.639 128.895Z"/>
	<path fill="#1B2331" transform="scale(0.6 0.6)" d="M374.077 333.899C390.808 329.229 407.218 323.939 423.245 317.197C430.112 314.309 449.875 303.325 454.376 302.497C455.626 303.517 455.877 304.134 456.082 305.753C457.385 316.025 452.008 332.099 445.277 339.888C444.851 340.381 444.423 340.868 443.971 341.335C443.234 335.567 450.777 324.842 451.617 317.538C451.824 315.733 451.756 313.383 450.442 311.954C449.482 310.911 448.55 310.428 447.121 310.537C440.443 311.048 427.904 318.462 421.608 321.347C414.763 324.483 384.338 336.54 377.782 336.145C375.782 336.024 375.314 335.271 374.077 333.899Z"/>
	<defs>
		<linearGradient id="gradient_1" gradientUnits="userSpaceOnUse" x1="409.36908" y1="357.75742" x2="407.62421" y2="312.80164">
			<stop offset="0" stop-color="#202435"/>
			<stop offset="1" stop-color="#0E3452"/>
		</linearGradient>
	</defs>
	<path fill="url(#gradient_1)" transform="scale(0.6 0.6)" d="M374.077 333.899C375.314 335.271 375.782 336.024 377.782 336.145C384.338 336.54 414.763 324.483 421.608 321.347C427.904 318.462 440.443 311.048 447.121 310.537C448.55 310.428 449.482 310.911 450.442 311.954C451.756 313.383 451.824 315.733 451.617 317.538C450.777 324.842 443.234 335.567 443.971 341.335C440.738 345.51 436.703 349.508 432.253 352.38C421.772 359.145 408.351 360.877 396.282 358.179C387.44 356.203 369.939 347.279 365.617 339.246C364.892 337.899 364.947 337.251 365.426 335.858C368.114 334.49 371.123 334.305 374.077 333.899Z"/>
	<path fill="#C45F63" transform="scale(0.6 0.6)" d="M417.321 332.192C422.48 331.737 431.675 330.988 436.16 333.884C437.206 334.559 437.933 335.619 438.135 336.854C438.501 339.095 436.999 341.447 435.649 343.085C429.169 350.948 418.553 353.388 408.962 354.498C402.891 354.565 395.273 354.183 389.596 351.859C387.553 351.022 386.514 350.213 385.616 348.204C385.59 346.558 385.864 345.563 386.907 344.252C393.328 336.187 407.71 333.265 417.321 332.192Z"/>
	<path fill="#143047" transform="scale(0.6 0.6)" d="M311.485 195.274C323.976 194.23 336.085 199.632 345.81 207.092Q346.633 207.728 347.441 208.385Q348.248 209.041 349.04 209.717Q349.831 210.393 350.605 211.088Q351.38 211.783 352.137 212.497Q352.894 213.21 353.634 213.942Q354.374 214.674 355.095 215.424Q355.817 216.174 356.52 216.941Q357.223 217.709 357.907 218.493Q358.591 219.277 359.256 220.078Q359.921 220.879 360.566 221.695Q361.211 222.512 361.835 223.344Q362.46 224.176 363.065 225.024Q363.669 225.871 364.253 226.732Q364.836 227.594 365.398 228.47Q365.961 229.346 366.501 230.235Q367.042 231.124 367.561 232.026Q368.08 232.928 368.576 233.843Q369.073 234.757 369.547 235.684Q370.021 236.61 370.473 237.548Q370.924 238.486 371.353 239.434Q371.781 240.383 372.186 241.341Q372.591 242.3 372.973 243.268Q373.354 244.236 373.712 245.214Q374.07 246.191 374.404 247.177Q374.738 248.163 375.047 249.156Q375.357 250.15 375.643 251.151Q375.928 252.151 376.189 253.159Q376.45 254.167 376.686 255.18Q376.922 256.194 377.133 257.213Q377.344 258.232 377.531 259.256Q377.717 260.28 377.879 261.308Q378.04 262.336 378.176 263.368C380.099 278.486 377.843 295.879 368.236 308.193C360.495 318.117 350.022 322.234 337.831 323.666C324.464 323.968 311.729 319.148 301.177 311.104C284.21 298.171 272.968 277.513 270.334 256.419C268.391 240.86 270.988 223.279 280.936 210.696C288.748 200.813 299.253 196.69 311.485 195.274Z"/>
	<path fill="#78BCB6" transform="scale(0.6 0.6)" d="M310.684 200.223C321.618 199.58 331.853 203.491 340.732 209.68C357.284 221.216 368.846 240.615 372.143 260.427C374.533 274.788 373.417 291.949 364.514 304.062C358.245 312.591 349.124 316.486 338.919 318.024C328.817 318.897 318.152 314.686 309.972 309.049C293.374 297.611 281.692 278.826 278.08 259.059C275.454 244.684 276.844 227.98 285.446 215.727C291.565 207.01 300.307 202.055 310.684 200.223Z"/>
	<path fill="#58A79E" transform="scale(0.6 0.6)" d="M312.181 216.654C322.082 214.795 328.978 215.019 337.528 220.903C350.332 229.714 359.111 245.333 361.732 260.482C363.353 269.855 364.085 284.348 358.205 292.536C357.277 293.828 356.212 294.573 354.833 295.321C356.756 290.499 357.864 285.801 358.071 280.594C358.756 263.384 350.99 243.78 339.339 231.213C332.299 223.618 322.792 217.06 312.181 216.654Z"/>
	<path fill="#143047" transform="scale(0.6 0.6)" d="M312.181 216.654C322.792 217.06 332.299 223.618 339.339 231.213C350.99 243.78 358.756 263.384 358.071 280.594C357.864 285.801 356.756 290.499 354.833 295.321C351.572 300.493 347.106 304.283 341.11 305.807C333.605 307.715 325.754 305.349 319.298 301.442C305.451 293.063 296.214 277.79 292.585 262.269C290.033 251.355 289.569 237.013 295.779 227.165C299.773 220.831 305.089 218.323 312.181 216.654Z"/>
	<path fill="#F7F0D9" transform="scale(0.6 0.6)" d="M309.459 225.118C312.245 225.269 315.135 225.705 317.738 226.754C329.138 231.351 337.382 243.073 342.085 253.971C346.45 264.088 350.595 279.543 345.999 290.229C343.723 295.521 340.43 297.895 335.358 300.06C333.459 299.769 331.522 299.442 329.668 298.926C318.906 295.927 309.639 285.026 304.51 275.604C298.683 264.898 294.739 250.219 298.417 238.177C300.28 232.077 303.921 228.112 309.459 225.118Z"/>
	<path fill="#F7F0D9" transform="scale(0.6 0.6)" d="M128.448 778.181C96.6726 740.775 73.702 676.781 67.5191 628.489Q66.9664 623.976 66.5032 619.452Q66.0401 614.929 65.6666 610.397Q65.2932 605.866 65.0096 601.327Q64.7261 596.789 64.5325 592.246Q64.3389 587.703 64.2353 583.157Q64.1318 578.611 64.1184 574.064Q64.1049 569.517 64.1816 564.971Q64.2583 560.424 64.425 555.88Q64.5917 551.337 64.8485 546.797Q65.1052 542.257 65.4519 537.723Q65.7985 533.189 66.2349 528.663Q66.6713 524.137 67.1973 519.621Q67.7234 515.104 68.3388 510.599Q68.9542 506.094 69.6587 501.602Q70.3633 497.109 71.1567 492.632Q71.9501 488.155 72.8321 483.694Q73.7141 479.234 74.6843 474.791Q75.6545 470.349 76.7125 465.927Q77.7706 461.505 78.916 457.104Q80.0615 452.704 81.2939 448.327Q82.5263 443.95 83.8452 439.599Q85.1641 435.247 86.569 430.923Q87.9739 426.598 89.4641 422.302Q90.9544 418.007 92.5295 413.741Q94.1046 409.476 95.764 405.243Q97.4233 401.009 99.1661 396.81Q100.909 392.61 102.735 388.446Q104.561 384.281 106.468 380.154Q108.376 376.027 110.366 371.938Q112.355 367.85 114.425 363.802Q116.495 359.753 118.645 355.747Q120.794 351.74 123.023 347.777C131.668 332.196 140.292 316.617 151.219 302.484C164.455 340.604 181.911 380.802 210.07 410.475C224.722 412.83 239.484 412.06 254.235 411.314C265.316 410.753 276.538 410.444 287.568 409.299C302.746 407.723 317.772 404.863 332.739 401.951C334.585 407.54 335.724 413.488 337.904 418.933L337.112 419.394C319.176 429.707 300.701 427.43 293.831 452.767C290.724 464.228 291.569 477.689 297.589 488.08C300.235 492.646 303.524 495.917 307.609 499.197C306.459 516.647 304.803 534.035 300.43 551.009C293.598 547.335 284.1 541.698 276.091 544.191C273.351 545.044 271.21 546.868 269.911 549.423C266.488 556.155 267.876 566.3 269.129 573.449C260.043 578.293 250.272 585.918 247.135 596.21C246.177 599.356 245.792 602.938 247.372 605.959C248.866 608.813 251.604 610.415 254.653 611.182C261.599 612.929 269.471 610.639 276.209 608.926C264.108 630.411 254.345 652.677 243.999 675.006C239.457 684.81 234.012 694.324 230.119 704.404C242.951 706.964 255.669 705.864 268.205 702.219C273.279 686.761 277.468 671.328 281.36 655.53C284.087 674.955 286.392 694.711 290.096 713.968C294.116 734.871 299.921 755.783 301.96 776.992C299.914 779.592 297.926 782.414 295.535 784.698C275.72 812.401 261.868 844.58 251.708 876.953C206.12 854.847 164.474 825.158 132.856 785.152C131.979 784.687 131.066 784.212 130.285 783.594C128.717 782.356 128.665 780.004 128.448 778.181Z"/>
	<path fill="#967378" transform="scale(0.6 0.6)" d="M301.96 776.992C299.914 779.592 297.926 782.414 295.535 784.698C286.795 782.711 267.149 785.03 257.142 785.04C215.721 785.082 174.272 784.621 132.856 785.152C131.979 784.687 131.066 784.212 130.285 783.594C128.717 782.356 128.665 780.004 128.448 778.181C143.953 774.813 166.103 777.12 182.269 777.178C222.069 777.322 262.184 778.134 301.96 776.992Z"/>
	<path fill="#F7F0D9" transform="scale(0.6 0.6)" d="M132.856 785.152C174.272 784.621 215.721 785.082 257.142 785.04C267.149 785.03 286.795 782.711 295.535 784.698C275.72 812.401 261.868 844.58 251.708 876.953C206.12 854.847 164.474 825.158 132.856 785.152Z"/>
	<path fill="#F7F0D9" transform="scale(0.6 0.6)" d="M402.905 118.766C414.323 113.526 424.823 106.348 436.018 100.635C453.687 91.6179 472.554 84.0473 491.095 76.9905C624.273 26.301 782.735 16.2732 917.624 66.2235C984.674 91.0526 1060.52 138.593 1109.4 190.769C1115.23 196.992 1125.64 207.173 1129.7 214.628C1129.93 215.055 1129.94 215.236 1130.03 215.661C1132.19 216.202 1133.7 216.53 1135.35 218.077C1135.61 219.574 1135.74 219.961 1134.77 221.267C1134.59 221.514 1134.35 221.715 1134.14 221.939C1137.37 224.085 1143.38 230.791 1144.24 234.608C1144.33 234.984 1144.31 235.343 1144.31 235.721C1146.72 236.26 1148.6 236.678 1150.62 238.223L1151.37 239.621C1150.75 241.595 1149.84 242.248 1148.04 243.19C1154.23 248.031 1161.24 263.125 1165.02 270.185Q1167.86 275.399 1170.59 280.678Q1173.31 285.958 1175.9 291.3Q1178.5 296.642 1180.97 302.043Q1183.44 307.445 1185.78 312.903Q1188.13 318.362 1190.34 323.874Q1192.55 329.386 1194.63 334.948Q1196.72 340.511 1198.67 346.121Q1200.62 351.731 1202.44 357.386Q1204.26 363.04 1205.94 368.736Q1207.63 374.432 1209.18 380.165Q1210.73 385.899 1212.14 391.668Q1213.56 397.437 1214.84 403.237Q1216.12 409.038 1217.26 414.867Q1218.4 420.696 1219.4 426.55Q1220.41 432.404 1221.28 438.281Q1222.14 444.157 1222.87 450.052C1224.56 463.793 1229.89 511.705 1225.55 523.2C1225.78 525.568 1225.56 527.323 1224.69 529.541C1226.27 533.08 1226.79 541.944 1225.19 545.594C1225.07 545.872 1224.93 546.141 1224.8 546.414C1225.74 548.175 1225.98 548.587 1225.96 550.658C1225.47 551.521 1225.01 552.416 1224.47 553.242C1228.98 561.001 1218.66 623.202 1216.77 633.177Q1213.75 648.556 1209.73 663.706C1197.19 710.988 1178.84 750.593 1151.84 791.327C1148.34 796.611 1143.6 805.976 1138.54 809.526C1138.74 809.755 1138.97 809.963 1139.15 810.214C1140.09 811.57 1139.95 811.981 1139.69 813.517C1139.06 814.173 1138.47 814.771 1137.6 815.118C1133.05 816.942 1113.48 816.249 1107.8 816.293C1086.88 816.454 1065.91 815.751 1044.98 815.692L887.176 815.638L716.43 815.512C692.899 815.483 669.347 815.95 645.821 815.619C641.191 815.553 634.666 816.09 630.383 814.41C625.369 808.323 627.654 792.935 628.194 785.335C583.912 784.686 539.539 785.188 495.248 785.18C495.391 782.497 495.74 780.018 496.264 777.392C496.68 767.561 489.775 758.273 486.544 749.208C482.151 736.884 475.927 717.815 474.459 705.222C473.124 693.769 476.485 674.61 477.19 662.044C479.111 627.829 477.47 588.7 469.601 555.374C473.853 552.526 476.874 548.143 481.277 545.611C486.322 542.71 493.378 541.935 498.847 539.666C514.837 533.032 530.591 525.414 546.235 518.006C560.226 511.382 574.317 504.817 587.839 497.265C595.993 492.712 603.479 486.916 611.92 482.907C620.783 478.697 630.724 476.659 639.796 472.692C657.664 464.877 679.813 451.998 687.171 433.147C699.289 429.45 712.229 427.966 724.692 425.806C736.546 423.751 748.32 421.17 760.162 419.007C761.757 415.645 763.346 411.499 763.546 407.762C763.652 405.764 763.35 404.433 761.997 402.963C754.163 400.696 728.589 407.625 720.148 409.633C719.703 405.561 719.742 399.704 717.524 396.249C716.107 394.042 713.949 393.846 711.566 393.341Q710.885 387.203 710.438 381.043Q709.31 379.846 708.131 378.698C696.122 367.055 678.708 363.335 662.498 363.571C634.45 363.979 596.331 373.306 576.417 394.096C572.64 398.038 562.767 410.751 563.377 416.239C564.168 423.36 583.096 417.231 587.844 420.977L586.907 421.825C581.884 422.552 573.159 423.272 569.785 427.587C569.632 427.783 569.489 427.986 569.341 428.185C569.573 431.342 570.312 434.274 571.086 437.331C561.256 438.448 551.315 439.746 541.911 442.939C542.068 444.516 542.041 445.802 541.855 447.377C537.406 448.002 533.106 448.616 528.797 449.949C527.765 450.061 527 450.178 525.974 449.94C525.026 449.72 524.676 448.7 524.163 447.914L524.199 448.46C524.487 452.446 524.99 456.592 528.282 459.273C529.915 460.604 531.615 460.732 533.668 460.759C539.918 460.838 546.51 459.057 552.631 457.899C562.231 456.085 571.823 454.18 581.506 452.86C581.655 456.736 582.121 459.981 583.431 463.634C575.048 467.537 566.102 470.364 557.403 473.479Q534.654 481.697 511.702 489.329C492.77 476.844 474.737 463.585 457.53 448.786C457.539 442.936 456.979 437.292 455.019 431.747C451.486 421.747 444.471 413.437 434.82 408.894C427.284 405.347 418.408 404.511 410.51 407.427C410.355 407.478 410.202 407.536 410.045 407.579C405.738 408.77 393.231 404.051 389.069 401.83L388.898 401.319C387.898 398.711 386.969 396.13 385.473 393.755L383.41 388.947C421.785 378.875 458.908 364.797 492.506 343.414C497.956 339.944 504.73 336.337 508.925 331.347C511.564 328.208 511.284 325.17 510.868 321.315C508.12 295.903 499.039 272.044 492.255 247.642C490.894 242.749 490.405 237.637 489.514 232.646Q488.917 229.347 488.062 226.105Q487.206 222.863 486.098 219.698Q484.989 216.534 483.634 213.467Q482.28 210.4 480.687 207.45C476.205 198.986 471.146 192.206 463.937 185.935C460.543 182.982 456.86 180.086 453.933 176.663C448.799 170.66 444.853 163.359 440.108 156.987C429.536 142.789 416.613 129.927 402.905 118.766Z"/>
	<path fill="#1B2331" transform="scale(0.6 0.6)" d="M524.163 447.914C528.417 443.689 536.25 443.603 541.911 442.939C542.068 444.516 542.041 445.802 541.855 447.377C537.406 448.002 533.106 448.616 528.797 449.949C527.765 450.061 527 450.178 525.974 449.94C525.026 449.72 524.676 448.7 524.163 447.914Z"/>
	<path fill="#D2D1D2" transform="scale(0.6 0.6)" d="M1100.47 401.899C1107.38 397.975 1121.84 400.196 1129.24 402.229C1145.14 406.598 1157.44 418.048 1165.4 432.194C1177.53 453.739 1180.89 477.857 1184.47 501.921C1185.29 507.437 1187.51 515.007 1185.9 520.419C1185.72 521.025 1185.45 521.476 1185.12 522.007C1188.7 521.991 1192.55 521.675 1196.1 522.108C1195.78 522.186 1195.2 522.337 1194.85 522.391C1188.61 523.349 1160.48 523.873 1154.38 522.496C1153.09 522.205 1152.04 521.554 1150.99 520.774C1151.77 519.841 1152.19 518.815 1152.37 517.622C1153.61 509.574 1152.53 500.307 1152.09 492.188C1150.83 469.003 1150.37 439.249 1136.01 419.819C1127.11 407.782 1114.55 404.111 1100.47 401.899Z"/>
	<path fill="#C1C8AD" transform="scale(0.6 0.6)" d="M750.883 80.7899C761.551 97.1224 763.693 114.854 765.911 133.722C771.977 125.014 779.551 117.196 788.824 111.891C788.534 125.639 787.381 139.49 779.743 151.361C777.171 155.36 773.918 158.922 771.452 162.965C774.802 162.711 778.004 162.39 781.336 162.985C760.55 164.641 738.877 163.335 718.033 163.076C722.039 162.266 726.188 162.496 730.257 162.537C716.241 148.405 710.182 130.255 710.296 110.555Q710.3 109.84 710.313 109.126Q714.019 111.723 717.484 114.633Q720.949 117.544 724.146 120.747Q727.344 123.95 730.248 127.42Q733.153 130.891 735.743 134.602C736.868 114.533 740.01 98.1166 750.883 80.7899Z"/>
	<path fill="#C1C8AD" transform="scale(0.6 0.6)" d="M860.435 130.118C862.783 111.353 865.278 92.9213 876.541 77.0437C888.597 94.8599 889.219 112.717 891.307 133.268L891.633 132.926C895.992 128.248 907.363 110.608 913.42 110.083C914.558 109.984 914.661 110.374 915.517 111.028C918.425 118.369 914.748 131.774 911.74 138.847C907.864 147.96 901.721 156.091 894.899 163.211C881.542 163.507 867.097 164.71 853.869 162.708C853.777 162.458 853.691 162.206 853.594 161.958C852.236 158.471 848.209 155.296 846.296 151.839C838.091 137.004 836.288 121.283 837.627 104.646C847.567 111.461 853.883 120.203 860.435 130.118Z"/>
	<path fill="#967378" transform="scale(0.6 0.6)" d="M956.293 216.352C956.146 209.412 953.734 160.112 957.421 156.608C964.577 149.808 996.594 159.47 999.552 151.695C998.878 148.881 996.383 146.153 996.602 143.35C998.286 141.581 999.828 141.403 1002.24 141.354C1005.07 141.296 1008.75 141.275 1011.14 142.942C1011.54 144.207 1011.67 144.412 1011.03 145.67C1009.78 148.115 1007.34 149.672 1006.75 152.453C1007.2 153.455 1007.28 153.777 1008.42 154.163C1016.1 156.778 1038.28 150.879 1043.51 156.287C1044.44 158.455 1044.73 160.603 1044.82 162.936C1045.08 170.164 1043.77 210.918 1041.34 215.892C1041.08 216.421 1041.02 216.444 1040.67 216.815C1050.98 216.757 1127.44 217.309 1130.03 215.661C1132.19 216.202 1133.7 216.53 1135.35 218.077C1135.61 219.574 1135.74 219.961 1134.77 221.267C1134.59 221.514 1134.35 221.715 1134.14 221.939C1137.37 224.085 1143.38 230.791 1144.24 234.608C1144.33 234.984 1144.31 235.343 1144.31 235.721C1146.72 236.26 1148.6 236.678 1150.62 238.223L1151.37 239.621C1150.75 241.595 1149.84 242.248 1148.04 243.19C1136.76 244.168 1125.37 243.654 1114.06 243.522L1074.66 243.355L930.749 243.433L781.328 243.777L730.565 243.924C719.076 243.931 707.441 244.236 695.994 243.188C694.717 234.155 695.217 225.63 695.68 216.559C705.401 216.144 715.159 216.336 724.887 216.371C721.621 204.192 714.21 176.863 714.738 164.99C715.829 163.43 716.252 163.562 718.033 163.076C738.877 163.335 760.55 164.641 781.336 162.985C782.828 163.513 783.316 163.575 784.355 164.82C785.088 177.354 777.72 203.597 774.878 216.474L849.226 216.295C846.765 206.644 837.758 171.71 840.261 164.133C843.771 161.658 849.71 162.543 853.869 162.708C867.097 164.71 881.542 163.507 894.899 163.211C898.945 163.114 904.915 162.255 908.254 164.81C910.273 171.423 901.135 207.189 898.894 216.82Q927.595 216.789 956.293 216.352Z"/>
	<path fill="#F7F0D9" transform="scale(0.6 0.6)" d="M847.806 169.444Q874.366 169.465 900.921 170.002C899.88 182.893 895.276 195.392 893.53 208.228C893.159 210.924 892.654 213.608 892.197 216.291L855.844 216.294C854.923 200.628 850.893 184.82 847.806 169.444Z"/>
	<path fill="#F7F0D9" transform="scale(0.6 0.6)" d="M721.979 169.377L777.418 169.451C773.209 182.266 771.18 195.155 769.357 208.488L767.945 216.379L732.01 216.366C729.569 200.367 726.617 184.899 721.979 169.377Z"/>
	<path fill="#F7F0D9" transform="scale(0.6 0.6)" d="M963.154 161.424Q999.27 162.029 1035.39 161.894C1035.83 162.531 1036.15 163.113 1036.4 163.853C1038.06 168.626 1036.02 210.377 1033.61 214.826L1033.65 215.769C1031.36 217.508 972.35 216.516 963.933 216.466Q963.824 188.941 963.154 161.424Z"/>
	<path fill="#E0C7B6" transform="scale(0.6 0.6)" d="M1134.14 221.939C1137.37 224.085 1143.38 230.791 1144.24 234.608C1144.33 234.984 1144.31 235.343 1144.31 235.721C1142.13 237.17 1135.73 236.705 1132.91 236.721L702.726 236.283L702.688 223.21L997.243 223.28L1094.56 223.21C1105.64 223.2 1116.86 223.929 1127.9 223.656C1130.14 223.6 1132.57 223.6 1134.14 221.939Z"/>
	<path fill="#143047" transform="scale(0.6 0.6)" d="M990.261 294.425C991.512 290.486 992.75 286.73 995.868 283.809C999.913 280.02 1005.15 279.371 1010.44 279.63C1027.58 280.472 1044.15 288.351 1060.48 293.07C1072.46 296.531 1084.96 298.77 1096.52 303.517C1102 305.766 1106.98 308.15 1110.99 312.594C1117.31 319.587 1120.98 329.368 1120.47 338.814C1120.01 347.234 1116.63 355.5 1110.29 361.134C1110.83 367.479 1111.16 374.171 1106.94 379.468C1103.07 384.312 1097.45 385.38 1091.68 386.072C1096.11 390.264 1096.24 398.256 1100.47 401.899C1114.55 404.111 1127.11 407.782 1136.01 419.819C1150.37 439.249 1150.83 469.003 1152.09 492.188C1152.53 500.307 1153.61 509.574 1152.37 517.622C1152.19 518.815 1151.77 519.841 1150.99 520.774C1151.17 522.438 1151.4 523.457 1150.26 524.904C1149.11 526.378 1147.16 527.353 1145.51 528.15C1125.73 529.849 1106.06 529.341 1086.24 529.577C1074.34 529.719 1062.4 530.704 1050.5 530.545C1039.67 530.4 1028.94 529.461 1018.09 529.487L1016.51 521.697C1017.78 520.502 1018.83 519.36 1019.86 517.945C1014.6 513.779 982.983 521.196 971.984 516.484C970.595 515.89 970.47 515.709 969.925 514.392C970.856 511.898 989.604 500.813 993.412 497.815C1010.01 484.752 1024.77 466.811 1034.29 447.952C1037.87 440.869 1040.41 432.605 1044.72 425.97C1047.88 421.099 1055.94 417.347 1056.66 411.341C1056.56 411.444 1056.47 411.557 1056.35 411.649C1051.1 415.9 1037.01 415.637 1030.66 414.871C1021.07 413.715 1011.34 409.98 1005.26 402.141C994.193 387.862 998.654 364.388 1000.77 347.782C998.826 343.709 997.004 339.721 996.763 335.14C996.371 327.672 1000.32 322.454 1004.91 317.107C997.32 310.037 993.354 304.371 990.261 294.425Z"/>
	<path fill="#D2D1D2" transform="scale(0.6 0.6)" d="M1044.56 490.404L1045.8 490.836C1047.25 493.333 1047.14 496.923 1047.18 499.752C1047.21 501.895 1047.47 506.233 1045.94 507.794C1042.98 507.556 1040.48 507.419 1037.58 508.128C1037.36 508.182 1037.14 508.243 1036.92 508.301L1035.36 508.037L1034.66 507.018C1035.13 501.787 1042.34 495.688 1044.56 490.404Z"/>
	<path fill="#F7F0D9" transform="scale(0.6 0.6)" d="M1017.73 509.631C1023.1 509.655 1028.86 510.373 1034.13 511.376C1037.52 512.02 1041.31 513.224 1043.21 516.32C1044.28 518.078 1044.25 521.393 1043.69 523.359C1043.3 524.722 1042.58 524.878 1041.46 525.552C1036.15 526.585 1029.27 525.763 1023.75 525.738C1023.77 525.489 1023.8 525.241 1023.82 524.992C1024.82 512.351 1021.73 516.241 1017.03 510.726L1017.73 509.631Z"/>
	<path fill="#F7F0D9" transform="scale(0.6 0.6)" d="M1085.66 391.021L1087.5 391.092C1087.85 391.427 1088.25 391.777 1088.56 392.159C1091.63 395.935 1096.35 406.763 1095.82 411.581C1096.16 414.725 1093.56 417.772 1091.71 420.127C1087.66 425.274 1079.32 433.996 1072.3 434.499C1069.78 434.68 1068.47 433.287 1066.7 431.684C1066.79 431.486 1066.9 431.296 1066.97 431.09C1068.07 427.669 1066.19 422.902 1064.51 419.933C1067.27 420.842 1070.84 423.478 1072.49 425.856C1072.77 424.413 1073.01 423.048 1072.61 421.608C1071.39 417.2 1068.62 411.349 1064.5 408.99C1069.66 407.777 1075.11 404.106 1079.1 400.686C1081.86 398.309 1085.35 394.795 1085.66 391.021Z"/>
	<path fill="#967378" transform="scale(0.6 0.6)" d="M1004.51 285.818C1006.53 285.678 1008.59 285.566 1010.61 285.624C1026.83 286.091 1043.59 294.29 1059.09 298.747C1070.6 302.055 1082.53 304.342 1093.7 308.697C1098.31 310.492 1103.16 312.474 1106.59 316.159C1112.48 322.483 1114.84 330.622 1114.4 339.167C1114.01 346.743 1111.31 353.801 1105.66 358.955C1105.41 358.752 1105.18 358.535 1104.92 358.346C1101.83 356.058 1098.66 356.391 1095.13 356.959C1092.63 359.27 1090.13 361.922 1087.2 363.654C1086.48 358.352 1083.01 353.895 1081.13 348.974C1077.69 339.995 1076.52 330.439 1071 322.292C1065.31 313.893 1056.62 308.8 1046.72 307.02C1034.91 304.897 1024.41 306.898 1014.6 313.768C1014.37 313.698 1014.15 313.631 1013.92 313.558C1007.29 311.41 1001.25 306.632 998.282 300.224C997.056 297.578 996.513 294.695 997.598 291.904C998.879 288.611 1001.54 287.267 1004.51 285.818Z"/>
	<path fill="#F7F0D9" transform="scale(0.6 0.6)" d="M1007.6 333.848C1011.66 324.932 1016.52 317.947 1026.02 314.363C1035.05 310.955 1046.01 311.604 1054.71 315.719C1063.93 320.081 1069.15 327.678 1072.44 337.105C1076.8 349.611 1076.33 355.782 1085.9 366.449C1087.39 368.119 1089.65 370.852 1091.74 371.686C1092.45 371.967 1092.48 371.931 1093.12 371.985L1094.31 371.232C1094.52 370.096 1094.39 369.368 1094.17 368.261C1093.79 366.317 1093.72 364.712 1094.85 363.004C1095.56 361.94 1096.13 361.782 1097.21 361.169C1098.93 361.038 1100.1 361.086 1101.51 362.196C1103.81 364.004 1104.45 366.996 1104.66 369.767C1104.84 372.288 1104.36 374.806 1102.63 376.743C1100.3 379.36 1095.92 380.385 1092.55 380.35C1090.34 380.328 1088.12 379.821 1085.96 379.378C1083.51 388.206 1074.46 397.463 1066.71 401.884C1054.59 408.801 1038.25 412.191 1024.63 408.27C1017.48 406.214 1011.29 402.104 1007.76 395.431C1001.06 382.798 1005.29 356.565 1006.94 342.632C1008.24 342.608 1009.63 342.629 1010.91 342.429C1012.91 342.117 1016.14 340.793 1017.27 339.063C1017.87 338.145 1017.56 337.741 1017.41 336.708C1014.48 332.938 1012.19 335.304 1008.37 334.11C1008.12 334.029 1007.86 333.936 1007.6 333.848Z"/>
	<path fill="#143047" transform="scale(0.6 0.6)" d="M1047.37 349.121L1049.99 348.769C1051.85 349.428 1053.03 350.025 1053.94 351.866C1055 354.036 1054.93 356.579 1054.12 358.821C1053.32 361.059 1052.24 361.905 1050.12 362.85C1049.98 362.943 1049.85 363.068 1049.69 363.128C1048.28 363.673 1047.31 363.511 1046.14 362.723C1044.13 357.799 1045.71 354.535 1047.14 349.86L1047.37 349.121Z"/>
	<path fill="#1B2331" transform="scale(0.6 0.6)" d="M1013.98 349.736C1014.87 350.039 1015.61 350.343 1016.39 350.88C1017.86 351.897 1018.83 353.633 1019.1 355.384C1019.73 359.397 1017.73 362.802 1015.51 365.914C1014.17 365.745 1012.73 365.487 1011.62 364.668C1010.51 363.854 1009.83 362.458 1009.65 361.117C1009.1 356.932 1011.7 352.99 1013.98 349.736Z"/>
	<path fill="#1B2331" transform="scale(0.6 0.6)" d="M1043.31 381.635C1045.11 381.477 1047.18 381.128 1048.97 381.379C1050.09 381.535 1050.57 381.742 1051.2 382.699C1052.5 384.7 1051.97 388.028 1051.37 390.178C1050.08 394.865 1047.07 399.465 1042.77 401.856C1037.33 404.876 1032.58 403.555 1027.06 401.906C1024.45 396.931 1019.95 394.31 1018.58 388.293C1018.11 386.261 1018.49 385.235 1019.61 383.539C1025.43 379.981 1035.93 382.865 1042.82 381.724C1042.98 381.697 1043.14 381.664 1043.31 381.635Z"/>
	<path fill="#D2D1D2" transform="scale(0.6 0.6)" d="M1040.78 394.154C1042.08 393.914 1043 393.721 1044.31 394.121L1044.64 395.01C1044.41 395.294 1044.18 395.618 1043.9 395.859C1040.74 398.548 1035.84 398.711 1031.95 398.376C1030.95 398.124 1030.19 397.726 1029.25 397.278L1029.28 396.413C1032.71 394.891 1037.06 394.809 1040.78 394.154Z"/>
	<path fill="#D2D1D2" transform="scale(0.6 0.6)" d="M1040.05 386.027C1042.12 385.827 1044.04 385.543 1045.71 386.924L1045.31 388.058C1040.55 391.51 1035.2 391.918 1029.53 391.628C1028.93 391.545 1028.31 391.462 1027.73 391.315C1025.95 390.871 1024.69 389.983 1023.84 388.421C1023.96 388.276 1024.07 388.111 1024.21 387.987C1026.91 385.668 1036.38 386.205 1040.05 386.027Z"/>
	<path fill="#78BCB6" transform="scale(0.6 0.6)" d="M1101.98 408.535C1108.73 408.661 1116.07 411.054 1121.63 414.871C1133.56 423.059 1139.09 437.779 1141.55 451.476C1143.64 463.114 1149.96 512.959 1143.75 521.925C1135.18 523.275 1125.98 523.325 1117.29 523.808Q1082.9 525.537 1048.46 525.758C1048.99 524.654 1049.24 523.493 1049.4 522.283C1049.9 518.668 1049.31 515.158 1047.1 512.229C1057.27 511.167 1117.66 504.826 1121.78 502.543C1122.77 501.993 1123.27 501.567 1123.44 500.414C1124.35 494.215 1114.02 438.475 1110.66 434.854C1103.09 440.208 1120.19 486.972 1116.14 497.657C1110.64 500.184 1101.79 499.965 1095.77 500.446C1081.42 502.422 1066.97 504.561 1052.53 505.753C1054.55 498.12 1050.49 455.035 1047.41 447.003L1047.42 447.193L1045.91 445.242L1046.82 446.012L1044.98 446.695C1042 456.366 1046.13 471.311 1044.77 476.411C1044.7 476.668 1044.62 476.921 1044.55 477.176C1044.57 477.867 1044.52 478.469 1044.29 479.13C1041.69 486.709 1031.42 502.256 1024.36 505.501C1021.79 504.847 1017.87 503.445 1015.37 504.689C1013.06 505.842 1012.38 508.385 1011.52 510.635C1001.21 512.389 990.477 512.587 980.051 512.73C1005.34 497.694 1027.27 476.23 1040.55 449.662C1043.47 443.806 1045.02 437.39 1047.77 431.447C1050.12 426.386 1056.96 415.472 1062.24 413.563C1064.37 415.509 1061.22 427.058 1061.77 430.947C1062.2 434.043 1063.47 437.032 1066.16 438.8C1068.68 440.452 1071.89 440.588 1074.75 439.955C1083.78 437.963 1094.65 428.024 1099.48 420.425C1101.93 416.567 1103.04 413.078 1101.98 408.535Z"/>
	<path fill="#F7F0D9" transform="scale(0.6 0.6)" d="M824.169 455.966C828.879 454.898 833.447 454.563 838.256 454.373C851.505 453.847 864.803 454.484 878.061 454.459C891.5 454.435 937.414 452.245 947.178 455.754C953.418 463.288 961.735 510.59 964.033 522.674C977.067 522.896 1005.14 525.061 1016.51 521.697L1018.09 529.487C1028.94 529.461 1039.67 530.4 1050.5 530.545C1062.4 530.704 1074.34 529.719 1086.24 529.577C1106.06 529.341 1125.73 529.849 1145.51 528.15C1147.16 527.353 1149.11 526.378 1150.26 524.904C1151.4 523.457 1151.17 522.438 1150.99 520.774C1152.04 521.554 1153.09 522.205 1154.38 522.496C1160.48 523.873 1188.61 523.349 1194.85 522.391C1195.2 522.337 1195.78 522.186 1196.1 522.108C1203.86 521.983 1218.48 520.231 1225.29 523.378L1225.55 523.2C1225.78 525.568 1225.56 527.323 1224.69 529.541C1226.27 533.08 1226.79 541.944 1225.19 545.594C1225.07 545.872 1224.93 546.141 1224.8 546.414C1225.74 548.175 1225.98 548.587 1225.96 550.658C1225.47 551.521 1225.01 552.416 1224.47 553.242C1228.98 561.001 1218.66 623.202 1216.77 633.177Q1213.75 648.556 1209.73 663.706C1197.19 710.988 1178.84 750.593 1151.84 791.327C1148.34 796.611 1143.6 805.976 1138.54 809.526C1138.74 809.755 1138.97 809.963 1139.15 810.214C1140.09 811.57 1139.95 811.981 1139.69 813.517C1139.06 814.173 1138.47 814.771 1137.6 815.118C1133.05 816.942 1113.48 816.249 1107.8 816.293C1086.88 816.454 1065.91 815.751 1044.98 815.692L887.176 815.638L716.43 815.512C692.899 815.483 669.347 815.95 645.821 815.619C641.191 815.553 634.666 816.09 630.383 814.41C625.369 808.323 627.654 792.935 628.194 785.335C583.912 784.686 539.539 785.188 495.248 785.18C495.391 782.497 495.74 780.018 496.264 777.392C509.992 779.012 524.008 777.668 537.815 777.721Q582.973 778.225 628.131 777.729L628.193 552.759C620.806 552.759 612.388 554.444 605.169 552.553C602.71 551.908 600.572 550.708 599.343 548.4C596.235 542.564 599.381 529.652 601.115 523.511C607.497 522.018 614.674 522.456 621.23 522.361C637.789 522.119 654.335 522.613 670.893 522.637L834.838 522.645C832.925 512.751 831.691 502.727 829.92 492.804C827.751 480.647 824.81 468.319 824.169 455.966Z"/>
	<path fill="#967378" transform="scale(0.6 0.6)" d="M824.169 455.966C828.879 454.898 833.447 454.563 838.256 454.373C851.505 453.847 864.803 454.484 878.061 454.459C891.5 454.435 937.414 452.245 947.178 455.754C953.418 463.288 961.735 510.59 964.033 522.674C977.067 522.896 1005.14 525.061 1016.51 521.697L1018.09 529.487C1028.94 529.461 1039.67 530.4 1050.5 530.545C1062.4 530.704 1074.34 529.719 1086.24 529.577C1106.06 529.341 1125.73 529.849 1145.51 528.15C1147.16 527.353 1149.11 526.378 1150.26 524.904C1151.4 523.457 1151.17 522.438 1150.99 520.774C1152.04 521.554 1153.09 522.205 1154.38 522.496C1160.48 523.873 1188.61 523.349 1194.85 522.391C1195.2 522.337 1195.78 522.186 1196.1 522.108C1203.86 521.983 1218.48 520.231 1225.29 523.378L1225.55 523.2C1225.78 525.568 1225.56 527.323 1224.69 529.541C1226.27 533.08 1226.79 541.944 1225.19 545.594C1225.07 545.872 1224.93 546.141 1224.8 546.414C1225.74 548.175 1225.98 548.587 1225.96 550.658C1225.47 551.521 1225.01 552.416 1224.47 553.242C1215.44 551.867 1205.59 552.741 1196.46 552.911Q1178.29 553.27 1160.12 553.158L1000.16 552.688L751.105 552.593L675.042 552.69C662.226 552.708 648.571 551.791 635.843 553.091L636.24 807.736L969.774 807.732L1072.11 807.809C1090.58 807.768 1109.08 807.135 1127.54 807.55C1130.61 807.619 1135.63 807.284 1138.24 809.007L1138.54 809.526C1138.74 809.755 1138.97 809.963 1139.15 810.214C1140.09 811.57 1139.95 811.981 1139.69 813.517C1139.06 814.173 1138.47 814.771 1137.6 815.118C1133.05 816.942 1113.48 816.249 1107.8 816.293C1086.88 816.454 1065.91 815.751 1044.98 815.692L887.176 815.638L716.43 815.512C692.899 815.483 669.347 815.95 645.821 815.619C641.191 815.553 634.666 816.09 630.383 814.41C625.369 808.323 627.654 792.935 628.194 785.335C583.912 784.686 539.539 785.188 495.248 785.18C495.391 782.497 495.74 780.018 496.264 777.392C509.992 779.012 524.008 777.668 537.815 777.721Q582.973 778.225 628.131 777.729L628.193 552.759C620.806 552.759 612.388 554.444 605.169 552.553C602.71 551.908 600.572 550.708 599.343 548.4C596.235 542.564 599.381 529.652 601.115 523.511C607.497 522.018 614.674 522.456 621.23 522.361C637.789 522.119 654.335 522.613 670.893 522.637L834.838 522.645C832.925 512.751 831.691 502.727 829.92 492.804C827.751 480.647 824.81 468.319 824.169 455.966Z"/>
	<path fill="#F7F0D9" transform="scale(0.6 0.6)" d="M831.652 461.999L943.008 461.879C947.303 482.238 953.185 502.256 957.3 522.644L842.125 523.207C839.914 502.808 835.412 482.182 831.652 461.999Z"/>
	<path fill="#E0C7B6" transform="scale(0.6 0.6)" d="M1150.99 520.774C1152.04 521.554 1153.09 522.205 1154.38 522.496C1160.48 523.873 1188.61 523.349 1194.85 522.391C1195.2 522.337 1195.78 522.186 1196.1 522.108C1203.86 521.983 1218.48 520.231 1225.29 523.378L1225.55 523.2C1225.78 525.568 1225.56 527.323 1224.69 529.541C1226.27 533.08 1226.79 541.944 1225.19 545.594C1225.07 545.872 1224.93 546.141 1224.8 546.414C1222.95 544.866 1218.84 545.177 1216.46 545.141C1165.97 544.372 1115.38 545.713 1064.88 545.588L607.425 544.758L607.462 530.758L1018.09 529.487C1028.94 529.461 1039.67 530.4 1050.5 530.545C1062.4 530.704 1074.34 529.719 1086.24 529.577C1106.06 529.341 1125.73 529.849 1145.51 528.15C1147.16 527.353 1149.11 526.378 1150.26 524.904C1151.4 523.457 1151.17 522.438 1150.99 520.774Z"/>
	<path fill="#967378" transform="scale(0.6 0.6)" d="M1150.99 520.774C1152.04 521.554 1153.09 522.205 1154.38 522.496C1160.48 523.873 1188.61 523.349 1194.85 522.391C1195.2 522.337 1195.78 522.186 1196.1 522.108C1203.86 521.983 1218.48 520.231 1225.29 523.378L1225.55 523.2C1225.78 525.568 1225.56 527.323 1224.69 529.541C1223.46 528.333 1156.53 530.388 1145.51 528.15C1147.16 527.353 1149.11 526.378 1150.26 524.904C1151.4 523.457 1151.17 522.438 1150.99 520.774Z"/>
</svg>
