<?xml version="1.0" encoding="utf-8" ?>
<svg xmlns="http://www.w3.org/2000/svg" xmlns:xlink="http://www.w3.org/1999/xlink" width="1024" height="512">
	<path fill="#CCE8E2" transform="scale(0.5 0.5)" d="M0 0L2046.25 0C2048.75 3.75313 2047.99 9.76244 2047.99 14.1208L2048.02 767.612L2048.01 954.147C2048.01 967.073 2049.66 1011.74 2047.62 1020.8C2047.36 1021.98 2046.85 1022.96 2046.25 1024L0 1024L0 0Z"/>
	<path fill="#6A7C97" transform="scale(0.5 0.5)" d="M284.779 394.99C286.401 397.095 270.408 420.023 273.181 432.614C277.096 450.391 303.383 457.554 304.545 479.046C305.292 492.882 294.638 507.29 285.727 517.095C288.176 506.893 293.713 497.195 293.94 486.523C294.273 470.872 279.618 461.473 270.147 451.183C265.016 445.608 260.398 438.27 260.841 430.406C261.65 416.025 274.823 403.98 284.779 394.99Z"/>
	<path fill="#6A7C97" transform="scale(0.5 0.5)" d="M206.834 384.9C206.96 393.974 198.107 403.628 198.932 414.242C199.929 427.054 213.39 435.762 222.166 443.451C232.14 452.189 243.815 463.26 244.546 477.397C245.349 492.918 233.028 508.496 223.028 519.279C225.567 507.753 233.098 498.051 234.051 485.774C236.008 460.579 202.478 448.236 191.359 428.824C189.299 425.226 188.399 421.016 187.441 417.014C190.713 403.693 197.144 394.304 206.834 384.9Z"/>
	<path fill="#6A7C97" transform="scale(0.5 0.5)" d="M164.018 587.517C163.927 574.911 161.458 544.688 165.83 534.19C167.915 532.466 170.12 532.233 172.746 532.055C193.871 530.62 216.178 532.015 237.433 532.02C258.171 532.025 280.328 530.466 300.916 532.455C304.909 532.841 309.453 533.317 312.603 536.027C314.874 547.39 313.079 571.622 313.078 584.493L313.068 705.939L429.737 706.048C427.904 709.91 426.215 713.964 424.148 717.698C421.621 723.793 417.821 730.734 416.352 737.094C414.863 740.797 413.541 744.463 412.414 748.292L287.794 748.05L287.958 912.016C287.98 923.087 286.403 960.725 288.412 969.329C289.367 970.118 289.908 970.632 291.129 970.997L275.034 970.955C221.63 970.385 168.137 970.878 114.727 971.12L101.956 971.461L101.962 748.059C96.3729 748.045 90.1489 749.091 84.6623 748.009C80.0443 747.099 78.3244 744.894 75.8158 741.193C75.9783 732.299 73.5987 718.163 77.6474 710.316C86.5172 702.955 134.972 705.975 148.287 706.02C142.09 699.883 138.266 693.906 137.369 685.121C135.877 670.505 135.554 620.56 138.04 607.951C138.841 603.89 140.314 600.451 142.982 597.268C148.292 590.933 156.001 588.149 164.018 587.517Z"/>
	<path fill="#CCE8E2" transform="scale(0.5 0.5)" d="M158.537 600.118Q187.789 599.725 217.043 599.984C221.053 603.002 223.606 605.502 225.315 610.327C227.422 616.274 227.727 619.637 224.977 625.32C221.942 627.4 220.124 626.884 216.5 626.88L148.989 626.865L149.034 609.029C151.928 605.34 154.52 602.605 158.537 600.118Z"/>
	<path fill="#CCE8E2" transform="scale(0.5 0.5)" d="M177.019 543.931L300.362 543.956L300.308 573.078L220.454 572.987C209.429 572.985 197.631 574.118 186.711 573.218C183.517 572.954 178.985 572.056 176.575 569.785C175.966 569.211 175.807 568.831 175.444 568.052C176.57 565.695 177.889 564.079 180.523 563.285C183.473 562.394 187.353 562.79 190.414 562.83C195.098 563.076 199.648 563.501 204.241 562.296L204.378 559.423C198.571 555.615 189.716 556.893 183.122 557.415L178.525 556.724C175.806 552.925 176.798 548.445 177.019 543.931Z"/>
	<path fill="#CCE8E2" transform="scale(0.5 0.5)" d="M149.106 633.069L225.832 633.035C225.867 648 228.719 675.836 224.253 689.16C223.179 692.367 220.781 694.915 218.587 697.411C211.414 703.324 204.818 704.873 195.636 704.987C182.724 705.146 165.507 706.599 155.676 696.715C145.072 686.053 149.051 648.077 149.106 633.069Z"/>
	<path fill="#CCE8E2" transform="scale(0.5 0.5)" d="M87.7133 717.982L424.148 717.698C421.621 723.793 417.821 730.734 416.352 737.094L87.9504 736.649C87.9992 730.432 87.8123 724.199 87.7133 717.982Z"/>
	<path fill="#CCE8E2" transform="scale(0.5 0.5)" d="M177.107 579.191L300.667 579.04L300.599 668.225C300.594 679.371 302.548 694.189 300.104 704.866C297.458 706.489 293.23 705.907 290.147 705.859L228.598 705.892C232.393 700.956 236.135 695.739 237.089 689.419C238.994 676.797 239.38 617.16 237.047 605.066C236.398 601.704 234.574 598.78 232.559 596.052C221.319 580.833 194.666 589.573 178.608 587.249C176.276 584.856 177.095 582.456 177.107 579.191Z"/>
	<path fill="#CCE8E2" transform="scale(0.5 0.5)" d="M114.851 748.022L275.096 747.959C275.076 822.259 275.997 896.67 275.034 970.955C221.63 970.385 168.137 970.878 114.727 971.12L114.851 748.022Z"/>
	<path fill="#6A7C97" transform="scale(0.5 0.5)" d="M1339.06 43.5002C1463.54 42.1981 1588.12 43.7209 1712.62 43.6767L1847.43 43.3897C1867.75 43.3129 1888.97 41.7698 1909.19 42.9325C1915.32 43.2849 1922.66 44.3408 1927.38 48.6654C1929.97 51.042 1932.39 54.679 1932.59 58.2547C1933.72 60.3372 1933.94 62.6906 1933.98 65.0273C1935.23 142.229 1934.07 219.612 1934.08 296.83L1934.21 376.705C1934.24 391.692 1935.12 407.228 1933.67 422.13C1933.27 426.252 1932.1 429.758 1929.11 432.723C1923.41 438.369 1915.14 437.894 1907.75 437.76L1490.31 437.72L1375.44 437.921C1360.22 437.948 1338.84 439.804 1324.5 437.378C1318.3 436.33 1315.79 430.8 1311.34 427.163C1311.18 427.038 1311.03 426.918 1310.87 426.795C1313.67 419.476 1311.58 302.931 1311.58 284.333C1311.61 210.15 1312.81 135.87 1311.93 61.6987C1311.9 58.9565 1311.83 56.6803 1310.83 54.0778C1314.17 51.7101 1318.24 47.3668 1320.57 44.0172L1339.06 43.5002Z"/>
	<path fill="#CCE8E2" transform="scale(0.5 0.5)" d="M1331.01 54.5001C1425.55 52.755 1520.48 53.9317 1615.04 54.4313C1616.61 56.8833 1616.56 59.5855 1616.61 62.4071C1618.18 145.047 1616.76 227.947 1616.76 310.626L1616.73 385.429C1616.72 398.285 1617.96 412.535 1615.93 425.16C1613.47 426.659 1609.61 426.185 1606.75 426.195L1445.29 426.799L1366.1 426.721C1354.69 426.694 1341.01 428.049 1329.86 426.173C1327.21 425.727 1326.28 424.452 1324.5 422.673C1322.47 410.77 1323.89 396.7 1323.93 384.563L1323.94 314.329L1324.08 144.545C1324.11 117.943 1323.51 91.2654 1324.03 64.6753C1324.08 62.2446 1324.2 60.2263 1325.04 57.9037C1327.28 55.5688 1328.02 55.294 1331.01 54.5001Z"/>
	<path fill="#6A7C97" transform="scale(0.5 0.5)" d="M1560.74 229.498C1562.07 229.184 1563.64 228.693 1565 228.667C1567.69 228.616 1568.46 229.467 1570.44 231.083C1572.67 235.122 1573.23 316.288 1571.81 323.135C1571.27 325.725 1569.45 326.255 1567.4 327.502L1564.49 328.125C1562.76 327.428 1561.69 327.257 1560.76 325.497C1558.74 321.667 1558.61 235.916 1560.74 229.498Z"/>
	<path fill="#CCE8E2" transform="scale(0.5 0.5)" d="M1628.21 54.4993C1645.55 52.9912 1663.92 54.1608 1681.36 54.1474L1786.31 54.2144L1865.79 54.294C1881.71 54.2963 1898.26 53.3459 1914.04 55.289C1916.16 55.5494 1918.3 55.3077 1919.61 57.1311C1920.93 58.9703 1921.44 60.8072 1921.66 63.0451C1923.01 76.7445 1921.92 92.0522 1921.94 105.913L1921.95 194.877L1921.96 363.306C1921.96 374.569 1923.64 412.833 1921.85 421.199C1921.35 423.544 1919.67 424.247 1917.87 425.501C1917.11 426.111 1916.09 426.486 1915.12 426.585C1905.63 427.544 1894.95 426.635 1885.35 426.605L1822.96 426.445L1627.18 426.316C1630.39 421.047 1628.32 356.086 1628.31 342.592L1628.67 133.93L1628.79 81.1554C1628.8 72.5661 1629.81 62.8633 1628.21 54.4993Z"/>
	<path fill="#6A7C97" transform="scale(0.5 0.5)" d="M1677.61 229.498C1677.96 229.456 1678.31 229.417 1678.66 229.389C1682.1 229.112 1683.44 229.708 1685.97 231.84C1688.15 236.134 1688.7 317.003 1687.1 323.444C1686.6 325.422 1684.87 326.007 1683.26 327.016L1682.54 327.567C1680.05 327.944 1679.88 327.964 1677.68 326.758C1676.17 324.675 1675.62 322.852 1675.32 320.34C1673.28 303.761 1674.82 285.448 1674.9 268.696C1674.95 257.578 1673.88 245.421 1675.31 234.449C1675.56 232.477 1676.39 231.043 1677.61 229.498Z"/>
	<path fill="#6A7C97" transform="scale(0.5 0.5)" d="M1629.13 705.458C1629.1 705.321 1629.07 705.184 1629.04 705.048C1627.78 700.051 1622.88 696.592 1622.15 691.32C1619.79 674.428 1621.66 653.98 1621.7 636.783C1621.75 618.507 1620.36 598.951 1621.99 580.784C1622.44 575.864 1623.31 569.465 1625.72 565.089C1629.39 558.415 1638.28 552.35 1645.59 550.497C1658.55 547.214 1675.59 549.278 1689.04 549.294L1767.03 549.348L1856.78 549.316C1872.13 549.304 1887.93 548.455 1903.22 549.444C1907.33 549.709 1911.19 551.252 1914.68 553.372C1921.99 557.807 1926.09 564.28 1928.05 572.548C1930.21 581.653 1930.21 663.844 1928.82 675.105C1927.93 682.299 1925.87 689.364 1921.92 695.494C1919.11 699.857 1916.1 703.15 1911.69 705.851C1925.47 705.931 1939.29 706.179 1953.07 705.974C1960.57 705.862 1969.21 704.566 1976.6 705.684C1979.44 706.116 1982.24 707.195 1984.27 709.302C1989.61 714.845 1988.94 726.071 1988.62 733.235C1988.43 737.454 1987.83 742.853 1984.29 745.711C1978.54 750.346 1965.48 747.964 1958.44 748.047C1959.58 750.445 1959.81 752.468 1959.88 755.084C1961.3 806.318 1959.98 857.949 1959.97 909.221C1959.96 922.007 1961.62 962.728 1959.57 972.032C1954.88 972.344 1949.96 971.906 1945.26 971.786C1936.25 972.405 1926.6 971.297 1917.51 971.131Q1889.75 970.728 1861.99 970.822L1647.68 970.833C1643.1 971.253 1638.29 970.878 1633.68 970.792C1594.98 972.593 1553.21 970.826 1514.22 970.762L1305.49 970.752L1291.76 970.822L1273.7 970.819C1251.37 971.03 1228.83 971.689 1206.51 970.804L1016.06 970.832L1003.07 970.93L982.896 970.885L970.308 970.911C972.121 945.027 970.626 918.207 970.581 892.201Q970.887 820.007 970.105 747.816C921.139 748.58 869.467 748.765 820.595 747.408C820.115 741.214 819.263 732.01 820.82 726.077L820.821 725.206C819.534 719.116 820.059 711.427 819.856 705.157C895.025 705.15 970.361 704.373 1045.52 705.194C1043.03 700.063 1036.07 695.317 1032.13 690.955C1028.74 687.202 1025.81 683.132 1022.94 678.98C1012.8 679.111 995.356 681.819 987.757 674.128C986.105 672.456 985.049 670.372 985.026 667.982C984.994 664.681 986.71 661.738 989.109 659.587C996.645 652.828 1008.76 655.789 1018.02 655.555C1023.87 643.134 1032.09 635.222 1045.24 630.451C1054.69 627.023 1064.15 626.628 1074.08 626.844C1093.46 615.563 1116.85 609.169 1139.16 615.512C1149.43 618.432 1154.15 614.526 1163.84 614.697C1178.95 614.965 1203.33 624.266 1210.16 638.47C1212.5 643.323 1212.89 649.438 1210.93 654.483C1210.75 654.962 1210.55 655.436 1210.34 655.907C1219.3 655.719 1233.93 654.207 1240.62 661.318C1242.06 662.851 1242.68 664.79 1242.47 666.88C1242.13 670.292 1239.72 674.408 1236.92 676.406C1230.39 681.067 1214.02 678.575 1205.93 678.982C1205.96 683.128 1201.13 688.093 1198.35 690.877C1192.02 697.206 1183.88 702.704 1175.49 705.756L1336.56 705.769C1336.5 705.611 1336.44 705.451 1336.38 705.297C1332.78 696.933 1317.27 695.442 1320.5 684.157C1323.24 681.381 1326.12 680.91 1329.87 680.892C1334.23 680.871 1338.62 681.003 1342.99 681.059C1343.14 680.9 1343.28 680.745 1343.42 680.581C1347.99 675.044 1348.75 666.272 1353.26 659.99C1373.21 632.158 1407.74 624.448 1439.49 620.042C1439.6 619.903 1439.72 619.767 1439.84 619.625C1445.11 612.921 1443.97 604.627 1455.04 603.239C1459.46 602.686 1463.4 604.083 1466.86 606.796C1471.6 610.521 1473.62 615.446 1474.25 621.302C1503.74 626.025 1537.54 634.707 1556.09 660.378C1559.96 665.74 1564.2 674.195 1563.75 681.017C1571.04 680.856 1585.96 679.121 1591.69 683.875C1593.71 685.546 1593.59 686.515 1593.63 688.919C1591.47 693.785 1581.76 702.814 1576.91 705.455C1594.3 705.496 1611.75 705.874 1629.13 705.458Z"/>
	<path fill="#CCE8E2" transform="scale(0.5 0.5)" d="M1456.59 614.498C1456.97 614.499 1457.36 614.482 1457.74 614.539C1460.17 614.901 1461.27 616.016 1462.61 617.847L1461.78 619.378L1457.98 620.004C1456.08 620.15 1455 619.996 1453.28 619.146C1453.54 616.592 1454.77 616.109 1456.59 614.498Z"/>
	<path fill="#CCE8E2" transform="scale(0.5 0.5)" d="M1210.79 665.497C1215.72 665.14 1226.27 663.321 1230.16 666.44L1228.8 668.503C1224.89 670.037 1215.07 669.86 1211.29 668.217L1210.79 665.497Z"/>
	<path fill="#CCE8E2" transform="scale(0.5 0.5)" d="M995.721 665.269C1002.08 664.906 1011.08 663.476 1017.18 665.456C1018.96 666.034 1019.14 667.487 1019.92 669.094C1013.83 669.368 1002.54 671.073 997.012 668.379C996.26 668.013 995.976 666.098 995.721 665.269Z"/>
	<path fill="#F2987F" transform="scale(0.5 0.5)" d="M1149.2 634.037L1150.62 631.87C1158.33 636.916 1189.25 631.983 1193.26 652.05C1193.38 652.662 1193.43 653.269 1193.47 653.889L1176.9 654.06C1173.96 646 1159.69 638.78 1152.25 635.362Q1150.74 634.668 1149.2 634.037Z"/>
	<path fill="#F2987F" transform="scale(0.5 0.5)" d="M1057.23 632.494C1059.28 632.282 1061.4 632.006 1063.46 631.995C1065.95 631.982 1067.01 632.217 1068.72 633.984C1068.44 634.954 1068.26 635.538 1067.64 636.345C1066.63 637.66 1044.16 652.534 1042.03 653.33C1040.87 653.761 1038.31 653.561 1036.98 653.644C1032.9 654.416 1028.17 654.027 1024 654.084C1033.77 641.919 1042.56 637.016 1057.23 632.494Z"/>
	<path fill="#F2987F" transform="scale(0.5 0.5)" d="M1113.23 634.5C1126.55 633.947 1138.74 636.066 1151.06 641.227C1156.85 643.65 1165.73 648.073 1168.2 654.132C1160.89 654.2 1152.91 655.069 1145.8 653.094C1140.48 651.614 1135.68 649.143 1130.21 647.844C1129.78 647.586 1129.71 647.524 1129.16 647.335C1115.49 642.67 1105.24 648.116 1093.43 653.97C1089.95 653.976 1085.24 654.533 1081.91 653.658C1079.66 653.07 1079.05 652.664 1077.97 650.692C1078.17 650.276 1078.22 650.127 1078.49 649.702C1083.91 641.164 1104.17 636.52 1113.23 634.5Z"/>
	<path fill="#F2987F" transform="scale(0.5 0.5)" d="M1047.52 653.471C1053.39 650.068 1064.16 643.292 1069.81 639.224C1080.86 631.268 1088.3 623.914 1102.39 621.207C1115.29 618.73 1127.2 620.302 1140.13 620.801C1160.34 621.582 1177.27 618.586 1195.28 631.01C1200.81 634.829 1203.87 638.393 1205.11 645.056C1205.72 648.373 1206.39 651.566 1204.43 654.457C1199.35 653.54 1190.27 637.942 1183.72 634.057C1173.71 628.119 1161.46 629.028 1150.62 631.87L1149.2 634.037C1145.44 630.921 1130.86 629.772 1125.73 629.54C1113.34 628.978 1091.8 631.286 1082.32 640.054C1078.27 643.799 1075.62 649.766 1071.89 652.985C1071.69 653.157 1071.49 653.321 1071.28 653.489L1047.52 653.471Z"/>
	<path fill="#CCE8E2" transform="scale(0.5 0.5)" d="M1340.93 693.498C1349.15 692.211 1358.37 692.948 1366.7 692.965L1411.82 693.014L1572.84 692.947C1571.68 696.507 1569.04 697.761 1565.97 699.5C1565.05 702.265 1563.09 703.626 1560.83 705.196L1356.3 705.722C1355.21 702.422 1344.17 695.725 1340.93 693.498Z"/>
	<path fill="#CCE8E2" transform="scale(0.5 0.5)" d="M1050.46 660.495C1066.29 660.338 1196.26 659.439 1199.27 661.27C1199.84 661.615 1200.23 662.192 1200.71 662.652C1201.34 665.548 1200.04 668.205 1198.81 670.768C1193.8 681.22 1180.29 692.899 1169.3 696.755C1153.2 708.766 1091.7 702.535 1069.12 703.861C1066.75 699.819 1052.15 695.188 1047.62 690.74C1042.26 685.47 1037.72 678.977 1033.99 672.47C1031.75 668.55 1030.26 663.976 1027.02 660.755Q1038.74 660.772 1050.46 660.495Z"/>
	<path fill="#CCE8E2" transform="scale(0.5 0.5)" d="M1435.87 632.496C1436.66 632.4 1437.43 632.311 1438.23 632.264C1471.94 630.276 1513.19 635.7 1539.19 659.413C1545.26 664.944 1550.71 672.23 1551.12 680.663C1543.13 681.968 1533.51 681.048 1525.35 681.031L1470.75 680.872L1356.17 680.986C1360.05 677.155 1361.24 669.769 1364.67 665.11C1380.58 643.469 1410.87 636.073 1435.87 632.496Z"/>
	<path fill="#CCE8E2" transform="scale(0.5 0.5)" d="M1649.35 561.499C1658.72 560.554 1668.68 561.143 1678.13 561.109L1733.24 561.023L1905.26 561.044C1907.12 561.946 1909.07 563.346 1910.58 564.749C1916.08 569.86 1916.91 577.143 1917.03 584.212C1917.34 602.861 1917.09 621.563 1917.04 640.216C1917.02 651.312 1917.84 663.201 1916.38 674.17C1915.6 680.045 1914.24 688.076 1910.04 692.421C1904.31 688.902 1893.38 690.402 1886.63 690.5L1886.1 691.203C1882.68 695.705 1885.38 700.898 1882.61 705.538L1741.31 705.105C1725.54 705.099 1660.22 707.601 1648.62 703.269C1644.76 701.827 1637.94 697.649 1636.43 693.644C1632.48 683.181 1631.8 582.061 1635.28 575.049C1638.72 568.109 1642.84 565.252 1649.35 561.499Z"/>
	<path fill="#6A7C97" transform="scale(0.5 0.5)" d="M1888.89 642.5C1894.08 642.591 1898.56 643.726 1902.57 647.225Q1902.92 647.527 1903.25 647.846Q1903.58 648.165 1903.89 648.5Q1904.2 648.836 1904.5 649.187Q1904.8 649.538 1905.07 649.904Q1905.35 650.27 1905.61 650.649Q1905.87 651.029 1906.11 651.421Q1906.34 651.813 1906.56 652.218Q1906.78 652.622 1906.98 653.036Q1907.17 653.451 1907.35 653.875Q1907.53 654.299 1907.68 654.732Q1907.83 655.165 1907.96 655.605Q1908.1 656.045 1908.2 656.491Q1908.31 656.937 1908.4 657.388Q1908.48 657.839 1908.54 658.294Q1908.61 658.749 1908.65 659.207Q1908.68 659.664 1908.7 660.123Q1908.74 661.048 1908.68 661.972Q1908.63 662.896 1908.49 663.81Q1908.34 664.725 1908.11 665.62Q1907.87 666.515 1907.55 667.383Q1907.22 668.25 1906.82 669.081Q1906.41 669.912 1905.92 670.699Q1905.43 671.485 1904.87 672.219Q1904.3 672.954 1903.67 673.628C1899.22 678.397 1893.98 679.179 1887.75 679.302C1883.46 678.829 1879.44 677.442 1876.12 674.622Q1875.43 674.024 1874.8 673.361Q1874.17 672.697 1873.61 671.974Q1873.05 671.251 1872.56 670.476Q1872.07 669.7 1871.67 668.881Q1871.26 668.061 1870.94 667.205Q1870.61 666.349 1870.38 665.465Q1870.14 664.581 1869.99 663.678Q1869.85 662.775 1869.79 661.862Q1869.73 660.972 1869.75 660.079Q1869.77 659.187 1869.89 658.301Q1870 657.416 1870.2 656.545Q1870.39 655.675 1870.68 654.828Q1870.96 653.982 1871.32 653.167Q1871.69 652.352 1872.13 651.576Q1872.57 650.801 1873.09 650.073Q1873.6 649.345 1874.19 648.671C1878.23 644.103 1883.03 642.925 1888.89 642.5Z"/>
	<path fill="#CCE8E2" transform="scale(0.5 0.5)" d="M1885.95 654.499C1886.16 654.481 1886.37 654.457 1886.58 654.444C1889.36 654.277 1892.21 654.65 1894.16 656.857C1896.09 659.028 1895.96 660.272 1895.76 662.94C1893.9 665.451 1892.97 665.818 1890.2 667.018C1888.09 667.344 1886.83 666.945 1884.84 666.246C1883.17 664.42 1882.26 663.648 1882.27 661.01C1882.29 658.139 1884.07 656.371 1885.95 654.499Z"/>
	<path fill="#6A7C97" transform="scale(0.5 0.5)" d="M1870.79 576.499C1879.42 575.085 1890.64 575.147 1899.37 575.751C1902.03 575.936 1904.97 576.152 1906.84 578.287C1910.39 586.732 1910.26 615.859 1908.38 625.113C1907.76 628.155 1906.58 628.554 1904.23 630.102C1904.05 630.238 1903.89 630.394 1903.7 630.508C1901.14 632.062 1875.97 631.255 1872.39 630.339C1870.8 628.994 1870.37 628.687 1869.78 626.592C1867.58 618.85 1867.07 583.144 1870.79 576.499Z"/>
	<path fill="#CCE8E2" transform="scale(0.5 0.5)" d="M1880.52 587.499C1884.79 586.932 1889.27 587.141 1893.59 587.103C1895.76 591.131 1895.31 596.423 1895.4 600.911C1895.51 605.915 1896.49 615.355 1892.92 619.084C1888.97 620.116 1883.43 619.463 1879.29 619.495C1882.98 612.766 1881.95 594.873 1880.52 587.499Z"/>
	<path fill="#6A7C97" transform="scale(0.5 0.5)" d="M1660.94 580.499Q1661.48 580.401 1662.03 580.328C1670.61 579.14 1680.22 579.852 1688.89 579.87L1738.6 579.994L1805.64 579.96C1817.39 579.949 1829.48 579.376 1841.18 580.146C1845.35 580.42 1850.68 580.834 1854.09 583.427C1855.69 588.278 1856 676.621 1854.47 680.884C1853.45 683.711 1851.72 683.937 1849.21 684.999C1819.55 687.77 1786.47 685.883 1756.54 685.919C1725.33 685.957 1692.62 687.944 1661.55 685.224C1660.28 683.885 1660.06 683.309 1659.65 681.544C1657.28 671.433 1657.07 597.834 1658.77 585.853C1659.04 583.877 1659.9 582.17 1660.94 580.499Z"/>
	<path fill="#CCE8E2" transform="scale(0.5 0.5)" d="M1669.82 592.498C1682.76 589.878 1705.95 591.856 1720.08 591.867L1841.22 591.946C1841.84 592.892 1842.37 593.895 1842.59 595.014C1843.71 600.9 1844.38 614.405 1841.22 619.395C1837.66 621.227 1688.28 620.006 1669.21 620.082C1669.63 619.455 1669.97 618.832 1670.27 618.134C1672.45 612.96 1671.79 597.594 1669.82 592.498Z"/>
	<path fill="#CCE8E2" transform="scale(0.5 0.5)" d="M1669.92 627.499C1683.63 625.13 1708.11 626.963 1722.76 626.973L1841.39 626.909C1842 627.873 1842.51 628.907 1842.71 630.038C1843.86 636.724 1844.17 668.86 1841.24 673.501C1835.79 675.464 1690 673.997 1669.26 674.001C1669.34 673.834 1669.42 673.666 1669.51 673.501C1669.6 673.314 1669.71 673.135 1669.81 672.946C1672.52 667.441 1671.91 633.659 1669.92 627.499Z"/>
	<path fill="#CCE8E2" transform="scale(0.5 0.5)" d="M1646.2 747.998L1946.16 748.003C1947.29 749.924 1947.62 751.475 1947.71 753.671C1948.41 770.675 1947.88 787.936 1947.89 804.964L1947.73 905.126C1947.68 917.627 1949.2 958.741 1946.9 968.387C1946.59 969.705 1946.02 970.683 1945.26 971.786C1936.25 972.405 1926.6 971.297 1917.51 971.131Q1889.75 970.728 1861.99 970.822L1647.68 970.833C1648.51 957.201 1648.01 943.319 1648.02 929.657L1648.03 858.093L1648.02 789.152C1648.01 777.32 1648.59 765.135 1647.85 753.34C1647.72 751.241 1647.32 749.777 1646.2 747.998Z"/>
	<path fill="#6A7C97" transform="scale(0.5 0.5)" d="M1689.87 842.498C1691 842.322 1692.28 842.075 1693.42 842.19C1696.05 842.458 1696.94 843.379 1698.51 845.247C1699.83 851.059 1700.63 933.737 1699.41 937.156C1698.75 939 1696.82 939.451 1695.18 940.221C1693.54 941.196 1692.81 940.925 1690.95 940.82C1688.93 938.867 1688.33 937.554 1687.82 934.757C1685.9 924.294 1685.77 858.758 1687.51 847.667C1687.81 845.73 1688.77 844.084 1689.87 842.498Z"/>
	<path fill="#CCE8E2" transform="scale(0.5 0.5)" d="M1304.99 747.988L1634.27 747.998C1635.2 749.689 1635.56 751.025 1635.64 752.935C1637.34 798.061 1635.83 843.886 1635.93 889.086L1635.98 941.438C1635.97 950.379 1636.67 960.069 1635.4 968.896L1634.59 968.947C1634.35 969.932 1634.42 970.002 1633.68 970.792C1594.98 972.593 1553.21 970.826 1514.22 970.762L1305.49 970.752C1306.36 968.633 1306.56 966.916 1306.6 964.66C1306.93 946.227 1307.22 753.104 1305.54 749.1C1305.29 748.503 1305.27 748.488 1304.99 747.988Z"/>
	<path fill="#6A7C97" transform="scale(0.5 0.5)" d="M1589.72 842.498C1592.64 842.425 1594.46 842.352 1596.97 844.132C1600.32 848.765 1599.25 926.619 1598.49 937.65C1596.75 940.253 1595.95 940.276 1593.1 941.23C1591.04 941.232 1589.98 940.95 1588.26 939.823C1584.82 934.618 1586.17 863.988 1586.43 853.148C1586.54 848.618 1586.3 845.766 1589.72 842.498Z"/>
	<path fill="#CCE8E2" transform="scale(0.5 0.5)" d="M820.821 725.206C821.056 722.73 820.663 719.71 822.541 718.036C857.66 715.54 894.126 717.132 929.415 717.135L1154.67 717.733L1974.56 717.082C1976.6 722.017 1977.23 729.809 1975.36 734.911C1975.15 735.492 1974.87 736.022 1974.55 736.549L1521.94 736.212L1390.84 736.243C1366.22 736.159 1341.21 735.073 1316.63 736.139C1311.74 736.352 1301.87 736.806 1298.24 740.096C1295.82 744.202 1294.8 748.464 1294.26 753.185C1291 781.542 1297.24 961.129 1293.49 968.791C1293.18 969.428 1292.24 970.254 1291.76 970.822L1273.7 970.819C1251.37 971.03 1228.83 971.689 1206.51 970.804L1016.06 970.832L1003.07 970.93L982.896 970.885L970.308 970.911C972.121 945.027 970.626 918.207 970.581 892.201Q970.887 820.007 970.105 747.816C921.139 748.58 869.467 748.765 820.595 747.408C820.115 741.214 819.263 732.01 820.82 726.077L820.821 725.206Z"/>
	<path fill="#6A7C97" transform="scale(0.5 0.5)" d="M820.595 747.408C820.115 741.214 819.263 732.01 820.82 726.077C821.016 728.983 820.698 732.993 822.343 735.339C832.824 737.062 844.551 735.992 855.188 736.009L933.802 736.16C946.134 736.174 959.72 734.878 971.886 736.668C975.059 737.135 977.464 737.63 979.79 739.844C984.873 758.294 982.377 802.141 982.442 823.722L982.896 970.885L970.308 970.911C972.121 945.027 970.626 918.207 970.581 892.201Q970.887 820.007 970.105 747.816C921.139 748.58 869.467 748.765 820.595 747.408Z"/>
	<path fill="#CCE8E2" transform="scale(0.5 0.5)" d="M1003.07 970.93C1003.06 956.591 1000.18 881.738 1006.63 874.566C1008.51 872.476 1011.98 870.704 1014.76 870.302C1022.28 869.211 1030.97 869.977 1038.62 869.972L1086.69 869.942L1247.73 869.984C1253.58 870.02 1263.87 870.249 1268.69 873.652C1271.32 877.626 1272.38 881.778 1273 886.48C1274.44 897.372 1273.5 909.07 1273.5 920.082Q1273.74 945.45 1273.7 970.819C1251.37 971.03 1228.83 971.689 1206.51 970.804L1016.06 970.832L1003.07 970.93Z"/>
	<path fill="#6A7C97" transform="scale(0.5 0.5)" d="M1119.73 915.494C1129.82 913.971 1174.63 913.365 1181.86 917.66C1183.41 919.79 1183.35 919.819 1183.08 922.454C1181.08 925.228 1180.41 925.418 1177.31 926.501C1169.12 927.962 1132.54 927.646 1124.35 926.201C1121 925.61 1119.34 924.773 1117.4 921.998C1117.52 918.939 1118.17 918.024 1119.73 915.494Z"/>
	<path fill="#6A7C97" transform="scale(0.5 0.5)" d="M1003.07 970.93C1003.06 956.591 1000.18 881.738 1006.63 874.566C1008.51 872.476 1011.98 870.704 1014.76 870.302C1022.28 869.211 1030.97 869.977 1038.62 869.972L1086.69 869.942L1247.73 869.984C1253.58 870.02 1263.87 870.249 1268.69 873.652C1271.32 877.626 1272.38 881.778 1273 886.48C1274.44 897.372 1273.5 909.07 1273.5 920.082Q1273.74 945.45 1273.7 970.819C1251.37 971.03 1228.83 971.689 1206.51 970.804C1223.53 968.428 1243.01 970.183 1260.29 970.202C1260.7 969.546 1261.11 968.821 1261.3 968.067C1263.22 960.693 1262.54 887.133 1259.71 881.981L1015.72 881.763C1015.85 911.379 1014.88 941.261 1016.06 970.832L1003.07 970.93Z"/>
	<path fill="#6A7C97" transform="scale(0.5 0.5)" d="M1014.84 736.257C1096.93 734.701 1179.35 736.464 1261.48 736.538C1263.32 737.292 1265.02 738.131 1266.64 739.283C1269.86 741.564 1272.59 744.406 1273.19 748.46C1275.11 761.422 1275.18 828.304 1273.36 841.445C1273.02 843.945 1272.32 846.053 1270.74 848.064C1268.02 851.519 1264.42 852.616 1260.23 853.148C1252.19 855.303 1202.66 853.405 1190.51 853.372C1136.71 853.226 1082.69 854.535 1028.92 853.307C1023.43 853.182 1014.1 853.48 1009.16 851.303C1007.01 850.355 1005.18 846.586 1004.48 844.438C1002.16 837.301 1002.11 764.962 1002.93 754.651C1003.24 750.758 1003.78 746.317 1005.61 742.808C1007.65 738.892 1010.81 737.489 1014.84 736.257Z"/>
	<path fill="#CCE8E2" transform="scale(0.5 0.5)" d="M1016.09 748.059C1097.45 747.286 1178.94 747.799 1260.31 748.217C1261.08 749.494 1261.71 751.021 1261.83 752.523C1262.38 759.359 1262.6 836.471 1261.36 838.954C1260.94 839.776 1259.88 840.761 1259.27 841.5C1231.54 843.233 1202.84 841.778 1174.97 841.758L1015.63 841.811C1015.59 810.632 1014.81 779.199 1016.09 748.059Z"/>
	<path fill="#6A7C97" transform="scale(0.5 0.5)" d="M1093.76 789.494C1094.71 789.395 1095.66 789.302 1096.62 789.26C1105.07 788.89 1147.69 787.057 1152.81 792.164C1154.32 793.663 1154.16 794.178 1154.1 796.136C1152.54 798.262 1151.2 799.225 1148.92 800.505C1143.51 802.21 1102.38 802.215 1095.88 800.265C1093.12 799.437 1092.32 798.659 1090.94 796.217C1091.03 793.013 1091.75 791.848 1093.76 789.494Z"/>
	<path fill="#2A1743" transform="scale(0.5 0.5)" d="M458.761 65.1532C463.23 62.3348 467.819 60.001 472.677 57.9288C501.304 45.7174 535.165 46.5328 563.812 58.1818C583.457 66.1704 598.978 79.3429 607.332 99.1087C622.478 107.555 634.57 117.058 640.747 134.05C646.142 148.894 645.098 165.911 638.41 180.156C629.835 198.421 613.662 208.644 595.308 215.336C608.531 240.808 628.659 269.481 643.953 294.616C659.361 292.557 674.82 286.878 690.283 284.164C728.206 277.506 765.593 277.342 803.907 279.132L804.529 279.786C811.895 287.65 818.386 297.405 824.711 306.156C861.983 357.722 873.193 403.097 870.712 465.799C845.555 488.791 808.979 508.869 777.984 522.799C764.365 528.92 750.311 534.003 736.681 540.13C749.705 547.842 760.679 556.15 770.258 567.971C838.577 569.044 910.038 530.371 959.152 484.559C958.942 480.021 958.843 475.291 959.642 470.806C961.447 460.67 966.917 451.96 975.462 446.192C986.81 438.533 1002.3 435.707 1015.64 438.215C1022.68 423.501 1068.21 327.789 1068.34 320.662C1065.82 315.948 1055.03 308.026 1050.78 303.244C1038.67 289.599 1033.86 270.758 1034.93 252.822C1035.25 247.472 1036.1 242.359 1037.73 237.245C1041.82 224.427 1077.7 131.247 1083.98 126.315C1086.13 124.627 1089.3 123.473 1092.05 123.772C1100.42 124.683 1222.78 179.115 1237.54 186.545C1241.03 188.301 1245.61 190.615 1247.94 193.841C1248.9 195.184 1249.31 195.665 1248.91 197.338C1247.52 203.149 1192.92 304.02 1186.95 312.797C1183.04 318.546 1178.28 323.383 1172.54 327.317C1152.32 341.16 1127.88 341.82 1104.6 337.536C1101.72 348.653 1086.88 375.219 1081.19 387.19Q1070.41 410.304 1059.36 433.294C1056.02 440.27 1052.95 448.139 1048.82 454.655Q1050.23 455.766 1051.54 456.996C1059.03 464.063 1064.39 474.061 1064.53 484.494C1064.74 499.967 1057.95 511.24 1051.29 524.365C1049.23 528.416 1047.62 533.412 1044.32 536.651C1034.81 545.99 1016.44 544.009 1004.05 543.84C999.155 553.123 995.249 562.909 990.525 572.28C985.735 581.78 982.53 586.036 972.441 589.378C967.836 588.071 963.423 586.312 958.969 584.572C956.212 581.21 953.436 577.542 953.539 573.124L952.498 572.204C907.398 602.446 859.509 620.5 807.257 634.03C814.849 656.368 818.527 681.749 819.856 705.157C820.059 711.427 819.534 719.116 820.821 725.206L820.82 726.077C819.263 732.01 820.115 741.214 820.595 747.408C869.467 748.765 921.139 748.58 970.105 747.816Q970.887 820.007 970.581 892.201C970.626 918.207 972.121 945.027 970.308 970.911L982.896 970.885L1003.07 970.93L1016.06 970.832L1206.51 970.804C1228.83 971.689 1251.37 971.03 1273.7 970.819L1291.76 970.822L1305.49 970.752L1514.22 970.762C1553.21 970.826 1594.98 972.593 1633.68 970.792C1638.29 970.878 1643.1 971.253 1647.68 970.833L1861.99 970.822Q1889.75 970.728 1917.51 971.131C1926.6 971.297 1936.25 972.405 1945.26 971.786C1949.96 971.906 1954.88 972.344 1959.57 972.032C1971.04 972.356 1982.54 972.55 1993.99 973.418C2002.47 973.94 2011.49 973.888 2019.84 975.313C2015.72 979.219 2000.7 977.9 1994.92 978.565C1963.01 982.227 1929.29 980.828 1897.17 981.015L1740.55 981.81L1212.5 981.566L466.264 981.905L246.072 981.878C183.367 981.858 120.29 982.155 57.6708 978.636C47.4883 978.079 36.8571 977.776 26.8997 975.524C39.2127 974.66 52.0353 972.952 64.3599 973.216C76.8703 972.132 89.4467 972.48 101.956 971.461L114.727 971.12C168.137 970.878 221.63 970.385 275.034 970.955L291.129 970.997C289.908 970.632 289.367 970.118 288.412 969.329C286.403 960.725 287.98 923.087 287.958 912.016L287.794 748.05L412.414 748.292C413.541 744.463 414.863 740.797 416.352 737.094C417.821 730.734 421.621 723.793 424.148 717.698C426.215 713.964 427.904 709.91 429.737 706.048C445.164 676.143 466.37 645.928 493.88 626.095C503.067 605.702 520.537 591.685 535.623 575.785C518.876 576.841 477.39 580.867 463.111 576.269C443.386 569.916 427.499 548.178 418.601 530.459C403.888 501.159 392.056 457.817 402.88 425.497C406.967 413.296 414.179 404.835 425.586 399.138C415.231 377.996 402.527 357.46 390.781 337.045Q388.789 338.942 386.685 340.714C364.835 359.052 333.893 366.016 305.988 363.463C279.867 361.073 254.819 350.606 237.875 330.003C217.823 305.621 222.778 280.681 225.629 251.533C227.688 230.484 240.844 217.259 256.279 204.59C255.169 188.995 257.864 175.717 266.438 162.544C282.562 137.769 310.189 123.282 338.487 117.395C344.536 105.689 352.577 95.6955 362.955 87.5335C390.299 66.0277 425.066 61.184 458.761 65.1532Z"/>
	<path fill="#AEB3BE" transform="scale(0.5 0.5)" d="M962.461 501.283C962.457 499.64 962.196 497.843 963.12 496.412C965.217 496.707 965.29 496.901 966.485 498.501C969.124 502.035 971.002 506.545 972.989 510.488L976.482 514.81C976.74 517.321 976.582 517.725 975.469 520.009L973.601 520.422C971.312 518.386 970.058 515.578 968.635 512.915C966.855 508.836 964.734 505.096 962.461 501.283Z"/>
	<path fill="#FDFDFC" transform="scale(0.5 0.5)" d="M548.799 662.527C550.995 660.93 553.227 659.381 555.444 657.813C557.483 669.853 557.622 680.034 554.63 691.926C554.044 691.588 553.83 691.412 553.093 691.273C550.358 690.757 548.45 692.547 546.348 693.944C549.59 683.129 550.349 673.71 548.799 662.527Z"/>
	<path fill="#CCE8E2" transform="scale(0.5 0.5)" d="M480.574 737.286C483.786 730.924 486.635 722.941 492.668 718.768C493.59 718.724 494.887 718.426 495.674 718.912C500.775 722.061 501.438 729.883 502.628 735.271C499.65 738.234 492.219 737.343 488.02 737.331L480.574 737.286Z"/>
	<path fill="#6A7C97" transform="scale(0.5 0.5)" d="M502.628 735.271Q504.25 741.519 505.94 747.749C496.193 748.025 486.41 747.907 476.658 747.959L480.574 737.286L488.02 737.331C492.219 737.343 499.65 738.234 502.628 735.271Z"/>
	<path fill="#AEB3BE" transform="scale(0.5 0.5)" d="M770.044 822.062C771.129 823.123 771.167 824.902 771.462 826.389C771.109 827.422 770.814 828.15 769.989 828.903C758.232 839.64 735.612 842.546 720.342 841.97L719.674 841.291C719.76 841.18 763.782 825.143 770.044 822.062Z"/>
	<path fill="#D3D3D9" transform="scale(0.5 0.5)" d="M546.348 693.944C548.45 692.547 550.358 690.757 553.093 691.273C553.83 691.412 554.044 691.588 554.63 691.926C551.096 700.964 546.106 709.12 536.799 713.186C531.163 715.649 524.55 715.864 518.825 713.546C515.724 712.291 513.004 710.384 510.302 708.442C506.71 704.419 504.35 700.59 501.901 695.825C508.271 701.976 515.989 709.177 525.381 709.462C530.707 709.623 534.662 707.665 538.446 704.074C541.897 701.479 544.04 697.523 546.348 693.944Z"/>
	<path fill="#D3D3D9" transform="scale(0.5 0.5)" d="M542.578 644.178C542.428 643.823 542.267 643.472 542.094 643.128C536.222 631.482 529.371 623.171 516.632 619.251L516.503 618.552L514.255 618.613L515.623 617.842L515.364 617.899C517.996 617.379 520.726 617.615 523.372 617.962C534.308 619.397 541.253 628.936 547.442 637.083C550.44 643.91 553.454 650.612 555.444 657.813C553.227 659.381 550.995 660.93 548.799 662.527C548.272 659.6 547.4 656.713 546.645 653.837C545.467 650.557 543.975 647.371 542.578 644.178Z"/>
	<path fill="#FDFDFC" transform="scale(0.5 0.5)" d="M788.043 289.963C791.572 289.413 794.764 289.674 798.3 290.026C808.433 302.013 818.188 315.539 826.092 329.099C820.369 325.191 809.171 321.819 805.499 316.648C801.582 307.45 794.599 297.482 788.043 289.963Z"/>
	<path fill="#AEB3BE" transform="scale(0.5 0.5)" d="M606.14 845.092C604.904 845.698 603.639 846.163 602.317 846.546C589.359 850.304 573.765 848.8 562.007 842.225C558.186 840.089 549.065 834.385 547.909 830.335C552.521 829.414 559.768 832.918 564.35 834.415C578.03 841.049 593.876 839.974 606.14 845.092Z"/>
	<defs>
		<linearGradient id="gradient_0" gradientUnits="userSpaceOnUse" x1="966.94379" y1="481.11111" x2="992.29901" y2="491.99307">
			<stop offset="0" stop-color="#B1B1C0"/>
			<stop offset="1" stop-color="#C1C9D0"/>
		</linearGradient>
	</defs>
	<path fill="url(#gradient_0)" transform="scale(0.5 0.5)" d="M980.502 508.802C974.929 497.588 967.919 485.823 970.105 472.712C971.26 465.783 975.018 460.493 980.653 456.496C977.307 464.329 976.035 472.852 979.256 481.009C980.883 485.127 983.371 488.445 987.414 490.423C983.374 504.092 989.8 506.836 988.534 514.866C986.048 513.518 983.791 511.887 981.491 510.249L980.502 508.802Z"/>
	<path fill="#FDFDFC" transform="scale(0.5 0.5)" d="M988.532 455.318C995.456 449.77 1001.07 448.718 1009.7 448.783C1009.63 448.914 1009.57 449.047 1009.5 449.176C1005.47 456.601 998.646 461.439 1001.35 471.093Q1002.06 473.723 1003.2 476.197Q1004.34 478.672 1005.87 480.922L992.899 486.605L989.145 484.131C986.729 482.182 984.976 479.033 984.145 476.07C982.042 468.573 984.939 461.758 988.532 455.318Z"/>
	<path fill="#D3D3D9" transform="scale(0.5 0.5)" d="M983.261 527.646C986.425 532.214 989.115 535.855 993.033 539.824C987.547 552.063 981.565 567.452 973.113 577.819C969.751 576.478 966.692 575.168 963.7 573.113C962.639 567.576 980.192 534.183 983.261 527.646Z"/>
	<path fill="#F77387" transform="scale(0.5 0.5)" d="M691.535 492.53C702.197 490.451 713.278 488.307 724.153 488.085C730.361 490.109 736.732 492.904 739.82 499.172C740.721 501 740.54 501.491 740.185 503.409C736.803 507.685 727.46 508.517 722.258 509.129C714.854 510.001 708.256 509.42 700.932 507.977L693.841 503.62C691.337 501.229 686.985 498.017 686.319 494.604C687.868 492.695 689.23 492.913 691.535 492.53Z"/>
	<path fill="#6A7C97" transform="scale(0.5 0.5)" d="M540.639 655.827C541.382 657.756 542.306 659.744 542.676 661.782C545.205 675.117 544.33 686.242 536.507 697.825Q535.583 699.191 534.589 700.506C531.513 701.609 528.493 702.802 525.168 702.633C517.676 702.252 513.013 696.907 508.389 691.696C517.825 678.519 529.179 667.206 540.639 655.827Z"/>
	<path fill="#FDFDFC" transform="scale(0.5 0.5)" d="M453.045 821.071C463.071 826.537 471.328 832.091 474.828 843.645C476.252 848.343 477.303 854.811 474.811 859.302C473.287 862.047 471.431 864.719 468.357 865.775C459.464 860.607 462.259 834.377 447.633 838.554C443.281 839.797 436.331 844.801 434.399 848.857C432.98 851.836 433.553 854.764 434.176 857.831C435.945 864.79 443.248 874.766 440.903 881.456C438.566 883.169 437.027 884.423 433.971 884.372C427.292 882.282 423.631 872.967 420.58 867.119C417.822 861.833 415.298 855.872 417.272 849.858C422.322 834.47 447.775 829.717 453.045 821.071Z"/>
	<path fill="#AEB3BE" transform="scale(0.5 0.5)" d="M754.979 888.866L763.897 884.948C762.06 895.001 760.468 905.186 757.702 915.034C751.146 918.311 744.398 921.24 737.265 923.027C727.299 924.941 718.675 925.496 708.555 924.539C703.614 923.521 698.877 921.887 694.095 920.309C697.21 909.667 699.8 898.864 702.686 888.157L704.483 887.174C708.873 889.622 713.773 891.744 718.882 891.838C730.007 896.18 744.1 892.298 754.979 888.866Z"/>
	<path fill="#FDFDFC" transform="scale(0.5 0.5)" d="M389.582 849.74C386.874 859.18 389.458 869.495 391.556 878.824C391.843 880.099 392.932 883.084 392.805 884.271C392.749 884.791 391.36 886.563 391.013 887.114C388.641 888.39 388.381 888.324 385.692 887.95C380.344 884.127 380.084 878.502 379.06 872.429C377.052 860.535 377.809 850.508 384.951 840.407C393.173 828.778 409.107 815.517 423.353 813.114C433.741 811.361 444.609 815.086 453.045 821.071C447.623 819.05 443.966 820.728 438.899 823.046C428.908 827.615 414.952 838.141 411.041 848.673C406.531 860.819 420.28 879.555 418.222 884.74C415.486 886.013 413.214 886.949 410.175 885.788C405.437 883.977 402.722 878.381 400.977 873.986C398.656 868.142 393.968 853.748 396.652 848.06C398.13 844.927 401.164 841.456 401.212 838.045L400.012 835.885C396.919 836.455 394.771 838.771 393.007 841.355C391.2 844.002 390.261 846.616 389.582 849.74Z"/>
	<path fill="#AEB3BE" transform="scale(0.5 0.5)" d="M538.548 895.27C539.21 892.713 539.61 889.136 541.562 887.276C561.277 898.156 572.562 903.496 595.68 896.955C598.873 896.052 602.02 894.961 605.148 893.855C602.231 903.203 601.882 913.078 599.071 922.421L592.678 925.169C580.977 929.14 570.315 930.241 558.018 929.282C547.846 927.774 540.083 925.373 531.459 919.635C534.404 912.225 537.084 904.085 538.228 896.182L538.548 895.27Z"/>
	<path fill="#D3D3D9" transform="scale(0.5 0.5)" d="M730.684 930.307C735.759 929.432 751.813 923.529 754.644 924.617C755.44 927.822 753.974 930.94 753.084 934.097C740.801 939.234 724.889 947.311 719.304 960.341C718.386 962.483 717.955 964.224 718.493 966.558L720.669 969.118C735.969 974.042 782.104 965.915 799.565 970.826C757.433 972.131 714.882 971.053 672.708 971.054Q682.708 948.843 692.143 926.387L703.938 929.71C711.439 931.626 723.169 932.455 730.684 930.307Z"/>
	<path fill="#554A6D" transform="scale(0.5 0.5)" d="M764.719 450.456C765.861 462.857 766.3 474.469 762.119 486.412C757.979 493.048 753.693 497.838 747.539 502.571C743.593 492.176 739.536 488.698 729.797 484.06C714.42 481.275 698.213 484.044 683.667 489.51C683.298 489.328 682.705 489.075 682.359 488.791C679.384 486.341 677.48 480.361 676.691 476.665L678.007 474.74C707.168 469.592 735.977 457.875 764.719 450.456Z"/>
	<path fill="#AEB3BE" transform="scale(0.5 0.5)" d="M911.26 535.164Q926.514 525.734 940.862 514.977C945.826 511.265 950.536 506.604 955.933 503.574L957.236 504.208C959.729 510.053 962.52 515.479 965.734 520.959C967.557 523.446 969.828 525.582 971.981 527.782C967.123 536.736 962.617 545.912 957.969 554.979Q945.307 564.257 931.679 572.047C923.601 560.647 917.505 547.629 911.26 535.164Z"/>
	<path fill="#AEB3BE" transform="scale(0.5 0.5)" d="M426.693 747.818C438.732 748.009 452.498 750.521 461.325 759.341C461.425 759.441 461.518 759.546 461.614 759.648C454.166 771.604 451.992 798.47 452.166 812.687C438.662 807.404 427.945 805.782 413.622 808.969C414.395 794.278 416.771 759.263 426.693 747.818Z"/>
	<path fill="#AEB3BE" transform="scale(0.5 0.5)" d="M770.343 836.347C768.851 849.655 767.377 862.891 764.936 876.066C760.968 878.814 757.181 881.13 752.777 883.157C743.948 886.197 735.475 887.711 726.089 887.298C718.886 886.586 712.45 884.292 705.795 881.622C703.498 876.758 709.217 853.092 710.003 845.607C733.764 849.247 748.984 847.586 770.343 836.347Z"/>
	<path fill="#AEB3BE" transform="scale(0.5 0.5)" d="M427.368 742.338C429.863 725.674 449.627 693.009 459.64 680.071C472.106 684.698 480.978 689.838 489.709 699.986C481.489 713.174 465.128 738.156 463.493 752.806C460.522 751.884 457.545 749.666 454.746 748.247C445.952 743.785 437.182 742.152 427.368 742.338Z"/>
	<path fill="#FDFDFC" transform="scale(0.5 0.5)" d="M720.669 969.118C731.516 953.324 741.702 942.074 761.511 938.466C775.764 935.87 791.319 938.312 803.33 946.655C811.845 952.571 818.743 961.152 822.087 971.023C814.609 970.971 807.029 971.184 799.565 970.826C782.104 965.915 735.969 974.042 720.669 969.118Z"/>
	<path fill="#AEB3BE" transform="scale(0.5 0.5)" d="M905.05 538.858C910.343 544.239 914.521 556.708 918.314 563.535C920.654 567.749 923.522 571.616 926.425 575.455Q901.328 589.076 875.344 600.919L872.881 601.279C868.593 596.85 859.092 570.384 855.711 562.714Q880.976 552.018 905.05 538.858Z"/>
	<path fill="#AEB3BE" transform="scale(0.5 0.5)" d="M546.437 847.35C546.77 845.039 546.53 842.254 548.377 840.774C554.076 843.284 558.673 847.398 564.206 850.109C578.748 857.235 595.786 854.416 610.861 850.896C609.16 861.615 606.54 873.623 606.499 884.459C605.939 885.217 605.496 885.774 604.769 886.38C597.124 892.754 583.959 893.938 574.3 893.192C563.718 892.373 551.429 889.017 544.493 880.496C541.839 877.236 542.914 874.56 543.396 870.726C546.213 865.119 546.056 853.743 546.437 847.35Z"/>
	<path fill="#AEB3BE" transform="scale(0.5 0.5)" d="M516.861 624.581C525.676 629.924 531.193 636.622 536.264 645.385L538.596 650.391C521.557 662.719 507.596 679.628 493.74 695.289C484.756 685.666 474.68 678.953 462.033 675.154C480.688 651.198 492.715 642.011 516.861 624.581Z"/>
	<path fill="#AEB3BE" transform="scale(0.5 0.5)" d="M848.06 565.023L849.065 565.369C855.969 575.096 861.105 592.985 865.408 604.417C845.57 612.518 825.048 618.044 804.223 622.909C798.596 609.99 792.157 597.904 784.854 585.881L782.247 582.215C782.2 580.522 782.067 579.91 782.872 578.382C789.141 578.043 797.474 609.194 804.57 614.5L806.499 614.006L807.39 611.549C806.287 600.549 797.608 588.11 792.421 578.426C811.581 576.901 830.019 571.362 848.06 565.023Z"/>
	<path fill="#FDFDFC" transform="scale(0.5 0.5)" d="M606.507 112.692C608.939 113.693 611.437 114.957 613.64 116.39C623.228 122.624 629.35 133.661 631.467 144.694Q631.701 145.975 631.87 147.266Q632.04 148.557 632.146 149.854Q632.251 151.152 632.292 152.453Q632.333 153.755 632.309 155.056Q632.285 156.358 632.197 157.657Q632.108 158.956 631.955 160.249Q631.803 161.542 631.586 162.826Q631.369 164.109 631.088 165.381Q630.808 166.652 630.465 167.908Q630.122 169.164 629.717 170.401Q629.311 171.639 628.845 172.854Q628.379 174.07 627.853 175.261Q627.327 176.452 626.743 177.615Q626.159 178.779 625.517 179.912Q624.876 181.045 624.179 182.145Q623.482 183.244 622.731 184.308C615.465 194.804 604.252 202.628 591.622 204.867L589.604 205.439C583.45 201.941 573.733 181.462 569.277 174.654C576.303 171.189 583.274 166.047 588.768 160.453C601.817 147.163 606.641 130.975 606.507 112.692Z"/>
	<path fill="#FDFDFC" transform="scale(0.5 0.5)" d="M1012.71 455.927C1021.2 453.931 1028.94 452.996 1036.8 457.844C1043.82 462.182 1049.49 470.463 1051.34 478.48C1052.91 485.263 1051.64 502.489 1047.81 508.599C1046 511.493 1042.44 513.209 1040.8 516.174C1035.49 525.83 1041.25 530.334 1024.79 532.968C1014.75 534.576 1003.4 534.01 993.276 533.117C992.232 531.192 990.792 528.897 990.361 526.744C989.81 523.996 990.344 520.639 992.129 518.407C996.608 512.805 1008.97 513.224 1015.52 512.765C1021.11 513.31 1026.38 514.289 1031.56 511.522C1032.49 511.027 1032.32 510.683 1032.61 509.724C1032.22 509.263 1031.97 508.898 1031.51 508.54C1026 504.315 1014.3 506.119 1007.87 506.511C1004.64 506.961 1001.32 507.435 998.064 506.995C995.088 506.592 993.251 505.255 991.456 502.91C991.108 501.527 990.843 500.196 991.192 498.778C992.565 493.201 997.314 491.127 1001.91 488.62C1011.72 484.258 1018.96 483.476 1029.53 484.191C1033.01 486.368 1035.56 489.804 1039.47 490.755C1041.38 489.228 1041.35 489.284 1041.65 486.858C1035.65 473.55 1017.86 480.697 1008.49 472.653C1007.43 471.745 1006.24 469.894 1006.2 468.462C1006.04 463.511 1009.56 459.392 1012.71 455.927Z"/>
	<path fill="#FDFDFC" transform="scale(0.5 0.5)" d="M234.562 283.483C248.449 305.683 265.012 318.6 290.908 324.624Q297.742 326.151 304.693 326.992C314.553 327.173 323.49 327.449 333.068 324.685C347.412 322.493 364.077 315.107 374.294 304.596C378.084 311.688 382.121 318.75 385.363 326.11C365.411 344.253 339.751 353.25 312.829 352.026C290.037 350.989 265.702 342.977 250.046 325.694C239.063 313.569 234.908 299.633 234.562 283.483Z"/>
	<path fill="#FDFDFC" transform="scale(0.5 0.5)" d="M534.363 183.923C542.695 182.904 550.804 181.702 558.79 179.013Q580.856 215.471 603.823 251.368C613.532 266.492 625.217 281.918 632.85 298.115Q617.391 303.853 601.709 308.952Q594.877 297.003 588.192 284.973C584.833 277.496 580.189 270.196 576.261 262.978C562.183 237.108 545.95 210.968 534.363 183.923Z"/>
	<path fill="#FDFDFC" transform="scale(0.5 0.5)" d="M529.147 925.493C537.302 929.816 544.993 932.43 554.002 934.43C569.122 936.306 583.904 935.217 598.14 929.541C596.368 943.464 593.895 957.261 591.48 971.084L443.572 971.058C452.073 955.756 466.236 947.108 482.772 942.374C497.329 938.207 516.435 937.451 529.935 945.05C539.164 950.245 546.494 963.778 551.282 966.109C552.369 964.48 552.021 963.582 551.627 961.736C549.745 952.903 542.185 945.932 534.862 941.302C532.02 939.505 528.935 937.899 525.601 937.288C525.477 937.033 525.31 936.794 525.229 936.522C524.4 933.736 527.873 928.129 529.147 925.493Z"/>
	<path fill="#CCE8E2" transform="scale(0.5 0.5)" d="M559.218 581.037C558.085 579.705 556.637 578.651 556.724 576.864C562.69 572.579 602.812 569.476 612.974 567.839C645.807 562.549 677.989 555.985 709.948 546.795L717.071 553.181C722.736 559.538 728.053 565.935 733.046 572.834C681.012 579.146 632.546 590.923 584.077 611C576.512 600.222 569.162 589.821 559.218 581.037Z"/>
	<path fill="#FDFDFC" transform="scale(0.5 0.5)" d="M408.985 252.757L413.906 260.921C423.304 279.676 433.685 298.326 444.273 316.437C449.157 325.386 465.12 357.811 470.728 362.969C471.612 364.898 472.217 366.598 472.574 368.693C467.526 374.217 443.955 386.433 435.562 391.955Q412.842 351.858 390.595 311.498C383.477 298.613 374.646 285.219 369.296 271.529C371.17 269.526 373.615 269.227 376.2 268.41C388.055 265.749 399.027 259.493 408.985 252.757Z"/>
	<path fill="#FDFDFC" transform="scale(0.5 0.5)" d="M722.925 550.939L720.655 547.802L720.958 546.049C729.432 545.633 744.502 558.18 750.668 563.749C790.561 599.777 806.366 656.92 808.852 708.927C809.859 729.991 810.682 761.896 805.353 782.066C764.681 822.02 705.001 837.639 649.164 837.057C636.86 836.929 597.918 834.757 588.878 829.285C588.95 827.248 589.491 826.047 590.421 824.251L597.06 809.76C603.598 811.195 610.441 811.675 617.093 812.409C617.956 812.652 617.711 812.617 618.472 812.726C678.88 821.41 744.838 809.065 794.534 772.711C799.736 732.083 798.073 686.564 787.107 646.979C781.273 625.918 768.263 592.236 752.089 576.948C748.533 573.587 742.483 573.671 739.139 570.161C733.757 564.51 729.833 554.846 722.925 550.939Z"/>
	<path fill="#FDFDFC" transform="scale(0.5 0.5)" d="M371.658 300.64C352.084 315.454 329.074 323.095 304.46 320.702C283.53 318.667 261.764 309.49 248.345 292.817C239.976 282.418 235.686 269.386 237.182 256.032C239.076 239.125 249.14 226.274 261.905 215.968C264.076 221.094 266.006 226.681 269.158 231.287C276.841 247.822 294.016 259.864 310.744 266.039C322.053 270.214 341.021 274.763 352.782 270.767C357.42 272.781 368.369 294.783 371.658 300.64Z"/>
	<path fill="#FDFDFC" transform="scale(0.5 0.5)" d="M783.03 327.254Q784.222 327.161 785.418 327.119Q786.613 327.077 787.809 327.087Q789.005 327.096 790.199 327.158Q791.394 327.219 792.584 327.332Q793.775 327.445 794.96 327.61Q796.144 327.774 797.321 327.989Q798.497 328.205 799.663 328.471Q800.829 328.737 801.983 329.053Q803.136 329.369 804.275 329.735Q805.414 330.101 806.536 330.515Q807.657 330.93 808.76 331.392Q809.863 331.855 810.945 332.365Q812.027 332.875 813.086 333.431Q814.145 333.987 815.178 334.588Q816.212 335.19 817.219 335.835Q818.226 336.481 819.204 337.169Q820.192 337.871 821.144 338.62Q822.096 339.37 823.011 340.165Q823.925 340.96 824.799 341.8Q825.674 342.639 826.506 343.52Q827.338 344.401 828.125 345.322Q828.913 346.243 829.655 347.201Q830.396 348.159 831.09 349.153Q831.784 350.147 832.428 351.173Q833.072 352.199 833.665 353.256Q834.258 354.313 834.799 355.398Q835.339 356.482 835.826 357.592Q836.313 358.702 836.744 359.834Q837.176 360.967 837.551 362.119Q837.927 363.271 838.245 364.44Q838.564 365.609 838.825 366.793Q839.086 367.976 839.288 369.171C841.361 381.474 837.898 394.56 830.602 404.608C821.307 417.408 808.237 422.422 793.226 424.775C780.324 425.239 768.495 423.7 757.504 416.174Q756.533 415.521 755.595 414.82Q754.657 414.12 753.755 413.374Q752.853 412.629 751.989 411.84Q751.125 411.05 750.3 410.219Q749.476 409.389 748.693 408.518Q747.911 407.648 747.172 406.74Q746.434 405.832 745.741 404.889Q745.048 403.945 744.402 402.969Q743.757 401.993 743.16 400.986Q742.563 399.979 742.017 398.944Q741.47 397.909 740.976 396.848Q740.481 395.788 740.039 394.704Q739.597 393.62 739.209 392.516Q738.821 391.412 738.488 390.29Q738.155 389.168 737.878 388.03Q737.6 386.893 737.379 385.744Q737.167 384.571 737.013 383.389Q736.859 382.207 736.762 381.018Q736.666 379.83 736.628 378.639Q736.589 377.447 736.61 376.255Q736.63 375.063 736.708 373.874Q736.786 372.684 736.923 371.5Q737.059 370.315 737.253 369.139Q737.447 367.963 737.699 366.797Q737.95 365.632 738.258 364.48Q738.566 363.329 738.93 362.194Q739.294 361.058 739.713 359.942Q740.132 358.826 740.605 357.732Q741.078 356.638 741.604 355.568Q742.13 354.498 742.708 353.455Q743.286 352.412 743.913 351.399Q744.541 350.385 745.218 349.404C754.429 336.073 767.579 329.972 783.03 327.254Z"/>
	<path fill="#2A1743" transform="scale(0.5 0.5)" d="M758.73 351.164C765.543 343.218 774.978 338.282 785.434 337.47C796.057 336.645 807.595 340.545 815.679 347.476Q817.624 349.111 819.341 350.984Q821.058 352.858 822.517 354.938C826.317 360.847 828.914 366.596 829.82 373.628C830.97 382.542 828.212 391.469 822.672 398.486C815.643 407.39 804.956 412.795 793.773 414.126C782.822 415.429 771.362 412.724 762.759 405.656C754.928 399.221 749.808 389.255 748.964 379.161C748.079 368.559 752.087 359.209 758.73 351.164Z"/>
	<path fill="#FDFDFC" transform="scale(0.5 0.5)" d="M786.063 394.598C788.803 394.936 790.73 395.102 792.905 397.009C793.484 399.657 792.953 400.6 792.068 403.083C789.367 402.894 787.74 402.725 785.506 400.981C784.717 398.211 785.229 397.266 786.063 394.598Z"/>
	<path fill="#554A6D" transform="scale(0.5 0.5)" d="M757.332 363.031L759.184 361.103C760.882 369.367 763.155 380.066 770.682 384.958C773.55 386.822 781.52 390.194 782.356 393.152C780.749 395.583 780.03 396.451 779.865 399.446C780.764 401.597 784.479 405.912 783.821 407.568Q781.025 407.167 778.261 406.584Q777.547 406.422 776.842 406.225Q776.137 406.028 775.442 405.796Q774.748 405.564 774.065 405.298Q773.383 405.032 772.715 404.733Q772.047 404.433 771.395 404.101Q770.742 403.769 770.107 403.405Q769.472 403.041 768.856 402.645Q768.239 402.25 767.643 401.825Q767.047 401.399 766.473 400.945Q765.899 400.491 765.348 400.008Q764.797 399.526 764.271 399.017Q763.745 398.508 763.244 397.974Q762.744 397.439 762.271 396.881Q761.797 396.322 761.352 395.741Q760.907 395.159 760.492 394.556Q760.076 393.954 759.691 393.331C753.636 383.413 754.645 373.708 757.332 363.031Z"/>
	<path fill="#554A6D" transform="scale(0.5 0.5)" d="M793.09 407.604Q793.823 406.656 794.529 405.688C797.774 401.192 797.017 398.737 796.188 393.44C799.083 388.947 805.388 386.4 809.649 383.245C819.782 375.741 816.271 369.206 817.724 358.762L820.408 359.049C823.465 370.723 825.807 382.161 819.213 393.238C815.077 400.187 807.982 404.396 800.259 406.301Q796.72 407.201 793.09 407.604Z"/>
	<path fill="#FDFDFC" transform="scale(0.5 0.5)" d="M783.259 343.21C787.657 342.713 791.775 342.594 796.031 344.023C801.834 345.97 807.001 349.927 809.733 355.483C812.132 360.363 812.361 365.804 810.454 370.879C807.786 377.982 802.726 381.201 796.122 384.308C791.044 385.137 786.45 385.17 781.541 383.43C776.032 381.477 771.344 377.707 768.829 372.362Q768.616 371.918 768.426 371.465Q768.235 371.011 768.068 370.548Q767.902 370.085 767.759 369.614Q767.616 369.143 767.497 368.665Q767.378 368.188 767.284 367.705Q767.19 367.222 767.12 366.734Q767.051 366.247 767.007 365.757Q766.962 365.267 766.943 364.775Q766.924 364.283 766.93 363.791Q766.935 363.299 766.966 362.808Q766.997 362.317 767.054 361.828Q767.11 361.339 767.191 360.854Q767.271 360.368 767.377 359.888Q767.483 359.407 767.613 358.932Q767.743 358.458 767.897 357.99Q768.051 357.523 768.229 357.064C770.93 350.072 776.651 346.134 783.259 343.21Z"/>
	<path fill="#FDFDFC" transform="scale(0.5 0.5)" d="M469.128 72.9937C490.315 59.7734 519.289 57.7229 543.206 63.3266C562.287 67.7973 582.596 78.4025 593.144 95.5361C599.996 106.668 601.46 119.364 598.292 131.95C594.524 146.921 584.613 159.324 571.386 167.092C557.043 175.516 540.473 178.734 523.997 178.796C520.683 178.39 518.48 179.286 515.438 177.588C523.47 162.005 528.158 147.355 525.495 129.671C522.349 108.79 509.97 95.046 493.521 82.9569C485.792 78.7464 477.816 74.7704 469.128 72.9937Z"/>
	<path fill="#CCE8E2" transform="scale(0.5 0.5)" d="M695.575 844.421C696.705 844.345 696.837 844.839 697.664 845.549C698.277 853.066 696.187 861.355 694.804 868.749C688.107 904.545 676.548 938.77 659.062 970.749L605.856 970.992L604.37 970.528C602.605 963.975 608.294 944.567 609.613 936.755C614.651 906.908 618.158 876.728 623.374 846.961C647.677 848.54 671.5 848.295 695.575 844.421Z"/>
	<path fill="#FDFDFC" transform="scale(0.5 0.5)" d="M485.332 561.838C480.378 565.021 476.862 567.226 470.735 566.365C457.73 564.538 447.707 553.546 440.2 543.552C419.015 515.351 407.244 472.043 412.309 437.026C413.608 428.049 416.488 417.397 424.212 411.827C429.016 408.363 433.282 408.826 438.875 409.731C464.439 422.279 478.485 447.82 487.421 473.909C490.441 482.725 492.659 491.631 494.413 500.775C496.545 519.665 498.08 545.397 485.632 561.464C485.534 561.591 485.432 561.713 485.332 561.838Z"/>
	<path fill="#2A1743" transform="scale(0.5 0.5)" d="M439.475 527.063C425.917 501.503 416.559 471.22 420.041 442.042C420.763 435.994 421.858 428.653 427.079 424.747C429.926 422.617 433.65 421.972 437.12 422.56C445.96 424.057 453.106 434.36 458.044 441.175C471.101 461.681 480.054 484.848 482.471 509.186C483.449 515.91 484.656 523.985 483.393 530.695C483.381 531.28 483.363 531.873 483.299 532.455C482.651 538.346 480.79 548.266 475.798 551.939C473.546 553.596 470.797 553.926 468.108 553.47C455.382 551.309 446.285 536.81 439.475 527.063Z"/>
	<path fill="#F77387" transform="scale(0.5 0.5)" d="M444.632 522.981C433.248 499.953 423.512 473.03 425.59 446.866C426.089 440.578 427.192 434.062 432.211 429.797C433.322 429.493 434.76 428.843 435.887 429.066C444.019 430.679 449.729 440.854 454.167 447.177C467.017 468.912 472.896 491.654 476.838 516.378L477.416 521.709C477.33 528.623 476.843 539.451 473.067 545.408C471.744 547.497 470.827 547.835 468.566 548.285C459.86 546.524 449.609 529.998 444.632 522.981Z"/>
	<path fill="#CCE8E2" transform="scale(0.5 0.5)" d="M516.541 611.791C526.387 600.068 538.017 589.702 548.187 578.216L561.849 591.184C569.821 600.331 576.578 609.508 582.395 620.163C599.771 662.003 608.862 707.435 602.967 752.817C602.348 769.033 598.332 785.247 593.512 800.683C591.993 805.547 589.147 810.866 588.423 815.85C585.829 819.523 583.845 823.969 581.696 827.935C560.084 821.147 539.93 814.054 520.813 801.541C522.024 781.363 520.127 762.09 516.234 742.29C514.649 734.233 510.081 724.26 510.536 716.34L512.55 716.093C515.684 718.253 518.697 719.936 522.472 720.697C530.131 722.239 537.434 721.19 543.971 716.804C553.788 710.218 559.512 698.685 561.785 687.349C565.769 667.484 560.423 646.684 549.291 630.038C547.524 626.996 544.992 624.245 542.539 621.726C535.198 614.188 526.672 611.882 516.541 611.791Z"/>
	<path fill="#FDFDFC" transform="scale(0.5 0.5)" d="M587.665 620.156L587.182 617.05C590.787 612.563 601.003 609.881 606.499 607.857Q621.618 602.305 637.047 597.685Q652.476 593.065 668.159 589.395Q683.841 585.726 699.718 583.02Q715.595 580.313 731.608 578.581C735.974 578.119 740.347 577.994 744.732 577.906C757.213 590.888 780.816 631.086 780.615 648.63C780.609 649.207 780.579 649.411 780.527 649.938C779.698 650.583 779.251 651.045 778.206 651.272C747.268 658.527 716.096 663.428 684.95 669.537C674.544 671.579 660.912 672.713 651.315 676.802L650.522 676.85C643.448 677.34 610.893 686.768 607.712 684.609C607.168 682.74 606.614 680.884 606.216 678.976C606.293 666.17 594.99 630.906 587.665 620.156Z"/>
	<path fill="#F77387" transform="scale(0.5 0.5)" d="M695.673 593.02C700.889 592.27 706.085 593.373 710.889 595.424C718.094 598.502 723.297 604.188 726.029 611.51Q726.275 612.168 726.488 612.837Q726.701 613.507 726.881 614.186Q727.06 614.865 727.206 615.552Q727.352 616.24 727.464 616.933Q727.576 617.627 727.653 618.325Q727.73 619.023 727.773 619.725Q727.815 620.426 727.823 621.128Q727.831 621.831 727.804 622.533Q727.777 623.235 727.715 623.935Q727.654 624.634 727.557 625.33Q727.461 626.026 727.331 626.717Q727.2 627.407 727.036 628.09Q726.871 628.773 726.673 629.447Q726.475 630.121 726.244 630.784Q726.012 631.448 725.748 632.099Q725.485 632.75 725.189 633.387C720.549 643.533 712.924 647.951 702.95 651.537C694.992 651.617 688.68 651.273 681.73 646.774Q681.111 646.381 680.513 645.958Q679.915 645.535 679.338 645.083Q678.761 644.631 678.208 644.151Q677.654 643.671 677.125 643.165Q676.595 642.658 676.092 642.126Q675.588 641.593 675.112 641.037Q674.635 640.48 674.186 639.901Q673.738 639.322 673.318 638.721Q672.899 638.12 672.51 637.499Q672.12 636.878 671.762 636.239Q671.404 635.6 671.078 634.944Q670.752 634.288 670.459 633.616Q670.166 632.945 669.906 632.259Q669.646 631.574 669.421 630.877Q669.195 630.18 669.004 629.472Q668.814 628.765 668.658 628.049Q668.521 627.366 668.417 626.678Q668.314 625.99 668.244 625.297Q668.175 624.604 668.14 623.909Q668.105 623.213 668.105 622.517Q668.105 621.821 668.139 621.125Q668.173 620.43 668.241 619.737Q668.31 619.044 668.413 618.356Q668.515 617.667 668.652 616.984Q668.789 616.302 668.959 615.627Q669.13 614.952 669.333 614.286Q669.537 613.62 669.774 612.965Q670.01 612.31 670.279 611.668Q670.547 611.026 670.847 610.397Q671.147 609.769 671.478 609.156Q671.809 608.544 672.169 607.948Q672.53 607.353 672.92 606.776C678.312 598.735 686.395 594.727 695.673 593.02Z"/>
	<path fill="#FDFDFC" transform="scale(0.5 0.5)" d="M511.094 183.94C515.984 184.134 520.899 184.006 525.792 183.977C531.954 189.066 575.11 275.575 585.502 291.422Q590.949 301.219 596.743 310.816C577.378 318.679 557.506 326.093 538.92 335.682C531.266 321.658 479.278 222.2 474.776 219.336L473.073 220.181C471.608 225.088 477.015 233.753 479.379 238.129Q498.08 272.112 516.272 306.37C521.829 316.694 528.493 327.173 533.197 337.856C524.555 341.787 484.426 364.919 478.556 364.595L476.469 362.736Q462.868 337.075 448.308 311.946C438.184 293.613 428.676 274.472 417.64 256.69L413.327 249.337C423.373 240.078 430.622 229.523 434.893 216.487C444.262 216.159 453.234 214.308 462.3 212.044C481.533 207.23 496.575 197.055 511.094 183.94Z"/>
	<path fill="#FDFDFC" transform="scale(0.5 0.5)" d="M782.5 655.393C791.231 690.095 795.956 734.106 788.642 769.286C750.149 797.713 700.646 809.981 653.185 809.751C641.476 809.694 629.924 808.262 618.269 807.401L598.228 804.144C605.001 787.912 608.402 767.361 609.02 749.833C611.654 733.792 611.158 707.343 608.08 691.249Q627.755 687.332 647.223 682.49C654.026 682.549 778.806 657.15 782.5 655.393Z"/>
	<path fill="#2A1743" transform="scale(0.5 0.5)" d="M680.957 749.917C678.253 740.974 678.243 731.804 682.791 723.401C687.389 714.908 695.804 708.933 705.027 706.397Q705.887 706.158 706.759 705.963Q707.63 705.768 708.51 705.617Q709.39 705.466 710.277 705.36Q711.163 705.253 712.054 705.192Q712.945 705.13 713.837 705.113Q714.73 705.096 715.623 705.125Q716.515 705.153 717.405 705.226Q718.295 705.299 719.18 705.417Q720.065 705.535 720.943 705.697Q721.821 705.86 722.69 706.066Q723.559 706.272 724.416 706.522Q725.273 706.772 726.117 707.065Q726.96 707.358 727.788 707.693Q728.616 708.027 729.426 708.403Q730.235 708.78 731.025 709.196Q731.815 709.612 732.583 710.068C740.133 714.531 745.84 721.729 747.84 730.332C749.722 738.426 748.682 745.529 745.747 753.162C740.949 760.311 735.905 765.799 727.836 769.359Q727.021 769.725 726.189 770.049Q725.357 770.373 724.51 770.654Q723.663 770.936 722.802 771.174Q721.942 771.413 721.07 771.607Q720.199 771.802 719.319 771.952Q718.439 772.102 717.552 772.208Q716.665 772.313 715.775 772.373Q714.884 772.434 713.991 772.449Q713.098 772.465 712.206 772.435Q711.314 772.405 710.424 772.33Q709.534 772.255 708.649 772.136Q707.765 772.016 706.887 771.852Q706.009 771.687 705.141 771.479Q704.273 771.27 703.416 771.018Q702.56 770.766 701.717 770.471Q700.875 770.175 700.048 769.838C690.849 766.035 684.77 758.935 680.957 749.917Z"/>
	<path fill="#F77387" transform="scale(0.5 0.5)" d="M686.427 746.445C685.091 737.772 685.599 729.855 691.01 722.484C695.598 716.234 702.905 712.294 710.526 711.223Q711.224 711.121 711.926 711.054Q712.628 710.986 713.333 710.954Q714.038 710.922 714.743 710.924Q715.448 710.927 716.153 710.964Q716.857 711.001 717.559 711.074Q718.261 711.146 718.958 711.253Q719.655 711.36 720.346 711.502Q721.037 711.643 721.721 711.818Q722.404 711.994 723.078 712.203Q723.751 712.412 724.414 712.654Q725.076 712.896 725.726 713.171Q726.376 713.446 727.011 713.753Q727.646 714.059 728.266 714.397Q728.885 714.735 729.487 715.103Q730.089 715.471 730.672 715.868Q731.255 716.265 731.817 716.691C737.54 721.061 741.402 727.383 742.244 734.572C742.905 740.21 741.964 747.012 739.378 752.096C735.134 757.76 730.606 761.973 723.932 764.619C716.651 767.506 708.688 767.536 701.488 764.332C694.096 761.042 689.273 753.728 686.427 746.445Z"/>
	<path fill="#AEB3BE" transform="scale(0.5 0.5)" d="M1089.62 136.475C1090.22 136.373 1090.81 136.285 1091.42 136.246C1092.78 136.158 1094.09 136.3 1095.37 136.769C1106.89 140.976 1231.4 195.277 1234.86 198.307C1234.88 198.615 1234.92 198.923 1234.92 199.232C1234.92 200.045 1181.41 299.699 1176.95 306.64C1174.78 310.022 1171.99 312.685 1168.9 315.223C1154.85 326.749 1134.36 330.267 1116.71 327.762C1112.3 327.136 1107.08 324.687 1102.79 324.708C1092.18 324.76 1079.7 372.569 1069.7 381.569C1069.86 382.181 1069.9 382.191 1069.87 382.933C1069.76 386.239 1040.65 446.931 1038.03 449.264C1033.37 447.712 1028.84 446.931 1024 446.239C1029.46 439.335 1081.63 323.811 1081.8 317.619C1080.76 313.594 1070.77 307.295 1067.46 304.153C1035.32 273.68 1046.46 245.858 1060.77 210.476Q1070.9 185.031 1081.29 159.69C1083.82 153.513 1089.77 142.861 1089.62 136.475Z"/>
	<path fill="#2A1743" transform="scale(0.5 0.5)" d="M1094.69 175.909L1095.03 175.441C1098.21 171.067 1099.75 165.076 1105.87 164.247C1108.41 163.902 1111.63 164.638 1113.64 166.199C1114.93 167.192 1115.66 169.728 1115.78 171.335C1116.35 179.248 1099.97 217.447 1094.1 223.7C1093.95 223.861 1093.79 224.012 1093.63 224.167C1094.59 229.179 1084.35 248.164 1081.32 252.813C1080.65 253.837 1079.76 254.643 1078.8 255.39C1079.28 258.1 1078.02 259.865 1076.63 262.028C1075.12 263.093 1073.76 263.937 1071.85 264.017C1068.89 264.14 1065.58 262.601 1063.57 260.468C1060.59 257.3 1060.84 254.067 1060.95 250.009C1061.28 249.695 1061.6 249.372 1061.91 249.032C1065.93 244.553 1086.21 198.638 1085.94 193.93C1089.66 190.344 1094.11 181.039 1094.69 175.909Z"/>
	<path fill="#D3D3D9" transform="scale(0.5 0.5)" d="M1099.53 178.969C1102.2 175.859 1103.68 173.218 1107.62 171.73L1109.05 172.607C1109.66 178.243 1093.55 214.798 1089.55 219.89C1089.26 220.257 1088.8 220.662 1088.48 220.97C1088.38 226.861 1078.52 247.857 1074.6 251.842C1074.03 254.538 1074.07 255.278 1071.92 257.165C1068.94 256.837 1067.83 256.13 1065.7 254.018C1066.11 253.627 1066.24 253.526 1066.59 253.125C1069.91 249.244 1091.43 202.609 1092.22 197.64C1092.33 196.934 1092.02 195.681 1091.94 194.931C1093.02 194.386 1093.59 193.965 1094.29 192.96C1096.35 190.034 1100.31 182.505 1099.53 178.969Z"/>
	<path fill="#2A1743" transform="scale(0.5 0.5)" d="M1157.57 300.996L1156.96 301.595C1155.7 302.019 1154.92 302.186 1153.58 302.004C1150.95 301.646 1148.68 300.356 1147.18 298.119C1145.69 295.887 1144.97 293.251 1145.57 290.602C1147.66 281.438 1178.7 216.546 1184.88 206.223C1185.83 204.641 1186.92 203.5 1188.46 202.488C1191 202.036 1191.47 201.931 1193.84 202.88C1196.78 203.417 1199.03 203.986 1200.95 206.51C1202.17 208.108 1202.51 210.036 1202.18 211.989C1200.42 222.084 1167.05 291.334 1160.85 299.717L1157.57 300.996Z"/>
	<path fill="#D3D3D9" transform="scale(0.5 0.5)" d="M1189.91 208.037C1192.9 208.428 1194.11 208.039 1196.1 210.397C1194.56 216.09 1159.97 291.551 1157.38 294.356C1156.8 294.982 1155.68 295.573 1154.96 296.085C1153.58 295.896 1152.81 295.001 1151.82 294.102C1150.76 284.729 1188.23 222.019 1189.91 208.037Z"/>
	<path fill="#2A1743" transform="scale(0.5 0.5)" d="M1142.77 186.965C1146.28 183.998 1148.77 182.745 1153.48 183.221C1155.26 183.401 1157.56 184.153 1158.68 185.6C1160.27 187.648 1161.06 189.734 1160.75 192.342C1159.94 199.281 1127.55 267.604 1121.86 277.566C1120.79 279.435 1119.48 281.042 1117.73 282.307C1115.88 283.634 1113.79 284.601 1111.46 284.23C1108.79 283.805 1105.28 281.381 1103.97 279.068C1102.76 276.945 1102.87 274.628 1103.65 272.379C1104.52 269.883 1106.25 267.433 1105.85 264.74C1110.66 260.172 1139.71 196.802 1142.77 186.965Z"/>
	<path fill="#D3D3D9" transform="scale(0.5 0.5)" d="M1143.64 197.082C1146.26 193.949 1147.54 191.463 1151.42 189.912L1153.07 190.835C1153.6 193.825 1152.58 196.672 1151.57 199.455C1147.11 211.695 1121.38 268.073 1115.11 277.048C1114.41 278.038 1113.11 277.984 1111.96 278.231C1110.26 276.991 1110.1 276.959 1109.8 274.761C1109.66 273.661 1109.84 272.822 1110.03 271.754C1110.19 270.902 1110.13 271.233 1109.95 270.157C1111.16 269.474 1111.82 268.853 1112.55 267.659C1116.86 260.663 1144.73 201.583 1143.64 197.082Z"/>
	<path fill="#FDFDFC" transform="scale(0.5 0.5)" d="M352.213 118.976Q353.005 117.339 353.917 115.767C365.288 96.1075 385.762 84.9968 407.063 79.2081C436.464 71.2186 465.362 73.7047 491.822 88.8611C506.157 99.0398 516.531 112.692 519.463 130.366Q519.708 131.849 519.879 133.343Q520.049 134.836 520.145 136.337Q520.241 137.837 520.263 139.34Q520.284 140.843 520.231 142.345Q520.177 143.848 520.049 145.346Q519.921 146.843 519.718 148.333Q519.515 149.822 519.239 151.3Q518.962 152.778 518.612 154.24Q518.263 155.702 517.841 157.145Q517.418 158.587 516.925 160.007Q516.432 161.427 515.868 162.821Q515.305 164.215 514.673 165.579Q514.04 166.943 513.341 168.273Q512.642 169.604 511.877 170.899Q511.113 172.193 510.285 173.448Q509.457 174.702 508.567 175.914C496.016 193.372 477.793 201.287 457.79 207.448C448.688 209.315 439.287 211.273 429.94 210.923C424.175 230.414 412.354 244.989 394.446 254.717C386.168 259.214 377.188 262.338 368.042 264.539C359.196 265.835 350.644 266.225 341.735 266.56C321.532 264.465 300.72 258.663 286.021 243.742C282.14 239.802 279.438 235.049 275.782 230.972L275.504 230.667C273.433 225.955 271.347 221.094 270.09 216.088C266.132 200.316 268.055 183.417 276.547 169.408C291.956 143.987 323.387 129.819 352.076 126.823C361.16 125.875 371.28 127.196 380.092 125.088L380.162 123.667C374.057 119.404 359.719 119.707 352.213 118.976Z"/>
	<path fill="#CCE8E2" transform="scale(0.5 0.5)" d="M476.658 747.959C486.41 747.907 496.193 748.025 505.94 747.749Q508.989 762.779 509.934 778.086C510.337 785.855 508.24 797.554 510.643 804.817C511.727 808.093 514.236 810.938 517.061 812.857C522.227 816.368 535.082 819.951 536.494 826.557C540.21 843.947 523.26 910.054 516.349 929.011C489.92 928.564 464.556 931.29 444.555 950.682C438.674 956.384 434.226 963.11 431.588 970.893L338.971 970.869C323.112 970.867 306.941 970.213 291.129 970.997C289.908 970.632 289.367 970.118 288.412 969.329C286.403 960.725 287.98 923.087 287.958 912.016L287.794 748.05L412.414 748.292C405.032 764.792 403.254 791.789 401.695 810.088C401.296 810.351 400.9 810.618 400.512 810.897C386.241 821.14 370.11 833.932 367.171 852.359C365.585 862.301 367.559 887.488 374.3 895.34C382.813 905.257 392.788 895.182 399.691 894.703C403.345 894.45 407.143 898.417 411.199 898.491C417.167 898.598 420.789 893.97 426.064 893.361C428.741 893.052 431.881 894.759 434.604 895.095C438.649 895.594 444.308 893.749 447.509 891.242C461.346 880.408 445.226 862.773 446.416 851.865C446.822 851.962 447.316 851.885 447.634 852.156C449.085 853.395 451.615 867.347 459.899 873.243C463.128 875.541 466.973 876.606 470.91 875.834C476.343 874.768 481.502 870.36 484.487 865.845C488.688 859.489 489.01 851.893 487.54 844.612C484.539 829.759 475.503 821.242 463.414 813.358C463.839 790.035 469.097 769.85 476.658 747.959Z"/>
	<path fill="#CCE8E2" transform="scale(0.5 0.5)" d="M820.595 747.408C869.467 748.765 921.139 748.58 970.105 747.816Q970.887 820.007 970.581 892.201C970.626 918.207 972.121 945.027 970.308 970.911L834.626 970.968C830.64 960.333 825.681 951.015 817.264 943.187C803.079 929.994 785.972 926.312 767.137 927.005C776.101 890.308 782.271 852.705 782.823 814.862C790.312 809.187 797.837 803.496 805.092 797.522C821.216 784.245 818.833 766.224 820.595 747.408Z"/>
	<path fill="#FDFDFC" transform="scale(0.5 0.5)" d="M448.042 406.59C445.835 405.647 444.21 404.994 442.583 403.137C442.753 402.432 442.746 402.268 443.035 401.664C445.496 396.512 460.564 389.451 465.715 386.427C522.205 353.269 581.499 325.178 644.415 306.524C680.478 295.831 716.911 290.562 754.426 288.522C761.362 288.144 775.292 286.715 781.369 290.012C787.274 299.051 793.623 308.018 798.748 317.524C779.517 315.499 762.929 318.363 747.59 330.778Q746.432 331.713 745.322 332.703Q744.211 333.694 743.151 334.737Q742.09 335.78 741.081 336.874Q740.073 337.969 739.119 339.111Q738.165 340.253 737.269 341.44Q736.372 342.627 735.534 343.857Q734.696 345.087 733.92 346.356Q733.143 347.625 732.429 348.931Q731.716 350.236 731.067 351.575Q730.418 352.914 729.835 354.283Q729.253 355.653 728.738 357.048Q728.222 358.444 727.776 359.864Q727.33 361.283 726.954 362.723Q726.578 364.163 726.272 365.619Q725.967 367.075 725.733 368.544Q725.499 370.014 725.337 371.493C723.643 386.832 729.069 401.935 738.759 413.726Q739.729 414.895 740.755 416.015Q741.78 417.135 742.859 418.204Q743.938 419.273 745.068 420.289Q746.197 421.304 747.375 422.263Q748.552 423.223 749.775 424.124Q750.998 425.025 752.263 425.865Q753.528 426.706 754.833 427.484Q756.137 428.262 757.478 428.976Q758.819 429.689 760.193 430.337Q761.566 430.985 762.97 431.565Q764.374 432.145 765.804 432.657Q767.234 433.168 768.688 433.609Q770.141 434.05 771.614 434.421Q773.087 434.791 774.576 435.089Q776.066 435.387 777.568 435.612Q779.07 435.838 780.581 435.99C797.841 437.669 816.203 432.355 829.611 421.253C832.459 418.896 836.666 413.54 840.139 412.931L841.029 413.749C841.638 425.355 843.246 436.505 842.813 448.191C822.506 465.114 797.068 480.553 772.777 490.878C770.859 491.693 767.742 493.914 765.759 493.952C765.567 493.956 765.377 493.906 765.186 493.884C765.882 491.461 766.626 489.125 767.549 486.775C771.92 477 772.762 458.799 769.919 448.493C769.178 445.809 768.332 444.64 765.938 443.317C737.57 450.026 709.018 459.862 681.029 468.198C677.57 468.942 673.505 469.411 670.657 471.627C669.268 474.11 669.576 476.384 670.338 479.017C673.463 489.812 681.702 502.829 690.816 509.389C693.039 510.68 695.533 512.459 697.936 513.3C701.221 514.398 704.509 515.467 707.719 516.77C693.525 520.357 678.958 523.371 664.933 527.514C649.614 529.282 634.283 533.347 619.062 536.027C596.733 539.959 573.826 542.379 551.215 543.926C542.613 544.515 506.452 543.578 501.774 546.94C502.192 548.233 502.085 548.77 503.298 549.412C507.001 551.372 516.899 550.716 521.484 550.779C577.836 551.553 636.841 541.079 691.225 527.091C698.417 526.103 706.168 523.229 713.212 521.181Q722.41 518.451 731.472 515.298Q740.534 512.145 749.441 508.575Q758.347 505.005 767.078 501.027Q775.81 497.048 784.347 492.67Q792.885 488.291 801.211 483.522Q809.536 478.752 817.632 473.602Q825.728 468.452 833.576 462.933Q841.425 457.413 849.009 451.536C848.948 435.835 848.321 420.02 844.357 404.748C849.211 397.789 850.196 388.989 851.479 380.803C858.956 406.041 860.16 433.47 860.007 459.703C776.526 526.93 668.193 552.832 563.51 563.088C547.53 564.654 506.556 568.527 492.713 567.029C491.788 566.929 491.112 566.672 490.249 566.344L490.8 564.623C491.677 563.46 492.459 562.213 493.23 560.978C506.451 539.793 503.875 511.847 498.625 488.664Q497.749 484.668 496.773 480.696C490.066 453.587 472.576 421.377 448.042 406.59Z"/>
	<path fill="#2A1743" transform="scale(0.5 0.5)" d="M578.574 370.34C596.68 368.464 614.647 372.415 629.496 383.154Q630.819 384.099 632.094 385.108Q633.37 386.117 634.594 387.187Q635.818 388.258 636.987 389.388Q638.157 390.517 639.269 391.703Q640.382 392.889 641.435 394.128Q642.488 395.367 643.478 396.657Q644.469 397.946 645.395 399.283Q646.321 400.62 647.18 402Q648.039 403.381 648.828 404.802Q649.618 406.224 650.337 407.682Q651.056 409.141 651.702 410.633Q652.348 412.125 652.92 413.647Q653.492 415.17 653.988 416.718Q654.484 418.267 654.903 419.838Q655.323 421.409 655.664 422.999Q656.005 424.588 656.268 426.193Q656.516 427.774 656.688 429.366Q656.859 430.958 656.953 432.556Q657.046 434.154 657.062 435.755Q657.077 437.356 657.015 438.956Q656.952 440.555 656.812 442.15Q656.672 443.745 656.454 445.331Q656.236 446.917 655.941 448.49Q655.646 450.064 655.275 451.621Q654.904 453.178 654.458 454.716Q654.011 456.253 653.49 457.767Q652.969 459.281 652.375 460.767Q651.782 462.254 651.116 463.71Q650.45 465.166 649.714 466.587Q648.979 468.009 648.174 469.393Q647.37 470.778 646.5 472.121Q645.629 473.465 644.694 474.764C632.398 491.711 614.546 500.667 594.216 503.842C575.589 505.128 558.861 502.104 543.406 491.151C529.036 480.967 518.305 465.629 515.524 448.051Q515.286 446.458 515.126 444.856Q514.966 443.253 514.884 441.645Q514.803 440.036 514.8 438.426Q514.798 436.815 514.874 435.206Q514.951 433.598 515.106 431.995Q515.261 430.392 515.494 428.798Q515.727 427.204 516.038 425.624Q516.349 424.044 516.737 422.481Q517.125 420.918 517.589 419.376Q518.053 417.833 518.592 416.316Q519.131 414.798 519.744 413.309Q520.357 411.819 521.042 410.362Q521.727 408.904 522.482 407.482Q523.237 406.059 524.062 404.675Q524.886 403.292 525.777 401.95Q526.667 400.608 527.623 399.312C539.895 382.774 558.497 373.297 578.574 370.34Z"/>
	<path fill="#FDFDFC" transform="scale(0.5 0.5)" d="M584.285 380.48C598.254 380.158 612.19 384.056 623.414 392.518Q624.529 393.354 625.602 394.244Q626.675 395.134 627.702 396.076Q628.729 397.018 629.708 398.01Q630.687 399.001 631.616 400.041Q632.544 401.08 633.42 402.164Q634.296 403.248 635.118 404.374Q635.939 405.5 636.703 406.666Q637.467 407.831 638.173 409.033Q638.878 410.235 639.523 411.47Q640.168 412.706 640.751 413.972Q641.334 415.238 641.854 416.531Q642.373 417.824 642.828 419.142Q643.283 420.459 643.671 421.798Q644.06 423.136 644.382 424.492Q644.704 425.848 644.958 427.218Q645.212 428.589 645.398 429.97C647.293 444.381 642.875 459.044 633.973 470.435C622.856 484.661 607.807 491.103 590.224 493.206C574.516 493.471 560.627 490.919 547.975 481.118C536.449 472.189 528.235 458.775 526.51 444.213C524.788 429.67 529.402 414.438 538.6 403.103C550.019 389.029 566.653 382.185 584.285 380.48Z"/>
	<path fill="#2A1743" transform="scale(0.5 0.5)" d="M578.45 394.209C589.991 393.551 600.974 393.717 611.358 399.6C621.702 405.459 629.218 415.956 632.341 427.34Q632.617 428.325 632.843 429.323Q633.069 430.322 633.243 431.33Q633.418 432.338 633.541 433.354Q633.664 434.37 633.735 435.391Q633.806 436.412 633.826 437.435Q633.845 438.458 633.812 439.481Q633.779 440.504 633.694 441.523Q633.609 442.543 633.472 443.557Q633.335 444.572 633.147 445.577Q632.958 446.583 632.719 447.578Q632.48 448.573 632.19 449.555Q631.9 450.536 631.561 451.502Q631.222 452.467 630.834 453.414Q630.446 454.361 630.011 455.287Q629.575 456.213 629.093 457.116Q628.611 458.018 628.083 458.895C620.64 471.452 608.936 477.871 595.213 481.327C583.511 482.729 571.824 480.807 561.5 474.963Q560.562 474.441 559.65 473.872Q558.739 473.304 557.858 472.69Q556.976 472.077 556.126 471.421Q555.276 470.764 554.46 470.066Q553.644 469.367 552.864 468.629Q552.084 467.891 551.342 467.115Q550.599 466.339 549.897 465.526Q549.194 464.714 548.533 463.868Q547.872 463.021 547.254 462.143Q546.636 461.265 546.062 460.357Q545.489 459.448 544.962 458.513Q544.435 457.577 543.955 456.616Q543.475 455.655 543.044 454.672Q542.612 453.688 542.231 452.684Q541.849 451.68 541.518 450.659Q541.187 449.637 540.908 448.6C537.979 437.565 540.041 425.922 545.914 416.196C553.387 403.82 564.895 397.646 578.45 394.209Z"/>
	<path fill="#FDFDFC" transform="scale(0.5 0.5)" d="M559.219 453.583C562.753 453.651 566.628 455.847 568.986 458.446C571.217 460.906 571.535 462.721 571.44 465.938C567.299 465.271 561.808 463.576 559.484 459.735C557.953 457.204 558.401 456.178 559.219 453.583Z"/>
	<path fill="#FDFDFC" transform="scale(0.5 0.5)" d="M592.673 400.158C598.185 399.892 602.55 400.503 607.461 403.154Q607.994 403.436 608.512 403.744Q609.03 404.053 609.532 404.386Q610.034 404.72 610.519 405.078Q611.003 405.437 611.47 405.819Q611.936 406.201 612.383 406.606Q612.829 407.011 613.255 407.437Q613.681 407.864 614.085 408.311Q614.489 408.759 614.87 409.226Q615.251 409.693 615.609 410.178Q615.966 410.663 616.299 411.166Q616.632 411.669 616.939 412.187Q617.246 412.706 617.527 413.239Q617.809 413.772 618.063 414.319Q618.317 414.866 618.543 415.424Q618.77 415.983 618.968 416.552Q619.166 417.122 619.336 417.7C621.092 423.854 620.448 430.473 617.23 436.034C613.185 443.024 607.068 446.079 599.542 448.153C593.317 448.233 587.47 447.423 582.109 443.976C574.88 439.328 572.469 432.078 570.667 424.18C571.467 420.318 572.381 415.99 574.247 412.504C578.329 404.88 584.862 402.416 592.673 400.158Z"/>
	<path fill="#554A6D" transform="scale(0.5 0.5)" d="M570.882 402.915L572.315 403.367C568.727 408.393 565.911 413.817 564.807 419.953Q564.692 420.613 564.611 421.278Q564.529 421.944 564.482 422.612Q564.434 423.281 564.42 423.951Q564.407 424.621 564.427 425.291Q564.447 425.96 564.501 426.628Q564.555 427.296 564.642 427.961Q564.73 428.625 564.851 429.284Q564.972 429.944 565.127 430.596Q565.281 431.248 565.468 431.891Q565.655 432.535 565.875 433.168Q566.094 433.801 566.345 434.423Q566.596 435.044 566.879 435.652Q567.161 436.26 567.474 436.853Q567.786 437.445 568.128 438.022Q568.47 438.598 568.841 439.156Q569.212 439.714 569.611 440.253C574.833 447.454 582.913 452.003 591.666 453.283C604.289 455.13 615.971 450.336 622.702 439.232C624.015 437.065 624.519 433.798 626.475 432.308C627.585 434.713 628.447 436.803 628.138 439.502C626.734 451.748 619.54 461.785 610.064 469.078C601.858 473.761 592.981 476.194 583.484 475.847C579.086 475.687 570.685 474.892 567.512 471.534C568.648 471.458 569.806 471.373 570.915 471.096C573.059 470.56 575.111 468.313 576.096 466.407C577.097 464.472 577.107 462.301 576.308 460.292C574.404 455.506 568.838 451.479 564.165 449.74C561.011 448.566 558.991 448.726 555.983 450.113C553.915 452.565 554.199 455.394 554.151 458.433L551.982 457.963C550.759 456.897 549.738 455.795 549.058 454.313C545.161 445.827 545.464 433.307 548.698 424.67C552.866 413.538 560.473 407.648 570.882 402.915Z"/>
</svg>
