<?xml version="1.0" encoding="utf-8" ?>
<svg xmlns="http://www.w3.org/2000/svg" xmlns:xlink="http://www.w3.org/1999/xlink" width="791" height="791">
	<path fill="#1A2123" transform="scale(0.773104 0.773104)" d="M58.4413 927.035C59.6232 927.884 60.395 928.103 60.5983 929.688C60.6865 930.375 60.5136 931.255 60.436 931.949C58.7642 933.357 58.8377 934.985 58.5918 937.07L58.4413 927.035Z"/>
	<path transform="scale(0.773104 0.773104)" d="M912.641 726.758C913.484 733.554 914.625 741.198 914.412 748.016C914.008 748.766 913.642 749.412 913.127 750.095L912.022 749.808C911.93 745.104 911.506 740.39 911.19 735.696C912.183 732.738 911.359 729.668 912.641 726.758Z"/>
	<defs>
		<linearGradient id="gradient_0" gradientUnits="userSpaceOnUse" x1="450.5451" y1="832.08221" x2="437.95627" y2="832.46313">
			<stop offset="0" stop-color="#010001" stop-opacity="0.96862745"/>
			<stop offset="1" stop-color="black"/>
		</linearGradient>
	</defs>
	<path fill="url(#gradient_0)" transform="scale(0.773104 0.773104)" d="M447.643 844.694C449.553 839.552 448.096 831.13 448.168 825.562C448.639 789.459 447.783 753.297 448.663 717.204C448.847 709.685 447.539 699.861 449.877 692.686L449.564 898.847C447.827 899.428 445.924 900.264 444.098 900.433L440.534 900.371C441.507 899.825 442.317 899.186 443.189 898.496C444.499 898.012 445.443 897.634 446.493 896.662C449.358 888.378 447.476 855.139 447.643 844.694Z"/>
	<path transform="scale(0.773104 0.773104)" d="M873.003 587.89C882.885 607.194 889.164 627.606 895.314 648.3C902.99 674.13 910.012 699.836 912.641 726.758C911.359 729.668 912.183 732.738 911.19 735.696C907.202 694.607 895.437 655.064 882.593 615.97C880.232 607.416 875.817 599.284 872.345 591.121L873.003 587.89Z"/>
	<path transform="scale(0.773104 0.773104)" d="M443.189 898.496C442.317 899.186 441.507 899.825 440.534 900.371L444.098 900.433C434.774 903.25 424.812 904.488 415.269 906.436L353.613 919.041L268.495 936.249C254.642 939.011 240.345 943.158 226.272 944.29C211.987 945.438 197.147 944.641 182.79 944.637L104.557 944.634C97.1724 944.63 89.7682 944.509 82.3876 944.727C76.9881 944.887 71.1817 945.527 65.8327 945.087C64.1452 944.949 62.2856 944.562 60.7936 943.732C59.7839 943.171 59.0256 942.436 58.6747 941.319C58.2901 940.095 58.4983 938.337 58.5918 937.07C58.8377 934.985 58.7642 933.357 60.436 931.949C60.5982 935.349 60.6807 938.776 61.1123 942.153C72.4248 943.589 83.6341 942.957 94.9895 942.914C107.679 942.866 120.319 943.146 133.012 942.878C138.312 942.766 144.17 943.502 149.342 942.892C160.407 943.101 171.505 942.782 182.577 942.848C196.021 942.929 209.637 943.424 223.039 942.171C237.42 940.826 251.979 937.332 266.176 934.619Q309.82 926.19 353.31 916.999L414.506 904.317C423.982 902.369 433.912 901.172 443.189 898.496Z"/>
	<path transform="scale(0.773104 0.773104)" d="M787.292 247.128C780.787 240.573 775.762 232.969 774.174 223.746C772.482 213.914 774.546 203.794 780.443 195.692C787.399 186.134 798.475 180.291 810.019 178.483C826.274 175.937 839.889 181.368 852.803 190.846C870.281 186.609 888.468 187.633 904.399 196.428C920.032 205.059 931.162 219.62 936.038 236.744C938.096 244.864 938.976 252.52 938.021 260.883C950.217 266.498 959.918 274.12 964.66 287.11C968.421 297.415 968.507 309.634 963.722 319.623C962.272 322.65 960.47 325.422 958.172 327.874Q957.552 328.603 956.896 329.3Q956.241 329.997 955.552 330.661Q954.863 331.325 954.143 331.955Q953.422 332.584 952.671 333.178Q951.92 333.771 951.141 334.326Q950.362 334.882 949.557 335.399Q948.751 335.915 947.921 336.391Q947.091 336.868 946.239 337.303Q945.387 337.738 944.514 338.13Q943.641 338.523 942.75 338.872Q941.859 339.221 940.952 339.526Q940.045 339.831 939.125 340.091Q938.203 340.35 937.271 340.565Q936.338 340.779 935.396 340.947Q934.454 341.115 933.505 341.237Q932.556 341.358 931.602 341.433C925.055 341.966 918.301 341.013 911.931 339.53L860.974 404.172C852.33 414.954 838.08 429.514 832.017 441.293C827.583 449.907 826.499 460.111 825.337 469.599L825.145 472.108L824.318 485.676C823.904 487.319 823.537 487.675 822.099 488.581C811.258 495.414 793.732 499.566 781.376 502.754C781.52 505.646 781.575 508.568 781.964 511.439C805.172 511.687 819.172 516.214 835.595 533.056C846.573 544.315 868.131 573.253 873.003 587.89L872.345 591.121C875.817 599.284 880.232 607.416 882.593 615.97C895.437 655.064 907.202 694.607 911.19 735.696C911.506 740.39 911.93 745.104 912.022 749.808L913.127 750.095C913.642 749.412 914.008 748.766 914.412 748.016C914.684 754.165 916.365 763.463 911.868 768.387C907.474 773.199 897.724 776.103 891.57 778.201L891.065 801.788C893.745 829 897.597 847.908 909.841 872.618C911.404 875.355 913.108 878.011 914.778 880.684C921.69 883.087 926.639 887.758 930.452 893.86C935.288 901.601 936.921 909.777 939.922 918.184C941.258 921.924 943.352 925.807 944.11 929.688C944.4 931.172 944.465 932.77 944.073 934.241C943.363 936.907 941.366 938.309 939.033 939.515C918.284 950.24 833.302 953.257 810.963 946.27C808.816 945.598 805.845 944.525 804.957 942.223C804.113 940.037 805.083 937.403 806.067 935.441C813.544 920.543 840.22 900.586 855.206 892.611C861.185 889.429 867.319 887.229 873.738 885.159C851.691 850.418 845.43 827.132 841.355 786.462C820.041 786.692 796.03 786.272 775.619 779.406C764.924 804.732 758.244 829.246 760.916 857.061C761.544 863.597 762.345 870.339 764.59 876.535C766.556 878.01 768.672 878.768 770.866 879.811C776.314 882.401 779.8 886.756 782.742 891.865Q785.42 896.544 787.306 901.594C788.81 905.582 796.664 930.298 795.43 933.196C794.366 935.696 789.858 937.176 787.455 937.925C777.81 940.93 767.132 941.971 757.113 943.064C729.2 946.107 701.369 947.184 673.45 943.704C667.914 943.014 660.748 942.643 655.849 939.814C654.425 938.991 653.584 938.047 653.288 936.393C652.81 933.721 655.251 929.746 656.646 927.518C671.064 904.491 699.695 887.154 725.756 881.131C724.1 874.858 722.462 868.509 721.194 862.145C714.285 827.494 718.978 795.18 738.69 765.464C737.314 764.292 735.618 762.876 734.824 761.221C733.852 759.198 734.579 756.688 735.437 754.767C739.498 745.68 745.682 737.012 750.656 728.356C760.908 710.513 768.823 692.96 774.869 673.301C767.498 657.51 760.138 641.246 750.798 626.503C747.349 632.795 742.251 638.856 737.376 644.093C716.846 666.146 688.069 674.466 658.828 675.619Q669.081 689.47 679.818 702.95C683.651 707.748 688.226 712.298 691.475 717.499C693.276 720.382 694.798 723.597 694.937 727.045C695.055 729.97 694.274 733.282 692.147 735.413C690.479 737.083 688.184 737.704 685.873 737.707C682.507 737.71 678.867 736.539 676.166 734.529C670.205 730.091 665.267 723.166 660.414 717.539C647.638 702.726 635.431 686.921 621.963 672.768C615.585 671.023 608.305 671.261 605.255 664.376C604.311 662.244 603.543 660.024 601.853 658.345C597.57 654.093 592.529 650.746 588.316 646.31C585.937 643.805 582.247 639.774 582.724 636.039C583.082 633.239 587.369 631.001 589.519 629.536C584.068 621.278 577.759 613.925 570.719 607.002C556.61 607.481 544.413 604.24 532.506 596.595C507.408 580.48 485.013 550.243 478.77 521.042C476.408 509.992 476.396 497.933 482.833 488.194C488.117 480.198 499.876 471.955 509.341 470.313C517.592 468.881 526.373 473.548 532.924 478.087C557.871 495.372 588.985 537.255 594.34 567.328C595.998 576.638 595.308 584.194 589.817 592.118C596.466 598.498 601.301 606.665 607.882 613.204C609.256 613.073 610.652 612.956 612.033 612.978C614.056 613.011 615.014 613.563 616.381 615.033C621.278 620.297 625.116 626.257 629.848 631.602C632.94 635.094 637.169 637.641 639.651 641.554C662.29 641.065 688.009 634.842 705.281 619.579C717.701 608.603 725.748 591.391 725.552 574.738C725.448 565.922 723.844 557.312 724.439 548.441C725.297 535.63 729.544 525.34 739.237 516.834L737.623 509.577C703.658 511.417 653.105 509.195 623.491 490.687C623.623 477.605 624.119 464.257 625.705 451.264C626.585 444.055 628.101 436.931 629.001 429.729C630.668 416.394 628.351 411.792 634.416 398.124C637.609 390.929 641.325 385.594 648.902 382.661C664.912 360.08 681.023 349.518 707.604 342.596C735.266 311.816 761.005 279.104 787.292 247.128ZM936.038 236.744C935.383 238.934 935.49 240.852 935.572 243.102C935.605 249.376 936.093 255.581 935.982 261.883C938.835 263.13 941.735 264.341 944.482 265.809C944.157 266.522 944.075 266.881 943.422 267.347C949.964 272.798 957.252 278.648 960.439 286.832C961.683 290.027 962.354 293.977 963.834 296.99C964.454 297.039 964.924 296.913 965.386 297.355C965.684 305.437 965.006 311.948 961.376 319.281C960.504 321.044 959.07 322.734 958.321 324.486C958.011 325.883 957.717 326.496 958.172 327.874C960.47 325.422 962.272 322.65 963.722 319.623C968.507 309.634 968.421 297.415 964.66 287.11C959.918 274.12 950.217 266.498 938.021 260.883C938.976 252.52 938.096 244.864 936.038 236.744ZM891.065 801.788C890.643 805.952 889.286 810.8 889.39 814.902C889.679 826.292 900.179 863.795 906.997 872.252C907.944 872.383 908.889 872.519 909.841 872.618C897.597 847.908 893.745 829 891.065 801.788ZM824.103 465.68C823.834 467.884 823.495 470.09 823.474 472.312C823.993 476.912 822.655 481.234 824.318 485.676L825.145 472.108L825.337 469.599C825.197 468.275 825.016 467.057 824.702 465.758L824.103 465.68ZM778.238 223.48L778.818 223.374L779.189 223.884L779.326 223.803L779.73 221.269L779.452 220.041C778.265 217.157 779.261 213.876 778.333 210.764C777.718 215.192 777.319 219.035 778.238 223.48Z"/>
	<path transform="scale(0.773104 0.773104)" d="M778.238 223.48C777.319 219.035 777.718 215.192 778.333 210.764C779.261 213.876 778.265 217.157 779.452 220.041L779.73 221.269L779.326 223.803L779.189 223.884L778.818 223.374L778.238 223.48Z"/>
	<path fill="#4B5A5B" transform="scale(0.773104 0.773104)" d="M748.05 297.815L749.83 299.206L744.56 305.404L742.655 304.438L748.05 297.815Z"/>
	<path fill="#758E95" transform="scale(0.773104 0.773104)" d="M632.683 413.19C633.616 408.88 634.942 405.294 637.12 401.458C636.838 403.884 636.29 406.626 637.201 408.945L636.808 410.005C635.53 411.189 634.311 412.508 632.683 413.19Z"/>
	<path transform="scale(0.773104 0.773104)" d="M824.103 465.68L824.702 465.758C825.016 467.057 825.197 468.275 825.337 469.599L825.145 472.108L824.318 485.676C822.655 481.234 823.993 476.912 823.474 472.312C823.495 470.09 823.834 467.884 824.103 465.68ZM824.702 465.758C824.533 468.034 824.258 469.939 825.145 472.108L825.337 469.599C825.197 468.275 825.016 467.057 824.702 465.758Z"/>
	<path transform="scale(0.773104 0.773104)" d="M824.702 465.758C825.016 467.057 825.197 468.275 825.337 469.599L825.145 472.108C824.258 469.939 824.533 468.034 824.702 465.758Z"/>
	<path fill="#4B5A5B" transform="scale(0.773104 0.773104)" d="M835.42 182.711C841.701 184.891 847.828 187.895 851.668 193.488C845.422 191.384 840.604 187.095 834.504 184.691C834.49 183.816 834.955 183.431 835.42 182.711Z"/>
	<path fill="#4B5A5B" transform="scale(0.773104 0.773104)" d="M786.573 191.399C787.221 191.742 787.9 192.181 788.585 192.432C784.129 197.602 780.754 202.148 778.806 208.764C778.55 208.06 778.406 207.258 778.228 206.535C777.782 207.338 778.026 206.956 777.342 207.859L776.798 208.568C778.335 201.497 781.556 196.541 786.573 191.399Z"/>
	<path fill="#586569" transform="scale(0.773104 0.773104)" d="M929.018 224.181C932.064 230.385 933.75 236.476 935.572 243.102C935.605 249.376 936.093 255.581 935.982 261.883C938.835 263.13 941.735 264.341 944.482 265.809C944.157 266.522 944.075 266.881 943.422 267.347C940.505 265.906 937.41 264.834 934.372 263.679C935.789 249.625 934.241 237.739 927.923 224.987L929.018 224.181Z"/>
	<path fill="#758E95" transform="scale(0.773104 0.773104)" d="M648.27 384.473C649.444 384.451 650.456 384.571 651.608 384.758L652.014 385.479C651.2 386.291 651.546 386.005 650.769 386.598C645.942 390.288 643.037 394.507 640.11 399.769C639.768 400.306 639.398 400.63 638.933 401.058L638.384 400.335C638.277 399 638.248 397.829 638.497 396.504C639.551 390.894 643.806 387.49 648.27 384.473Z"/>
	<path fill="#9CB8BE" transform="scale(0.773104 0.773104)" d="M632.683 413.19C634.311 412.508 635.53 411.189 636.808 410.005L638.316 411.747C634.647 419.145 634.452 424.291 636.227 432.221L634.881 434.699C631.147 427.755 631.567 420.677 632.683 413.19Z"/>
	<path fill="#F3F4EC" transform="scale(0.773104 0.773104)" d="M869.447 748.855C871.221 748.859 872.428 748.754 873.783 749.978C875.705 754.929 873.818 762.111 873.226 767.387C872.938 767.53 872.671 767.727 872.362 767.817C871.293 768.13 870.878 767.648 870.17 767.009C867.974 761.773 868.973 754.388 869.447 748.855Z"/>
	<path fill="#586569" transform="scale(0.773104 0.773104)" d="M881.207 616.108C874.845 605.298 872.168 592.078 866.467 580.778C862.958 573.823 858.392 567.164 854.011 560.73C851.83 557.526 849.247 554.32 847.515 550.854C857.308 560.845 866.601 578.241 872.345 591.121C875.817 599.284 880.232 607.416 882.593 615.97L881.207 616.108Z"/>
	<path fill="#9CB8BE" transform="scale(0.773104 0.773104)" d="M727.038 562.96C725.346 549.74 727.144 535.151 735.437 524.305C737.167 522.042 739.177 520.032 741.296 518.136C731.814 532.132 727.286 545.842 729.268 562.884L727.038 562.96Z"/>
	<path fill="#586569" transform="scale(0.773104 0.773104)" d="M776.798 208.568L777.342 207.859C778.026 206.956 777.782 207.338 778.228 206.535C778.406 207.258 778.55 208.06 778.806 208.764L778.333 210.764C777.718 215.192 777.319 219.035 778.238 223.48C778.356 224.233 778.479 224.954 778.681 225.69C781.897 237.464 790.097 245.968 800.437 251.92C799.945 251.813 799.451 251.712 798.967 251.572C791.055 249.27 784.122 242.101 780.207 235.081C775.61 226.839 774.266 217.688 776.798 208.568Z"/>
	<path fill="#F3F4EC" transform="scale(0.773104 0.773104)" d="M834.678 740.751C836.152 741.203 837.28 741.476 838.381 742.635C838.94 745.938 832.623 758.512 831.013 762.317L830.507 763.279L829.714 763.358C829.393 762.877 829.131 762.529 828.913 761.968C826.664 756.191 832.24 746.022 834.678 740.751Z"/>
	<path fill="#4B5A5B" transform="scale(0.773104 0.773104)" d="M742.655 304.438L744.56 305.404C740.65 311.682 731.943 320.398 726.862 326.324C723.194 330.601 720.012 335.304 716.31 339.523C714.996 341.021 713.237 343.181 711.161 343.319L711.109 342.323C712.205 340.081 713.979 338.553 715.683 336.771C721.641 330.54 727.126 323.704 732.398 316.893C735.709 312.615 738.558 308.049 742.655 304.438Z"/>
	<path fill="#586569" transform="scale(0.773104 0.773104)" d="M786.573 191.399C789.032 188.424 792.838 186.046 796.286 184.373C808.533 178.43 822.692 178.373 835.42 182.711C834.955 183.431 834.49 183.816 834.504 184.691C822.723 180.175 810.37 180.844 798.876 185.955C795.032 187.663 791.854 189.806 788.585 192.432C787.9 192.181 787.221 191.742 786.573 191.399Z"/>
	<path fill="#F3F4EC" transform="scale(0.773104 0.773104)" d="M838.657 724.714C851.316 723.628 864.291 726.296 876.341 729.959C877.241 731.954 877.892 733.953 878.516 736.049C878.403 735.942 878.29 735.833 878.176 735.728C877.984 735.551 877.788 735.38 877.598 735.203C867.817 726.107 849.338 731.568 838.657 724.714Z"/>
	<path fill="#758E95" transform="scale(0.773104 0.773104)" d="M618.284 663.103C620.997 664.165 656.45 707.228 661.206 712.913C666.505 719.247 672.227 728.115 679.196 732.588C681.22 733.887 684.258 735.151 686.701 734.375C688.899 733.677 690.304 732.125 691.32 730.094C692.889 726.963 691.318 724.419 690.286 721.385L691.515 722.375C691.709 722.777 691.909 723.176 692.079 723.588C693.071 725.993 693.377 728.264 692.236 730.669C691.275 732.694 689.479 734.194 687.371 734.925C685.095 735.715 682.478 735.591 680.334 734.465C674.27 731.28 669.44 724.103 665.062 718.977L637.288 686.547C632.505 680.867 628.03 674.279 622.616 669.238C621.158 667.879 619.493 667.057 617.698 666.246C616.699 665.795 617.102 666.169 616.58 665.09L618.284 663.103Z"/>
	<path fill="#586569" transform="scale(0.773104 0.773104)" d="M963.834 296.99C964.454 297.039 964.924 296.913 965.386 297.355C965.684 305.437 965.006 311.948 961.376 319.281C960.504 321.044 959.07 322.734 958.321 324.486C953.403 329.716 947.605 334.551 940.948 337.405C930.698 341.8 920.435 339.696 910.468 335.747C916.162 336.676 921.706 337.808 927.513 337.545C937.978 337.073 948.459 333.37 955.575 325.459C962.897 317.319 964.391 307.585 963.834 296.99Z"/>
	<path fill="#9CB8BE" transform="scale(0.773104 0.773104)" d="M778.13 504.34C779.548 509.016 778.038 515.425 777.329 520.207C773.706 523.054 769.781 525.59 765.543 527.427C758.794 530.351 752.807 530.742 745.916 528.06C745.892 528.038 745.865 528.019 745.845 527.993C745.082 527.004 744.856 527.027 744.941 525.731C747.524 524.227 753.538 526.356 756.734 526.164C761.024 525.906 767.257 523.905 771.029 521.783C778.309 517.685 775.757 511.567 777.853 505.144C777.941 504.875 778.038 504.608 778.13 504.34Z"/>
	<path fill="#758E95" transform="scale(0.773104 0.773104)" d="M729.268 562.884C733.026 588.944 747.434 612.522 759.602 635.396Q769.734 654.235 778.893 673.566C777.972 676.283 777.113 678.879 775.645 681.362L777.782 674.001C774.853 664.98 769.702 656.478 765.252 648.128C753.502 626.072 730.225 586.353 727.038 562.96L729.268 562.884Z"/>
	<path fill="#586569" transform="scale(0.773104 0.773104)" d="M748.05 297.815C752.279 293.209 755.917 288.169 759.836 283.307C765.211 276.638 770.77 270.114 776.209 263.497C779.881 259.027 783.401 253.23 788.314 250.098L789.223 250.08C789.164 251.829 788.127 253.221 787.102 254.617C783.446 259.603 778.748 263.89 774.781 268.641C766.345 278.744 758.429 289.21 749.83 299.206L748.05 297.815Z"/>
	<path fill="#4B5A5B" transform="scale(0.773104 0.773104)" d="M850.369 194.56C864.035 189.023 878.854 188.853 892.883 193.376Q894.33 193.85 895.752 194.393Q897.174 194.936 898.568 195.548Q899.962 196.16 901.324 196.84Q902.687 197.519 904.015 198.263Q905.343 199.008 906.633 199.817Q907.923 200.625 909.172 201.495Q910.421 202.366 911.626 203.296Q912.831 204.226 913.99 205.213Q915.148 206.201 916.257 207.244Q917.366 208.287 918.423 209.382Q919.48 210.478 920.483 211.624Q921.485 212.77 922.431 213.963Q923.376 215.156 924.262 216.394Q925.148 217.632 925.973 218.911Q926.798 220.191 927.56 221.509Q928.322 222.827 929.018 224.181L927.923 224.987C923.057 216.747 917.373 209.906 909.533 204.354C890.254 190.704 872.623 190.837 850.369 194.56Z"/>
	<path transform="scale(0.773104 0.773104)" d="M891.065 801.788C893.745 829 897.597 847.908 909.841 872.618C908.889 872.519 907.944 872.383 906.997 872.252C900.179 863.795 889.679 826.292 889.39 814.902C889.286 810.8 890.643 805.952 891.065 801.788Z"/>
	<path fill="#758E95" transform="scale(0.773104 0.773104)" d="M881.207 616.108L882.593 615.97C895.437 655.064 907.202 694.607 911.19 735.696C911.506 740.39 911.93 745.104 912.022 749.808C912.102 753.824 912.171 757.738 911.315 761.69L910.882 761.808C908.388 753.748 909.354 743.573 909.075 735.149Q908.792 726.575 907.519 718.092C905.565 704.136 903.199 690.172 899.648 676.524C897.554 668.478 894.825 660.595 892.5 652.614C888.916 640.316 885.556 628.178 881.207 616.108Z"/>
	<path fill="#9CB8BE" transform="scale(0.773104 0.773104)" d="M761.701 885.392L762.375 885.479C763.07 886.072 763.358 886.658 763.558 887.553C764.191 890.388 763.581 893.095 762.066 895.528Q761.778 895.999 761.445 896.438Q761.112 896.878 760.736 897.282Q760.36 897.686 759.946 898.05Q759.531 898.414 759.082 898.735Q758.634 899.055 758.155 899.329Q757.676 899.604 757.172 899.828Q756.668 900.053 756.144 900.226Q755.621 900.399 755.082 900.518C750.54 901.519 746.79 899.696 743.132 897.25C740.892 895.129 739.198 892.713 737.416 890.212C746.533 890.899 753.612 889.703 761.701 885.392Z"/>
	<path fill="#586569" transform="scale(0.773104 0.773104)" d="M823.474 472.312C822.676 476.098 823.419 481.526 821.951 484.815L821.573 484.563C820.883 471.661 823.699 452.062 828.914 440.286C830.587 436.509 833.086 432.804 835.576 429.522C840.692 422.779 846.471 416.516 851.759 409.898Q872.626 383.716 893.148 357.262C896.021 353.562 905.386 339.219 908.994 337.818C910.227 340.037 904.103 346.778 902.662 348.676C887.718 368.358 871.925 387.673 856.257 406.786C847.601 417.345 836.285 428.149 830.156 440.404C826.311 448.094 825.177 457.246 824.103 465.68C823.834 467.884 823.495 470.09 823.474 472.312Z"/>
	<path transform="scale(0.773104 0.773104)" d="M936.038 236.744C938.096 244.864 938.976 252.52 938.021 260.883C950.217 266.498 959.918 274.12 964.66 287.11C968.421 297.415 968.507 309.634 963.722 319.623C962.272 322.65 960.47 325.422 958.172 327.874C957.717 326.496 958.011 325.883 958.321 324.486C959.07 322.734 960.504 321.044 961.376 319.281C965.006 311.948 965.684 305.437 965.386 297.355C964.924 296.913 964.454 297.039 963.834 296.99C962.354 293.977 961.683 290.027 960.439 286.832C957.252 278.648 949.964 272.798 943.422 267.347C944.075 266.881 944.157 266.522 944.482 265.809C941.735 264.341 938.835 263.13 935.982 261.883C936.093 255.581 935.605 249.376 935.572 243.102C935.49 240.852 935.383 238.934 936.038 236.744Z"/>
	<path fill="#4B5A5B" transform="scale(0.773104 0.773104)" d="M944.482 265.809C954.025 271.735 961.621 280.38 964.347 291.511C964.815 293.423 965.1 295.409 965.386 297.355C964.924 296.913 964.454 297.039 963.834 296.99C962.354 293.977 961.683 290.027 960.439 286.832C957.252 278.648 949.964 272.798 943.422 267.347C944.075 266.881 944.157 266.522 944.482 265.809Z"/>
	<path fill="#F3F4EC" transform="scale(0.773104 0.773104)" d="M854.153 711.699C861.009 711.023 868.128 712.075 874.965 712.665C874.707 716.14 874.944 722.009 873.066 724.93C872.592 725.666 872.251 725.509 871.462 725.649Q860.506 723.525 849.405 722.386C849.296 719.738 848.59 715.37 850.209 713.156C851.122 711.907 852.747 711.877 854.153 711.699Z"/>
	<path fill="#B1B0AF" transform="scale(0.773104 0.773104)" d="M630.35 637.346C631.76 637.509 633.143 637.676 634.253 638.677C635.2 639.531 635.31 640.416 635.138 641.624C634.3 647.535 618.345 660.459 613.174 663.884L606.532 657.225C613.804 649.659 621.868 643.455 630.35 637.346Z"/>
	<path fill="#B1B0AF" transform="scale(0.773104 0.773104)" d="M618.068 627.9C621.355 629.495 623.912 633.557 626.099 636.371C618.749 641.774 611.839 647.521 605.072 653.637L604.666 653.748C601.802 652.956 598.859 647.714 597.199 645.397C603.825 639.223 610.956 633.504 618.068 627.9Z"/>
	<path fill="#9CB8BE" transform="scale(0.773104 0.773104)" d="M911.986 883.582C912.046 883.641 912.125 883.686 912.165 883.76C913.799 886.765 913.021 893.236 912.957 896.681C910.107 899.893 907.168 902.296 902.815 903.059C897.329 904.021 892.466 901.764 888.07 898.732C885.696 896.63 883.721 894.141 881.68 891.724C893.908 891.699 901.618 890.204 911.986 883.582Z"/>
	<path fill="#B1B0AF" transform="scale(0.773104 0.773104)" d="M585.438 596.965C593.188 602.111 598.235 610.248 603.548 617.691C600.887 620.312 598.069 622.8 595.327 625.337C592.225 624.81 579.672 607.387 577.185 604.176L585.438 596.965Z"/>
	<path fill="#B1B0AF" transform="scale(0.773104 0.773104)" d="M611.482 615.387C611.53 615.393 611.579 615.397 611.627 615.406C614.698 615.998 617.198 620.259 618.976 622.623C610.258 629.157 602.307 636.39 594.27 643.737C591.143 641.384 588.614 638.541 586.26 635.437Q599.09 625.687 611.482 615.387Z"/>
	<path fill="#8E8888" transform="scale(0.773104 0.773104)" d="M772.179 505.166L773.523 505.044L774.232 505.766C774.605 509.404 773.48 512.901 772.549 516.382C765.502 521.285 758.67 524.765 749.811 523.427C747.106 519.782 746.85 513.036 746.267 508.577C755.044 508.195 763.54 506.667 772.179 505.166Z"/>
	<path fill="#F3F4EC" transform="scale(0.773104 0.773104)" d="M899.925 865.506C903.484 869.261 905.819 875.729 908.078 880.398C899.876 883.73 892.231 886.045 883.379 886.69C882.71 886.651 881.949 886.573 881.34 886.277C878.512 884.9 876.548 879.419 875.309 876.737C884.996 875.199 892.073 871.137 899.925 865.506Z"/>
	<path fill="#F9E8B6" transform="scale(0.773104 0.773104)" d="M837.69 727.949Q851.427 729.929 865.02 732.736C868.208 733.387 874.038 734.436 875.681 737.587C876.317 738.807 876.398 739.658 876.042 740.986C875.468 743.128 874.885 745.284 872.902 746.473C862.875 746.363 845.181 745.402 836.979 739.529C835.422 738.414 834.12 736.882 833.941 734.904C833.677 731.995 835.879 729.901 837.69 727.949Z"/>
	<path fill="#F3F4EC" transform="scale(0.773104 0.773104)" d="M743.528 768.314Q756.258 773.341 769.137 777.973C766.974 783.859 765.114 791.433 761.319 796.447C751.817 793.337 743.152 788.998 734.405 784.235C736.541 778.425 739.842 773.245 743.528 768.314Z"/>
	<path fill="#F3F4EC" transform="scale(0.773104 0.773104)" d="M664.676 644.717L665.641 644.703C669.533 648.293 671.889 663.152 672.824 668.438Q663.555 669.304 654.248 669.548L651.215 665.681C646.547 660.084 642.252 654.127 637.856 648.312C646.653 646.466 655.749 645.718 664.676 644.717Z"/>
	<path fill="#F3F4EC" transform="scale(0.773104 0.773104)" d="M730.843 583.423C733.814 586.988 736.245 596.229 738.336 600.888C741.053 606.939 744.124 612.854 747.096 618.783C746.59 621.261 746.021 625.076 743.662 626.496C741.649 627.707 739.329 626.734 737.286 626.136C730.517 623.343 724.579 618.782 718.57 614.668C724.853 604.642 728.106 594.839 730.843 583.423Z"/>
	<path fill="#F3F4EC" transform="scale(0.773104 0.773104)" d="M754.558 860.157C755.89 861.108 759.112 877.668 759.891 880.842C753.192 883.056 742.609 886.587 735.546 884.802L735.205 884.05C735.165 883.958 735.124 883.867 735.087 883.775C734.307 881.866 733.095 881.017 731.506 879.754C729.58 874.141 728.109 868.507 727.169 862.645C736.706 862.872 745.242 862.045 754.558 860.157Z"/>
	<path fill="#F3F4EC" transform="scale(0.773104 0.773104)" d="M884.291 780.095L885.019 780.142C887.496 783.3 885.478 794.084 885.078 798.253C873.23 799.776 861.65 800.569 849.696 800.318C849.578 800.236 849.448 800.17 849.343 800.071C846.783 797.67 847.474 789.542 847.471 786.126C859.905 784.39 871.983 782.666 884.291 780.095Z"/>
	<path fill="#9CB8BE" transform="scale(0.773104 0.773104)" d="M810.359 577.132Q809.35 577.332 808.328 577.441Q807.306 577.55 806.277 577.568Q805.249 577.586 804.224 577.512Q803.198 577.438 802.183 577.273Q801.168 577.109 800.172 576.854Q799.176 576.599 798.206 576.257Q797.237 575.915 796.302 575.487Q795.366 575.06 794.473 574.551C787.255 570.428 782.152 562.5 780.162 554.548C778.128 546.421 779.079 537.779 783.449 530.557C786.736 525.124 791.938 520.657 798.227 519.236C806.874 517.283 815.053 520.486 822.264 524.991C815.607 522.705 808.895 521.32 802.17 524.349C796.352 526.969 792.142 532.275 790.078 538.229Q789.857 538.852 789.668 539.484Q789.479 540.117 789.321 540.758Q789.163 541.399 789.037 542.048Q788.912 542.696 788.818 543.35Q788.725 544.004 788.664 544.661Q788.603 545.319 788.575 545.979Q788.547 546.639 788.551 547.299Q788.556 547.96 788.593 548.619Q788.63 549.278 788.7 549.935Q788.77 550.592 788.873 551.244Q788.975 551.897 789.11 552.543Q789.245 553.19 789.411 553.829Q789.578 554.468 789.776 555.098Q789.974 555.728 790.203 556.347Q790.432 556.967 790.692 557.574Q790.952 558.181 791.241 558.775C795.422 567.511 802.552 571.658 811.305 574.819L810.359 577.132Z"/>
	<path fill="#F3F4EC" transform="scale(0.773104 0.773104)" d="M717.847 615.826C718.422 616.273 718.938 616.976 719.429 617.528C725.286 624.127 732.761 627.385 740.862 630.429C735.319 638.301 728.804 644.604 721.385 650.656L716.323 654.091Q708.278 642.858 700.615 631.36C706.913 626.533 712.489 621.687 717.847 615.826Z"/>
	<path fill="#F3F4EC" transform="scale(0.773104 0.773104)" d="M836.267 541.884C841.16 545.299 844.999 551.302 848.391 556.162C867.539 583.595 879.554 614.882 888.757 646.849L885.421 649.355L881.004 653.527C877.438 636.63 872.986 620.487 866.408 604.506C861.848 593.43 856.252 582.444 850.238 572.084C846.013 564.806 840.784 557.64 837.636 549.833C836.546 547.13 836.255 544.78 836.267 541.884Z"/>
	<path fill="#F3F4EC" transform="scale(0.773104 0.773104)" d="M847.928 674.398C857.408 675.324 866.493 675.684 876 675.275C876.734 686.552 876.488 697.623 875.44 708.869L875.115 709.209C871.117 710.193 855.083 709.029 849.531 709.007C849.482 697.467 848.637 685.913 847.928 674.398Z"/>
	<path fill="#F3F4EC" transform="scale(0.773104 0.773104)" d="M789.873 924.695C790.986 926.065 791.287 928.274 791.729 929.962C758.872 943.047 695.281 942.948 660.614 936.177C659.369 935.382 659.128 935.355 658.599 934.003C658.886 932.143 660.392 930.658 661.543 929.223C703.593 936.961 748.314 933.796 789.873 924.695Z"/>
	<path fill="#F3F4EC" transform="scale(0.773104 0.773104)" d="M836.111 559.502Q846.093 574.334 853.854 590.439C844.562 597.264 836.092 599.88 824.705 601.17C820.72 593.076 817.038 583.395 810.359 577.132L811.305 574.819C817.786 575.058 823.995 574.317 829.004 569.739C832.157 566.856 834.145 563.224 836.111 559.502Z"/>
	<path fill="#F3F4EC" transform="scale(0.773104 0.773104)" d="M696.842 633.479L697.975 633.484C703.072 637.151 710.092 649.987 713.572 655.602C704.6 660.45 695.202 664.037 685.38 666.738L675.674 668.601C673.491 660.312 671.512 652.016 669.139 643.771C678.572 640.678 687.794 637.587 696.842 633.479Z"/>
	<path fill="#F3F4EC" transform="scale(0.773104 0.773104)" d="M724.032 824.342C729.083 824.759 734.259 826.25 739.275 827.126C744.329 828.01 749.434 828.243 754.55 828.461C754.565 835.994 755.876 848.516 754.429 855.432C754.162 856.707 753.931 856.715 752.885 857.371C743.938 859.506 735.841 860.22 726.668 859.925C723.656 848.221 723.527 836.335 724.032 824.342Z"/>
	<path fill="#F3F4EC" transform="scale(0.773104 0.773104)" d="M733.004 787.245C738.179 788.874 742.975 791.765 747.826 794.16C752.083 796.263 756.426 797.93 760.911 799.479C759.375 805.118 756.406 821.4 754.326 825.19L753.123 825.537C743.343 825.352 733.833 823.553 724.373 821.198C724.576 809.46 727.804 797.717 733.004 787.245Z"/>
	<path fill="#F3F4EC" transform="scale(0.773104 0.773104)" d="M887.936 834.513L889.016 834.774C893.223 843.455 895.889 853.714 899.015 862.89C893.357 867.29 882.408 874.74 874.959 873.886C873.318 873.698 873.123 873.023 872.218 871.828C866.228 861.915 861.82 851.295 857.542 840.564Q861.435 840.454 865.305 840.017Q869.175 839.58 872.994 838.82Q876.814 838.06 880.556 836.981Q884.298 835.902 887.936 834.513Z"/>
	<path fill="#F3F4EC" transform="scale(0.773104 0.773104)" d="M935.781 928.143C936.896 928.073 937.492 928.505 938.465 928.986C939.256 930.053 939.206 930.701 939.198 932.001C938.499 933.621 937.623 934.58 936.176 935.605C933.315 937.632 927.249 938.14 923.765 938.896C889.095 946.42 850.672 946.894 815.625 941.771C814.855 941.6 813.635 941.449 812.975 941.041C812.314 940.631 811.897 940.182 811.72 939.429C811.217 937.288 812.937 935.28 814.028 933.573C821.887 934.759 829.873 935.238 837.796 935.766C873.368 938.135 901.015 934.98 935.781 928.143Z"/>
	<path fill="#F3F4EC" transform="scale(0.773104 0.773104)" d="M869.449 633.555C874.362 638.908 875.319 664.664 875.575 672.384C866.378 673.044 857.447 673.556 848.32 671.835C847.338 670.318 842.119 643.147 840.937 638.514C851.169 638.576 859.922 637.31 869.449 633.555Z"/>
	<path fill="#F3F4EC" transform="scale(0.773104 0.773104)" d="M854.807 593.969L855.867 594.342C862.022 602.233 866.509 620.411 869.371 630.214C860.243 635.305 850.842 635.846 840.619 636.03C837.979 632.416 835.96 625.081 834.135 620.735Q830.515 612.079 826.374 603.659C836.856 602.369 845.513 598.761 854.807 593.969Z"/>
	<path fill="#F3F4EC" transform="scale(0.773104 0.773104)" d="M881.777 801.203C882.866 800.95 883.677 801.039 884.78 801.185C885.433 802.385 888.03 827.348 888.809 831.803C878.117 835.085 868.106 837.195 856.899 837.51C852.867 826.178 850.631 814.43 849.318 802.499C860.295 803.098 870.881 802.53 881.777 801.203Z"/>
	<path fill="#F3F4EC" transform="scale(0.773104 0.773104)" d="M637.201 408.945L637.665 408.291C642.183 401.848 646.491 388.476 655.106 387.003Q655.455 386.946 655.808 386.925Q656.16 386.903 656.514 386.915Q656.867 386.928 657.217 386.976Q657.567 387.024 657.911 387.105Q658.255 387.187 658.589 387.303Q658.923 387.418 659.244 387.566Q659.565 387.713 659.87 387.892Q660.175 388.07 660.461 388.278C663.968 390.873 665.394 395.757 665.808 399.891C667.006 411.861 662.562 425.303 654.918 434.526C652.184 437.825 648.371 441.377 643.857 441.613C641.56 441.733 639.351 440.846 637.715 439.241C636.4 437.95 635.631 436.354 634.881 434.699L636.227 432.221C634.452 424.291 634.647 419.145 638.316 411.747L636.808 410.005L637.201 408.945Z"/>
	<path transform="scale(0.773104 0.773104)" d="M638.316 411.747C639.776 410.681 640.749 409.881 642.587 409.731C644.031 410.143 644.668 410.492 645.498 411.786C647.78 415.346 646.757 421.911 645.512 425.644C644.687 428.117 643.136 430.93 640.691 432.119C639.236 432.826 637.727 432.599 636.227 432.221C634.452 424.291 634.647 419.145 638.316 411.747Z"/>
	<path fill="#F3F4EC" transform="scale(0.773104 0.773104)" d="M641.528 413.783C641.605 413.818 641.687 413.842 641.758 413.886C642.712 414.473 643.128 415.622 643.335 416.676C644.147 420.831 641.971 425.054 639.644 428.308C639.552 428.262 639.455 428.226 639.368 428.171C638.401 427.56 637.872 426.61 637.593 425.523C636.552 421.459 639.388 417.023 641.528 413.783Z"/>
	<path fill="#B1B0AF" transform="scale(0.773104 0.773104)" d="M632.213 651.341C636.599 655.276 639.856 661.039 643.36 665.775Q651.312 676.366 659.412 686.844C667.933 697.877 677.707 708.325 685.589 719.786C687.24 722.187 690.281 725.684 689.38 728.742C689.081 729.758 688.433 730.538 687.506 731.037C685.327 732.21 683.379 731.895 681.088 731.289C672.57 724.551 664.414 712.927 657.269 704.5C645.266 690.345 632.272 676.411 621.662 661.17C625.14 657.854 628.692 654.611 632.213 651.341Z"/>
	<path fill="#9CB8BE" transform="scale(0.773104 0.773104)" d="M807.32 525.542C811.846 525.429 816.201 526.096 820.307 528.106Q820.847 528.368 821.373 528.658Q821.898 528.947 822.409 529.263Q822.919 529.579 823.413 529.92Q823.907 530.261 824.382 530.627Q824.858 530.993 825.315 531.383Q825.771 531.773 826.207 532.185Q826.643 532.597 827.058 533.032Q827.472 533.466 827.864 533.92Q828.256 534.375 828.624 534.849Q828.992 535.323 829.336 535.815Q829.68 536.307 829.998 536.816Q830.316 537.324 830.608 537.849Q830.9 538.373 831.165 538.912Q831.43 539.45 831.667 540.002Q831.904 540.553 832.113 541.116Q832.322 541.678 832.502 542.251C834.509 548.487 834.547 556.521 831.386 562.341C828.48 567.693 823.951 569.889 818.408 571.586C815.256 571.708 812.366 571.771 809.295 570.856C802.729 568.9 797.548 564.165 794.498 558.079C791.495 552.085 790.787 545.181 793.166 538.853C795.778 531.902 800.802 528.39 807.32 525.542Z"/>
	<path transform="scale(0.773104 0.773104)" d="M811.55 532.034C813.815 531.909 816.148 531.935 818.312 532.685C822.407 534.105 825.649 537.259 827.454 541.166C829.421 545.428 829.818 550.599 828.079 555.003C826.286 559.547 823.159 561.822 818.878 563.728C816.718 564.097 814.609 564.024 812.507 563.38C808.552 562.168 805.472 559.439 803.558 555.798Q803.141 555.016 802.803 554.197Q802.465 553.377 802.209 552.529Q801.954 551.68 801.784 550.81Q801.614 549.94 801.531 549.057Q801.448 548.175 801.452 547.289Q801.457 546.402 801.549 545.521Q801.641 544.639 801.82 543.771Q801.999 542.903 802.263 542.057C803.843 537.102 807.073 534.359 811.55 532.034Z"/>
	<path fill="#9CB8BE" transform="scale(0.773104 0.773104)" d="M812.892 535.112C814.093 535.232 815.321 535.339 816.502 535.588C819.723 536.269 822.784 539.021 824.403 541.794C826.339 545.11 826.932 549.29 825.745 552.967C824.398 557.14 821.695 559.086 817.949 560.972C816.484 560.979 814.915 560.789 813.504 560.381C810.264 559.443 807.476 556.665 805.99 553.708C804.277 550.299 803.888 546.15 805.216 542.545C806.631 538.705 809.247 536.691 812.892 535.112Z"/>
	<path fill="#F3F4EC" transform="scale(0.773104 0.773104)" d="M886.844 318.287C889.116 319.968 890.941 322.59 892.95 324.61C897.203 328.888 901.626 332.274 906.691 335.528C895.5 352.662 881.744 367.75 869.738 384.267C869.148 384.66 869.518 384.499 868.565 384.576C864.243 380.328 855.252 365.834 851.022 360.101C862.82 346.038 875.194 332.482 886.844 318.287Z"/>
	<path fill="#F3F4EC" transform="scale(0.773104 0.773104)" d="M792.388 251.291C805.229 256.255 810.334 258.161 824.295 258.789C811.5 273.81 797.963 288.252 784.521 302.694L780.805 306.061C772.458 302.3 764.121 299.105 755.294 296.647C760.752 288.973 766.91 281.763 772.884 274.489C779.294 266.685 785.623 258.792 792.388 251.291Z"/>
	<path fill="#B1B0AF" transform="scale(0.773104 0.773104)" d="M818.903 474.989C819.652 477.693 818.789 480.877 818.304 483.589C811.084 486.784 803.767 489.816 796.221 492.16C750.553 506.343 673.207 510.21 630.115 487.469C629.999 487.357 629.869 487.258 629.767 487.133C628.324 485.357 628.958 481.167 629.028 478.975Q632.472 480.501 635.954 481.939C688.256 503.463 767.537 496.308 818.903 474.989Z"/>
	<path fill="#B1B0AF" transform="scale(0.773104 0.773104)" d="M492.271 485.368C493.444 489.79 492.511 498.358 493.425 503.835C496.546 522.539 509.039 541.547 521.027 556.067C536.066 574.283 556.091 592.342 580.502 594.669C577.102 597.296 573.489 599.094 569.573 600.808C567.907 601.299 566.252 601.486 564.516 601.538C548.358 602.017 532.602 590.573 521.603 579.881C503.057 561.851 482.397 532.148 482.242 505.686C482.19 496.903 486.414 491.322 492.271 485.368Z"/>
	<path fill="#F3F4EC" transform="scale(0.773104 0.773104)" d="M861.578 284.318C866.515 286.113 871.613 287.234 876.768 288.185C878.391 298.038 881.225 306.408 885.65 315.35C880.835 321.047 852.755 356.257 849.011 357.017L847.68 355.915C838.997 347.043 829.933 338.738 820.675 330.48C834.118 314.903 847.304 299.152 861.578 284.318Z"/>
	<path fill="#F3F4EC" transform="scale(0.773104 0.773104)" d="M833.759 257.162C835.644 256.959 835.849 256.982 836.682 258.736C842.121 270.197 848.407 275.97 858.866 282.835C844.983 297.783 831.886 313.479 818.457 328.836L813.762 325.767C804.238 319.014 794.596 313.184 784.241 307.796C799.35 291.629 813.962 274.867 828.48 258.171C830.211 257.73 832.001 257.476 833.759 257.162Z"/>
	<path fill="#B1B0AF" transform="scale(0.773104 0.773104)" d="M915.453 885.845C916.099 886.065 916.073 886.036 916.788 886.399C926.632 891.402 932.551 914.218 935.593 924.195C904.296 936.122 853.729 933.957 820.878 931.383C819.664 931.299 818.871 931.254 817.763 930.694L817.836 929.801C830.759 912.447 856.855 896.922 876.859 889.784C879.593 894.245 882.992 898.71 887.195 901.889C891.896 905.445 897.281 907.357 903.206 906.434C907.38 905.783 911.906 904.027 914.428 900.47C917.597 896.003 916.164 890.845 915.453 885.845Z"/>
	<path fill="#B1B0AF" transform="scale(0.773104 0.773104)" d="M765.336 881.961C779.162 891.404 783.252 906.762 787.403 922.077C744.532 930.082 707.027 932.12 663.601 927.106C672.65 915.38 685.443 904.917 698.433 897.862C704.457 894.59 710.843 891.696 717.378 889.604C720.814 888.505 724.643 887.912 727.958 886.549C729.052 886.099 729.217 885.887 729.809 884.919L729.095 883.151C729.601 883.169 730.135 883.037 730.613 883.205C731.394 883.48 738.773 897.319 741.539 900.034C744.553 902.993 748.117 904.743 752.387 904.657C756.167 904.582 760.344 903.752 762.976 900.818C767.895 895.335 765.733 888.824 765.359 882.403L765.336 881.961Z"/>
	<path fill="#9CB8BE" transform="scale(0.773104 0.773104)" d="M509.64 473.114C520.725 472.81 530.19 478.997 538.411 485.809C561.54 504.975 589.912 543.924 592.497 574.003C592.892 578.597 592.469 583.684 589.265 587.278C586.365 590.53 582.798 591.168 578.688 591.526C572.67 590.627 567.14 588.826 561.717 586.065C532.775 571.33 507.938 539.858 497.976 509.013C495.302 500.733 493.026 490.155 497.392 482.059C500.106 477.027 504.421 474.772 509.64 473.114Z"/>
	<path transform="scale(0.773104 0.773104)" d="M508.256 478.49C514.634 478.527 520.027 480.075 525.565 483.231C550.165 497.252 576.286 535.557 583.736 562.747C585.257 568.3 587.115 575.926 583.837 581.151C582.218 583.732 580.029 584.272 577.196 584.836C574.85 584.768 572.51 584.694 570.207 584.196C548.959 579.606 527.742 555.075 516.518 537.258C509.028 525.368 496.927 502.792 500.591 488.204C501.79 483.43 504.246 480.991 508.256 478.49Z"/>
	<path fill="#F3F4EC" transform="scale(0.773104 0.773104)" d="M508.143 481.513C512.833 481.47 516.765 482.268 521.025 484.248C546.53 496.097 570.863 534.995 580.13 561.224C581.913 566.27 584.341 574.159 581.687 579.203C580.736 581.01 579.37 581.48 577.571 582.099C576.548 582.097 575.56 582.043 574.54 581.943C557.36 580.261 539.659 562.92 529.229 550.254C518.358 537.054 500.6 508.317 502.596 491.09C503.103 486.718 504.755 484.186 508.143 481.513Z"/>
	<path transform="scale(0.773104 0.773104)" d="M540.841 516.209C542.263 516.369 543.291 516.725 544.426 517.596C552.778 524.003 566.235 547.169 567.334 557.31C566.5 557.281 566.456 557.426 565.869 557.005C562.828 554.825 556.456 540.514 553.914 536.406C550.783 531.347 542.063 521.219 540.841 516.209Z"/>
	<path fill="#F3F4EC" transform="scale(0.773104 0.773104)" d="M752.993 298.804C755.529 299.219 758.03 299.905 760.481 300.669C800.803 313.236 846.734 350.481 866.325 387.717C857.493 400.174 847.551 412.269 837.873 424.081C836.825 425.36 835.48 427.629 833.856 427.791L832.992 426.799Q829.956 420.277 826.203 414.139Q822.449 408.001 818.027 402.327C799.027 377.573 769.923 355.088 739.965 345.784C732.565 343.486 725.061 342.408 717.401 341.411C728.343 326.69 740.789 312.493 752.993 298.804Z"/>
	<path fill="#F3F4EC" transform="scale(0.773104 0.773104)" d="M781.571 515.502L792.767 517.771C790.927 519.028 789.088 520.319 787.361 521.731C781.002 526.928 777.09 534.754 776.284 542.879C775.261 553.183 778.476 564.67 785.157 572.644C791.133 579.777 798.483 581.932 807.325 582.736C813.15 590.029 817.382 598.161 821.451 606.513C832.664 629.534 838.647 650.442 842.212 675.739C827.465 676.254 813.091 676.009 798.379 674.896Q789.773 674.07 781.288 672.407Q772.305 653.436 762.218 635.028C751.972 616.008 740.092 595.92 734.224 575.006Q733.416 572.121 732.844 569.18Q732.272 566.239 731.94 563.262Q731.608 560.284 731.519 557.29Q731.429 554.295 731.582 551.303C732.162 540.831 735.12 528.312 743.221 521.08Q743.058 522.393 742.922 523.709C742.651 526.108 742.51 528.178 744.194 530.128C746.019 532.243 748.989 532.812 751.649 532.872C760.752 533.076 772.554 528.744 778.968 522.22C781.187 519.963 781.554 518.641 781.571 515.502Z"/>
	<path transform="scale(0.773104 0.773104)" d="M805.508 592.111C808.016 593.738 814.268 611.367 815.144 615.227C804.139 623.095 785.634 621.095 773.037 619.295L768.771 617.707C767.064 613.926 760.736 600.293 762.301 596.553C762.94 595.026 768.324 595.25 769.795 595.277C782.243 595.503 793.336 595.155 805.508 592.111Z"/>
	<path fill="#B1B0AF" transform="scale(0.773104 0.773104)" d="M809.972 613.636L810.332 613.901L810.316 614.66C809.783 614.986 809.627 615.102 809.107 615.358C800.361 619.667 781.427 619.248 772.191 616.117L771.326 615.441C772.35 614.966 781.214 616.692 783.534 616.719C792.806 616.824 800.938 614.789 809.972 613.636Z"/>
	<path fill="#F3F4EC" transform="scale(0.773104 0.773104)" d="M807.01 606.594C807.555 606.475 808.125 606.512 808.682 606.504C810.022 607.69 810.396 609.521 810.936 611.171C798.292 614.703 785.674 614.668 772.704 613.89C772.527 613.841 772.347 613.802 772.173 613.742C770.203 613.064 769.566 611.115 768.673 609.395C781.935 609.987 794.05 609.885 807.01 606.594Z"/>
	<path fill="#F3F4EC" transform="scale(0.773104 0.773104)" d="M803.549 595.669C805.992 596.995 806.682 600.823 807.512 603.342C794.857 607.351 782.646 607.324 769.586 606.305C769.408 606.213 769.224 606.134 769.053 606.029C766.349 604.378 765.797 600.819 765.037 597.983C778.234 598.948 790.6 598.113 803.549 595.669Z"/>
	<path fill="#F3F4EC" transform="scale(0.773104 0.773104)" d="M890.35 655.436C893.326 658.352 894.463 666.585 895.525 670.706C900.448 689.816 904.225 708.767 905.862 728.462C906.841 740.231 906.885 752.109 907.487 763.906C899.33 767.792 891.201 771.744 882.502 774.292C848.215 784.333 803.86 781.801 769.797 771.538C764.586 769.968 743.431 763.167 741.6 758.821C741.059 757.538 742.333 754.734 742.877 753.521C746.616 745.18 752.319 737.15 756.779 729.131C766.381 711.871 774.437 694.209 780.428 675.374C792.878 675.916 805.192 678.294 817.711 678.521Q830.099 678.604 842.484 678.319C844.975 692.563 843.907 707.989 843.455 722.386C841.298 722.445 839.059 722.642 837 723.325C834.036 724.308 831.467 726.266 830.071 729.093C827.825 733.645 828.824 739.012 830.442 743.581C828.36 748.903 824.905 755.839 825.403 761.607C825.556 763.375 826.227 765.01 827.751 766.037C828.846 766.774 830.222 767.009 831.477 766.581C837.192 764.63 841.327 749.295 843.148 744.113L848.496 746.336Q846.816 750.237 845.353 754.225C843.953 758.068 841.23 765.93 843.009 769.786C844.058 770.473 843.862 770.322 844.99 770.215C850.304 766.613 848.709 754.9 851.549 749.383C852.254 748.012 853.172 747.029 854.622 746.605C857.828 750.613 852.946 765.86 855.625 772.923C856.604 773.866 857.066 774.102 858.41 774.311C863.836 771.448 858.726 753.852 860.528 748.805C861.509 748.411 862.877 748.299 863.86 748.825C868.954 751.548 863.995 763.843 866.301 769.016C866.974 770.525 868.149 771.401 869.673 771.944C871.321 772.531 874.073 772.509 875.642 771.68C877.502 770.697 878.182 768.117 878.693 766.221C880.474 759.616 882.61 739.226 880.98 732.824C880.535 731.073 879.375 729.354 878.455 727.81C884.191 705.522 883.748 684.346 882.424 661.634L890.35 655.436Z"/>
	<path fill="#F3F4EC" transform="scale(0.773104 0.773104)" d="M779.452 220.041C779.708 209.979 781.933 201.209 789.458 194.054C797.108 186.782 808.666 183.199 819.096 183.494C830.225 183.81 839.606 188.977 848.612 195.053C843.601 197.413 839.239 199.469 835.209 203.391C835.424 203.338 835.641 203.288 835.856 203.231C841.708 201.7 846.958 198.538 852.71 196.717C869.01 191.557 888.431 193.98 903.214 202.438Q904.461 203.153 905.672 203.929Q906.882 204.704 908.053 205.538Q909.224 206.372 910.353 207.263Q911.481 208.154 912.564 209.099Q913.648 210.044 914.683 211.041Q915.719 212.038 916.704 213.085Q917.689 214.132 918.622 215.227Q919.554 216.321 920.432 217.459Q921.309 218.598 922.13 219.778Q922.95 220.959 923.712 222.178Q924.473 223.398 925.174 224.653Q925.875 225.908 926.513 227.197Q927.151 228.485 927.724 229.803Q928.298 231.121 928.807 232.466Q929.315 233.811 929.757 235.179Q930.198 236.547 930.572 237.935C933.032 247.021 933.074 255.991 931.545 265.236C942.836 268.722 951.678 274.265 957.37 284.941Q957.797 285.73 958.184 286.539Q958.572 287.348 958.919 288.175Q959.266 289.002 959.573 289.845Q959.879 290.688 960.143 291.545Q960.407 292.402 960.629 293.271Q960.851 294.14 961.03 295.019Q961.209 295.898 961.344 296.784Q961.479 297.671 961.571 298.563Q961.663 299.456 961.71 300.351Q961.758 301.247 961.761 302.144Q961.765 303.041 961.724 303.937Q961.683 304.833 961.599 305.726Q961.514 306.619 961.385 307.506Q961.257 308.394 961.085 309.274Q960.913 310.154 960.698 311.025Q960.483 311.896 960.225 312.755C957.666 321.068 951.843 327.666 944.188 331.698C934.789 336.65 923.603 336.981 913.591 333.754C901.686 329.918 892.05 320.893 886.436 309.831C883.121 303.299 880.91 295.768 880.249 288.466C884.507 288.489 895.838 289.737 899.007 286.714C899.132 286.595 899.227 286.448 899.337 286.316C894.536 282.602 861.681 293.077 842.893 263.777C840.205 259.585 836.836 253.433 836.246 248.525C836.212 248.243 836.189 247.961 836.158 247.68C835.854 244.941 835.798 241.273 833.731 239.233C832.993 239.897 833.151 240.959 833.088 241.925C832.819 246.035 833.649 250.272 834.818 254.193C819.549 255.66 806.321 255.156 793.877 244.997C786.238 238.761 781.842 230.797 779.73 221.269L779.452 220.041Z"/>
	<path fill="#B1B0AF" transform="scale(0.773104 0.773104)" d="M715.77 346.185C724.456 345.409 732.652 347.013 740.842 349.848Q742.672 350.492 744.486 351.181Q746.3 351.869 748.096 352.602Q749.893 353.335 751.671 354.112Q753.448 354.889 755.207 355.709Q756.965 356.529 758.703 357.392Q760.441 358.255 762.157 359.16Q763.873 360.066 765.566 361.013Q767.259 361.96 768.929 362.948Q770.599 363.936 772.244 364.965Q773.888 365.994 775.508 367.063Q777.127 368.132 778.719 369.24Q780.312 370.348 781.877 371.495Q783.442 372.642 784.978 373.827Q786.514 375.012 788.021 376.234Q789.528 377.457 791.004 378.715Q792.481 379.974 793.926 381.269Q795.371 382.563 796.784 383.893Q798.197 385.223 799.577 386.587Q800.957 387.95 802.303 389.348Q803.649 390.745 804.96 392.175Q806.272 393.605 807.548 395.066Q808.824 396.528 810.064 398.02Q811.303 399.513 812.506 401.035Q813.709 402.557 814.875 404.109Q816.04 405.66 817.167 407.239Q818.293 408.819 819.381 410.425Q820.469 412.032 821.517 413.665Q822.565 415.297 823.573 416.955Q824.581 418.613 825.547 420.296Q826.514 421.978 827.44 423.683Q828.365 425.388 829.248 427.116Q830.131 428.843 830.972 430.592C823.435 442.755 820.77 457.96 819.342 472.017C789.638 484.105 759.385 488.933 727.605 491.43C698.223 491.663 655.541 490.562 629.432 475.683C629.739 463.489 631.327 450.968 633.693 439.006C635.165 440.68 636.761 442.45 638.797 443.436C641.963 444.969 645.525 444.84 648.738 443.541C656.924 440.229 662.47 430.507 665.53 422.667C669.098 413.527 671.577 401.325 667.276 392.027C664.837 386.752 661.114 384.495 655.923 382.544Q657.976 379.547 660.29 376.746C673.547 360.371 694.74 348.323 715.77 346.185Z"/>
	<path transform="scale(0.773104 0.773104)" d="M713.989 391.161C719.158 391.024 724.059 392.039 728.361 395.043C734.441 399.288 737.695 406.585 739.051 413.675Q739.303 415.009 739.489 416.353Q739.676 417.697 739.796 419.049Q739.916 420.401 739.97 421.757Q740.024 423.113 740.012 424.47Q740 425.827 739.921 427.182Q739.842 428.536 739.697 429.886Q739.552 431.235 739.341 432.576Q739.13 433.916 738.854 435.245Q738.577 436.574 738.236 437.887Q737.895 439.201 737.49 440.496Q737.085 441.791 736.617 443.065Q736.15 444.339 735.62 445.589Q735.09 446.838 734.5 448.06Q733.91 449.282 733.261 450.474Q732.612 451.666 731.905 452.824Q731.198 453.983 730.435 455.105C723.496 465.281 714.314 471.635 702.261 473.993C696.8 474.015 691.834 473.308 687.196 470.157C680.713 465.753 677.488 458.431 676.254 450.933C673.885 436.544 678.216 420.294 686.804 408.591C693.525 399.433 702.654 392.88 713.989 391.161Z"/>
	<path fill="#F3F4EC" transform="scale(0.773104 0.773104)" d="M711.416 394.521C715.79 394.381 719.672 394.508 723.741 396.404C729.351 399.017 732.912 404.227 734.825 409.959C738.883 422.117 736.724 436.76 731.057 448.05C725.495 459.129 717.185 466.564 705.418 470.397C700.74 471.304 695.919 471.161 691.532 469.141C686.204 466.687 682.626 461.762 680.842 456.279C676.841 443.985 679.622 428.479 685.361 417.167C691.033 405.986 699.538 398.479 711.416 394.521Z"/>
	<path transform="scale(0.773104 0.773104)" d="M693.527 422.423C695.385 422.679 696.935 423.34 698.187 424.766C699.991 426.822 700.083 429.773 699.768 432.349C698.973 438.847 695.968 444.676 690.881 448.787C688.979 448.211 687.375 447.553 686.054 446.002C684.284 443.922 683.927 441.098 684.218 438.467C684.947 431.869 688.41 426.441 693.527 422.423Z"/>
	<path fill="#F3F4EC" transform="scale(0.773104 0.773104)" d="M693.469 426.217C693.658 426.309 693.856 426.384 694.035 426.494C695.221 427.217 695.906 428.469 696.114 429.819C696.906 434.964 693.001 440.575 689.97 444.433C689.596 444.346 689.596 444.38 689.234 444.106C688.289 443.39 687.789 442.31 687.589 441.166C686.746 436.358 690.695 429.872 693.469 426.217Z"/>
	<path transform="scale(0.773104 0.773104)" d="M137.996 159.417L138.031 98.2871C137.97 87.9853 137.182 77.5465 137.691 67.2666C137.832 64.4068 137.666 58.2135 139.868 56.2027C144.224 54.1504 186.493 55.4787 193.631 55.5036L372.44 55.6032C382.847 55.596 436.527 54.5554 441.097 56.1486C441.744 57.7089 441.598 59.4603 441.625 61.1241C443.25 68.8386 441.727 79.4411 441.58 87.4756C441.377 98.5597 441.502 109.671 441.528 120.757Q441.814 140.285 441.563 159.813C459.514 158.082 477.028 152.939 494.585 148.983L570.506 132.334C581.395 129.884 597.953 124.198 608.569 124.306C614.443 124.366 620.349 128.007 625.485 130.612L625.466 329.93L625.562 382.63C625.587 392.367 626.584 403.23 624.794 412.793C622.6 414.895 620.286 416.879 617.203 417.403C610.339 418.569 602.932 417.962 595.988 417.877Q582.63 417.709 569.27 417.774C529.715 417.894 490.12 417.719 450.57 418.325L450.064 601.602C449.98 631.917 450.695 662.394 449.877 692.686C447.539 699.861 448.847 709.685 448.663 717.204C447.783 753.297 448.639 789.459 448.168 825.562C448.096 831.13 449.553 839.552 447.643 844.694C447.476 855.139 449.358 888.378 446.493 896.662C445.443 897.634 444.499 898.012 443.189 898.496C433.912 901.172 423.982 902.369 414.506 904.317L353.31 916.999Q309.82 926.19 266.176 934.619C251.979 937.332 237.42 940.826 223.039 942.171C209.637 943.424 196.021 942.929 182.577 942.848C171.505 942.782 160.407 943.101 149.342 942.892C144.17 943.502 138.312 942.766 133.012 942.878C120.319 943.146 107.679 942.866 94.9895 942.914C83.6341 942.957 72.4248 943.589 61.1123 942.153C60.6807 938.776 60.5982 935.349 60.436 931.949C60.5136 931.255 60.6865 930.375 60.5983 929.688C60.395 928.103 59.6232 927.884 58.4413 927.035C57.8364 905.512 58.3393 883.857 58.2286 862.313L58.0326 698.359L57.9787 271.278C57.9821 260.26 56.9583 163.566 58.3919 160.718C60.3009 159.655 62.0485 159.384 64.22 159.235C71.4487 158.739 79.1037 159.442 86.3806 159.46L137.996 159.417ZM441.528 120.757C441.502 109.671 441.377 98.5597 441.58 87.4756C441.727 79.4411 443.25 68.8386 441.625 61.1241L440.832 58.2691C439.874 60.0134 439.527 116.541 440.515 120.781L441.176 120.974L441.528 120.757Z"/>
	<path transform="scale(0.773104 0.773104)" d="M441.528 120.757L441.176 120.974L440.515 120.781C439.527 116.541 439.874 60.0134 440.832 58.2691L441.625 61.1241C443.25 68.8386 441.727 79.4411 441.58 87.4756C441.377 98.5597 441.502 109.671 441.528 120.757Z"/>
	<path fill="#586569" transform="scale(0.773104 0.773104)" d="M491.126 414.662Q533.612 414.325 576.099 414.502C590.722 414.486 605.455 413.817 620.06 414.221C608.632 416.98 590.59 416.059 578.596 415.988Q550.171 415.632 521.745 415.895C514.262 415.954 506.616 415.586 499.153 415.994L499.621 415.416C497.042 414.352 493.6 416.041 491.126 414.662Z"/>
	<path fill="#9CB8BE" transform="scale(0.773104 0.773104)" d="M446.578 565.279C446.612 565.116 446.647 564.953 446.678 564.789C447.282 561.564 447.16 558.284 447.255 555.018Q447.433 576.348 447.346 597.679C447.332 604.753 446.634 612.551 447.585 619.509C447.93 644.917 447.535 670.372 447.506 695.786C447.487 711.87 448.16 728.253 447.425 744.307C447.107 748.292 447.901 755.274 445.918 758.61C446.309 733.48 445.968 708.299 445.99 683.164L446.578 565.279Z"/>
	<path fill="#758E95" transform="scale(0.773104 0.773104)" d="M607.744 126.672C611.057 126.659 620.196 129.434 622.828 131.39C618.653 133.077 611.69 127.472 606.738 128.041C593.194 129.598 574.593 134.944 560.881 138.016L465.183 159.59C460.026 160.848 454.134 162.835 448.813 162.391L448.844 161.873C450.691 160.722 452.879 160.173 454.981 159.663C469.707 156.092 484.696 153.268 499.532 150.157Q520.115 145.743 540.619 140.977Q562.242 135.993 583.96 131.447C591.747 129.748 599.807 127.386 607.744 126.672Z"/>
	<path fill="#758E95" transform="scale(0.773104 0.773104)" d="M446.494 415.038C461.378 415.174 476.216 414.425 491.126 414.662C493.6 416.041 497.042 414.352 499.621 415.416L499.153 415.994C482.272 416.204 465.395 415.689 448.519 415.973L447.95 553.031L447.851 596.466C447.834 604.013 448.32 612.012 447.585 619.509C446.634 612.551 447.332 604.753 447.346 597.679Q447.433 576.348 447.255 555.018C447.16 558.284 447.282 561.564 446.678 564.789C446.647 564.953 446.612 565.116 446.578 565.279C445.762 548.834 446.539 532.014 446.539 515.524L446.494 415.038Z"/>
	<path fill="#758E95" transform="scale(0.773104 0.773104)" d="M622.225 133.385L622.819 134.051C624.424 142.593 623.017 152.024 622.88 160.703C622.694 172.563 622.868 184.45 622.893 196.313L623.033 351.306L623.062 385.892C623.088 393.126 623.987 401.89 622.383 408.905L622.174 408.767Q620.97 310.668 621.602 212.566L621.593 164.252C621.549 154.145 620.745 143.375 622.225 133.385Z"/>
	<path fill="#758E95" transform="scale(0.773104 0.773104)" d="M445.918 758.61C447.901 755.274 447.107 748.292 447.425 744.307C447.537 755.106 447.95 765.958 447.873 776.75C447.712 799.391 447.187 822.047 447.643 844.694C447.476 855.139 449.358 888.378 446.493 896.662C445.443 897.634 444.499 898.012 443.189 898.496C433.912 901.172 423.982 902.369 414.506 904.317L353.31 916.999Q309.82 926.19 266.176 934.619C251.979 937.332 237.42 940.826 223.039 942.171C209.637 943.424 196.021 942.929 182.577 942.848C171.505 942.782 160.407 943.101 149.342 942.892L148.524 942.269C151.162 941.806 154.766 942.21 157.476 942.212C166.589 942.22 185.721 943.482 193.786 941.593C203.121 941.478 212.749 942.143 222.032 941.28C235.69 940.01 249.583 936.669 263.037 934.014L340.674 918.11C375.295 911.069 411.474 905.174 445.547 896.401C445.145 883.854 445.633 871.278 445.89 858.736C446.189 844.165 446.182 829.508 446.176 814.929C446.172 806.915 446.232 798.874 445.991 790.864C445.667 780.139 444.824 769.322 445.918 758.61Z"/>
	<path fill="#586569" transform="scale(0.773104 0.773104)" d="M146.784 57.6976L439.967 57.857C439.072 67.6867 439.55 77.8757 439.555 87.7436Q439.772 113.349 439.208 138.95C439.071 145.604 439.737 152.911 438.762 159.474C438.615 160.461 438.439 161.033 437.717 161.76C435.991 162.595 434.382 162.883 432.471 162.958C422.044 163.37 411.511 163.104 401.07 163.11L326.84 162.709L262.438 162.768C250.424 162.803 238.453 163.191 226.443 162.688C235.022 160.199 255.68 161.58 265.666 161.575L332.75 161.527L402.654 161.649C411.651 161.7 428.812 162.844 436.86 161.306C437.789 160.113 437.767 158.995 437.843 157.482C438.114 152.089 437.651 146.573 437.769 141.151Q438.296 100.306 438.031 59.4585L141.979 59.0335Q141.615 88.9106 141.692 118.79C141.754 131.764 143.504 149.865 140.819 162.046C140.227 159.604 139.814 157.242 139.678 154.732C138.788 138.244 139.476 121.406 139.497 104.88C139.515 91.5309 138.808 77.8496 139.548 64.5448C139.633 63.0288 139.624 60.7964 140.605 59.5267C141.946 57.7912 144.81 57.8599 146.784 57.6976Z"/>
	<path fill="#F9E8B6" transform="scale(0.773104 0.773104)" d="M608.932 130.647C612.541 131.268 615.917 132.626 619.3 133.977Q618.901 171.488 619.166 209L618.778 339.088L618.991 386.253C619.101 394.05 620.36 402.537 619.049 410.235C615.667 411.128 612.326 411.42 608.846 411.603C608.068 399.808 608.703 387.777 608.782 375.956L608.902 319.452L608.932 130.647Z"/>
	<path fill="#4B5A5B" transform="scale(0.773104 0.773104)" d="M58.4413 927.035C57.8364 905.512 58.3393 883.857 58.2286 862.313L58.0326 698.359L57.9787 271.278C57.9821 260.26 56.9583 163.566 58.3919 160.718C59.3246 161.235 59.8479 161.39 60.94 161.475C73.5875 162.461 88.7491 161.592 101.617 161.587L189.635 161.413C201.367 161.406 213.541 160.455 225.188 161.932L224.52 162.079C213.296 164.436 200.448 162.813 189.001 162.804C171.432 162.791 153.857 163.177 136.29 163.006C118.202 162.83 100.174 162.675 82.0847 162.943C77.2016 163.015 72.2814 162.762 67.406 162.966C65.725 163.036 64.1569 163.165 62.6255 163.884C60.5806 171.19 61.8966 181.039 61.9386 188.704L61.999 222.832L61.8892 376.77L61.9535 941.465C75.7708 941.87 89.5331 941.494 103.349 941.471L159.899 941.647C171.137 941.656 182.589 940.993 193.786 941.593C185.721 943.482 166.589 942.22 157.476 942.212C154.766 942.21 151.162 941.806 148.524 942.269L149.342 942.892C144.17 943.502 138.312 942.766 133.012 942.878C120.319 943.146 107.679 942.866 94.9895 942.914C83.6341 942.957 72.4248 943.589 61.1123 942.153C60.6807 938.776 60.5982 935.349 60.436 931.949C60.5136 931.255 60.6865 930.375 60.5983 929.688C60.395 928.103 59.6232 927.884 58.4413 927.035Z"/>
	<path fill="#F3F4EC" transform="scale(0.773104 0.773104)" d="M143.991 61.512Q184.202 61.3367 224.412 61.6188L224.489 159.515L144.02 159.487Q143.668 110.499 143.991 61.512Z"/>
	<path transform="scale(0.773104 0.773104)" d="M178.805 78.7236C188.663 78.1559 198.593 78.721 208.416 79.5771C208.642 99.9424 209.777 121.198 207.886 141.474C202.984 141.668 198.041 141.569 193.134 141.595L163.011 142.02L162.672 104.398C162.594 97.7803 161.936 90.7096 162.701 84.1441C162.904 82.3981 162.975 80.9422 164.185 79.6483C168.817 78.5502 174.062 78.8486 178.805 78.7236Z"/>
	<path fill="#F3F4EC" transform="scale(0.773104 0.773104)" d="M174.005 81.7133C184.392 81.0338 195.092 81.7846 205.498 82.1042C205.505 100.852 206.453 119.943 205.399 138.643L197.75 138.725Q181.846 138.758 165.943 138.556C165.678 119.884 165.039 101.042 166.084 82.3932C168.689 81.9935 171.376 81.9052 174.005 81.7133Z"/>
	<path fill="#F3F4EC" transform="scale(0.773104 0.773104)" d="M227.31 61.5143L435.405 61.635Q435.764 110.531 435.403 159.427L227.509 159.488Q226.861 110.503 227.31 61.5143Z"/>
	<path transform="scale(0.773104 0.773104)" d="M246.046 78.5974Q266.275 78.4977 286.497 79.0078L286.676 117.103C286.698 124.933 287.045 132.868 286.359 140.673C285.47 141.788 284.956 141.624 283.625 141.898Q263.221 142.247 242.829 141.442C241.715 130.761 242.493 119.732 242.459 108.998C242.429 99.667 241.359 89.7556 242.746 80.5371C243.721 79.3402 244.631 79.1677 246.046 78.5974Z"/>
	<path fill="#F3F4EC" transform="scale(0.773104 0.773104)" d="M245.618 81.5836C258.214 81.3187 270.916 81.2044 283.498 81.9357C283.623 100.814 284.155 119.872 283.395 138.731C270.86 139.263 258.225 138.887 245.685 138.561Q245.214 110.072 245.618 81.5836Z"/>
	<path transform="scale(0.773104 0.773104)" d="M302.617 78.7571C316.056 78.2979 329.693 78.258 343.075 79.7058C343.94 86.3346 344.238 135.709 342.892 140.855C341.68 141.728 340.685 141.645 339.217 141.815C325.855 142.426 312.31 142.022 298.951 141.477C298.633 130.738 298.868 120.016 298.794 109.278C298.73 99.8995 297.427 88.9921 299.553 79.8483C300.549 78.7997 301.213 78.9524 302.617 78.7571Z"/>
	<path fill="#F3F4EC" transform="scale(0.773104 0.773104)" d="M302.058 81.6046C314.868 81.4429 327.706 81.8035 340.515 82.0314L340.492 138.565C327.697 138.993 314.797 138.595 301.993 138.487Q301.518 110.045 302.058 81.6046Z"/>
	<path transform="scale(0.773104 0.773104)" d="M373.382 75.7171C382.165 75.6128 414.231 74.0387 420.629 76.4238C421.525 78.5458 421.763 80.7842 421.902 83.0644C422.271 89.0747 422.347 137.945 421.302 140.773C420.65 142.54 419.519 142.785 417.97 143.417C410.635 143.467 374.523 144.893 370.511 142.19C367.382 137.572 368.588 85.1672 369.727 77.2316C370.953 76.0523 371.746 76.0748 373.382 75.7171Z"/>
	<path fill="#B1B0AF" transform="scale(0.773104 0.773104)" d="M414.132 78.7466L418.984 78.7303Q419.174 109.62 418.963 140.51L377.702 140.4L372.373 140.3C371.71 132.355 371.999 124.235 371.996 116.266L372.002 79.0129L414.132 78.7466Z"/>
	<path transform="scale(0.773104 0.773104)" d="M384.977 105.251C390.805 105.159 409.937 104.122 413.996 106.849L413.839 107.588C411.534 108.51 408.488 108.307 406.014 108.419C398.573 108.578 391.008 108.94 383.575 108.518C381.785 108.416 379.109 108.378 377.835 106.957L378.281 106.103C380.375 104.964 382.657 105.238 384.977 105.251Z"/>
	<path transform="scale(0.773104 0.773104)" d="M384.326 110.227C392.805 110.024 403.426 108.917 411.747 110.581C413.152 110.862 413.193 110.923 413.966 112.042L413.628 112.805C411.578 113.745 409.099 113.532 406.876 113.586C401.582 113.894 380.73 114.95 377.304 111.938L377.353 111.032C379.575 110.224 381.985 110.316 384.326 110.227Z"/>
	<path fill="#F9E8B6" transform="scale(0.773104 0.773104)" d="M604.507 130.623L604.903 130.725C605.895 131.804 605.803 133.146 605.859 134.536C606.349 146.849 605.699 159.272 605.688 171.598L605.896 246.356C605.972 301.522 607.035 356.849 605.402 411.987C585.567 412.954 565.69 412.307 545.838 412.304L448.516 412.482L447.931 412.241C446.674 410.883 446.876 408.633 446.823 406.89C446.43 394.188 446.934 381.41 446.985 368.697L447.026 301.529L447.001 217.032C446.991 199.949 446.737 182.829 447.195 165.752C454.047 164.884 461.049 162.955 467.794 161.409L502.352 153.475L604.507 130.623Z"/>
	<path transform="scale(0.773104 0.773104)" d="M587.26 150.584C588.351 150.447 588.852 150.402 589.841 150.91C590.857 153.043 590.935 155.217 590.99 157.541C591.524 180.183 590.533 203.024 590.537 225.701L590.606 397.722C574.523 398.544 558.234 398.005 542.124 398.02Q503.498 398.042 464.875 398.518C463.662 398.553 462.901 398.446 461.763 398.025C460.801 396.804 460.959 394.902 460.908 393.4C460.136 370.597 460.985 347.547 460.975 324.711L460.929 178.273C472.925 175.257 485.313 173.192 497.415 170.526L587.26 150.584Z"/>
	<path fill="#F9E8B6" transform="scale(0.773104 0.773104)" d="M586.18 206.157C586.914 206.161 586.482 206.071 587.333 206.807C587.857 210.037 587.579 213.469 587.504 216.738C567.224 221.727 546.69 225.463 526.289 229.902C505.96 234.324 485.636 239.486 465.122 242.937C465.01 242.854 464.885 242.786 464.785 242.688C462.865 240.809 463.715 234.608 463.817 232.143Q503.686 222.959 543.778 214.808C557.892 211.878 571.996 208.721 586.18 206.157Z"/>
	<path fill="#F9E8B6" transform="scale(0.773104 0.773104)" d="M584.839 292.633C585.948 292.568 585.816 292.45 586.874 293.069C588.723 296.85 587.693 303.27 587.497 307.455C572.679 310.713 557.607 313.087 542.666 315.738C517.225 320.253 491.89 324.825 466.656 330.399C465.523 330.395 465.483 330.382 464.577 329.702C462.778 325.812 463.752 319.99 463.973 315.752C479.392 312.431 494.927 309.868 510.421 306.94L584.839 292.633Z"/>
	<path fill="#F9E8B6" transform="scale(0.773104 0.773104)" d="M586.358 154.124L587.181 154.239C589.589 158.017 587.858 195.156 587.734 202.536C568.402 207.137 548.873 210.953 529.446 215.138C508.087 219.738 486.743 224.679 465.299 228.856L464.507 228.716C462.635 226.242 463.9 186.241 463.995 180.774C504.819 172.096 545.43 162.285 586.358 154.124Z"/>
	<path fill="#F9E8B6" transform="scale(0.773104 0.773104)" d="M586.46 220.157L587.201 220.453C589.312 226.315 587.734 278.35 587.589 289.273C546.81 296.373 506.267 304.979 465.529 312.341L464.779 312.117C462.827 306.726 464.043 256.282 464.11 246.324C505.097 238.677 545.427 227.519 586.46 220.157Z"/>
	<path fill="#F9E8B6" transform="scale(0.773104 0.773104)" d="M584.591 311.19C585.491 310.995 586.08 310.996 586.988 311.147C589.154 313.987 587.675 383.707 587.587 394.591Q527.484 395.368 467.375 395.486C466.421 395.527 465.744 395.48 464.827 395.21C462.767 390.305 463.97 342.938 464 333.745C491.958 328.766 519.871 323.058 547.795 317.821C560.013 315.53 572.275 312.846 584.591 311.19Z"/>
	<path fill="#F9E8B6" transform="scale(0.773104 0.773104)" d="M63.956 165.423C80.963 164.48 101.095 165.384 118.399 165.421L224.97 165.601L224.874 724.715L224.659 875.158Q224.604 893.907 224.803 912.655C224.899 921.359 225.654 930.726 224.298 939.332C218.126 939.801 211.713 939.528 205.517 939.516L171.537 939.442L64.5473 939.485C63.6678 915.27 64.0302 891.046 63.9781 866.819L63.8753 742.311L63.5192 406.818L63.5178 238.184L63.6436 190.746C63.6386 182.501 62.7597 173.577 63.956 165.423Z"/>
	<path transform="scale(0.773104 0.773104)" d="M134.364 180.741Q171.846 181.049 209.325 180.496L208.469 918.099C192.707 920.434 173.311 918.565 157.194 918.507Q133.531 918.585 109.869 918.906C100.271 919.004 90.6044 919.368 81.023 918.712C81.758 909.399 81.513 899.982 81.5154 890.646L81.5095 849.349L81.5034 719.717L81.5113 360.786L81.4327 249.033C81.3712 226.305 80.8113 203.646 81.4859 180.918Q107.927 181.353 134.364 180.741Z"/>
	<path fill="#F9E8B6" transform="scale(0.773104 0.773104)" d="M84.0287 183.583L206.497 183.515L205.495 915.894Q144.757 915.363 84.0195 916L84.0287 183.583Z"/>
	<path fill="#F9E8B6" transform="scale(0.773104 0.773104)" d="M227.522 165.518C299.697 164.717 371.97 165.354 444.151 165.628C443.44 211.103 443.961 256.663 443.937 302.147L443.847 590.335L443.326 786.556C443.234 822.383 442.096 858.542 443.516 894.318C431.662 897.555 419.156 899.512 407.107 902.003L313.487 920.989C284.881 926.783 256.292 932.933 227.532 937.912L227.522 165.518Z"/>
	<path transform="scale(0.773104 0.773104)" d="M426.042 581.182C427.054 580.974 427.965 580.959 428.997 580.971C430.544 583.809 429.936 590.669 429.992 594.09C430.733 639.048 429.978 684.134 429.936 729.108Q430.419 802.654 429.845 876.2C408.567 881.088 386.981 885.064 365.591 889.462L246.686 913.88C245.489 914.047 245.265 914.099 244.167 913.632C242.75 911.279 243.152 899.779 243.109 896.5C242.865 877.697 243.415 858.887 243.44 840.083L243.508 684.389C243.562 657.316 244.137 630.276 243.795 603.2L345.52 591.06C372.38 587.859 399.27 585.095 426.042 581.182Z"/>
	<defs>
		<linearGradient id="gradient_1" gradientUnits="userSpaceOnUse" x1="344.45694" y1="680.64655" x2="328.33572" y2="591.70978">
			<stop offset="0" stop-color="#FCE5AB"/>
			<stop offset="1" stop-color="white"/>
		</linearGradient>
	</defs>
	<path fill="url(#gradient_1)" transform="scale(0.773104 0.773104)" d="M423.22 584.699C424.315 584.533 425.03 584.333 426.057 584.827C428.017 589.036 426.913 656.143 426.892 666.853C419.134 668.426 411.088 669.034 403.227 669.885Q387.195 671.614 371.197 673.636L250.617 688.384C249.291 688.53 248.334 688.612 247.009 688.334C245.787 684.893 246.676 614.848 247.353 605.665C266.083 604.292 285.044 601.219 303.713 598.978L423.22 584.699Z"/>
	<path transform="scale(0.773104 0.773104)" d="M415.426 596.684C415.566 596.746 415.716 596.79 415.846 596.872C416.843 597.5 417.461 597.972 417.556 599.217C417.796 602.373 413.726 606.718 411.944 609.09C411.371 625.499 411.25 641.94 410.869 658.356L318.606 669.363L285.959 673.165C279.961 673.845 273.841 674.785 267.81 675.036C265.84 675.118 263.955 675.441 262.431 674.043C259.791 666.608 261.293 644.957 261.476 636.037L261.517 625.484C259.963 624.148 257.253 622.064 256.9 620.009C262.315 619.45 271.585 629.473 283.23 628.479C295.688 627.416 303.489 617.254 310.759 608.308C313.444 611.733 316.07 615.12 319.42 617.927C324.436 622.131 330.672 624.629 337.285 623.9C350.142 622.482 356.64 612.126 363.843 602.846C367.922 607.688 371.837 612.237 377.658 615.014Q378.197 615.277 378.748 615.513Q379.3 615.749 379.862 615.957Q380.425 616.166 380.997 616.345Q381.57 616.525 382.15 616.676Q382.731 616.826 383.318 616.948Q383.906 617.069 384.498 617.161Q385.091 617.253 385.688 617.315Q386.284 617.377 386.883 617.409Q387.482 617.441 388.082 617.443Q388.682 617.446 389.281 617.418Q389.88 617.39 390.477 617.332Q391.075 617.274 391.668 617.186Q392.261 617.098 392.849 616.981Q393.438 616.863 394.019 616.716Q394.601 616.57 395.174 616.394Q395.748 616.218 396.312 616.014C405.622 612.707 411.279 605.279 415.426 596.684Z"/>
	<path fill="#F3F4EC" transform="scale(0.773104 0.773104)" d="M363.995 607.957C368.729 613.332 374.719 618.035 381.821 619.673C392.217 622.07 400.514 617.677 408.923 612.261C407.88 626.692 408.105 641.378 407.928 655.845L298.081 668.874C287.05 670.445 275.624 672.143 264.499 672.619L264.527 626.791C269.852 629.802 275.293 631.833 281.531 631.53C294.115 630.918 302.839 622.35 310.69 613.464C312.67 615.793 314.67 618.082 317.015 620.056C322.813 624.938 330.153 627.44 337.753 626.575C349.526 625.236 357 616.599 363.995 607.957Z"/>
	<path fill="#F9E8B6" transform="scale(0.773104 0.773104)" d="M423.779 670.202C424.707 669.998 425.257 669.981 426.187 670.18C428.398 673.106 426.847 740.718 426.738 751.429C418.931 753.012 410.833 753.875 402.949 755.055L356.136 762.15C320.829 767.609 285.561 773.968 250.117 778.423C248.998 778.554 248.273 778.567 247.186 778.26C245.461 770.966 246.452 758.427 246.443 750.689L246.554 691.636Q296.14 686.15 345.607 679.681L423.779 670.202Z"/>
	<path transform="scale(0.773104 0.773104)" d="M407.165 687.241C407.635 687.24 408.292 687.555 408.743 687.707C411.071 692.541 409.568 733.245 409.478 742.32C403.935 743.717 397.91 744.161 392.251 745.001L356.419 750.281C325.526 754.804 294.548 760.096 263.548 763.734C262.402 763.734 262.952 763.873 261.909 763.276C259.3 756.45 261.175 715.805 261.516 705.68C277.192 704.972 293.207 701.857 308.764 699.709C341.487 695.19 374.267 690.29 407.165 687.241Z"/>
	<path fill="#F3F4EC" transform="scale(0.773104 0.773104)" d="M401.868 690.691C403.322 690.357 405.114 690.383 406.613 690.247C407.712 706.612 406.652 723.605 406.498 740.023L270.389 759.989C268.316 760.334 266.205 760.517 264.116 760.756C263.534 743.428 264.042 725.967 264.12 708.626C280.986 706.979 297.766 704.086 314.558 701.812Q358.168 695.897 401.868 690.691Z"/>
	<path fill="#F9E8B6" transform="scale(0.773104 0.773104)" d="M422.818 755.189C424.297 755.029 424.981 754.732 426.306 755.463C426.695 756.138 426.928 756.705 426.973 757.494C427.713 770.504 426.719 783.828 426.627 796.866L426.609 873.699Q387.788 881.145 349.14 889.446L251.881 909.833C250.142 910.215 248.407 910.766 246.76 909.992C246.051 905.331 246.439 900.272 246.442 895.557L246.454 871.164L246.501 782.179C276.869 776.721 307.653 772.672 338.163 767.961C366.308 763.615 394.534 758.475 422.818 755.189Z"/>
	<path transform="scale(0.773104 0.773104)" d="M402.927 776.682C404.108 776.595 404.301 776.603 405.357 777.127C407.891 781.466 405.929 850.776 405.744 861.678C392.488 865.08 378.563 867.063 365.13 869.833L270.063 889.788C268.705 889.627 268.505 889.605 267.446 888.758C265.052 882.884 266.567 811.641 266.564 799.476C280.715 795.883 297.007 794.269 311.575 791.857L402.927 776.682Z"/>
	<path fill="#F9E8B6" transform="scale(0.773104 0.773104)" d="M400.821 780.207L402.206 780.302C403.042 781.198 403.378 781.704 403.439 782.965C403.771 789.741 403.156 796.859 403.151 803.688L402.994 859.286C383.391 862.27 363.811 867.123 344.403 871.203C320.308 876.269 296.12 880.826 272.138 886.418L270.801 886.362C269.94 885.358 269.725 884.611 269.601 883.285C268.813 874.838 269.347 865.761 269.335 857.239L269.556 801.727C279.617 800.41 289.695 798.363 299.706 796.674C333.269 791.012 367.039 784.332 400.821 780.207Z"/>
	<path transform="scale(0.773104 0.773104)" d="M242.912 180.49L430.55 180.434C431.297 200.543 430.767 220.722 430.703 240.842L430.51 340.791L430.604 478.697Q431.019 518.989 430.519 559.28C424.956 559.358 419.409 560.057 413.879 560.625Q355.812 567.411 297.622 573.035C279.517 574.859 260.972 578.408 242.793 578.588C242.196 568.296 242.549 557.897 242.55 547.588L242.537 493.68L242.524 325.73L242.608 226.523L242.497 199.309C242.46 193.101 242.1 186.652 242.912 180.49Z"/>
	<path fill="#86C671" transform="scale(0.773104 0.773104)" d="M367.118 341.441C368.579 341.514 369.865 341.411 371.054 342.384L371.04 343.271C369.647 344.403 368.198 344.828 366.407 344.669C365.021 344.547 363.901 343.925 362.752 343.174C363.365 343.145 364.147 343.162 364.758 343.027C366.149 342.721 366.301 342.526 367.118 341.441Z"/>
	<path fill="#F3F4EC" transform="scale(0.773104 0.773104)" d="M334.04 389.21C335.596 390.36 338.15 391.9 338.771 393.723L337.624 394.023C336.032 394.16 333.97 394.603 332.533 393.85C332.278 392.322 333.391 390.586 334.04 389.21Z"/>
	<path fill="#ACCCA8" transform="scale(0.773104 0.773104)" d="M308.464 345.297C310.464 346.561 312.462 346.085 314.391 347.127C313.732 348.139 313.017 348.05 311.892 348.349C309.591 348.789 307.661 349.192 305.305 348.845L304.866 348.174C305.732 346.725 307.051 346.117 308.464 345.297Z"/>
	<path fill="#86C671" transform="scale(0.773104 0.773104)" d="M351.637 346.8C356.136 346.836 355.235 342.6 358.504 341.555L359.414 343.049C356.53 346.956 353.505 349.149 349.453 351.726C350.158 350.113 350.782 348.33 351.637 346.8Z"/>
	<path fill="#86C671" transform="scale(0.773104 0.773104)" d="M344.626 337.257C347.546 337.566 350.381 337.709 352.428 339.999C352.922 341.717 352.639 342.209 352.169 343.893C351.633 344.169 351.133 344.202 350.542 344.295C349.467 343.953 348.439 343.664 347.553 342.936C345.567 341.306 344.857 339.786 344.626 337.257Z"/>
	<path fill="#F9E8B6" transform="scale(0.773104 0.773104)" d="M272.389 467.911C272.405 467.749 272.426 467.587 272.437 467.425C272.745 462.625 268.145 457.174 271.833 452.928L272.942 452.724C274.191 453.589 274.821 454.318 275.096 455.859C275.749 459.524 273.788 464.674 273.363 468.471L272.389 467.911Z"/>
	<path fill="#B1B0AF" transform="scale(0.773104 0.773104)" d="M335.867 194.201C338.149 194.002 340.883 193.649 342.935 194.832C344.097 195.501 344.579 195.988 344.944 197.257L344.304 198.258C342.762 199.33 340.93 199.175 339.124 199.237C337.617 199.407 335.375 199.532 333.941 199.011C332.297 198.414 331.23 197.694 330.525 196.124L331.029 195.159C332.503 194.116 334.134 194.263 335.867 194.201Z"/>
	<path fill="#F3F4EC" transform="scale(0.773104 0.773104)" d="M310.521 448.538C312.903 448.495 315.274 448.257 317.654 448.161C319.288 448.095 320.107 448.306 321.344 449.463C322.218 451.386 321.669 453.4 321.393 455.425C319.05 455.524 316.636 455.998 314.298 455.929C313.095 455.894 312.03 455.507 311.27 454.527C310.2 453.149 310.524 450.209 310.521 448.538Z"/>
	<path fill="#ACCCA8" transform="scale(0.773104 0.773104)" d="M351.637 346.8C353.836 342.868 354.512 337.655 357.395 334.392C358.862 334.2 358.558 336.448 359.959 337.336C361.249 336.772 362.309 336.366 363.709 336.115L363.651 337.801C365.292 337.815 367.054 334.152 368.947 333.381C369.706 333.072 369.99 333.42 370.679 333.722C370.28 336.274 367.084 338.305 367.087 340.761C367.088 340.988 367.108 341.214 367.118 341.441C366.301 342.526 366.149 342.721 364.758 343.027C364.147 343.162 363.365 343.145 362.752 343.174C361.685 343.012 360.498 343.08 359.414 343.049L358.504 341.555C355.235 342.6 356.136 346.836 351.637 346.8Z"/>
	<path fill="#F69F7F" transform="scale(0.773104 0.773104)" d="M356.794 449.72L366.421 449.494L366.444 455.973C362.547 456.33 358.624 456.419 354.715 456.566C351.471 457.012 348.159 457.029 344.888 457.149L344.7 450.614C348.646 449.893 352.788 449.904 356.794 449.72Z"/>
	<path fill="#ACCCA8" transform="scale(0.773104 0.773104)" d="M294.731 341.087C297.094 343.381 299.44 345.416 300.471 348.646C300.143 350.097 299.72 350.328 298.684 351.35L298.744 351.898C300.697 351.857 301.672 350.51 303.573 350.109C303.646 351.631 302.406 351.6 302.416 352.923C304.673 353.039 308.15 350.45 310.361 349.608C312.064 348.958 313.949 348.629 315.73 348.252C314.154 349.814 312.444 351.261 310.815 352.771L311.524 353.54L311.452 354.085C310.552 354.107 310.104 354.292 309.319 354.725L309.141 355.684C310.308 358.025 313.412 359.992 315.46 361.676C310.512 359.747 306.205 357.352 302.282 353.756C301.416 356.212 300.79 358.719 300.139 361.238C296.322 357.618 290.1 356.026 287.482 351.333L287.666 350.752C288.69 350.83 289.68 350.868 290.706 350.843C289.848 349.059 287.088 348.756 286.039 346.779L286.71 346.841L286.06 346.98C288.036 346.819 291.252 349.71 292.92 350.867L293.179 342.32C294.137 345.477 294.966 347.788 297.167 350.276C296.262 347.244 295.521 344.152 294.731 341.087Z"/>
	<path fill="#ACCCA8" transform="scale(0.773104 0.773104)" d="M354.167 490.082C357.02 489.775 359.961 489.808 362.732 490.613C367.373 491.96 371.449 494.942 373.734 499.254C375.382 502.363 376.025 506.088 374.934 509.491C373.252 514.74 368.945 517.025 364.349 519.298C359.896 519.978 355.528 520.52 351.527 517.913C345.641 514.078 344.461 504.884 343.097 498.487C346.304 494.562 349.584 492.127 354.167 490.082Z"/>
	<path fill="#F3F4EC" transform="scale(0.773104 0.773104)" d="M358.051 496.044C359.427 495.975 360.885 495.952 362.252 496.124C365.091 496.482 368.19 498.123 369.822 500.517C370.9 502.099 371.253 503.983 370.777 505.841C369.936 509.13 367.223 510.708 364.487 512.297C362.521 512.532 360.541 512.754 358.618 512.144C356.123 511.352 353.877 509.543 352.679 507.201C351.703 505.295 351.463 503.067 352.242 501.047C353.315 498.263 355.463 497.18 358.051 496.044Z"/>
	<path fill="#F9E8B6" transform="scale(0.773104 0.773104)" d="M375.117 528.702C377.182 528.401 379.412 528.459 381.504 528.362C381.81 539.352 380.327 550.436 379.391 561.378L353.12 564.342L346.858 564.984C347.704 553.422 348.871 542.189 349.006 530.56Q362.069 529.743 375.117 528.702Z"/>
	<path fill="#F69F7F" transform="scale(0.773104 0.773104)" d="M362.339 459.224L363.696 459.259C363.801 459.369 363.924 459.466 364.011 459.591C365.455 461.681 364.527 465.839 366.124 468.562C368.51 472.629 372.207 475.867 374.521 480.001C381.913 493.212 382.257 510.094 381.766 524.875C370.71 526.133 359.675 526.854 348.562 527.385L348.184 519.96Q349.219 520.373 350.265 520.759C357.3 523.348 363.273 523.143 370.014 520.022C370.238 519.878 370.465 519.738 370.688 519.591C374.484 517.087 377.381 513.371 378.154 508.815C378.999 503.834 377.266 498.383 374.173 494.46C370.696 490.05 364.768 487.198 359.214 486.757C351.959 486.183 346.684 490.327 341.49 494.726C338.958 490.516 336.768 486.059 334.47 481.716C341.77 475.052 346.337 470.111 348.201 460.112C352.878 459.558 357.636 459.459 362.339 459.224Z"/>
	<path fill="#ACCCA8" transform="scale(0.773104 0.773104)" d="M333.644 201.776C336.593 201.617 339.562 201.593 342.515 201.51C342.708 205.287 342.889 208.966 344.11 212.588C345.958 218.071 349.311 222.845 350.25 228.662C352.202 240.76 349.673 261.395 349.427 274.502L342.75 274.497L327.404 274.485C326.205 263.071 324.532 237.961 326.868 227.077C328.128 221.204 332.217 216.661 333.305 210.931C333.859 208.012 333.634 204.744 333.644 201.776Z"/>
	<path fill="#F69F7F" transform="scale(0.773104 0.773104)" d="M377.251 214.629C381.274 214.441 385.285 214.046 389.193 215.256C392.61 216.315 395.364 218.515 396.948 221.744C401.197 230.403 396.638 244.47 395.444 253.509C394.555 260.24 394.778 267.075 392.657 273.587C391.422 274.703 390.751 274.442 389.125 274.501L369.67 274.49C367.836 264.81 363.818 229.078 368.039 220.566C369.766 217.086 373.85 215.836 377.251 214.629Z"/>
	<path fill="#F69F7F" transform="scale(0.773104 0.773104)" d="M286.977 215.228C290.716 215.133 297.385 214.336 300.248 216.945C301.151 219.337 301.367 221.686 301.447 224.218C301.739 233.489 300.597 242.951 300.224 252.223C299.957 258.867 301.28 267.2 299.38 273.541C296.908 275.451 288.381 274.474 285.082 274.43L270.972 274.498C270.661 268.251 268.546 220.388 270.964 217.581C273.507 214.627 283.203 215.313 286.977 215.228Z"/>
	<path fill="#F9E8B6" transform="scale(0.773104 0.773104)" d="M313.81 458.767C315.532 458.585 317.031 458.476 318.751 458.709C320.643 461.041 320.847 465.491 322.226 468.294C324.66 473.241 328.358 477.908 331.256 482.627C337.823 493.321 341.134 503.64 343.913 515.751Q331.633 518.205 319.124 518.809Q315.701 519.083 312.268 519.069Q308.834 519.055 305.414 518.752Q301.993 518.45 298.61 517.862Q295.228 517.273 291.906 516.403C287.395 498.187 300.781 489.423 308.025 474.924C309.516 471.94 310.722 468.692 311.191 465.377C311.411 463.819 311.372 461.845 311.933 460.385C312.346 459.311 312.837 459.249 313.81 458.767Z"/>
	<path fill="#F69F7F" transform="scale(0.773104 0.773104)" d="M285.164 355.622C286.382 355.631 288.548 355.974 289.522 356.705C290.951 357.779 288.912 361.63 289.069 363.48L289.636 363.913C290.416 363.216 290.707 362.892 291.739 362.611L291.983 363.466C292.423 364.961 292.821 366.207 294.224 366.972C295.187 365.091 294.737 362.763 295.578 360.806C295.938 359.968 296.052 360.123 296.842 359.802C297.506 360.64 297.425 360.322 297.613 361.234C297.883 362.547 298.008 363.678 298.556 364.928C300.063 364.069 300.799 361.54 302.133 360.159C302.894 360.248 303.476 360.39 304.213 360.639C304.471 360.727 304.727 360.822 304.984 360.914C306.116 360.438 307.093 359.846 308.341 360.204C309.983 361.506 311.299 363.254 312.977 364.435C319.829 369.26 328.184 371.553 330.864 380.684C332.344 385.727 330.657 390.074 328.292 394.47L323.618 394.882Q296.112 397.013 268.528 397.499C265.9 393.273 263.64 388.877 262.7 383.946C261.53 377.81 262.404 371.181 265.99 365.967C270.565 359.316 277.68 357.115 285.164 355.622Z"/>
	<path fill="#ACCCA8" transform="scale(0.773104 0.773104)" d="M270.954 572.682C267.949 570.266 265.316 567.524 263.193 564.3C250.807 545.489 256.522 515.201 263.106 495.141C265.074 489.146 268.605 483.733 270.587 477.74C271.618 474.622 271.747 471.137 272.389 467.911L273.363 468.471C274.021 476.337 278.963 483.878 281.666 491.245C286.03 503.142 289.357 515.895 290.593 528.502C291.631 539.094 291.632 552.057 286.07 561.535C283.942 565.162 280.927 568.456 278.263 571.706L270.954 572.682Z"/>
	<path transform="scale(0.773104 0.773104)" d="M273.071 490.77C273.248 490.906 273.444 491.02 273.603 491.178C274.87 492.44 274.98 496.483 275.129 498.277C275.748 505.712 275.438 513.234 275.734 520.691C276.31 535.211 277.211 549.767 277.371 564.295C276.572 563.888 275.964 563.429 275.279 562.852C273.199 551.499 270.852 501.195 273.071 490.77Z"/>
	<path fill="#F69F7F" transform="scale(0.773104 0.773104)" d="M342.918 518.663L343.747 518.684C344.12 518.994 344.175 518.998 344.472 519.479C348.555 526.091 345.173 556.56 343.399 565.407C323.915 568.866 303.778 569.89 284.074 571.52C283.536 571.038 283.471 571.18 283.687 570.261C284.256 567.844 290.143 560.809 291.549 556.904C295.754 545.228 294.254 531.708 292.766 519.679C309.618 523.033 326.146 521.615 342.918 518.663Z"/>
	<path fill="#F69F7F" transform="scale(0.773104 0.773104)" d="M381.184 343.544L382.641 343.754C384.883 346.78 387.472 348.395 390.188 350.866C394.87 355.125 397.932 361.049 398.042 367.436Q398.055 368.015 398.039 368.595Q398.023 369.174 397.977 369.752Q397.931 370.33 397.856 370.904Q397.781 371.479 397.677 372.049Q397.573 372.619 397.44 373.183Q397.307 373.748 397.145 374.304Q396.984 374.861 396.794 375.409Q396.605 375.956 396.388 376.494Q396.17 377.031 395.926 377.557Q395.682 378.082 395.412 378.595Q395.141 379.107 394.845 379.606Q394.548 380.104 394.227 380.586Q393.906 381.069 393.561 381.534Q393.216 382 392.847 382.447Q392.479 382.894 392.088 383.322Q391.697 383.75 391.285 384.158C379.787 395.659 360.449 393.735 345.553 393.86C341.627 391.65 338.307 388.979 335.072 385.858C334.572 384.243 334.329 382.516 334.005 380.856C331.881 373.682 326.8 369.266 321.54 364.37C323.205 359.849 325.144 355.105 328.628 351.665C332.321 348.018 340.69 345.115 345.904 345.521C347.089 345.613 347.569 345.817 348.322 346.76C348.358 350.009 346.317 354.336 345.487 357.589C346.595 356.482 347.87 354.711 349.397 354.478C349.754 355.24 350.123 355.973 350.543 356.702C351.592 356.088 352.22 353.413 352.836 352.189C353.791 351.319 354.389 351.169 355.622 350.989C359.732 350.389 358.235 348.502 360.803 346.222C367.134 348.927 374.862 345.347 381.184 343.544Z"/>
	<path fill="#F9E8B6" transform="scale(0.773104 0.773104)" d="M420.794 277.285L427.506 277.004L427.498 294.5Q339.981 295.286 252.463 294.582L245.5 294.55L245.497 277.447C303.914 276.678 362.368 278.16 420.794 277.285Z"/>
	<path fill="#F9E8B6" transform="scale(0.773104 0.773104)" d="M413.863 394.288C418.349 394.037 422.791 393.833 427.288 393.888C427.821 399.637 427.62 405.379 427.497 411.141C409.359 412.529 391.037 413.018 372.861 413.97L258.624 419.947C254.312 420.219 250.029 420.418 245.709 420.449C244.952 414.157 245.302 407.849 245.494 401.534L413.863 394.288Z"/>
	<path fill="#F9E8B6" transform="scale(0.773104 0.773104)" d="M399.847 183.259Q413.885 183.005 427.923 183.305Q427.323 228.649 427.504 273.994L395.934 274.488Q397.585 260.993 399.57 247.542C400.402 241.613 401.559 235.478 401.473 229.485C401.401 224.464 399.998 219.458 396.224 215.944C392.259 212.251 386.918 211.349 381.678 211.474C376.489 211.597 371.114 212.822 367.5 216.818C365.21 219.351 364.025 222.595 363.556 225.938C362.61 232.675 363.737 240 364.302 246.741L366.613 274.504L351.93 274.484C352.598 259.186 355.101 243.206 353.376 227.932C352.509 220.249 346.192 214.615 345.73 206.79C345.439 201.874 347.566 197.166 347.737 192.207L347.758 191.444L328.212 191.573L328.162 199.09L331.11 202.397C330.734 215.186 323.656 219.147 323.284 230.125Q323.342 252.328 324.448 274.504L302.869 274.482C303.12 264.008 303.237 253.511 303.652 243.043C303.921 236.24 304.744 229.183 304.343 222.388C304.21 220.151 303.931 216.406 302.319 214.709C300.62 212.922 297.183 212.545 294.877 212.38C289 211.962 273.238 211.149 268.913 215.328C267.3 216.886 267.08 220.195 266.889 222.289C266.362 228.052 267.157 234.203 267.315 239.998L268.064 274.512Q256.789 274.514 245.518 274.193L245.511 183.511L399.847 183.259Z"/>
	<path fill="#F9E8B6" transform="scale(0.773104 0.773104)" d="M245.49 297.917L427.503 297.516L427.477 390.42C413.276 391.164 398.685 390.856 384.578 392.457C392.52 387.454 398.806 381.975 400.879 372.26Q401.004 371.68 401.101 371.095Q401.197 370.509 401.263 369.92Q401.33 369.331 401.366 368.739Q401.403 368.146 401.41 367.553Q401.417 366.96 401.394 366.367Q401.371 365.775 401.318 365.184Q401.265 364.593 401.183 364.006Q401.1 363.418 400.988 362.836Q400.876 362.253 400.735 361.677Q400.593 361.101 400.423 360.532Q400.253 359.964 400.055 359.405Q399.856 358.846 399.63 358.298Q399.404 357.75 399.15 357.213Q398.896 356.677 398.616 356.154Q398.335 355.632 398.029 355.124Q397.723 354.616 397.391 354.124C394.193 349.294 388.642 346.816 386.156 342.527C385.353 341.143 384.756 340.544 383.136 340.169C380.369 339.53 375.941 341.579 373.359 342.58L369.761 338.992C371.284 337.473 373.335 335.934 373.227 333.586C373.186 332.686 372.793 332.512 372.234 331.874C369.769 331.047 368.041 331.218 365.71 332.385Q364.567 332.968 363.465 333.626C362.292 332.556 360.906 330.904 359.201 330.947C356.746 331.01 355.196 333.47 353.79 335.187L352.725 336.499C350.296 335.614 347.992 334.736 345.406 335.455C342.802 337.289 342.727 340.361 342.22 343.263C334.903 344.076 329.354 345.666 324.578 351.726C322.476 354.395 320.779 357.518 319.381 360.607C316.832 358.235 314.322 356.061 311.452 354.085L311.524 353.54C313.703 352.603 316.696 351.05 317.546 348.64C317.889 347.666 317.829 346.645 317.262 345.763C316.256 344.2 314.086 343.698 312.362 343.628C308.846 343.484 306 345.219 303.062 346.929C300.868 344.484 297.297 339.38 293.971 339.051C292.792 339.558 292.345 339.733 291.696 340.937C290.965 342.294 290.803 344.843 290.515 346.374C288.725 345.457 287.123 344.423 285.049 344.512C284.352 344.967 283.959 344.966 283.78 345.847C283.29 348.268 284.879 350.696 285.947 352.774C277.621 353.727 270.142 355.635 264.62 362.491C260.139 368.055 258.47 375.293 259.365 382.315C260.052 387.704 262.227 392.557 264.523 397.427C258.193 398.058 251.879 398.596 245.509 398.553L245.49 297.917Z"/>
	<path fill="#F9E8B6" transform="scale(0.773104 0.773104)" d="M420.423 414.282L427.48 414.004L427.504 555.848C412.585 558.312 397.441 559.752 382.391 561.182C384.411 537.543 389.109 501.377 378.404 479.793C376.164 475.276 372.211 471.938 369.6 467.699C366.627 462.87 368.134 460.085 369.229 454.978C369.753 452.529 370.026 450.043 368.63 447.831C363.744 445.44 354.492 446.434 349.207 446.989C346.929 447.229 343.57 447.332 342.199 449.37C338.942 454.21 344.741 459.772 344.779 464.178C344.821 469.031 335.954 475.879 332.636 478.732C328.784 472.875 325.078 467.157 322.33 460.674C324.623 455.794 324.907 450.854 325.058 445.555C319.377 445.304 313.722 445.405 308.04 445.511C307.741 451.776 309.193 458.156 308.363 464.373C307.028 474.36 298.728 482.835 293.697 491.202C291.56 494.757 290.024 498.533 288.492 502.378C286.465 496.893 284.707 491.336 282.489 485.918C280.238 481.069 277.185 475.663 276.523 470.319C275.893 465.231 280.546 454.667 277.549 450.69C276.795 449.689 275.56 449.292 274.372 449.156C272.708 448.965 270.772 449.817 269.515 450.856C264.136 455.309 270.541 464.935 268.664 473.447C267.414 479.118 264.246 484.885 262.107 490.316Q260.546 494.272 259.266 498.328Q257.987 502.384 256.994 506.52Q256.001 510.655 255.301 514.85Q254.6 519.045 254.195 523.279C252.279 542.232 254.094 558.25 266.392 573.295C259.474 574.354 252.589 575.352 245.589 575.65L245.483 423.59C263.699 423.239 281.95 421.866 300.14 420.844Q360.256 417.104 420.423 414.282Z"/>
</svg>
